<?xml version="1.0" encoding="utf-8" standalone="yes"?>
<!DOCTYPE svg PUBLIC "-//W3C//DTD SVG 1.1//EN" "http://www.w3.org/Graphics/SVG/1.1/DTD/svg11.dtd">
<svg width="720" height="516" viewBox="0 0 720 516" style="fill:none;stroke:none;fill-rule:evenodd;clip-rule:evenodd;stroke-linecap:round;stroke-linejoin:round;stroke-miterlimit:1.5;" version="1.1" xmlns="http://www.w3.org/2000/svg" xmlns:xlink="http://www.w3.org/1999/xlink"><style class="text-font-style fontImports" data-font-family="Shantell Sans">@import url('https://fonts.googleapis.com/css2?family=Shantell+Sans:wght@300..800&amp;display=block');</style><g id="items" style="isolation: isolate"><g id="blend" style="mix-blend-mode: normal"><g id="g-root-cp_6_g-6_dhbi471gs8lxc-fill" data-item-order="-282230" transform="translate(318.71099853515625, 389)"><g id="cp_6_g-6_dhbi471gs8lxc-fill" stroke="none" fill="#ffffff"><g><path d="M 348.6355 10L 33.9439 10L 10 52L 372.5795 52L 348.6355 10Z"></path></g></g></g><g id="g-root-cp_5_g-5_6hgtz1gs8kci-fill" data-item-order="-282226" transform="translate(349.4959716796875, 335)"><g id="cp_5_g-5_6hgtz1gs8kci-fill" stroke="none" fill="#ffffff"><g><path d="M 287.0654 10L 33.9439 10L 10 52L 311.0094 52L 287.0654 10Z"></path></g></g></g><g id="g-root-cp_4_g-4_1qbyik71gs8ky4-fill" data-item-order="-282222" transform="translate(380.281005859375, 281)"><g id="cp_4_g-4_1qbyik71gs8ky4-fill" stroke="none" fill="#ffffff"><g><path d="M 225.4953 10L 33.9439 10L 10 52L 249.4393 52L 225.4953 10Z"></path></g></g></g><g id="g-root-cp_3_g-3_1d14h9z1gs8jda-fill" data-item-order="-282218" transform="translate(411.0660400390625, 227)"><g id="cp_3_g-3_1d14h9z1gs8jda-fill" stroke="none" fill="#ffffff"><g><path d="M 163.9252 10L 33.9439 10L 10 52L 187.8691 52L 163.9252 10Z"></path></g></g></g><g id="g-root-cp_2_g-2_18laz5j1gs8k5k-fill" data-item-order="-282214" transform="translate(441.8499755859375, 173)"><g id="cp_2_g-2_18laz5j1gs8k5k-fill" stroke="none" fill="#ffffff"><g><path d="M 102.3551 10L 33.9439 10L 10 52L 126.2991 52L 102.3551 10Z"></path></g></g></g><g id="g-root-cp_1_g-1_v9ugs71gs8lqi-fill" data-item-order="-282210" transform="translate(472.636962890625, 113)"><g id="cp_1_g-1_v9ugs71gs8lqi-fill" stroke="none" fill="#ffffff"><g><path d="M 64.7289 58L 37.3645 10L 10 58L 64.7289 58Z"></path></g></g></g><g id="g-root-sy_-1_Line_dj6xdj1gs8kxw-fill" data-item-order="-282129" transform="translate(284, 407)"></g><g id="g-root-sy_-1_Line_1_4njx4n1gs8lql-fill" data-item-order="-282125" transform="translate(284, 353)"></g><g id="g-root-sy_-1_Line_2_8cw3b1gs8jd2-fill" data-item-order="-282121" transform="translate(284, 299)"></g><g id="g-root-sy_-1_Line_3_8cw3b1gs8jd3-fill" data-item-order="-282117" transform="translate(284, 245)"></g><g id="g-root-sy_-1_Line_4_1utnfxz1gs8jy8-fill" data-item-order="-282113" transform="translate(284, 191)"></g><g id="g-root-sy_-1_Line_5_1ly0fp31gs8kqx-fill" data-item-order="-282109" transform="translate(284, 137)"></g><g id="g-root-ic_bag_8wi7av1gsbev5-fill" data-item-order="0" transform="translate(242, 230)"></g><g id="g-root-tx_assistnc_4hb69j1gs9ybr-fill" data-item-order="0" transform="translate(98, 218)"><g id="tx_assistnc_4hb69j1gs9ybr-fill" stroke="none" fill="#0284c7"><g><text style="font: bold 11.7px &quot;Shantell Sans&quot;, cursive; white-space: pre;" font-weight="bold" font-size="11.7px" font-family="'Shantell Sans', cursive"><tspan x="14.36" y="30" dominant-baseline="ideographic">Assistência Proativa</tspan></text></g></g></g><g id="g-root-tx_ajudaros_1lr57qv1gsa0hs-fill" data-item-order="0" transform="translate(74, 248)"><g id="tx_ajudaros_1lr57qv1gsa0hs-fill" stroke="none" fill="#0284c7"><g><text style="font: 10px &quot;Shantell Sans&quot;, cursive; white-space: pre;" font-size="10px" font-family="'Shantell Sans', cursive"><tspan x="16.25" y="22" dominant-baseline="ideographic">Ajudar os clientes a encontrar </tspan><tspan x="84.56" y="34" dominant-baseline="ideographic">produtos na loja</tspan></text></g></g></g><g id="g-root-tx_resolver_m7ypo71gs9z4e-fill" data-item-order="0" transform="translate(38, 194)"><g id="tx_resolver_m7ypo71gs9z4e-fill" stroke="none" fill="#0284c7"><g><text style="font: 10px &quot;Shantell Sans&quot;, cursive; white-space: pre;" font-size="10px" font-family="'Shantell Sans', cursive"><tspan x="14.84" y="22" dominant-baseline="ideographic">Resolver problemas de forma rápida e </tspan><tspan x="156.77" y="34" dominant-baseline="ideographic">amigável</tspan></text></g></g></g><g id="g-root-tx_informae_zko67r1gs9zpl-fill" data-item-order="0" transform="translate(98, 272)"><g id="tx_informae_zko67r1gs9zpl-fill" stroke="none" fill="#0284c7"><g><text style="font: bold 11.7px &quot;Shantell Sans&quot;, cursive; white-space: pre;" font-weight="bold" font-size="11.7px" font-family="'Shantell Sans', cursive"><tspan x="19.55" y="30" dominant-baseline="ideographic">Informações Claras</tspan></text></g></g></g><g id="g-root-ic_spar_4kfjp31gsbcw2-fill" data-item-order="0" transform="translate(242, 284)"></g><g id="g-root-ic_hono_9091tj1gs9ypz-fill" data-item-order="0" transform="translate(242, 122)"></g><g id="g-root-tx_fornecer_hu0mt31gs9ywy-fill" data-item-order="0" transform="translate(62, 302)"><g id="tx_fornecer_hu0mt31gs9ywy-fill" stroke="none" fill="#0284c7"><g><text style="font: 10px &quot;Shantell Sans&quot;, cursive; white-space: pre;" font-size="10px" font-family="'Shantell Sans', cursive"><tspan x="17.14" y="22" dominant-baseline="ideographic">Fornecer detalhes precisos sobre </tspan><tspan x="133.36" y="34" dominant-baseline="ideographic">produtos</tspan></text></g></g></g><g id="g-root-ic_puzz_4njx4n1gs9zwo-fill" data-item-order="0" transform="translate(242, 176)"></g><g id="g-root-ic_1_1d2dfg71gsbd3f-fill" data-item-order="0" transform="translate(242, 338)"></g><g id="g-root-tx_gratidoe_qvwdx31gs8lj7-fill" data-item-order="0" transform="translate(110, 110)"><g id="tx_gratidoe_qvwdx31gs8lj7-fill" stroke="none" fill="#0284c7"><g><text style="font: bold 11.7px &quot;Shantell Sans&quot;, cursive; white-space: pre;" font-weight="bold" font-size="11.7px" font-family="'Shantell Sans', cursive"><tspan x="12" y="30" dominant-baseline="ideographic">Gratidão e Convite</tspan></text></g></g></g><g id="g-root-tx_prestara_1q8u54n1gs9ypw-fill" data-item-order="0" transform="translate(50, 356)"><g id="tx_prestara_1q8u54n1gs9ypw-fill" stroke="none" fill="#0284c7"><g><text style="font: 10px &quot;Shantell Sans&quot;, cursive; white-space: pre;" font-size="10px" font-family="'Shantell Sans', cursive"><tspan x="13.67" y="22" dominant-baseline="ideographic">Prestar atenção às necessidades do </tspan><tspan x="156.2" y="34" dominant-baseline="ideographic">cliente</tspan></text></g></g></g><g id="g-root-tx_resoluoe_18efr7b1gs9zwl-fill" data-item-order="0" transform="translate(98, 164)"><g id="tx_resoluoe_18efr7b1gs9zwl-fill" stroke="none" fill="#0284c7"><g><text style="font: bold 11.7px &quot;Shantell Sans&quot;, cursive; white-space: pre;" font-weight="bold" font-size="11.7px" font-family="'Shantell Sans', cursive"><tspan x="21.16" y="30" dominant-baseline="ideographic">Resolução Eficiente</tspan></text></g></g></g><g id="g-root-tx_primeira_142d3lj1gs9xxp-fill" data-item-order="0" transform="translate(98, 380)"><g id="tx_primeira_142d3lj1gs9xxp-fill" stroke="none" fill="#0284c7"><g><text style="font: bold 11.7px &quot;Shantell Sans&quot;, cursive; white-space: pre;" font-weight="bold" font-size="11.7px" font-family="'Shantell Sans', cursive"><tspan x="19.59" y="30" dominant-baseline="ideographic">Primeira Impressão</tspan></text></g></g></g><g id="g-root-ic_five_1hbbss71grqays-fill" data-item-order="0" transform="translate(242, 392)"></g><g id="g-root-tx_pirmided_1hi6xkn1gs8lj6-fill" data-item-order="0" transform="translate(14, 38)"><g id="tx_pirmided_1hi6xkn1gs8lj6-fill" stroke="none" fill="#0284c7"><g><text style="font: bold 25px &quot;Shantell Sans&quot;, cursive; white-space: pre;" font-weight="bold" font-size="25px" font-family="'Shantell Sans', cursive"><tspan x="16.67" y="45" dominant-baseline="ideographic">Pirâmide de Excelência no Atendimento ao Cliente</tspan></text></g></g></g><g id="g-root-tx_sorrisoe_qqwl871gs9zim-fill" data-item-order="0" transform="translate(62, 410)"><g id="tx_sorrisoe_qqwl871gs9zim-fill" stroke="none" fill="#0284c7"><g><text style="font: 10px &quot;Shantell Sans&quot;, cursive; white-space: pre;" font-size="10px" font-family="'Shantell Sans', cursive"><tspan x="13.84" y="22" dominant-baseline="ideographic">Sorriso e saudação calorosa para </tspan><tspan x="117.52" y="34" dominant-baseline="ideographic">boas-vindas</tspan></text></g></g></g><g id="g-root-tx_expressa_9lu9j1gs8lj8-fill" data-item-order="0" transform="translate(62, 140)"><g id="tx_expressa_9lu9j1gs8lj8-fill" stroke="none" fill="#0284c7"><g><text style="font: 10px &quot;Shantell Sans&quot;, cursive; white-space: pre;" font-size="10px" font-family="'Shantell Sans', cursive"><tspan x="19.86" y="22" dominant-baseline="ideographic">Expressar gratidão e convidar a </tspan><tspan x="135.02" y="34" dominant-baseline="ideographic">retornar</tspan></text></g></g></g><g id="g-root-tx_escutaat_4ik4fr1gsa0hv-fill" data-item-order="0" transform="translate(134, 326)"><g id="tx_escutaat_4ik4fr1gsa0hv-fill" stroke="none" fill="#0284c7"><g><text style="font: bold 11.7px &quot;Shantell Sans&quot;, cursive; white-space: pre;" font-weight="bold" font-size="11.7px" font-family="'Shantell Sans', cursive"><tspan x="16.42" y="30" dominant-baseline="ideographic">Escuta Atenta</tspan></text></g></g></g><g id="g-root-cp_6_g-6_dhbi471gs8lxc-stroke" data-item-order="-282230" transform="translate(318.71099853515625, 389)"><g id="cp_6_g-6_dhbi471gs8lxc-stroke" fill="none" stroke-linecap="round" stroke-linejoin="round" stroke-miterlimit="4" stroke="#0284c7" stroke-width="4"><g><path d="M 348.6 10C 334.6 8.6 320.3 8.9 306.2 10C 289.9 11.3 273.4 10.7 257 10C 241.1 9.3 225.2 10.5 209.3 10C 194.4 9.5 179.4 10.7 164.6 10C 149.6 9.3 134.5 10.3 119.5 10C 106.3 9.8 92.9 8.1 79.8 10C 64.7 12.2 49.2 10.2 33.9 10C 25.6 23.8 17.7 37.9 10 52C 30.9 51.5 51.7 51.7 72.6 52C 92 52.2 111.4 50.7 130.8 52C 151.1 53.4 171.6 53.3 192 52C 212.3 50.7 232.9 50.3 253.2 52C 271.1 53.5 289.2 53.3 307.1 52C 328.9 50.5 350.9 54 372.6 52C 366.1 37.3 355.7 24.5 348.6 10"></path><path d="M 348.6355 10L 33.9439 10L 10 52L 372.5795 52L 348.6355 10Z"></path></g></g></g><g id="g-root-cp_5_g-5_6hgtz1gs8kci-stroke" data-item-order="-282226" transform="translate(349.4959716796875, 335)"><g id="cp_5_g-5_6hgtz1gs8kci-stroke" fill="none" stroke-linecap="round" stroke-linejoin="round" stroke-miterlimit="4" stroke="#0284c7" stroke-width="4"><g><path d="M 287.1 10C 269.6 8.7 251.9 10.8 234.4 10C 218.7 9.3 203 11.2 187.4 10C 169.1 8.6 150.8 9.9 132.5 10C 116.2 10.1 100 9.8 83.7 10C 67.1 10.2 50.5 9.8 33.9 10C 26.5 24.3 18.1 38.1 10 52C 34.9 53.8 59.9 52 84.8 52C 111.7 51.9 138.6 52.8 165.5 52C 189.5 51.3 213.6 50.7 237.6 52C 262 53.3 286.5 52.7 311 52C 302.4 38.4 294 24.6 287.1 10"></path><path d="M 287.0654 10L 33.9439 10L 10 52L 311.0094 52L 287.0654 10Z"></path></g></g></g><g id="g-root-cp_4_g-4_1qbyik71gs8ky4-stroke" data-item-order="-282222" transform="translate(380.281005859375, 281)"><g id="cp_4_g-4_1qbyik71gs8ky4-stroke" fill="none" stroke-linecap="round" stroke-linejoin="round" stroke-miterlimit="4" stroke="#0284c7" stroke-width="4"><g><path d="M 225.5 10C 210.7 9.6 195.8 9 181 10C 164.4 11.1 147.7 8.9 131.1 10C 114.6 11.1 97.9 10.9 81.4 10C 65.6 9.2 49.7 8.9 33.9 10C 25.6 23.8 18 38 10 52C 25.4 51.6 40.9 53.1 56.3 52C 73.1 50.8 89.9 52.7 106.7 52C 123.5 51.3 140.4 51.8 157.3 52C 171.8 52.2 186.3 52.9 200.8 52C 217 51 233.3 51 249.4 52C 240.9 38.4 234.8 23.1 225.5 10"></path><path d="M 225.4953 10L 33.9439 10L 10 52L 249.4393 52L 225.4953 10Z"></path></g></g></g><g id="g-root-cp_3_g-3_1d14h9z1gs8jda-stroke" data-item-order="-282218" transform="translate(411.0660400390625, 227)"><g id="cp_3_g-3_1d14h9z1gs8jda-stroke" fill="none" stroke-linecap="round" stroke-linejoin="round" stroke-miterlimit="4" stroke="#0284c7" stroke-width="4"><g><path d="M 163.9 10C 142.9 10.9 121.8 9.4 100.8 10C 78.5 10.6 56.2 9.4 33.9 10C 26.2 24.1 16.4 37.2 10 52C 25.4 53.1 40.9 52.2 56.3 52C 70.5 51.9 84.7 51.9 98.9 52C 113.9 52.1 129 52.6 144 52C 158.6 51.4 173.3 52 187.9 52C 180 38 170.6 24.7 163.9 10"></path><path d="M 163.9252 10L 33.9439 10L 10 52L 187.8691 52L 163.9252 10Z"></path></g></g></g><g id="g-root-cp_2_g-2_18laz5j1gs8k5k-stroke" data-item-order="-282214" transform="translate(441.8499755859375, 173)"><g id="cp_2_g-2_18laz5j1gs8k5k-stroke" fill="none" stroke-linecap="round" stroke-linejoin="round" stroke-miterlimit="4" stroke="#0284c7" stroke-width="4"><g><path d="M 102.4 10C 79.6 9.6 56.7 9.3 33.9 10C 26.1 24.1 17.1 37.5 10 52C 29.8 53.3 49.6 51.3 69.4 52C 88.4 52.6 107.4 53.3 126.3 52C 117.8 38.3 109.4 24.5 102.4 10"></path><path d="M 102.3551 10L 33.9439 10L 10 52L 126.2991 52L 102.3551 10Z"></path></g></g></g><g id="g-root-cp_1_g-1_v9ugs71gs8lqi-stroke" data-item-order="-282210" transform="translate(472.636962890625, 113)"><g id="cp_1_g-1_v9ugs71gs8lqi-stroke" fill="none" stroke-linecap="round" stroke-linejoin="round" stroke-miterlimit="4" stroke="#0284c7" stroke-width="4"><g><path d="M 64.7 58C 55.4 42.1 46.4 26.1 37.4 10C 26.6 25 20.5 42.8 10 58C 28.2 58.5 46.5 58.2 64.7 58"></path><path d="M 64.7289 58L 37.3645 10L 10 58L 64.7289 58Z"></path></g></g></g><g id="g-root-sy_-1_Line_dj6xdj1gs8kxw-stroke" data-item-order="-282129" transform="translate(284, 407)"><g id="sy_-1_Line_dj6xdj1gs8kxw-stroke" fill="none" stroke-linecap="round" stroke-linejoin="round" stroke-miterlimit="4" stroke="#0284c7" stroke-width="2"><g><path d="M 10 10C 21 9.4 32.2 11.8 43 10"></path><path d="M 10 10L 43 10"></path><path d="M 37 16.5C 38.7 13.9 41.8 12.5 43.5 10C 41.1 8.1 39.4 5.4 37 3.5" stroke-dasharray="none"></path><path d="M 37 16.5L 43.5 10L 37 3.5" stroke-dasharray="none"></path></g></g></g><g id="g-root-sy_-1_Line_1_4njx4n1gs8lql-stroke" data-item-order="-282125" transform="translate(284, 353)"><g id="sy_-1_Line_1_4njx4n1gs8lql-stroke" fill="none" stroke-linecap="round" stroke-linejoin="round" stroke-miterlimit="4" stroke="#0284c7" stroke-width="2"><g><path d="M 10 10C 31.3 11 52.7 10.6 74 10"></path><path d="M 10 10L 74 10"></path><path d="M 68 16.5C 70.4 14.6 72.7 12.5 74.5 10C 71.7 8.7 70.2 5.7 68 3.5" stroke-dasharray="none"></path><path d="M 68 16.5L 74.5 10L 68 3.5" stroke-dasharray="none"></path></g></g></g><g id="g-root-sy_-1_Line_2_8cw3b1gs8jd2-stroke" data-item-order="-282121" transform="translate(284, 299)"><g id="sy_-1_Line_2_8cw3b1gs8jd2-stroke" fill="none" stroke-linecap="round" stroke-linejoin="round" stroke-miterlimit="4" stroke="#0284c7" stroke-width="2"><g><path d="M 10 10C 41.7 9.4 73.4 11.2 105 10"></path><path d="M 10 10L 105 10"></path><path d="M 99 16.5C 101.1 14.3 104 12.7 105.5 10C 103.3 7.9 101.5 5.3 99 3.5" stroke-dasharray="none"></path><path d="M 99 16.5L 105.5 10L 99 3.5" stroke-dasharray="none"></path></g></g></g><g id="g-root-sy_-1_Line_3_8cw3b1gs8jd3-stroke" data-item-order="-282117" transform="translate(284, 245)"><g id="sy_-1_Line_3_8cw3b1gs8jd3-stroke" fill="none" stroke-linecap="round" stroke-linejoin="round" stroke-miterlimit="4" stroke="#0284c7" stroke-width="2"><g><path d="M 10 10C 23.7 9.7 37.4 10.4 51.1 10C 64 9.6 77 11.4 89.8 10C 105.1 8.3 120.6 9 136 10"></path><path d="M 10 10L 136 10"></path><path d="M 130 16.5C 132.1 14.3 134.5 12.3 136.5 10C 134.5 7.7 132.7 4.9 130 3.5" stroke-dasharray="none"></path><path d="M 130 16.5L 136.5 10L 130 3.5" stroke-dasharray="none"></path></g></g></g><g id="g-root-sy_-1_Line_4_1utnfxz1gs8jy8-stroke" data-item-order="-282113" transform="translate(284, 191)"><g id="sy_-1_Line_4_1utnfxz1gs8jy8-stroke" fill="none" stroke-linecap="round" stroke-linejoin="round" stroke-miterlimit="4" stroke="#0284c7" stroke-width="2"><g><path d="M 10 10C 36.4 8.9 62.8 9.8 89.2 10C 115.2 10.2 141.1 8.5 167 10"></path><path d="M 10 10L 167 10"></path><path d="M 161 16.5C 162.9 14.1 165.2 12 167.5 10C 164.7 8.8 162.6 6.1 161 3.5" stroke-dasharray="none"></path><path d="M 161 16.5L 167.5 10L 161 3.5" stroke-dasharray="none"></path></g></g></g><g id="g-root-sy_-1_Line_5_1ly0fp31gs8kqx-stroke" data-item-order="-282109" transform="translate(284, 137)"><g id="sy_-1_Line_5_1ly0fp31gs8kqx-stroke" fill="none" stroke-linecap="round" stroke-linejoin="round" stroke-miterlimit="4" stroke="#0284c7" stroke-width="2"><g><path d="M 10 10C 32.2 11.2 54.5 8.6 76.7 10C 96 11.2 115.3 10.5 134.6 10C 155.4 9.5 176.2 10.3 197 10"></path><path d="M 10 10L 197 10"></path><path d="M 191 16.5C 193.4 14.6 195 11.7 197.5 10C 195.3 7.9 193.3 5.5 191 3.5" stroke-dasharray="none"></path><path d="M 191 16.5L 197.5 10L 191 3.5" stroke-dasharray="none"></path></g></g></g><g id="g-root-ic_bag_8wi7av1gsbev5-stroke" data-item-order="0" transform="translate(242, 230)"><g id="ic_bag_8wi7av1gsbev5-stroke" fill="none" stroke-linecap="round" stroke-linejoin="round" stroke-miterlimit="4" stroke="#0284c7" stroke-width="2"><g><path d="M 28.875 31.875C 29 30 28.5 28.125 28.875 26.25C 29.125 24.5 30.25 22.875 32 23.125C 33.625 23.375 35.25 24.5 35.125 26.25C 34.875 28.125 35.75 30.125 35.125 31.875M 38.625 38C 38.75 38.375 38.625 38.75 38.375 39C 38.125 39.125 37.75 39.5 37.375 39.375C 34 38.125 30 38.5 26.5 39.375C 26.125 39.5 25.875 39.125 25.5 39C 25.25 38.75 25.125 38.375 25.25 38C 26.25 35.25 26.75 32.125 26.25 29.25C 26.125 28.625 26.75 28.125 27.5 28.125C 30.5 28.125 33.5 28.5 36.5 28.125C 37.125 28 37.625 28.625 37.75 29.25C 38.125 32.125 38.625 35 38.625 38M 17.625 23.75C 17.875 25 17.375 26.25 17.625 27.5M 23.625 25.875C 23.5 22.75 19.875 21.125 16.75 21.25C 13.625 21.5 11.5 24.375 11.375 27.5C 11.25 29 11.875 30.5 11.375 31.875C 12.375 31.625 13.375 31.875 14.5 31.875C 15.25 34.25 14.375 37 15.125 39.375C 16.625 39.875 18.5 38.875 20.125 39.375C 20.5 36.875 20.875 34.375 20.75 31.875C 21.125 31.75 21.625 31.75 22 31.875M 13.75 12.75C 15.5 13.75 17.125 14.625 19 15C 20 15.25 21 14.75 21.875 14.375M 13.25 15C 13.25 17.375 15.25 19.875 17.625 19.375C 19.875 18.875 21.375 17.375 22 15C 22.5 12.625 20 10.625 17.625 10.625C 15.125 10.625 13.625 12.625 13.25 15"></path><path d="M 28.82375 31.875L 28.82375 26.25C 28.82375 24.524111 30.222858 23.125 31.94875 23.125C 33.674641 23.125 35.07375 24.524111 35.07375 26.25L 35.07375 31.875M 38.668751 37.987499C 38.707851 38.340816 38.594673 38.694073 38.357536 38.958885C 38.120396 39.223701 37.781723 39.375023 37.42625 39.375L 26.469999 39.375C 26.114525 39.375023 25.775854 39.223701 25.538713 38.958885C 25.301575 38.694073 25.188398 38.340816 25.227501 37.987499L 26.200001 29.237501C 26.270088 28.604191 26.805323 28.124956 27.442501 28.125L 36.454998 28.125C 37.091698 28.125593 37.626213 28.604664 37.696251 29.237501ZM 17.57375 23.75L 17.57375 27.5M 23.60375 25.85125C 22.78001 22.82922 19.846497 20.883669 16.742067 21.30048C 13.637636 21.717289 11.321192 24.367716 11.32375 27.5L 11.32375 31.875L 14.44875 31.875L 15.07375 39.375L 20.07375 39.375L 20.69875 31.875L 21.94875 31.875M 13.80375 12.77875C 15.172212 14.198469 17.059376 15.000357 19.03125 15C 20.019775 15.000051 20.997967 14.798884 21.90625 14.408751M 13.19875 15C 13.19875 17.416246 15.157505 19.375 17.573751 19.375C 19.989996 19.375 21.94875 17.416246 21.94875 15C 21.94875 12.583755 19.989996 10.625 17.573751 10.625C 15.157505 10.625 13.19875 12.583755 13.19875 15Z"></path></g></g></g><g id="g-root-tx_assistnc_4hb69j1gs9ybr-stroke" data-item-order="0" transform="translate(98, 218)"></g><g id="g-root-tx_ajudaros_1lr57qv1gsa0hs-stroke" data-item-order="0" transform="translate(74, 248)"></g><g id="g-root-tx_resolver_m7ypo71gs9z4e-stroke" data-item-order="0" transform="translate(38, 194)"></g><g id="g-root-tx_informae_zko67r1gs9zpl-stroke" data-item-order="0" transform="translate(98, 272)"></g><g id="g-root-ic_spar_4kfjp31gsbcw2-stroke" data-item-order="0" transform="translate(242, 284)"><g id="ic_spar_4kfjp31gsbcw2-stroke" fill="none" stroke-linecap="round" stroke-linejoin="round" stroke-miterlimit="4" stroke="#0284c7" stroke-width="2"><g><path d="M 23.375 34.875C 17 34.125 11.625 29.625 11.75 23.25C 11.875 16.875 17 12.5 23.375 11.625C 29.75 10.875 35.875 16.875 35 23.25C 34.125 29.625 29.875 34.875 23.375 34.875M 10 10M 31.375 31.625C 34 33.5 36.5 35.625 38.25 38.375M 16.375 23.25C 19.75 22.125 21.625 19.25 23.375 16.125C 25 19.375 26.875 22.75 30.375 23.25M 30.375 23.25C 27.125 24.75 24.75 27 23.375 30.375C 22.875 26.75 20 23 16.375 23.25"></path><path d="M 23.399624 34.841377C 16.992899 34.841377 11.799225 29.647749 11.799225 23.241001C 11.799225 16.834301 16.992899 11.640625 23.399624 11.640625C 29.806376 11.640625 35 16.834301 35 23.241001C 35 29.647749 29.806376 34.841377 23.399624 34.841377ZM 10 10M 31.425751 31.586876L 38.199501 38.359253M 16.4331 23.237751C 19.905649 22.539625 22.7015 19.709812 23.400625 16.147463C 24.099751 19.709812 26.895 22.539625 30.3675 23.237751M 30.3675 23.241751C 26.895 23.939875 24.099125 26.769625 23.4 30.332001C 22.70075 26.769625 19.905649 23.939875 16.4331 23.241751"></path></g></g></g><g id="g-root-ic_hono_9091tj1gs9ypz-stroke" data-item-order="0" transform="translate(242, 122)"><g id="ic_hono_9091tj1gs9ypz-stroke" fill="none" stroke-linecap="round" stroke-linejoin="round" stroke-miterlimit="4" stroke="#0284c7" stroke-width="2"><g><path d="M 17.5 37.875C 16.5 38 15.5 37.875 14.375 37.875C 12.625 37.75 11 36.25 11 34.375C 10.75 27.75 12.5 20.875 11 14.5C 10.5 12.625 12.625 10.75 14.375 11C 17.5 11.25 20.75 11.375 23.875 11C 25.875 10.625 27.625 12.75 27.75 14.875C 27.75 17 27.375 19.375 27.75 21.625M 11 32.125C 12.75 32.375 14.625 32.375 16.375 32.125M 10 10M 23.625 30.875C 22.875 32.125 21.125 32.625 20 33.625C 19.5 34.25 19.25 35.125 19.875 35.625C 21.125 36.5 21.75 37.75 22.875 38.625C 23.625 39.125 24.5 39.25 24.875 38.5C 25.625 37.125 26.375 35.75 27.625 34.875M 10 10M 34.75 27.5C 35.75 26.375 37 25.25 38.375 24.75C 38.875 24.125 39.375 23.125 38.5 22.75C 37.25 22.125 36.25 21 35.5 19.75C 35.125 19 34.125 19.375 33.5 19.875C 32.625 21.125 31.25 22.125 30.75 23.5M 10 10M 29.5 32.5C 30.75 34.875 32.125 37 33.75 39C 33.875 37.5 34.875 36.125 34.625 34.625C 35.875 33.875 37.625 33.625 39 33.75C 36.625 32.75 34.5 31.125 32.375 29.5M 29.125 32.5C 30.875 33.125 31.875 31 32.375 29.25C 33 27.5 30.875 26.5 29.125 26C 27.5 25.625 25.375 27.625 25.875 29.25C 26.5 31 27.375 33 29.125 32.5"></path><path d="M 17.562489 37.8125L 14.437488 37.8125C 12.562488 37.8125 10.9375 36.1875 10.9375 34.3125L 10.9375 14.4375C 10.9375 12.5625 12.562488 10.9375 14.437488 10.9375L 23.8125 10.9375C 25.9375 10.9375 27.6875 12.6875 27.6875 14.8125L 27.6875 21.5625M 10.9375 32.0625L 16.437489 32.0625M 10 10M 23.685875 30.898376L 20.0609 33.648373C 19.4359 34.148376 19.3109 35.023376 19.9359 35.648376L 22.935875 38.648373C 23.560875 39.273373 24.435875 39.148376 24.935875 38.523376L 27.685875 34.898373M 10 10M 34.810875 27.523375L 38.435875 24.773375C 39.060875 24.273375 39.185875 23.398376 38.560875 22.773376L 35.560875 19.773413C 34.935875 19.148413 34.060875 19.273413 33.560875 19.898413L 30.810875 23.523375M 10 10M 29.560875 32.523376L 33.810875 39.023376L 34.685875 34.648376L 39.060875 33.773376L 32.435875 29.523375M 29.185999 32.523376C 30.980875 32.523376 32.435997 31.068375 32.435997 29.273375C 32.435997 27.4785 30.980875 26.023375 29.185999 26.023375C 27.390999 26.023375 25.936001 27.4785 25.936001 29.273375C 25.936001 31.068375 27.390999 32.523376 29.185999 32.523376Z"></path></g></g></g><g id="g-root-tx_fornecer_hu0mt31gs9ywy-stroke" data-item-order="0" transform="translate(62, 302)"></g><g id="g-root-ic_puzz_4njx4n1gs9zwo-stroke" data-item-order="0" transform="translate(242, 176)"><g id="ic_puzz_4njx4n1gs9zwo-stroke" fill="none" stroke-linecap="round" stroke-linejoin="round" stroke-miterlimit="4" stroke="#0284c7" stroke-width="2"><g><path d="M 31.375 25C 30.5 24 30.125 22.25 31.25 21.5C 32.375 20.75 33.5 20.625 34.75 21.125C 34.875 21.25 34.875 21.375 35 21.375C 35.25 21.625 35.375 22 35.5 22.25C 35.75 22.375 35.75 22.75 36 22.625C 36.25 22.625 36.375 22.625 36.625 22.5C 37.5 22 38 21.125 38.625 20.5C 38.875 20.25 39 19.875 39 19.625C 38.875 19.25 38.75 19 38.625 18.625C 38 17.875 37.25 17.25 36.5 16.625C 36.875 16.375 37.25 16.125 37.625 16C 38.875 15.125 38.25 13.5 37.625 12.25C 37 11 35.25 11.625 34 12.25C 33.625 12.5 33.5 13 33.375 13.375C 32.875 12.5 32.125 11.75 31.25 11.375C 30.625 11 30 10.875 29.375 11.25C 28.75 11.875 28.125 12.5 27.5 13.125C 27.375 13.25 27.25 13.5 27.375 13.625C 27.5 13.875 27.5 14.125 27.625 14.125C 28.5 14.375 28.875 15.5 28.875 16.375C 28.875 17.375 28.25 18 27.5 18.625C 26.75 19.125 25.5 19.125 24.875 18.5C 24.75 18.25 24.5 18.25 24.5 18.125C 24.375 17.875 24.125 17.875 24.125 17.625C 24.125 17.5 23.875 17.5 23.625 17.375C 23.5 17.25 23.25 17.5 23.125 17.625C 22.375 18 21.875 18.75 21.25 19.375C 20.75 19.875 20.875 20.625 21.25 21.25C 23.25 24.125 25.5 27.125 28.625 28.625C 29.25 28.875 30 29.125 30.5 28.625C 31.125 27.875 31.75 27.25 32.5 26.625C 32.625 26.5 32.625 26.25 32.625 26C 32.625 25.875 32.5 25.625 32.25 25.625C 31.875 25.375 31.625 25.25 31.375 25M 11 36.125C 23.125 42.75 21 42.5 34.75 33C 34.125 31.75 32.25 31 31 31.75C 29.125 31.875 27.5 33 25.625 33.375M 11 29.125C 12.25 29.5 13.5 29 14.75 29.125C 17.75 29.375 19.75 31.5 20.375 31.625C 21.875 31.875 23.375 31.5 24.75 31.625C 26 31.75 26 34 24.75 34.125C 22.5 34.5 20.125 33.75 17.875 34.125M 15.25 29.125C 15.25 29.125 16.625 33.5 11 33.5M 29 32.375C 29.375 33.375 29.75 34.5 30.625 35.125M 24.375 34.125C 25.125 35.125 25 36.625 25.75 37.625M 20.5 31.625C 20.125 32.375 20 33.5 20.5 34.125"></path><path d="M 31.375 24.987499C 30.384016 24.038025 30.320684 22.475077 31.231598 21.448534C 32.142513 20.421989 33.701897 20.298979 34.762501 21.17C 34.837643 21.236391 34.908607 21.307358 34.974998 21.3825C 35.228142 21.635395 35.427551 21.936848 35.561253 22.268751C 35.641994 22.472429 35.818554 22.622761 36.032501 22.67C 36.246086 22.718681 36.469719 22.654518 36.625 22.5L 38.615002 20.5C 38.853882 20.256098 38.986004 19.927233 38.982254 19.585855C 38.9785 19.244476 38.839188 18.918594 38.595001 18.68L 38.595001 18.68L 36.5 16.598749C 36.934505 16.487736 37.330963 16.261435 37.647499 15.943749C 38.635582 14.922855 38.622318 13.298179 37.617695 12.293556C 36.613071 11.288933 34.988396 11.275666 33.967499 12.26375C 33.649971 12.580206 33.424057 12.976738 33.313747 13.41125L 31.227501 11.325C 30.730677 10.816815 29.916054 10.807304 29.407499 11.30375L 29.407499 11.30375L 27.555 13.15625C 27.419838 13.292659 27.353664 13.482906 27.375 13.67375C 27.396734 13.867488 27.502853 14.041761 27.665001 14.15C 28.455753 14.631323 28.924112 15.502887 28.88912 16.427948C 28.854128 17.353008 28.321264 18.186699 27.49641 18.606907C 26.671555 19.027117 25.683882 18.968039 24.915001 18.452499C 24.751245 18.348843 24.600216 18.226339 24.465 18.0875C 24.345364 17.963594 24.238571 17.827904 24.14625 17.682499C 24.037195 17.521 23.863449 17.414745 23.67 17.391249C 23.478779 17.369892 23.288143 17.436041 23.151249 17.571249L 21.2925 19.418751C 20.794056 19.926849 20.801891 20.742815 21.310001 21.241249L 28.67 28.60125C 29.168724 29.108671 29.984119 29.116501 30.492498 28.618748L 32.482498 26.625C 32.634003 26.471581 32.697105 26.251657 32.650002 26.041252C 32.602802 25.827505 32.453804 25.650482 32.251247 25.567499C 31.922865 25.435574 31.624741 25.238239 31.375 24.987499ZM 11.02375 36.09375C 24.14875 40.46875 19.77375 40.46875 34.77375 32.96875C 33.909779 31.806622 32.412205 31.307428 31.02375 31.71875L 25.625 33.427502M 11.02375 29.141251L 14.77375 29.141251C 17.715 29.141251 19.77375 31.641251 20.39875 31.641251L 24.77375 31.641251C 26.02375 31.641251 26.02375 34.141251 24.77375 34.141251L 17.89875 34.141251M 15.29125 29.1675C 15.29125 29.1675 16.625 33.462502 11.02375 33.462502M 28.99625 32.361252L 30.56875 35.12875M 24.321249 34.141251L 25.72625 37.671249M 20.526249 31.641251C 20.283739 32.45694 20.283739 33.325562 20.526251 34.141251"></path></g></g></g><g id="g-root-ic_1_1d2dfg71gsbd3f-stroke" data-item-order="0" transform="translate(242, 338)"><g id="ic_1_1d2dfg71gsbd3f-stroke" fill="none" stroke-linecap="round" stroke-linejoin="round" stroke-miterlimit="4" stroke="#0284c7" stroke-width="2"><g><path d="M 10.625 25.625C 11.5 25.875 12.5 25.625 13.375 25.625C 13.625 25.625 13.875 25.75 13.875 26C 14 26.375 14.375 26.625 14.5 27.125C 14.5 27.25 14.75 27.375 15 27.375C 15.25 27.375 15.5 27.375 15.625 27.125C 16 25.75 16.625 24.5 17.5 23.5C 17.75 23.375 17.875 23.25 18.125 23.25C 18.375 23.25 18.5 23.375 18.625 23.5C 19.25 25 20.125 26.375 20.875 27.875C 20.875 28.125 21.125 28.25 21.25 28.25C 21.5 28.125 21.75 28.125 21.875 28C 22.5 27.375 23.125 26.625 23.5 25.875C 23.625 25.75 23.875 25.75 24 25.625C 24.75 25.375 25.5 25.375 26.25 25.625M 19.375 33.75C 18.75 37 22.5 39.75 25.75 39.375C 29 39 31.375 36.625 31.625 33.375C 31.5 31.375 33 29.75 34.625 28.5C 38 26.125 39.625 22.375 39.125 18.25C 38.625 14.125 34.875 11.875 30.875 10.625C 27.125 11.25 23.375 12.125 21.75 15.5M 24.625 18.625C 26 17.375 28.25 18.25 30 19C 31.625 19.875 32.125 21.875 32.5 23.75C 33.125 26.125 30.625 27.875 28.5 29C 27.75 29.5 26.75 30 26.875 30.875C 26.625 31.875 25.875 32.625 24.875 33.125C 24.25 33.375 23.5 33 22.875 32.625C 22.125 32.25 22.125 31.375 21.875 30.625M 25 22.375C 24.625 21.75 24.25 20.875 24.375 20C 24.875 17.625 26.25 15.375 28.625 15.125C 31.125 14.75 33.625 16.25 34.125 18.625"></path><path d="M 10.625 25.625L 13.36375 25.625C 13.600277 25.625008 13.816536 25.758537 13.9225 25.969999L 14.47 27.065001C 14.573803 27.272154 14.78369 27.404882 15.015343 27.409861C 15.246996 27.414839 15.462393 27.291252 15.575 27.088749L 17.54875 23.536251C 17.66115 23.333082 17.876915 23.208969 18.109049 23.213955C 18.341183 23.218939 18.551422 23.352196 18.654999 23.559999L 20.8125 27.875C 20.907705 28.06587 21.093676 28.195007 21.305779 28.217533C 21.517883 28.240061 21.726828 28.152864 21.860001 27.98625L 23.561251 25.86125C 23.679926 25.712635 23.859814 25.626141 24.049999 25.626251L 26.25 25.626251M 19.43 33.78875C 19.707949 37.032612 22.475098 39.492161 25.72917 39.387695C 28.98324 39.28323 31.586935 36.65126 31.65625 33.396252C 31.731976 31.384647 32.840752 29.554644 34.588749 28.55625C 38.17144 26.471205 40.018135 22.327686 39.173424 18.269421C 38.328705 14.211154 34.982086 11.148609 30.865 10.66625C 27.142784 10.329799 23.57934 12.248538 21.811249 15.54125M 24.5875 18.610001C 26.327755 17.835348 28.341825 17.994078 29.939249 19.031773C 31.536674 20.069468 32.500385 21.845119 32.5 23.75C 32.545353 26.231472 30.890369 28.423151 28.491249 29.058748C 27.629704 29.28458 26.988615 30.006544 26.866249 30.88875C 26.763002 31.963696 25.973083 32.846786 24.91625 33.068748C 24.179441 33.23217 23.408243 33.053986 22.817799 32.583916C 22.227356 32.113842 21.880869 31.402189 21.875 30.647499M 24.985001 22.418751C 24.583359 21.6917 24.373432 20.874363 24.375 20.043751C 24.3801 17.552305 26.218651 15.444776 28.686356 15.101637C 31.154062 14.758498 33.497856 16.284466 34.182503 18.68"></path></g></g></g><g id="g-root-tx_gratidoe_qvwdx31gs8lj7-stroke" data-item-order="0" transform="translate(110, 110)"></g><g id="g-root-tx_prestara_1q8u54n1gs9ypw-stroke" data-item-order="0" transform="translate(50, 356)"></g><g id="g-root-tx_resoluoe_18efr7b1gs9zwl-stroke" data-item-order="0" transform="translate(98, 164)"></g><g id="g-root-tx_primeira_142d3lj1gs9xxp-stroke" data-item-order="0" transform="translate(98, 380)"></g><g id="g-root-ic_five_1hbbss71grqays-stroke" data-item-order="0" transform="translate(242, 392)"><g id="ic_five_1hbbss71grqays-stroke" fill="none" stroke-linecap="round" stroke-linejoin="round" stroke-miterlimit="4" stroke="#0284c7" stroke-width="2"><g><path d="M 11.875 20C 11.25 21.625 13.375 22.625 15 23.125C 16.625 23.625 18.375 21.75 18.125 20C 17.875 18.25 16.75 17 15 16.875C 13.25 16.75 11.75 18.25 11.875 20M 31.875 20C 31.5 21.75 33.25 23.125 35 23.125C 36.75 23.125 38.5 21.75 38.125 20C 37.75 18.25 36.75 16.875 35 16.875C 33.25 16.875 31.875 18.25 31.875 20M 30.625 39.375C 31.625 36.25 31.125 32.625 30.625 29.375C 27.375 29.75 24.25 27 23.625 23.875C 23.5 22.75 23.125 21.625 22.625 20.625C 22.375 20.125 22.375 19.375 22.75 19C 23.125 18.625 23.625 18.375 24.125 18.125C 24.875 17.75 26 18.625 26.125 19.5C 26.5 20.5 26.625 21.75 27.25 22.625C 28.25 24.25 29.5 25.25 31.375 25.625C 33.125 26 35.125 25 36.875 25.625C 38.125 26.125 39.25 26.75 39.375 28.125C 39.875 31.875 38.5 35.75 39.375 39.375M 23 21.875C 23 22.125 22.875 22.375 22.75 22.625C 21.75 24.25 20.5 25.25 18.625 25.625C 16.875 26 15 25.375 13.125 25.625C 11.75 25.875 11 26.75 10.625 28.125C 9.625 31.75 11.75 35.75 10.625 39.375M 19.375 39.375C 19 36 20 32.625 19.375 29.375C 21.5 28.875 23.25 27.75 25 26.25M 24.375 10.625C 24.25 11.5 24.125 12.375 24.375 13.125M 29.25 13.25C 28.875 14 28.125 14.5 27.5 15M 19.5 13.25C 19.875 14 20.875 14.25 21.25 15"></path><path d="M 11.875 20C 11.875 21.725889 13.27411 23.125 15 23.125C 16.725889 23.125 18.125 21.725889 18.125 20C 18.125 18.274111 16.725889 16.875 15 16.875C 13.27411 16.875 11.875 18.274111 11.875 20M 31.875 20C 31.875 21.725889 33.274109 23.125 35 23.125C 36.725891 23.125 38.125 21.725889 38.125 20C 38.125 18.274111 36.725891 16.875 35 16.875C 33.274109 16.875 31.875 18.274111 31.875 20M 30.625 39.375L 30.625 29.34C 27.417034 29.043703 24.688374 26.877258 23.672501 23.82L 22.596249 20.59375C 22.421066 20.06983 22.485838 19.495319 22.773281 19.023558C 23.060722 18.551796 23.541576 18.230803 24.087502 18.14625C 25.022308 18.031013 25.905746 18.600853 26.186251 19.5L 27.231251 22.633751C 27.826052 24.417797 29.494417 25.622139 31.375 25.625002L 36.8675 25.625C 38.248211 25.625 39.3675 26.744287 39.3675 28.125L 39.3675 39.375M 23.02375 21.875L 22.77375 22.633751C 22.177204 24.423035 20.501106 25.628597 18.615 25.625002L 13.127501 25.625C 11.746788 25.625 10.6275 26.744287 10.6275 28.125L 10.6275 39.375M 19.375 39.375L 19.375 29.34C 21.58963 29.135248 23.623125 28.030384 25.000002 26.283751M 24.375 10.625L 24.375 13.125M 29.2675 13.2325L 27.5 15M 19.4825 13.2325L 21.25 15"></path></g></g></g><g id="g-root-tx_pirmided_1hi6xkn1gs8lj6-stroke" data-item-order="0" transform="translate(14, 38)"></g><g id="g-root-tx_sorrisoe_qqwl871gs9zim-stroke" data-item-order="0" transform="translate(62, 410)"></g><g id="g-root-tx_expressa_9lu9j1gs8lj8-stroke" data-item-order="0" transform="translate(62, 140)"></g><g id="g-root-tx_escutaat_4ik4fr1gsa0hv-stroke" data-item-order="0" transform="translate(134, 326)"></g></g></g></svg>