<?xml version="1.0" encoding="utf-8" standalone="yes"?>
<!DOCTYPE svg PUBLIC "-//W3C//DTD SVG 1.1//EN" "http://www.w3.org/Graphics/SVG/1.1/DTD/svg11.dtd">
<svg width="1176" height="696" viewBox="0 0 1176 696" style="fill:none;stroke:none;fill-rule:evenodd;clip-rule:evenodd;stroke-linecap:round;stroke-linejoin:round;stroke-miterlimit:1.5;" version="1.1" xmlns="http://www.w3.org/2000/svg" xmlns:xlink="http://www.w3.org/1999/xlink"><style class="text-font-style fontImports" data-font-family="Shantell Sans">@import url('https://fonts.googleapis.com/css2?family=Shantell+Sans:wght@300..800&amp;display=block');</style><g id="items" style="isolation: isolate"><g id="blend" style="mix-blend-mode: normal"><g id="g-root-cp_1_g-1_1_1cu966v1eu76kl-fill" data-item-order="-676736" transform="translate(230, 122)"><g id="cp_1_g-1_1_1cu966v1eu76kl-fill" stroke="none" fill="#ffffff"><g><path d="M 22 22L 10 22C 10 15.3957 15.3957 10 22 10L 22 22ZM 22 10L 22 22L 202 22L 202 10L 22 10ZM 214 22L 202 22L 202 10C 208.6158 10 214 15.3842 214 22ZM 214 154L 10 154L 10 22L 214 22L 214 154Z"></path></g></g></g><g id="g-root-cp_0_g-0_1_zisntj1eu785j-fill" data-item-order="-676708" transform="translate(230, 266)"><g id="cp_0_g-0_1_zisntj1eu785j-fill" stroke="none" fill="#ffffff"><g><path d="M 10 358L 22 358L 22 370C 15.3726 370 10 364.6274 10 358ZM 202 370L 202 358L 22 358L 22 370L 202 370ZM 214 358C 214 364.6274 208.6274 370 202 370L 202 358L 214 358ZM 214 10L 10 10L 10 358L 214 358L 214 10Z"></path></g></g></g><g id="g-root-cp_1-1_cell-1-1_m7ymjb1eu76kp-fill" data-item-order="-676687" transform="translate(242, 278)"></g><g id="g-root-cp_2-1_cell-2-1_8wi45z1eu785n-fill" data-item-order="-676669" transform="translate(242, 350)"></g><g id="g-root-cp_3-1_cell-3-1_1ums4uv1eu76dp-fill" data-item-order="-676651" transform="translate(242, 446)"></g><g id="g-root-cp_4-1_cell-4-1_1q6ymqf1eu775z-fill" data-item-order="-676633" transform="translate(242, 518)"></g><g id="g-root-cp_1_g-1_2_1cvi4d31eu78qx-fill" data-item-order="-676614" transform="translate(458, 122)"><g id="cp_1_g-1_2_1cvi4d31eu78qx-fill" stroke="none" fill="#ffffff"><g><path d="M 22 22L 10 22C 10 15.3957 15.3957 10 22 10L 22 22ZM 22 10L 22 22L 202 22L 202 10L 22 10ZM 214 22L 202 22L 202 10C 208.6158 10 214 15.3842 214 22ZM 214 154L 10 154L 10 22L 214 22L 214 154Z"></path></g></g></g><g id="g-root-cp_0_g-0_2_v4ukyf1eu77yb-fill" data-item-order="-676586" transform="translate(458, 266)"><g id="cp_0_g-0_2_v4ukyf1eu77yb-fill" stroke="none" fill="#ffffff"><g><path d="M 10 358L 22 358L 22 370C 15.3726 370 10 364.6274 10 358ZM 202 370L 202 358L 22 358L 22 370L 202 370ZM 214 358C 214 364.6274 208.6274 370 202 370L 202 358L 214 358ZM 214 10L 10 10L 10 358L 214 358L 214 10Z"></path></g></g></g><g id="g-root-cp_1-2_cell-1-2_hu0jo71eu76dh-fill" data-item-order="-676565" transform="translate(470, 278)"></g><g id="g-root-cp_2-2_cell-2-2_4ik1av1eu77yf-fill" data-item-order="-676547" transform="translate(470, 350)"></g><g id="g-root-cp_3-2_cell-3-2_2qj6f1eu78qp-fill" data-item-order="-676529" transform="translate(470, 446)"></g><g id="g-root-cp_4-2_cell-4-2_1lt0jvb1eu76yr-fill" data-item-order="-676511" transform="translate(470, 518)"></g><g id="g-root-cp_1_g-1_3_18hk1hz1eu78jp-fill" data-item-order="-676492" transform="translate(686, 122)"><g id="cp_1_g-1_3_18hk1hz1eu78jp-fill" stroke="none" fill="#ffffff"><g><path d="M 22 22L 10 22C 10 15.3957 15.3957 10 22 10L 22 22ZM 22 10L 22 22L 202 22L 202 10L 22 10ZM 214 22L 202 22L 202 10C 208.6158 10 214 15.3842 214 22ZM 214 154L 10 154L 10 22L 214 22L 214 154Z"></path></g></g></g><g id="g-root-cp_0_g-0_3_v6q07r1eu76yv-fill" data-item-order="-676464" transform="translate(686, 266)"><g id="cp_0_g-0_3_v6q07r1eu76yv-fill" stroke="none" fill="#ffffff"><g><path d="M 10 358L 22 358L 22 370C 15.3726 370 10 364.6274 10 358ZM 202 370L 202 358L 22 358L 22 370L 202 370ZM 214 358C 214 364.6274 208.6274 370 202 370L 202 358L 214 358ZM 214 10L 10 10L 10 358L 214 358L 214 10Z"></path></g></g></g><g id="g-root-cp_1-3_cell-1-3_hv9huf1eu78jt-fill" data-item-order="-676443" transform="translate(698, 278)"></g><g id="g-root-cp_2-3_cell-2-3_4kfgk71eu76yz-fill" data-item-order="-676425" transform="translate(698, 350)"></g><g id="g-root-cp_3-3_cell-3-3_1qa305z1eu78ct-fill" data-item-order="-676407" transform="translate(698, 446)"></g><g id="g-root-cp_4-3_cell-4-3_1cz8yvr1eu76rz-fill" data-item-order="-676389" transform="translate(698, 518)"></g><g id="g-root-cp_1_g-1_4_143lymv1eu78ch-fill" data-item-order="-676370" transform="translate(914, 122)"><g id="cp_1_g-1_4_143lymv1eu78ch-fill" stroke="none" fill="#ffffff"><g><path d="M 22 22L 10 22C 10 15.3957 15.3957 10 22 10L 22 22ZM 22 10L 22 22L 202 22L 202 10L 22 10ZM 214 22L 202 22L 202 10C 208.6158 10 214 15.3842 214 22ZM 214 154L 10 154L 10 22L 214 22L 214 154Z"></path></g></g></g><g id="g-root-cp_0_g-0_4_qsrxcn1eu76rn-fill" data-item-order="-676340" transform="translate(914, 266)"><g id="cp_0_g-0_4_qsrxcn1eu76rn-fill" stroke="none" fill="#ffffff"><g><path d="M 10 358L 22 358L 22 370C 15.3726 370 10 364.6274 10 358ZM 202 370L 202 358L 22 358L 22 370L 202 370ZM 214 358C 214 364.6274 208.6274 370 202 370L 202 358L 214 358ZM 214 10L 10 10L 10 358L 214 358L 214 10Z"></path></g></g></g><g id="g-root-cp_1-4_cell-1-4_dhbezb1eu78cl-fill" data-item-order="-676319" transform="translate(926, 278)"></g><g id="g-root-cp_2-4_cell-2-4_6hdp31eu76rr-fill" data-item-order="-676301" transform="translate(926, 350)"></g><g id="g-root-cp_3-4_cell-3-4_1lw4xav1eu785l-fill" data-item-order="-676283" transform="translate(926, 446)"></g><g id="g-root-cp_4-4_cell-4-4_1hgbf6f1eu78xv-fill" data-item-order="-676265" transform="translate(926, 518)"></g><g id="g-root-tx_separard_qvwdxz1eu1jwh-fill" data-item-order="0" transform="translate(716, 290)"><g id="tx_separard_qvwdxz1eu1jwh-fill" stroke="none" fill="#0284c7"><g><text style="font: 15px &quot;Shantell Sans&quot;, cursive; white-space: pre;" font-size="15px" font-family="'Shantell Sans', cursive"><tspan x="14.2" y="29" dominant-baseline="ideographic">Separar de outros </tspan><tspan x="62.26" y="47" dominant-baseline="ideographic">itens</tspan></text></g></g></g><g id="g-root-tx_coletore_1hby6qf1eu8miz-fill" data-item-order="0" transform="translate(974, 290)"><g id="tx_coletore_1hby6qf1eu8miz-fill" stroke="none" fill="#0284c7"><g><text style="font: 15px &quot;Shantell Sans&quot;, cursive; white-space: pre;" font-size="15px" font-family="'Shantell Sans', cursive"><tspan x="18.02" y="29" dominant-baseline="ideographic">Coletores </tspan><tspan x="13.31" y="47" dominant-baseline="ideographic">específicos</tspan></text></g></g></g><g id="g-root-tx_recipien_1qa305z1eua0p6-fill" data-item-order="0" transform="translate(512, 290)"><g id="tx_recipien_1qa305z1eua0p6-fill" stroke="none" fill="#0284c7"><g><text style="font: 15px &quot;Shantell Sans&quot;, cursive; white-space: pre;" font-size="15px" font-family="'Shantell Sans', cursive"><tspan x="14.84" y="29" dominant-baseline="ideographic">Recipientes </tspan><tspan x="16.95" y="47" dominant-baseline="ideographic">específicos</tspan></text></g></g></g><g id="g-root-tx_sigaasdi_dhbezb1eu8mir-fill" data-item-order="0" transform="translate(260, 374)"><g id="tx_sigaasdi_dhbezb1eu8mir-fill" stroke="none" fill="#0284c7"><g><text style="font: 15px &quot;Shantell Sans&quot;, cursive; white-space: pre;" font-size="15px" font-family="'Shantell Sans', cursive"><tspan x="16" y="29" dominant-baseline="ideographic">Siga as diretrizes </tspan><tspan x="58.8" y="47" dominant-baseline="ideographic">locais</tspan></text></g></g></g><g id="g-root-tx_sacosesp_qsrxcn1eu8kxu-fill" data-item-order="0" transform="translate(266, 296)"><g id="tx_sacosesp_qsrxcn1eu8kxu-fill" stroke="none" fill="#0284c7"><g><text style="font: 15px &quot;Shantell Sans&quot;, cursive; white-space: pre;" font-size="15px" font-family="'Shantell Sans', cursive"><tspan x="14.48" y="32" dominant-baseline="ideographic">Sacos específicos</tspan></text></g></g></g><g id="g-root-tx_sigaasdi_144uwt31eua231-fill" data-item-order="0" transform="translate(488, 374)"><g id="tx_sigaasdi_144uwt31eua231-fill" stroke="none" fill="#0284c7"><g><text style="font: 15px &quot;Shantell Sans&quot;, cursive; white-space: pre;" font-size="15px" font-family="'Shantell Sans', cursive"><tspan x="16" y="29" dominant-baseline="ideographic">Siga as diretrizes </tspan><tspan x="58.8" y="47" dominant-baseline="ideographic">locais</tspan></text></g></g></g><g id="g-root-tx_separao_145hdw71eu77d1-fill" data-item-order="0" transform="translate(74, 296)"><g id="tx_separao_145hdw71eu77d1-fill" stroke="none" fill="#0284c7"><g><text style="font: bold 20px &quot;Shantell Sans&quot;, cursive; white-space: pre;" font-weight="bold" font-size="20px" font-family="'Shantell Sans', cursive"><tspan x="18.66" y="35" dominant-baseline="ideographic">Separação</tspan></text></g></g></g><g id="g-root-tx_protocol_4osvbr1eu1ma2-fill" data-item-order="0" transform="translate(734, 362)"><g id="tx_protocol_4osvbr1eu1ma2-fill" stroke="none" fill="#0284c7"><g><text style="font: 15px &quot;Shantell Sans&quot;, cursive; white-space: pre;" font-size="15px" font-family="'Shantell Sans', cursive"><tspan x="15.67" y="32" dominant-baseline="ideographic">Protocolo de </tspan><tspan x="26.05" y="50" dominant-baseline="ideographic">Vigilância </tspan><tspan x="28.53" y="68" dominant-baseline="ideographic">Sanitária</tspan></text></g></g></g><g id="g-root-tx_baterias_4hb6af1eu8nia-fill" data-item-order="0" transform="translate(926, 206)"><g id="tx_baterias_4hb6af1eu8nia-fill" stroke="none" fill="#0284c7"><g><text style="font: bold 20px &quot;Shantell Sans&quot;, cursive; white-space: pre;" font-weight="bold" font-size="20px" font-family="'Shantell Sans', cursive"><tspan x="15.41" y="35" dominant-baseline="ideographic">Baterias/Células</tspan></text></g></g></g><g id="g-root-tx_protocol_hz0cd31eu76ku-fill" data-item-order="0" transform="translate(86, 380)"><g id="tx_protocol_hz0cd31eu76ku-fill" stroke="none" fill="#0284c7"><g><text style="font: bold 20px &quot;Shantell Sans&quot;, cursive; white-space: pre;" font-weight="bold" font-size="20px" font-family="'Shantell Sans', cursive"><tspan x="14.89" y="35" dominant-baseline="ideographic">Protocolo</tspan></text></g></g></g><g id="g-root-tx_pontosde_14145g71eu8ky4-fill" data-item-order="0" transform="translate(950, 374)"><g id="tx_pontosde_14145g71eu8ky4-fill" stroke="none" fill="#0284c7"><g><text style="font: 15px &quot;Shantell Sans&quot;, cursive; white-space: pre;" font-size="15px" font-family="'Shantell Sans', cursive"><tspan x="12.78" y="29" dominant-baseline="ideographic">Pontos de coleta </tspan><tspan x="34.95" y="47" dominant-baseline="ideographic">específicos</tspan></text></g></g></g><g id="g-root-tx_manuteno_4njtzr1eu785r-fill" data-item-order="0" transform="translate(50, 464)"><g id="tx_manuteno_4njtzr1eu785r-fill" stroke="none" fill="#0284c7"><g><text style="font: bold 20px &quot;Shantell Sans&quot;, cursive; white-space: pre;" font-weight="bold" font-size="20px" font-family="'Shantell Sans', cursive"><tspan x="20.5" y="35" dominant-baseline="ideographic">Manutenção</tspan></text></g></g></g><g id="g-root-tx_medicame_18mjxcn1eu1kp4-fill" data-item-order="0" transform="translate(704, 206)"><g id="tx_medicame_18mjxcn1eu1kp4-fill" stroke="none" fill="#0284c7"><g><text style="font: bold 20px &quot;Shantell Sans&quot;, cursive; white-space: pre;" font-weight="bold" font-size="20px" font-family="'Shantell Sans', cursive"><tspan x="15.84" y="35" dominant-baseline="ideographic">Medicamentos </tspan><tspan x="46.5" y="59" dominant-baseline="ideographic">Vencidos</tspan></text></g></g></g><g id="g-root-tx_mantenha_6hdp31eu8kxw-fill" data-item-order="0" transform="translate(260, 458)"><g id="tx_mantenha_6hdp31eu8kxw-fill" stroke="none" fill="#0284c7"><g><text style="font: 15px &quot;Shantell Sans&quot;, cursive; white-space: pre;" font-size="15px" font-family="'Shantell Sans', cursive"><tspan x="15.7" y="29" dominant-baseline="ideographic">Mantenha a área </tspan><tspan x="59.88" y="47" dominant-baseline="ideographic">limpa</tspan></text></g></g></g><g id="g-root-tx_lixoreci_v3x31eua22z-fill" data-item-order="0" transform="translate(506, 206)"><g id="tx_lixoreci_v3x31eua22z-fill" stroke="none" fill="#0284c7"><g><text style="font: bold 20px &quot;Shantell Sans&quot;, cursive; white-space: pre;" font-weight="bold" font-size="20px" font-family="'Shantell Sans', cursive"><tspan x="43.55" y="35" dominant-baseline="ideographic">Lixo </tspan><tspan x="12.3" y="59" dominant-baseline="ideographic">Reciclável</tspan></text></g></g></g><g id="g-root-tx_mantenha_qu0viv1eua0i6-fill" data-item-order="0" transform="translate(488, 458)"><g id="tx_mantenha_qu0viv1eua0i6-fill" stroke="none" fill="#0284c7"><g><text style="font: 15px &quot;Shantell Sans&quot;, cursive; white-space: pre;" font-size="15px" font-family="'Shantell Sans', cursive"><tspan x="15.7" y="29" dominant-baseline="ideographic">Mantenha a área </tspan><tspan x="59.88" y="47" dominant-baseline="ideographic">limpa</tspan></text></g></g></g><g id="g-root-tx_lixocomu_18jfgrb1eu8lqh-fill" data-item-order="0" transform="translate(266, 206)"><g id="tx_lixocomu_18jfgrb1eu8lqh-fill" stroke="none" fill="#0284c7"><g><text style="font: bold 20px &quot;Shantell Sans&quot;, cursive; white-space: pre;" font-weight="bold" font-size="20px" font-family="'Shantell Sans', cursive"><tspan x="15.44" y="35" dominant-baseline="ideographic">Lixo Comum</tspan></text></g></g></g><g id="g-root-tx_armazena_1qf2w0n1eu1ki3-fill" data-item-order="0" transform="translate(722, 458)"><g id="tx_armazena_1qf2w0n1eu1ki3-fill" stroke="none" fill="#0284c7"><g><text style="font: 15px &quot;Shantell Sans&quot;, cursive; white-space: pre;" font-size="15px" font-family="'Shantell Sans', cursive"><tspan x="13.33" y="29" dominant-baseline="ideographic">Armazenamento </tspan><tspan x="49.17" y="47" dominant-baseline="ideographic">seguro</tspan></text></g></g></g><g id="g-root-tx_danosamb_8z03o71eu8lqe-fill" data-item-order="0" transform="translate(944, 554)"><g id="tx_danosamb_8z03o71eu8lqe-fill" stroke="none" fill="#0284c7"><g><text style="font: 15px &quot;Shantell Sans&quot;, cursive; white-space: pre;" font-size="15px" font-family="'Shantell Sans', cursive"><tspan x="17.66" y="32" dominant-baseline="ideographic">Danos ambientais</tspan></text></g></g></g><g id="g-root-tx_pontosde_m9u4yf1eu8nb9-fill" data-item-order="0" transform="translate(950, 458)"><g id="tx_pontosde_m9u4yf1eu8nb9-fill" stroke="none" fill="#0284c7"><g><text style="font: 15px &quot;Shantell Sans&quot;, cursive; white-space: pre;" font-size="15px" font-family="'Shantell Sans', cursive"><tspan x="12.78" y="29" dominant-baseline="ideographic">Pontos de coleta </tspan><tspan x="34.95" y="47" dominant-baseline="ideographic">específicos</tspan></text></g></g></g><g id="g-root-tx_consequn_1utnct31eu76dc-fill" data-item-order="0" transform="translate(38, 530)"><g id="tx_consequn_1utnct31eu76dc-fill" stroke="none" fill="#0284c7"><g><text style="font: bold 20px &quot;Shantell Sans&quot;, cursive; white-space: pre;" font-weight="bold" font-size="20px" font-family="'Shantell Sans', cursive"><tspan x="12.47" y="35" dominant-baseline="ideographic">Consequências </tspan><tspan x="38.41" y="59" dominant-baseline="ideographic">do Descarte </tspan><tspan x="61.77" y="83" dominant-baseline="ideographic">Incorreto</tspan></text></g></g></g><g id="g-root-ic_2_1ut0vpz1eua13c-fill" data-item-order="0" transform="translate(764, 146)"></g><g id="g-root-ic_1_v9udnb1eu8mbq-fill" data-item-order="0" transform="translate(536, 146)"></g><g id="g-root-ic_tras_vbpswn1eu7762-fill" data-item-order="0" transform="translate(308, 146)"></g><g id="g-root-tx_descarte_18mju6v1eu78qx-fill" data-item-order="0" transform="translate(308, 38)"><g id="tx_descarte_18mju6v1eu78qx-fill" stroke="none" fill="#0284c7"><g><text style="font: bold 25px &quot;Shantell Sans&quot;, cursive; white-space: pre;" font-weight="bold" font-size="25px" font-family="'Shantell Sans', cursive"><tspan x="12.22" y="42" dominant-baseline="ideographic">Descarte de Resíduos e Medicamentos </tspan><tspan x="206.63" y="72" dominant-baseline="ideographic">Vencidos</tspan></text></g></g></g><g id="g-root-tx_multasse_1d0hx1z1eu8n4d-fill" data-item-order="0" transform="translate(260, 548)"><g id="tx_multasse_1d0hx1z1eu8n4d-fill" stroke="none" fill="#0284c7"><g><text style="font: 15px &quot;Shantell Sans&quot;, cursive; white-space: pre;" font-size="15px" font-family="'Shantell Sans', cursive"><tspan x="25.5" y="29" dominant-baseline="ideographic">Multas severas, </tspan><tspan x="17.7" y="47" dominant-baseline="ideographic">danos ambientais</tspan></text></g></g></g><g id="g-root-tx_multasse_93dc471eu9zpj-fill" data-item-order="0" transform="translate(488, 548)"><g id="tx_multasse_93dc471eu9zpj-fill" stroke="none" fill="#0284c7"><g><text style="font: 15px &quot;Shantell Sans&quot;, cursive; white-space: pre;" font-size="15px" font-family="'Shantell Sans', cursive"><tspan x="25.5" y="29" dominant-baseline="ideographic">Multas severas, </tspan><tspan x="17.7" y="47" dominant-baseline="ideographic">danos ambientais</tspan></text></g></g></g><g id="g-root-tx_riscossa_18efr871eu2y9w-fill" data-item-order="0" transform="translate(716, 548)"><g id="tx_riscossa_18efr871eu2y9w-fill" stroke="none" fill="#0284c7"><g><text style="font: 15px &quot;Shantell Sans&quot;, cursive; white-space: pre;" font-size="15px" font-family="'Shantell Sans', cursive"><tspan x="26.69" y="29" dominant-baseline="ideographic">Riscos à saúde, </tspan><tspan x="17.7" y="47" dominant-baseline="ideographic">danos ambientais</tspan></text></g></g></g><g id="g-root-ic_batt_m7c8lz1eu30nh-fill" data-item-order="0" transform="translate(992, 146)"></g><g id="g-root-cp_1_g-1_1_1cu966v1eu76kl-stroke" data-item-order="-676736" transform="translate(230, 122)"><g id="cp_1_g-1_1_1cu966v1eu76kl-stroke" fill="none" stroke-linecap="round" stroke-linejoin="round" stroke-miterlimit="4" stroke="#0284c7" stroke-width="4"><g><path d="M 22 10C 15.4 10.5 9.9 15.4 10 22M 214 154C 215.6 133.4 212.2 112.6 214 92C 216 68.8 215.7 45.3 214 22M 10 22C 8.6 37.1 11.1 52.3 10 67.4C 8.9 83 11.9 98.9 10 114.5C 8.4 127.6 11.3 140.9 10 154M 22 10C 38.4 10.6 54.8 10.8 71.2 10C 85.6 9.3 100.1 9.2 114.5 10C 127.8 10.7 141.2 10 154.5 10C 170.3 10 186.2 8.4 202 10M 214 22C 212.6 15.5 208.6 10.9 202 10"></path><path d="M 22 10C 15.373 10 10 15.373 10 22M 214 154L 214 22M 10 22L 10 154M 22 10L 202 10M 214 22C 214 15.3826 208.6174 10 202 10"></path></g></g></g><g id="g-root-cp_0_g-0_1_zisntj1eu785j-stroke" data-item-order="-676708" transform="translate(230, 266)"><g id="cp_0_g-0_1_zisntj1eu785j-stroke" fill="none" stroke-linecap="round" stroke-linejoin="round" stroke-miterlimit="4" stroke="#0284c7" stroke-width="4"><g><path d="M 10 358C 10.2 364.6 15.4 369.2 22 370M 202 370C 181.4 370.2 160.9 370.4 140.3 370C 120.8 369.6 101.3 370 81.8 370C 61.8 370.1 41.9 371.6 22 370M 202 370C 208.6 369.5 214.5 364.6 214 358M 214 10C 212.3 31.6 215.9 53.4 214 75C 211.9 98.2 213.7 121.7 214 145C 214.3 167.1 214.5 189.3 214 211.5C 213.4 235.8 215.1 260.2 214 284.5C 212.9 309 213.6 333.5 214 358M 10 358C 10.3 333 11.3 307.9 10 282.9C 8.9 261.6 10.4 240.3 10 219C 9.6 198.1 11 177.1 10 156.2C 8.9 133.4 11 110.6 10 87.8C 8.9 61.9 9.5 35.9 10 10M 214 10C 197.3 9.7 180.6 9.7 163.9 10C 145.1 10.3 126.3 11.2 107.6 10C 90.1 8.9 72.6 10.7 55.1 10C 40 9.4 25 9 10 10"></path><path d="M 10 358C 10 364.6274 15.3726 370 22 370M 202 370L 22 370M 202 370C 208.6274 370 214 364.6274 214 358M 214 10L 214 358M 10 358L 10 10M 214 10L 10 10"></path></g></g></g><g id="g-root-cp_1-1_cell-1-1_m7ymjb1eu76kp-stroke" data-item-order="-676687" transform="translate(242, 278)"><g id="cp_1-1_cell-1-1_m7ymjb1eu76kp-stroke" fill="none" stroke-linecap="round" stroke-linejoin="round" stroke-miterlimit="4" stroke="#0284c7" stroke-width="2"><g><path d="M 10 22C 10.1 20 9.5 17.9 10 16C 10.8 12.8 12.7 10.1 16 10C 18 9.9 20 10.2 22 10M 190 22C 191.3 33.9 192 46.2 190 58M 10 58C 8.9 46 9.5 34 10 22M 22 10C 40.6 8.1 59.5 8.8 78.2 10C 94.7 11 111.3 11.3 127.7 10C 144.4 8.7 161.2 10.3 178 10M 10 58C 9.5 59.9 9.6 62 10 64C 10.6 67.3 12.7 69.6 16 70C 18 70.2 20 69.9 22 70M 190 22C 190.4 20 190.2 18 190 16C 189.7 12.7 187.3 10 184 10C 182 10 180 9.8 178 10M 178 70C 161.6 69.6 145.3 70.6 128.9 70C 110.8 69.3 92.6 68.9 74.5 70C 57 71.1 39.5 69.5 22 70M 190 58C 189.6 60 190.1 62 190 64C 189.8 67.3 187.2 69.3 184 70C 182 70.4 179.9 70.5 178 70"></path><path d="M 10 22L 10 16C 10 12.6863 12.6863 10 16 10L 22 10M 190 22L 190 58M 10 58L 10 22M 22 10L 178 10M 10 58L 10 64C 10 67.3137 12.6863 70 16 70L 22 70M 190 22L 190 16C 190 12.6863 187.3137 10 184 10L 178 10M 178 70L 22 70M 190 58L 190 64C 190 67.3137 187.3137 70 184 70L 178 70"></path></g></g></g><g id="g-root-cp_2-1_cell-2-1_8wi45z1eu785n-stroke" data-item-order="-676669" transform="translate(242, 350)"><g id="cp_2-1_cell-2-1_8wi45z1eu785n-stroke" fill="none" stroke-linecap="round" stroke-linejoin="round" stroke-miterlimit="4" stroke="#0284c7" stroke-width="2"><g><path d="M 10 22C 10 20 10.1 18 10 16C 9.8 12.7 12.7 9.9 16 10C 18 10 20 9.8 22 10M 190 22C 189.6 42 188.9 62 190 82M 10 82C 8.9 71.9 11.3 61.6 10 51.5C 8.8 41.7 8.5 31.7 10 22M 22 10C 39.4 8.8 57 8.4 74.4 10C 91.5 11.6 108.7 9.1 125.9 10C 143.2 10.9 160.7 11.6 178 10M 10 82C 9.4 83.9 10.4 86.1 10 88C 9.3 91.2 12.7 94.6 16 94C 18 93.6 20.1 94.6 22 94M 190 22C 189.4 20.1 190.6 17.9 190 16C 189 12.8 187.3 9.5 184 10C 182 10.3 180 10.4 178 10M 178 94C 165.2 94.9 152.3 93.6 139.5 94C 125.4 94.5 111.3 94.9 97.3 94C 85.2 93.2 73 94.3 60.9 94C 47.9 93.7 34.9 95.2 22 94M 190 82C 189.3 83.9 190.2 86 190 88C 189.7 91.3 187.3 94.2 184 94C 182 93.9 180 93.7 178 94"></path><path d="M 10 22L 10 16C 10 12.6863 12.6863 10 16 10L 22 10M 190 22L 190 82M 10 82L 10 22M 22 10L 178 10M 10 82L 10 88C 10 91.3137 12.6863 94 16 94L 22 94M 190 22L 190 16C 190 12.6863 187.3137 10 184 10L 178 10M 178 94L 22 94M 190 82L 190 88C 190 91.3137 187.3137 94 184 94L 178 94"></path></g></g></g><g id="g-root-cp_3-1_cell-3-1_1ums4uv1eu76dp-stroke" data-item-order="-676651" transform="translate(242, 446)"><g id="cp_3-1_cell-3-1_1ums4uv1eu76dp-stroke" fill="none" stroke-linecap="round" stroke-linejoin="round" stroke-miterlimit="4" stroke="#0284c7" stroke-width="2"><g><path d="M 10 22C 10.2 20 9.9 18 10 16C 10.1 12.7 12.7 10.3 16 10C 18 9.8 20.1 10.7 22 10M 190 22C 190.4 34 189 46 190 58M 10 58C 9.9 46 11.2 33.9 10 22M 22 10C 40.8 11.8 59.8 11.3 78.7 10C 94.4 8.9 110.3 12 125.9 10C 143.1 7.8 160.7 11.2 178 10M 10 58C 9.4 59.9 10.2 62 10 64C 9.7 67.3 12.8 70.9 16 70C 17.9 69.5 20 69.7 22 70M 190 22C 189.3 20.1 190.2 18 190 16C 189.7 12.7 187.3 9.5 184 10C 182 10.3 179.9 10.4 178 10M 178 70C 152.2 68.8 126.3 71.3 100.6 70C 74.4 68.7 48.2 69.5 22 70M 190 58C 190 60 190.7 62.1 190 64C 188.9 67.1 187.3 70.7 184 70C 182 69.6 179.9 69.5 178 70"></path><path d="M 10 22L 10 16C 10 12.6863 12.6863 10 16 10L 22 10M 190 22L 190 58M 10 58L 10 22M 22 10L 178 10M 10 58L 10 64C 10 67.3137 12.6863 70 16 70L 22 70M 190 22L 190 16C 190 12.6863 187.3137 10 184 10L 178 10M 178 70L 22 70M 190 58L 190 64C 190 67.3137 187.3137 70 184 70L 178 70"></path></g></g></g><g id="g-root-cp_4-1_cell-4-1_1q6ymqf1eu775z-stroke" data-item-order="-676633" transform="translate(242, 518)"><g id="cp_4-1_cell-4-1_1q6ymqf1eu775z-stroke" fill="none" stroke-linecap="round" stroke-linejoin="round" stroke-miterlimit="4" stroke="#0284c7" stroke-width="2"><g><path d="M 10 22C 10.1 20 10.5 17.9 10 16C 9.1 12.8 12.8 9 16 10C 17.9 10.6 20 9.7 22 10M 190 22C 190.7 46 189.1 70 190 94M 10 94C 8.9 70 9.6 46 10 22M 22 10C 47 11.7 72.2 8.3 97.2 10C 124.1 11.8 151.1 8.1 178 10M 10 94C 10.1 96 9.4 98.1 10 100C 11 103.2 12.7 106.1 16 106C 18 105.9 20 105.9 22 106M 190 22C 190 20 189.7 18 190 16C 190.5 12.7 187.1 11.1 184 10C 182.1 9.3 179.9 10.6 178 10M 178 106C 153.3 104.5 128.4 107.6 103.7 106C 76.5 104.2 49.2 107.6 22 106M 190 94C 190 96 190 98 190 100C 190 103.3 187.3 106.3 184 106C 182 105.8 179.9 105.4 178 106"></path><path d="M 10 22L 10 16C 10 12.6863 12.6863 10 16 10L 22 10M 190 22L 190 94M 10 94L 10 22M 22 10L 178 10M 10 94L 10 100C 10 103.3137 12.6863 106 16 106L 22 106M 190 22L 190 16C 190 12.6863 187.3137 10 184 10L 178 10M 178 106L 22 106M 190 94L 190 100C 190 103.3137 187.3137 106 184 106L 178 106"></path></g></g></g><g id="g-root-cp_1_g-1_2_1cvi4d31eu78qx-stroke" data-item-order="-676614" transform="translate(458, 122)"><g id="cp_1_g-1_2_1cvi4d31eu78qx-stroke" fill="none" stroke-linecap="round" stroke-linejoin="round" stroke-miterlimit="4" stroke="#0284c7" stroke-width="4"><g><path d="M 22 10C 15.4 10.4 9.6 15.4 10 22M 214 154C 215 130.9 214.6 107.7 214 84.6C 213.4 63.7 215.1 42.8 214 22M 10 22C 11.9 42.6 11.1 63.4 10 84C 8.7 107.3 10.8 130.7 10 154M 22 10C 40.8 9.9 59.7 9.2 78.5 10C 100.1 10.9 121.8 11 143.5 10C 163 9.1 182.5 9.8 202 10M 214 22C 212.5 15.6 208.6 10.4 202 10"></path><path d="M 22 10C 15.373 10 10 15.373 10 22M 214 154L 214 22M 10 22L 10 154M 22 10L 202 10M 214 22C 214 15.3826 208.6174 10 202 10"></path></g></g></g><g id="g-root-cp_0_g-0_2_v4ukyf1eu77yb-stroke" data-item-order="-676586" transform="translate(458, 266)"><g id="cp_0_g-0_2_v4ukyf1eu77yb-stroke" fill="none" stroke-linecap="round" stroke-linejoin="round" stroke-miterlimit="4" stroke="#0284c7" stroke-width="4"><g><path d="M 10 358C 9.3 364.6 15.4 370.9 22 370M 202 370C 185.7 370.8 169.3 370.8 153 370C 138 369.3 122.9 371 107.9 370C 92.7 369 77.4 368.1 62.3 370C 49 371.7 35.4 369.8 22 370M 202 370C 208.6 370.8 215.4 364.5 214 358M 214 10C 215.4 23.5 215.3 37.2 214 50.7C 212.6 66 215.5 81.5 214 96.8C 212.5 112 214.9 127.3 214 142.4C 213.1 157.4 215.5 172.4 214 187.3C 212.7 200.1 214.6 213.1 214 225.9C 213.3 240.1 215 254.4 214 268.6C 213 283.3 214.4 298.1 214 312.8C 213.6 327.8 214.6 342.9 214 358M 10 358C 11.4 336.5 11.2 314.8 10 293.2C 8.5 268 10.1 242.7 10 217.4C 9.9 193.4 8.9 169.4 10 145.5C 11 123.9 8.5 102.2 10 80.6C 11.7 57.1 10 33.5 10 10M 214 10C 192.1 8.7 170.2 8.7 148.3 10C 126.9 11.3 105.4 8.6 84 10C 59.4 11.6 34.6 8.2 10 10"></path><path d="M 10 358C 10 364.6274 15.3726 370 22 370M 202 370L 22 370M 202 370C 208.6274 370 214 364.6274 214 358M 214 10L 214 358M 10 358L 10 10M 214 10L 10 10"></path></g></g></g><g id="g-root-cp_1-2_cell-1-2_hu0jo71eu76dh-stroke" data-item-order="-676565" transform="translate(470, 278)"><g id="cp_1-2_cell-1-2_hu0jo71eu76dh-stroke" fill="none" stroke-linecap="round" stroke-linejoin="round" stroke-miterlimit="4" stroke="#0284c7" stroke-width="2"><g><path d="M 10 22C 9.5 20.1 10.3 18 10 16C 9.5 12.7 12.8 9 16 10C 17.9 10.6 20 9.8 22 10M 190 22C 190.6 34 188.5 46.1 190 58M 10 58C 9.5 46 10.1 34 10 22M 22 10C 46.9 9.2 71.9 11.5 96.8 10C 123.8 8.4 150.9 11.3 178 10M 10 58C 10.4 60 10.3 62 10 64C 9.6 67.3 12.7 70.1 16 70C 18 70 20.1 70.6 22 70M 190 22C 190.3 20 190.2 18 190 16C 189.7 12.7 187.3 10 184 10C 182 10 179.9 10.6 178 10M 178 70C 160.3 70.9 142.4 72 124.8 70C 108.2 68.1 91.4 70.4 74.7 70C 57.1 69.6 39.5 71.6 22 70M 190 58C 189.3 59.9 190.2 62 190 64C 189.7 67.3 187.1 68.8 184 70C 182.1 70.8 179.9 70.7 178 70"></path><path d="M 10 22L 10 16C 10 12.6863 12.6863 10 16 10L 22 10M 190 22L 190 58M 10 58L 10 22M 22 10L 178 10M 10 58L 10 64C 10 67.3137 12.6863 70 16 70L 22 70M 190 22L 190 16C 190 12.6863 187.3137 10 184 10L 178 10M 178 70L 22 70M 190 58L 190 64C 190 67.3137 187.3137 70 184 70L 178 70"></path></g></g></g><g id="g-root-cp_2-2_cell-2-2_4ik1av1eu77yf-stroke" data-item-order="-676547" transform="translate(470, 350)"><g id="cp_2-2_cell-2-2_4ik1av1eu77yf-stroke" fill="none" stroke-linecap="round" stroke-linejoin="round" stroke-miterlimit="4" stroke="#0284c7" stroke-width="2"><g><path d="M 10 22C 10.5 20 9.9 18 10 16C 10.1 12.7 12.7 10.1 16 10C 18 10 20.1 10.4 22 10M 190 22C 188.3 41.9 191.5 62.1 190 82M 10 82C 10.2 72.2 10.6 62.5 10 52.7C 9.4 42.5 10.5 32.2 10 22M 22 10C 38.6 10.9 55.3 11.1 71.9 10C 89 8.9 106.2 10.7 123.3 10C 141.5 9.3 159.8 10.9 178 10M 10 82C 10.5 83.9 10.3 86 10 88C 9.5 91.3 12.8 93.3 16 94C 18 94.4 20 94.3 22 94M 190 22C 190.4 20 190.8 17.8 190 16C 188.7 12.9 187.3 10.2 184 10C 182 9.8 179.9 10.7 178 10M 178 94C 162 95.1 145.9 93.1 129.9 94C 113.1 95 96.2 92.7 79.3 94C 60.3 95.4 41.1 93.6 22 94M 190 82C 189.9 84 189.8 86 190 88C 190.3 91.3 187.3 94 184 94C 182 94 180 93.8 178 94"></path><path d="M 10 22L 10 16C 10 12.6863 12.6863 10 16 10L 22 10M 190 22L 190 82M 10 82L 10 22M 22 10L 178 10M 10 82L 10 88C 10 91.3137 12.6863 94 16 94L 22 94M 190 22L 190 16C 190 12.6863 187.3137 10 184 10L 178 10M 178 94L 22 94M 190 82L 190 88C 190 91.3137 187.3137 94 184 94L 178 94"></path></g></g></g><g id="g-root-cp_3-2_cell-3-2_2qj6f1eu78qp-stroke" data-item-order="-676529" transform="translate(470, 446)"><g id="cp_3-2_cell-3-2_2qj6f1eu78qp-stroke" fill="none" stroke-linecap="round" stroke-linejoin="round" stroke-miterlimit="4" stroke="#0284c7" stroke-width="2"><g><path d="M 10 22C 9.3 20.1 9.7 18 10 16C 10.6 12.7 12.7 9.9 16 10C 18 10 20 10.3 22 10M 190 22C 190 34 189.9 46 190 58M 10 58C 8.1 46.1 11.7 33.9 10 22M 22 10C 48.8 9.9 75.6 9.3 102.4 10C 127.6 10.7 152.8 10.5 178 10M 10 58C 10.2 60 9.9 62 10 64C 10.1 67.3 12.8 70.7 16 70C 18 69.6 20 70.3 22 70M 190 22C 190.1 20 190.3 18 190 16C 189.4 12.7 187.3 10.1 184 10C 182 10 180 10.4 178 10M 178 70C 164 70.5 150 71 136.1 70C 124.7 69.2 113 71.9 101.7 70C 89.4 68 76.7 68.8 64.2 70C 50.2 71.4 36.1 69.5 22 70M 190 58C 190.4 60 189.9 62 190 64C 190.2 67.3 187.3 70.6 184 70C 182 69.6 180 70.4 178 70"></path><path d="M 10 22L 10 16C 10 12.6863 12.6863 10 16 10L 22 10M 190 22L 190 58M 10 58L 10 22M 22 10L 178 10M 10 58L 10 64C 10 67.3137 12.6863 70 16 70L 22 70M 190 22L 190 16C 190 12.6863 187.3137 10 184 10L 178 10M 178 70L 22 70M 190 58L 190 64C 190 67.3137 187.3137 70 184 70L 178 70"></path></g></g></g><g id="g-root-cp_4-2_cell-4-2_1lt0jvb1eu76yr-stroke" data-item-order="-676511" transform="translate(470, 518)"><g id="cp_4-2_cell-4-2_1lt0jvb1eu76yr-stroke" fill="none" stroke-linecap="round" stroke-linejoin="round" stroke-miterlimit="4" stroke="#0284c7" stroke-width="2"><g><path d="M 10 22C 9.9 20 9.5 17.9 10 16C 10.8 12.8 12.7 9.7 16 10C 18 10.2 20.1 9.3 22 10M 190 22C 190.9 46 188.4 70.1 190 94M 10 94C 10.1 81.6 11.3 69.1 10 56.8C 8.8 45.3 10 33.6 10 22M 22 10C 49.2 9.2 76.5 8.7 103.6 10C 128.4 11.2 153.2 10.6 178 10M 10 94C 10.2 96 10.2 98 10 100C 9.7 103.3 12.7 106.2 16 106C 18 105.9 20 106 22 106M 190 22C 190.2 20 189.5 17.9 190 16C 190.9 12.8 187.1 8.9 184 10C 182.1 10.7 180 9.8 178 10M 178 106C 160.7 104.4 143.2 106.7 125.9 106C 110.3 105.4 94.6 104.1 79.1 106C 60.2 108.3 41 104.4 22 106M 190 94C 190.1 96 189.7 98 190 100C 190.5 103.3 187.3 106.6 184 106C 182 105.7 179.9 105.5 178 106"></path><path d="M 10 22L 10 16C 10 12.6863 12.6863 10 16 10L 22 10M 190 22L 190 94M 10 94L 10 22M 22 10L 178 10M 10 94L 10 100C 10 103.3137 12.6863 106 16 106L 22 106M 190 22L 190 16C 190 12.6863 187.3137 10 184 10L 178 10M 178 106L 22 106M 190 94L 190 100C 190 103.3137 187.3137 106 184 106L 178 106"></path></g></g></g><g id="g-root-cp_1_g-1_3_18hk1hz1eu78jp-stroke" data-item-order="-676492" transform="translate(686, 122)"><g id="cp_1_g-1_3_18hk1hz1eu78jp-stroke" fill="none" stroke-linecap="round" stroke-linejoin="round" stroke-miterlimit="4" stroke="#0284c7" stroke-width="4"><g><path d="M 22 10C 15.4 10.6 9.4 15.4 10 22M 214 154C 213.3 138.2 212.9 122.3 214 106.5C 214.9 92.9 212.8 79.1 214 65.4C 215.3 51 214.2 36.5 214 22M 10 22C 9.1 45.2 8.2 68.5 10 91.6C 11.6 112.3 10.4 133.2 10 154M 22 10C 41.3 9.3 60.6 10.3 79.9 10C 101.8 9.7 123.8 10.3 145.7 10C 164.4 9.8 183.2 10.7 202 10M 214 22C 214.1 15.4 208.6 10.1 202 10"></path><path d="M 22 10C 15.373 10 10 15.373 10 22M 214 154L 214 22M 10 22L 10 154M 22 10L 202 10M 214 22C 214 15.3826 208.6174 10 202 10"></path></g></g></g><g id="g-root-cp_0_g-0_3_v6q07r1eu76yv-stroke" data-item-order="-676464" transform="translate(686, 266)"><g id="cp_0_g-0_3_v6q07r1eu76yv-stroke" fill="none" stroke-linecap="round" stroke-linejoin="round" stroke-miterlimit="4" stroke="#0284c7" stroke-width="4"><g><path d="M 10 358C 10.3 364.6 15.4 369.5 22 370M 202 370C 169.1 368.2 136.2 369 103.3 370C 76.2 370.8 49.1 369.4 22 370M 202 370C 208.4 371.8 212.9 364.5 214 358M 214 10C 216 25.6 213.8 41.5 214 57.2C 214.2 74.2 214.3 91.1 214 108C 213.7 126.1 212 144.4 214 162.4C 215.6 177.2 213.5 192.1 214 207C 214.5 222.5 214.4 238.1 214 253.6C 213.6 270.7 212.2 287.9 214 304.8C 215.8 322.5 213.1 340.3 214 358M 10 358C 9 332.5 10.4 307 10 281.5C 9.6 256.8 10.9 232 10 207.3C 9.2 185.8 8.8 164.3 10 142.8C 11.3 120.9 11.5 98.9 10 77C 8.5 54.7 8.9 32.3 10 10M 214 10C 198.7 9.8 183.4 8.9 168.1 10C 148.9 11.4 129.6 11.8 110.4 10C 93.6 8.4 76.5 10.7 59.6 10C 43.1 9.3 26.5 8.9 10 10"></path><path d="M 10 358C 10 364.6274 15.3726 370 22 370M 202 370L 22 370M 202 370C 208.6274 370 214 364.6274 214 358M 214 10L 214 358M 10 358L 10 10M 214 10L 10 10"></path></g></g></g><g id="g-root-cp_1-3_cell-1-3_hv9huf1eu78jt-stroke" data-item-order="-676443" transform="translate(698, 278)"><g id="cp_1-3_cell-1-3_hv9huf1eu78jt-stroke" fill="none" stroke-linecap="round" stroke-linejoin="round" stroke-miterlimit="4" stroke="#0284c7" stroke-width="2"><g><path d="M 10 22C 10 20 10.5 17.9 10 16C 9.2 12.8 12.7 10.5 16 10C 18 9.7 20.1 10.4 22 10M 190 22C 191.1 33.9 190.3 46 190 58M 10 58C 10.2 46 11 34 10 22M 22 10C 35.2 10.7 48.5 8.8 61.6 10C 73.8 11.1 86.1 9.6 98.3 10C 111.6 10.4 125 8.5 138.3 10C 151.4 11.5 164.8 10.7 178 10M 10 58C 9.9 60 9.6 62 10 64C 10.7 67.2 12.7 69.5 16 70C 18 70.3 20 70.1 22 70M 190 22C 189.9 20 190.1 18 190 16C 189.8 12.7 187.2 9.2 184 10C 182.1 10.5 179.9 9.3 178 10M 178 70C 152.4 68 126.7 69.1 101 70C 74.7 70.9 48.3 71 22 70M 190 58C 190.3 60 189.9 62 190 64C 190.2 67.3 187.1 68.9 184 70C 182.1 70.7 179.9 69.5 178 70"></path><path d="M 10 22L 10 16C 10 12.6863 12.6863 10 16 10L 22 10M 190 22L 190 58M 10 58L 10 22M 22 10L 178 10M 10 58L 10 64C 10 67.3137 12.6863 70 16 70L 22 70M 190 22L 190 16C 190 12.6863 187.3137 10 184 10L 178 10M 178 70L 22 70M 190 58L 190 64C 190 67.3137 187.3137 70 184 70L 178 70"></path></g></g></g><g id="g-root-cp_2-3_cell-2-3_4kfgk71eu76yz-stroke" data-item-order="-676425" transform="translate(698, 350)"><g id="cp_2-3_cell-2-3_4kfgk71eu76yz-stroke" fill="none" stroke-linecap="round" stroke-linejoin="round" stroke-miterlimit="4" stroke="#0284c7" stroke-width="2"><g><path d="M 10 22C 10.3 20 10.4 17.9 10 16C 9.3 12.8 12.7 9.8 16 10C 18 10.1 20 9.9 22 10M 190 22C 190.8 42 188.5 62.1 190 82M 10 82C 8.4 62.1 9.9 42 10 22M 22 10C 46.1 10.9 70.3 9.5 94.4 10C 122.3 10.6 150.1 9.2 178 10M 10 82C 10.4 84 10.5 86.1 10 88C 9.2 91.2 12.9 92.8 16 94C 17.9 94.7 20 93.8 22 94M 190 22C 189.7 20 189.8 18 190 16C 190.3 12.7 187.2 9.1 184 10C 182.1 10.5 179.9 10.7 178 10M 178 94C 160.7 94.4 143.4 95.6 126.2 94C 110.3 92.5 94.2 92.8 78.3 94C 59.6 95.4 40.7 95.8 22 94M 190 82C 189.3 83.9 189.6 86.1 190 88C 190.7 91.2 187.3 94.6 184 94C 182 93.6 180 94.1 178 94"></path><path d="M 10 22L 10 16C 10 12.6863 12.6863 10 16 10L 22 10M 190 22L 190 82M 10 82L 10 22M 22 10L 178 10M 10 82L 10 88C 10 91.3137 12.6863 94 16 94L 22 94M 190 22L 190 16C 190 12.6863 187.3137 10 184 10L 178 10M 178 94L 22 94M 190 82L 190 88C 190 91.3137 187.3137 94 184 94L 178 94"></path></g></g></g><g id="g-root-cp_3-3_cell-3-3_1qa305z1eu78ct-stroke" data-item-order="-676407" transform="translate(698, 446)"><g id="cp_3-3_cell-3-3_1qa305z1eu78ct-stroke" fill="none" stroke-linecap="round" stroke-linejoin="round" stroke-miterlimit="4" stroke="#0284c7" stroke-width="2"><g><path d="M 10 22C 9.4 20.1 10.3 18 10 16C 9.6 12.7 12.7 10.6 16 10C 18 9.6 20 9.6 22 10M 190 22C 188.4 33.9 190.6 46 190 58M 10 58C 10.3 46 8.6 33.9 10 22M 22 10C 39.3 10.6 56.6 10.6 73.9 10C 92.6 9.3 111.3 11.2 129.9 10C 145.9 9 162.1 8.1 178 10M 10 58C 10.3 60 10.6 62.1 10 64C 9.1 67.2 12.7 69.5 16 70C 18 70.3 20 70.4 22 70M 190 22C 190.2 20 189.7 18 190 16C 190.5 12.7 187.3 10.6 184 10C 182 9.7 180 9.8 178 10M 178 70C 160.4 70.3 142.8 68.8 125.3 70C 109.5 71 93.6 71.5 77.9 70C 59.3 68.3 40.6 70.2 22 70M 190 58C 189.4 59.9 189.6 62 190 64C 190.6 67.3 187.3 69.4 184 70C 182 70.4 180 70.4 178 70"></path><path d="M 10 22L 10 16C 10 12.6863 12.6863 10 16 10L 22 10M 190 22L 190 58M 10 58L 10 22M 22 10L 178 10M 10 58L 10 64C 10 67.3137 12.6863 70 16 70L 22 70M 190 22L 190 16C 190 12.6863 187.3137 10 184 10L 178 10M 178 70L 22 70M 190 58L 190 64C 190 67.3137 187.3137 70 184 70L 178 70"></path></g></g></g><g id="g-root-cp_4-3_cell-4-3_1cz8yvr1eu76rz-stroke" data-item-order="-676389" transform="translate(698, 518)"><g id="cp_4-3_cell-4-3_1cz8yvr1eu76rz-stroke" fill="none" stroke-linecap="round" stroke-linejoin="round" stroke-miterlimit="4" stroke="#0284c7" stroke-width="2"><g><path d="M 10 22C 9.8 20 9.7 18 10 16C 10.6 12.7 12.7 9.5 16 10C 18 10.3 20 10.3 22 10M 190 22C 190.7 33.7 190.5 45.5 190 57.2C 189.5 69.4 190.3 81.7 190 94M 10 94C 9.3 70 9.5 46 10 22M 22 10C 47.6 9.4 73.3 11.7 98.9 10C 125.2 8.3 151.7 8.6 178 10M 10 94C 9.8 96 9.4 98.1 10 100C 10.9 103.2 12.8 106.7 16 106C 18 105.6 20 105.9 22 106M 190 22C 189.4 20.1 190.5 17.9 190 16C 189.1 12.8 187.2 9.2 184 10C 182.1 10.5 180 10.2 178 10M 178 106C 151.4 104.5 124.6 105.2 98 106C 72.6 106.8 47.3 106.1 22 106M 190 94C 190.7 95.9 189.6 98 190 100C 190.6 103.3 187.3 105.5 184 106C 182 106.3 180 106.2 178 106"></path><path d="M 10 22L 10 16C 10 12.6863 12.6863 10 16 10L 22 10M 190 22L 190 94M 10 94L 10 22M 22 10L 178 10M 10 94L 10 100C 10 103.3137 12.6863 106 16 106L 22 106M 190 22L 190 16C 190 12.6863 187.3137 10 184 10L 178 10M 178 106L 22 106M 190 94L 190 100C 190 103.3137 187.3137 106 184 106L 178 106"></path></g></g></g><g id="g-root-cp_1_g-1_4_143lymv1eu78ch-stroke" data-item-order="-676370" transform="translate(914, 122)"><g id="cp_1_g-1_4_143lymv1eu78ch-stroke" fill="none" stroke-linecap="round" stroke-linejoin="round" stroke-miterlimit="4" stroke="#0284c7" stroke-width="4"><g><path d="M 22 10C 15.4 10.7 11.6 15.6 10 22M 214 154C 212.9 133 214.2 111.9 214 90.9C 213.8 67.9 212.6 44.9 214 22M 10 22C 10.6 35.3 8.4 48.6 10 61.8C 11.7 75.8 9.5 90 10 104.1C 10.6 120.7 10.6 137.4 10 154M 22 10C 40.9 9.8 59.8 8.9 78.7 10C 100 11.3 121.4 9.8 142.7 10C 162.5 10.2 182.3 10.7 202 10M 214 22C 213.2 15.4 208.5 11.4 202 10"></path><path d="M 22 10C 15.373 10 10 15.373 10 22M 214 154L 214 22M 10 22L 10 154M 22 10L 202 10M 214 22C 214 15.3826 208.6174 10 202 10"></path></g></g></g><g id="g-root-cp_0_g-0_4_qsrxcn1eu76rn-stroke" data-item-order="-676340" transform="translate(914, 266)"><g id="cp_0_g-0_4_qsrxcn1eu76rn-stroke" fill="none" stroke-linecap="round" stroke-linejoin="round" stroke-miterlimit="4" stroke="#0284c7" stroke-width="4"><g><path d="M 10 358C 10.5 364.6 15.5 368.8 22 370M 202 370C 172.4 371.3 142.7 370.1 113.1 370C 82.7 369.9 52.4 369.6 22 370M 202 370C 208.6 369.3 214.4 364.6 214 358M 214 10C 214.4 26.7 212.2 43.4 214 60C 215.8 76.6 213.7 93.3 214 110C 214.3 125.5 215.1 141 214 156.4C 212.9 171.6 214.1 186.9 214 202.2C 213.9 218.9 213.7 235.6 214 252.3C 214.3 268.7 215.2 285.1 214 301.5C 212.7 320.3 215.5 339.2 214 358M 10 358C 8.6 343.8 8.4 329.3 10 315.1C 11.5 301.2 11.2 287 10 273C 8.8 257.9 11.2 242.6 10 227.6C 8.9 214.4 9.2 201.1 10 187.9C 10.9 174.4 9.6 160.9 10 147.4C 10.4 132.6 9.4 117.8 10 103.1C 10.6 89 12 74.7 10 60.8C 7.6 44 10.2 26.9 10 10M 214 10C 197.8 10.4 181.6 8.9 165.4 10C 147.3 11.3 129 8.5 110.8 10C 93.4 11.4 75.8 9 58.4 10C 42.3 10.9 26 11.7 10 10"></path><path d="M 10 358C 10 364.6274 15.3726 370 22 370M 202 370L 22 370M 202 370C 208.6274 370 214 364.6274 214 358M 214 10L 214 358M 10 358L 10 10M 214 10L 10 10"></path></g></g></g><g id="g-root-cp_1-4_cell-1-4_dhbezb1eu78cl-stroke" data-item-order="-676319" transform="translate(926, 278)"><g id="cp_1-4_cell-1-4_dhbezb1eu78cl-stroke" fill="none" stroke-linecap="round" stroke-linejoin="round" stroke-miterlimit="4" stroke="#0284c7" stroke-width="2"><g><path d="M 10 22C 10.1 20 10.3 18 10 16C 9.5 12.7 12.9 8.9 16 10C 17.9 10.7 20 10.1 22 10M 190 22C 190.2 34 189.4 46 190 58M 10 58C 9.5 46 9.6 34 10 22M 22 10C 45.7 9 69.5 8.8 93.2 10C 121.4 11.5 149.7 10.2 178 10M 10 58C 9.7 60 9.9 62 10 64C 10.2 67.3 12.7 70.1 16 70C 18 70 20.1 69.5 22 70M 190 22C 189.3 20.1 189.3 17.8 190 16C 191.2 12.9 187.3 9.3 184 10C 182 10.4 180 9.9 178 10M 178 70C 151.7 71.8 125.3 69.1 98.9 70C 73.3 70.9 47.6 71.3 22 70M 190 58C 189.5 59.9 189.8 62 190 64C 190.3 67.3 187.3 70.7 184 70C 182 69.6 179.9 70.7 178 70"></path><path d="M 10 22L 10 16C 10 12.6863 12.6863 10 16 10L 22 10M 190 22L 190 58M 10 58L 10 22M 22 10L 178 10M 10 58L 10 64C 10 67.3137 12.6863 70 16 70L 22 70M 190 22L 190 16C 190 12.6863 187.3137 10 184 10L 178 10M 178 70L 22 70M 190 58L 190 64C 190 67.3137 187.3137 70 184 70L 178 70"></path></g></g></g><g id="g-root-cp_2-4_cell-2-4_6hdp31eu76rr-stroke" data-item-order="-676301" transform="translate(926, 350)"><g id="cp_2-4_cell-2-4_6hdp31eu76rr-stroke" fill="none" stroke-linecap="round" stroke-linejoin="round" stroke-miterlimit="4" stroke="#0284c7" stroke-width="2"><g><path d="M 10 22C 9.7 20 9.4 17.9 10 16C 10.9 12.8 12.7 10.3 16 10C 18 9.8 20 9.8 22 10M 190 22C 190.8 42 188.6 62 190 82M 10 82C 11.9 62.1 9.1 42 10 22M 22 10C 38.5 11.9 55.2 11.2 71.7 10C 89.6 8.7 107.7 10.4 125.6 10C 143.1 9.6 160.6 9 178 10M 10 82C 9.5 84 10 86 10 88C 10 91.3 12.7 93.5 16 94C 18 94.3 20.1 93.5 22 94M 190 22C 190 20 190 18 190 16C 190 12.7 187.1 11.1 184 10C 182.1 9.3 180 9.9 178 10M 178 94C 149.5 94.8 121 93 92.5 94C 69 94.8 45.5 93.2 22 94M 190 82C 190.4 84 189.6 86 190 88C 190.6 91.3 187.3 94.2 184 94C 182 93.9 179.9 93.4 178 94"></path><path d="M 10 22L 10 16C 10 12.6863 12.6863 10 16 10L 22 10M 190 22L 190 82M 10 82L 10 22M 22 10L 178 10M 10 82L 10 88C 10 91.3137 12.6863 94 16 94L 22 94M 190 22L 190 16C 190 12.6863 187.3137 10 184 10L 178 10M 178 94L 22 94M 190 82L 190 88C 190 91.3137 187.3137 94 184 94L 178 94"></path></g></g></g><g id="g-root-cp_3-4_cell-3-4_1lw4xav1eu785l-stroke" data-item-order="-676283" transform="translate(926, 446)"><g id="cp_3-4_cell-3-4_1lw4xav1eu785l-stroke" fill="none" stroke-linecap="round" stroke-linejoin="round" stroke-miterlimit="4" stroke="#0284c7" stroke-width="2"><g><path d="M 10 22C 9.4 20.1 9.4 17.9 10 16C 11.1 12.9 12.9 11.1 16 10C 17.9 9.3 20.1 10.7 22 10M 190 22C 191.2 33.9 188.1 46.2 190 58M 10 58C 10.3 46 10.9 34 10 22M 22 10C 36.1 11.2 50.3 8.9 64.4 10C 75.8 10.9 87.3 8.9 98.7 10C 112.4 11.3 126.2 10.9 139.9 10C 152.6 9.1 165.3 10.7 178 10M 10 58C 9.4 59.9 10.2 62 10 64C 9.7 67.3 12.7 69.5 16 70C 18 70.3 20 70 22 70M 190 22C 189.3 20.1 189.7 18 190 16C 190.4 12.7 187.3 10 184 10C 182 10 180 10.3 178 10M 178 70C 150.3 71.3 122.5 68.9 94.8 70C 70.5 71 46.3 70.2 22 70M 190 58C 189.8 60 189.3 62.1 190 64C 191.1 67.1 187.3 70.2 184 70C 182 69.9 180 69.9 178 70"></path><path d="M 10 22L 10 16C 10 12.6863 12.6863 10 16 10L 22 10M 190 22L 190 58M 10 58L 10 22M 22 10L 178 10M 10 58L 10 64C 10 67.3137 12.6863 70 16 70L 22 70M 190 22L 190 16C 190 12.6863 187.3137 10 184 10L 178 10M 178 70L 22 70M 190 58L 190 64C 190 67.3137 187.3137 70 184 70L 178 70"></path></g></g></g><g id="g-root-cp_4-4_cell-4-4_1hgbf6f1eu78xv-stroke" data-item-order="-676265" transform="translate(926, 518)"><g id="cp_4-4_cell-4-4_1hgbf6f1eu78xv-stroke" fill="none" stroke-linecap="round" stroke-linejoin="round" stroke-miterlimit="4" stroke="#0284c7" stroke-width="2"><g><path d="M 10 22C 10.3 20 9.9 18 10 16C 10.1 12.7 12.7 10.2 16 10C 18 9.9 20 9.9 22 10M 190 22C 190.7 46 189.5 70 190 94M 10 94C 10.3 82.3 9.7 70.7 10 59C 10.3 46.7 9.7 34.3 10 22M 22 10C 39.4 10.6 56.8 10.7 74.1 10C 92.8 9.3 111.6 9.1 130.3 10C 146.2 10.7 162.2 8.6 178 10M 10 94C 10.6 95.9 9.8 98 10 100C 10.4 103.3 12.7 105.5 16 106C 18 106.3 20 106.4 22 106M 190 22C 189.3 20.1 189.5 17.9 190 16C 190.8 12.8 187.3 9.8 184 10C 182 10.1 180 10.2 178 10M 178 106C 154.3 108 130.5 107.1 106.8 106C 78.5 104.7 50.2 107.6 22 106M 190 94C 190.4 95.9 189.5 98.1 190 100C 190.8 103.2 187.3 106 184 106C 182 106 180 106.1 178 106"></path><path d="M 10 22L 10 16C 10 12.6863 12.6863 10 16 10L 22 10M 190 22L 190 94M 10 94L 10 22M 22 10L 178 10M 10 94L 10 100C 10 103.3137 12.6863 106 16 106L 22 106M 190 22L 190 16C 190 12.6863 187.3137 10 184 10L 178 10M 178 106L 22 106M 190 94L 190 100C 190 103.3137 187.3137 106 184 106L 178 106"></path></g></g></g><g id="g-root-tx_separard_qvwdxz1eu1jwh-stroke" data-item-order="0" transform="translate(716, 290)"></g><g id="g-root-tx_coletore_1hby6qf1eu8miz-stroke" data-item-order="0" transform="translate(974, 290)"></g><g id="g-root-tx_recipien_1qa305z1eua0p6-stroke" data-item-order="0" transform="translate(512, 290)"></g><g id="g-root-tx_sigaasdi_dhbezb1eu8mir-stroke" data-item-order="0" transform="translate(260, 374)"></g><g id="g-root-tx_sacosesp_qsrxcn1eu8kxu-stroke" data-item-order="0" transform="translate(266, 296)"></g><g id="g-root-tx_sigaasdi_144uwt31eua231-stroke" data-item-order="0" transform="translate(488, 374)"></g><g id="g-root-tx_separao_145hdw71eu77d1-stroke" data-item-order="0" transform="translate(74, 296)"></g><g id="g-root-tx_protocol_4osvbr1eu1ma2-stroke" data-item-order="0" transform="translate(734, 362)"></g><g id="g-root-tx_baterias_4hb6af1eu8nia-stroke" data-item-order="0" transform="translate(926, 206)"></g><g id="g-root-tx_protocol_hz0cd31eu76ku-stroke" data-item-order="0" transform="translate(86, 380)"></g><g id="g-root-tx_pontosde_14145g71eu8ky4-stroke" data-item-order="0" transform="translate(950, 374)"></g><g id="g-root-tx_manuteno_4njtzr1eu785r-stroke" data-item-order="0" transform="translate(50, 464)"></g><g id="g-root-tx_medicame_18mjxcn1eu1kp4-stroke" data-item-order="0" transform="translate(704, 206)"></g><g id="g-root-tx_mantenha_6hdp31eu8kxw-stroke" data-item-order="0" transform="translate(260, 458)"></g><g id="g-root-tx_lixoreci_v3x31eua22z-stroke" data-item-order="0" transform="translate(506, 206)"></g><g id="g-root-tx_mantenha_qu0viv1eua0i6-stroke" data-item-order="0" transform="translate(488, 458)"></g><g id="g-root-tx_lixocomu_18jfgrb1eu8lqh-stroke" data-item-order="0" transform="translate(266, 206)"></g><g id="g-root-tx_armazena_1qf2w0n1eu1ki3-stroke" data-item-order="0" transform="translate(722, 458)"></g><g id="g-root-tx_danosamb_8z03o71eu8lqe-stroke" data-item-order="0" transform="translate(944, 554)"></g><g id="g-root-tx_pontosde_m9u4yf1eu8nb9-stroke" data-item-order="0" transform="translate(950, 458)"></g><g id="g-root-tx_consequn_1utnct31eu76dc-stroke" data-item-order="0" transform="translate(38, 530)"></g><g id="g-root-ic_2_1ut0vpz1eua13c-stroke" data-item-order="0" transform="translate(764, 146)"><g id="ic_2_1ut0vpz1eua13c-stroke" fill="none" stroke-linecap="round" stroke-linejoin="round" stroke-miterlimit="4" stroke="#0284c7" stroke-width="2"><g><path d="M 33.200001 29.6C 35 28.799999 36.400002 27.4 38.200001 27.6C 40 28 41.799999 28.4 43 29.6C 44.200001 31 45.599998 32.799999 45 34.599998C 44.400002 36.200001 44 37.799999 43 39.400002C 40.200001 42 38 45.599998 34.799999 47.799999C 33.599998 49 31.799999 49.599998 29.799999 49.599998C 28 49.599998 26.6 48.599998 25 47.599998C 23.6 46.799999 22.4 44.599998 23 42.799999C 23.6 41.200001 23.6 39.200001 24.799999 38C 28 35.400002 29.799999 31.6 33.200001 29.6M 10 10M 29.6 33.400002C 32.200001 37.200001 36 40 39.400002 43.200001M 15.2 16.799999C 14.2 16.6 13.6 17.4 12.8 17.799999C 12 18.200001 11.8 19.4 11.6 20.200001C 11.6 31.200001 10.8 42 11.6 52.799999C 11.8 53.799999 12 54.799999 12.8 55.200001C 13.4 55.799999 14.2 56.400002 15.2 56.400002C 22.4 55 30.4 59 37.200001 56.400002M 22 11.6C 22.4 15.2 22.4 18.6 22 22M 46 11.6C 46 15.2 46.599998 18.6 46 22M 22 16.799999C 27.6 16 33.400002 16.6 39.200001 16.799999M 10 10M 56.400002 44.200001C 52.400002 47.200001 49.200001 51.599998 47.400002 56.200001C 45.599998 54.599998 43.400002 53.200001 41.400002 51.599998M 56.400002 38.599998C 57.799999 32.599998 55.200001 26.200001 56.400002 20.200001C 56.400002 19.4 55.799999 18.6 55.200001 17.799999C 54.799999 17 53.799999 16.6 52.799999 16.799999C 50.799999 17.799999 48.200001 17 46 16.799999"></path><path d="M 33.290802 29.56044C 34.603001 28.32016 36.347 27.640459 38.152397 27.66584C 39.9576 27.691219 41.681801 28.41968 42.958599 29.69636C 44.235199 30.973 44.9636 32.697201 44.988998 34.502602C 45.0144 36.307999 44.334801 38.052002 43.094398 39.363998L 34.739201 47.719398C 33.434402 48.968399 31.6938 49.659 29.88764 49.644402C 28.081499 49.629799 26.352341 48.910999 25.067921 47.641201C 23.78352 46.371201 23.04524 44.650398 23.010101 42.844601C 22.974979 41.038601 23.645779 39.290398 24.87982 37.971397L 33.290802 29.56044ZM 10 10M 29.503901 33.347603L 39.307602 43.151199M 15.1301 16.845581C 14.220181 16.845581 13.34752 17.207039 12.7041 17.85046C 12.06068 18.493881 11.699218 19.366539 11.699218 20.276459L 11.699218 52.869801C 11.699218 53.7798 12.06068 54.652401 12.7041 55.295799C 13.34752 55.939201 14.220181 56.300598 15.1301 56.300598L 37.2374 56.300598M 21.99194 11.699218L 21.99194 21.991859M 46.007999 11.699218L 46.007999 21.991859M 21.99194 16.845581L 39.1464 16.845581M 10 10M 56.301201 44.270401L 47.383999 56.145802L 41.446198 51.6978M 56.300598 38.578201L 56.300598 20.276459C 56.300598 19.366539 55.939201 18.493881 55.295799 17.85046C 54.652401 17.207039 53.7798 16.845581 52.869801 16.845581L 46.007999 16.845581"></path></g></g></g><g id="g-root-ic_1_v9udnb1eu8mbq-stroke" data-item-order="0" transform="translate(536, 146)"><g id="ic_1_v9udnb1eu8mbq-stroke" fill="none" stroke-linecap="round" stroke-linejoin="round" stroke-miterlimit="4" stroke="#0284c7" stroke-width="2"><g><path d="M 56 46.599998C 56.799999 49.599998 55.599998 53.200001 52.599998 52.400002C 49.799999 51.799999 46.799999 52.599998 43.799999 52.400002M 41.599998 33.200001C 43.799999 31.200001 46.599998 31 48.400002 33.200001C 49.200001 36.599998 52.799999 39 53.599998 42.200001M 37.400002 52.400002C 34.400002 52 32.400002 49.200001 34 46.599998C 36.400002 44.400002 36.599998 40.400002 38.799999 38M 10 10M 47.599998 48.400002C 46.400002 49.799999 45.200001 51.400002 43.799999 52.400002C 44.799999 54 46.400002 55 47.599998 56.400002M 10 10M 40.400002 43.200001C 39.400002 41.799999 39.200001 39.799999 38.799999 38C 37.200001 39 35 38.400002 33.400002 39.400002M 10 10M 48.200001 40.799999C 50 40.799999 51.799999 42 53.599998 42.200001C 54 40.400002 54.400002 38.599998 55 36.799999M 26.6 47.599998C 22.6 47.599998 18.4 46.400002 14.6 47.599998C 13 48 11.8 46 11.6 44.599998C 10.2 37.599998 9.6 30.200001 11.6 23.6C 12 22 13 21 14.6 20.6C 24 17.4 34.599998 20.799999 44.599998 20.6C 46 20.4 47.599998 21.799999 47.599998 23.6C 47.400002 24.799999 47.599998 26.200001 47.599998 27.6M 46.599998 21.4C 45 18.200001 42.400002 15.8 41 13C 40.200001 12.2 39.400002 11.2 38.599998 11.6C 32.599998 12.6 26.6 11.2 20.799999 11.6C 19.799999 11.6 19 12.2 18.200001 13C 16 15.4 14.6 18.6 12.4 21.4M 29.6 11.6C 29.799999 14.6 30.200001 17.6 29.6 20.6"></path><path d="M 56.02 46.689999C 57.419998 49.290001 55.619999 52.490002 52.619999 52.490002L 43.82 52.490002M 41.620003 33.290001C 43.220001 30.690001 47.02 30.690001 48.419998 33.290001L 53.619999 42.290001M 37.419998 52.490002C 34.419998 52.490002 32.419998 49.290001 34.02 46.689999L 38.82 38.09M 10 10M 47.619999 48.490002L 43.82 52.490002L 47.619999 56.490002M 10 10M 40.419998 43.290001L 38.82 38.09L 33.419998 39.489998M 10 10M 48.220001 40.889801L 53.619999 42.289799L 55.02 36.889801M 26.5 47.5L 14.5 47.5C 12.9 47.5 11.5 46.099998 11.5 44.5L 11.5 23.5C 11.5 21.9 12.9 20.5 14.5 20.5L 44.5 20.5C 46.099998 20.5 47.5 21.9 47.5 23.5L 47.5 27.5M 46.5 21.30002L 40.900002 12.9C 40.299999 12.1 39.5 11.5 38.5 11.5L 20.700001 11.5C 19.700001 11.5 18.700001 12.1 18.299999 12.9L 12.5 21.30002M 29.5 11.5L 29.5 20.5"></path></g></g></g><g id="g-root-ic_tras_vbpswn1eu7762-stroke" data-item-order="0" transform="translate(308, 146)"><g id="ic_tras_vbpswn1eu7762-stroke" fill="none" stroke-linecap="round" stroke-linejoin="round" stroke-miterlimit="4" stroke="#0284c7" stroke-width="2"><g><path d="M 10 10M 24.200001 24.6C 23 23.4 21.799999 22.4 20.799999 21.200001C 22.200001 19 22.799999 16.4 24.200001 14.2C 26.4 12.6 29.6 12.8 32 11.6C 33.599998 12.6 35.799999 13.2 37.200001 15C 36.799999 17.200001 36.400002 19.6 37.200001 22C 37.799999 22.4 38.400002 23 39 23.799999C 38.200001 24.200001 38 25 37.400002 25.4C 35.200001 26.200001 33.400002 27 31.200001 26.200001C 31 26 30.6 25.6 30.200001 25.6C 28.4 24.6 26.200001 24.200001 24.200001 24.6M 30.200001 25.4C 30.6 23.200001 30 21 30.200001 19M 45.599998 15.6C 45.599998 15.6 50.799999 13.2 56.599998 11.6M 10 10M 42.200001 32.599998C 40.599998 40 40.599998 48.200001 36.599998 54.799999C 36.200001 55.599998 35.200001 56.200001 34.400002 56.599998C 29.4 57.599998 24.200001 57 19.4 56.599998C 18.4 56.400002 17.4 55.599998 17.200001 54.799999C 14.4 47.599998 13.6 39.799999 11.6 32.599998C 21.6 33.599998 32.200001 29.6 42.200001 32.599998M 10 10M 24 56.400002C 22.799999 48.400002 21 40.599998 21 32.400002M 29.799999 56.400002C 28.6 48.400002 29 39.599998 32.799999 32.599998M 13.6 40.599998C 22.200001 38.599998 31.200001 39.799999 40.200001 40.599998M 15.6 48.599998C 23 49 30.6 47.200001 38.200001 48.599998"></path><path d="M 10 10M 24.10004 24.5L 20.70002 21.1L 24.10004 14.1L 31.9 11.5L 37.099998 14.9L 37.099998 21.9L 38.900002 23.700001L 37.299999 25.299999C 35.700001 26.9 33.299999 27.299999 31.299999 26.1L 30.299999 25.5L 24.10004 24.5ZM 30.1 25.30002L 30.1 18.900021M 45.5 15.5C 45.5 15.5 50.5 11.5 56.5 11.5M 10 10M 42.099998 32.5L 36.5 54.700001C 36.299999 55.700001 35.299999 56.5 34.299999 56.5L 19.300041 56.5C 18.300041 56.5 17.300039 55.700001 17.10004 54.700001L 11.5 32.5L 42.099998 32.5ZM 10 10M 23.900021 56.299999L 20.900021 32.5M 29.70002 56.299999L 32.700001 32.5M 13.5 40.5L 40.099998 40.5M 15.5 48.5L 38.099998 48.5"></path></g></g></g><g id="g-root-tx_descarte_18mju6v1eu78qx-stroke" data-item-order="0" transform="translate(308, 38)"></g><g id="g-root-tx_multasse_1d0hx1z1eu8n4d-stroke" data-item-order="0" transform="translate(260, 548)"></g><g id="g-root-tx_multasse_93dc471eu9zpj-stroke" data-item-order="0" transform="translate(488, 548)"></g><g id="g-root-tx_riscossa_18efr871eu2y9w-stroke" data-item-order="0" transform="translate(716, 548)"></g><g id="g-root-ic_batt_m7c8lz1eu30nh-stroke" data-item-order="0" transform="translate(992, 146)"><g id="ic_batt_m7c8lz1eu30nh-stroke" fill="none" stroke-linecap="round" stroke-linejoin="round" stroke-miterlimit="4" stroke="#0284c7" stroke-width="2"><g><path d="M 13 23C 26.799999 25.200001 41 22.200001 55 23C 55 23 56.400002 23 57 25C 59.400002 32.599998 55.799999 41.200001 57 49C 57 49 57 51.400002 55 51C 41.200001 48.400002 26.6 54.200001 13 51C 13 51 11.6 51 11 49C 9 41.200001 12.2 32.799999 11 25C 11 25 11 23.200001 13 23M 25 23C 25.200001 21.4 24.6 19.6 25 18C 25.200001 17.4 24.6 17 24 17C 22 17.4 19.799999 17.6 18 17C 17.4 16.799999 17 17.4 17 18C 17 19.6 17.200001 21.4 17 23M 51 23C 51.200001 21.4 51 19.6 51 18C 51 17.4 50.599998 17 50 17C 48 16.799999 46 16.799999 44 17C 43.400002 17 43 17.4 43 18C 43 19.6 43 21.4 43 23M 16 35C 19.4 35 22.6 34.799999 26 35M 42 35C 45.400002 34.799999 48.799999 34.200001 52 35M 47 30C 46 33.200001 46.200001 36.799999 47 40"></path><path d="M 13 23L 55 23C 55 23 57 23 57 25L 57 49C 57 49 57 51 55 51L 13 51C 13 51 11 51 11 49L 11 25C 11 25 11 23 13 23M 25 23L 25 18C 25 17.447716 24.552284 17 24 17L 18 17C 17.447716 17 17 17.447716 17 18L 17 23M 51 23L 51 18C 51 17.447716 50.552284 17 50 17L 44 17C 43.447716 17 43 17.447716 43 18L 43 23M 16 35L 26 35M 42 35L 52 35M 47 30L 47 40"></path></g></g></g></g></g></svg>