<?xml version="1.0" encoding="utf-8" standalone="yes"?>
<!DOCTYPE svg PUBLIC "-//W3C//DTD SVG 1.1//EN" "http://www.w3.org/Graphics/SVG/1.1/DTD/svg11.dtd">
<svg width="696" height="375" viewBox="0 0 696 375" style="fill:none;stroke:none;fill-rule:evenodd;clip-rule:evenodd;stroke-linecap:round;stroke-linejoin:round;stroke-miterlimit:1.5;" version="1.1" xmlns="http://www.w3.org/2000/svg" xmlns:xlink="http://www.w3.org/1999/xlink"><style class="text-font-style fontImports" data-font-family="Shantell Sans">@import url('https://fonts.googleapis.com/css2?family=Shantell+Sans:wght@300..800&amp;display=block');</style><g id="items" style="isolation: isolate"><g id="blend" style="mix-blend-mode: normal"><g id="g-root-sy_-1_line_zpouja1cwcvsw-fill" data-item-order="-3881" transform="translate(593, 314)"></g><g id="g-root-sy_-1_vector_meut921cwcu81-fill" data-item-order="-3877" transform="translate(14, 313.9962158203125)"></g><g id="g-root-sy_4_cu-smallCircle_dj7t061cwcv0q-fill" data-item-order="-3873" transform="translate(587, 311)"></g><g id="g-root-sy_3_cu-smallCircle_8drpy1cwctfv-fill" data-item-order="-3869" transform="translate(419, 311)"></g><g id="g-root-sy_2_cu-smallCircle_1utobkm1cwcu10-fill" data-item-order="-3865" transform="translate(251, 311)"></g><g id="g-root-sy_1_cu-smallCircle_1ly1bbq1cwcutp-fill" data-item-order="-3861" transform="translate(83, 311)"></g><g id="g-root-tx_processo_dccl1y1cwearm-fill" data-item-order="0" transform="translate(50, 38)"><g id="tx_processo_dccl1y1cwearm-fill" stroke="none" fill="#0284c7"><g><text style="font: bold 25px &quot;Shantell Sans&quot;, cursive; white-space: pre;" font-weight="bold" font-size="25px" font-family="'Shantell Sans', cursive"><tspan x="16.73" y="42" dominant-baseline="ideographic">Processo de Gerenciamento de Pedidos do </tspan><tspan x="196.9" y="72" dominant-baseline="ideographic">Farmácias APP</tspan></text></g></g></g><g id="g-root-tx_imprimir_v3mljq1cwe8eh-fill" data-item-order="0" transform="translate(38, 194)"><g id="tx_imprimir_v3mljq1cwe8eh-fill" stroke="none" fill="#0284c7"><g><text style="font: 20px &quot;Shantell Sans&quot;, cursive; white-space: pre;" font-size="20px" font-family="'Shantell Sans', cursive"><tspan x="12.21" y="35" dominant-baseline="ideographic">Imprimir </tspan><tspan x="22.37" y="59" dominant-baseline="ideographic">Pedido</tspan></text></g></g></g><g id="g-root-tx_assinatu_18egmty1cwe9zc-fill" data-item-order="0" transform="translate(182, 194)"><g id="tx_assinatu_18egmty1cwe9zc-fill" stroke="none" fill="#0284c7"><g><text style="font: 20px &quot;Shantell Sans&quot;, cursive; white-space: pre;" font-size="20px" font-family="'Shantell Sans', cursive"><tspan x="12.82" y="35" dominant-baseline="ideographic">Assinatura do </tspan><tspan x="36.95" y="59" dominant-baseline="ideographic">Motoboy</tspan></text></g></g></g><g id="g-root-tx_autoriza_9mpw61cwcvlz-fill" data-item-order="0" transform="translate(356, 194)"><g id="tx_autoriza_9mpw61cwcvlz-fill" stroke="none" fill="#0284c7"><g><text style="font: 20px &quot;Shantell Sans&quot;, cursive; white-space: pre;" font-size="20px" font-family="'Shantell Sans', cursive"><tspan x="13.73" y="35" dominant-baseline="ideographic">Autorização </tspan><tspan x="18.95" y="59" dominant-baseline="ideographic">de Entrega</tspan></text></g></g></g><g id="g-root-tx_armazena_18mksye1cwcwem-fill" data-item-order="0" transform="translate(524, 194)"><g id="tx_armazena_18mksye1cwcwem-fill" stroke="none" fill="#0284c7"><g><text style="font: 20px &quot;Shantell Sans&quot;, cursive; white-space: pre;" font-size="20px" font-family="'Shantell Sans', cursive"><tspan x="21.52" y="35" dominant-baseline="ideographic">Armazenar </tspan><tspan x="12.64" y="59" dominant-baseline="ideographic">Comprovante</tspan></text></g></g></g><g id="g-root-ic_hand_dcz5au1cw5udc-fill" data-item-order="0" transform="translate(62, 254)"></g><g id="g-root-ic_pass_1464wwm1cw4emm-fill" data-item-order="0" transform="translate(230, 254)"></g><g id="g-root-ic_thro_mdly8m1cw31fw-fill" data-item-order="0" transform="translate(398, 254)"></g><g id="g-root-ic_mana_1q6zlhy1cwe9sb-fill" data-item-order="0" transform="translate(566, 254)"></g><g id="g-root-sy_-1_line_zpouja1cwcvsw-stroke" data-item-order="-3881" transform="translate(593, 314)"><g id="sy_-1_line_zpouja1cwcvsw-stroke" fill="none" stroke-linecap="round" stroke-linejoin="round" stroke-miterlimit="4" stroke="#0284c7" stroke-width="2"><g><path d="M 77 10C 54.7 9.9 32.3 10.4 10 10"></path><path d="M 77 10L 10 10"></path><path d="M 71 16.5C 73.2 14.4 75.1 11.9 77.5 10C 75.3 7.8 72.2 6.3 71 3.5" stroke-dasharray="none"></path><path d="M 71 16.5L 77.5 10L 71 3.5" stroke-dasharray="none"></path></g></g></g><g id="g-root-sy_-1_vector_meut921cwcu81-stroke" data-item-order="-3877" transform="translate(14, 313.9962158203125)"><g id="sy_-1_vector_meut921cwcu81-stroke" fill="none" stroke-linecap="round" stroke-linejoin="round" stroke-miterlimit="4" stroke="#0284c7" stroke-width="2"><g><path d="M 583 10C 556.4 8.1 529.6 9.8 502.9 10C 475.6 10.2 448.3 10.3 421 10M 415 10C 395.3 9 375.6 11.2 356 10C 339.1 8.9 322.1 9.4 305.2 10C 287.8 10.6 270.3 8.7 253 10M 247 10C 230.3 10.8 213.4 8.4 196.7 10C 176.9 11.9 157 8.7 137.2 10C 119.8 11.1 102.4 11.1 85 10M 79 10C 56 11.3 33 10.9 10 10"></path><path d="M 583 10.003985L 421 10.000385M 415 10.003885L 253 10.003885M 247 10.003885L 85 10.003885M 78.9976 9.999985L 10 9.999985"></path></g></g></g><g id="g-root-sy_4_cu-smallCircle_dj7t061cwcv0q-stroke" data-item-order="-3873" transform="translate(587, 311)"><g id="sy_4_cu-smallCircle_dj7t061cwcv0q-stroke" fill="none" stroke-linecap="round" stroke-linejoin="round" stroke-miterlimit="4" stroke="#0284c7" stroke-width="2"><g><path d="M 16 13C 16 14.7 14.7 16 13 16C 11.3 16 9.9 14.7 10 13C 10.1 11.3 11.3 10.1 13 10C 14.7 9.9 16.3 11.4 16 13"></path><path d="M 16 13C 16 14.6569 14.6569 16 13 16C 11.3431 16 10 14.6569 10 13C 10 11.3431 11.3431 10 13 10C 14.6569 10 16 11.3431 16 13Z"></path></g></g></g><g id="g-root-sy_3_cu-smallCircle_8drpy1cwctfv-stroke" data-item-order="-3869" transform="translate(419, 311)"><g id="sy_3_cu-smallCircle_8drpy1cwctfv-stroke" fill="none" stroke-linecap="round" stroke-linejoin="round" stroke-miterlimit="4" stroke="#0284c7" stroke-width="2"><g><path d="M 16 13C 16 14.7 14.6 15.5 13 16C 11.4 16.5 10 14.7 10 13C 10 11.3 11.4 9.8 13 10C 14.6 10.2 15.6 11.4 16 13"></path><path d="M 16 13C 16 14.6569 14.6569 16 13 16C 11.3431 16 10 14.6569 10 13C 10 11.3431 11.3431 10 13 10C 14.6569 10 16 11.3431 16 13Z"></path></g></g></g><g id="g-root-sy_2_cu-smallCircle_1utobkm1cwcu10-stroke" data-item-order="-3865" transform="translate(251, 311)"><g id="sy_2_cu-smallCircle_1utobkm1cwcu10-stroke" fill="none" stroke-linecap="round" stroke-linejoin="round" stroke-miterlimit="4" stroke="#0284c7" stroke-width="2"><g><path d="M 16 13C 16.1 14.6 14.6 16.1 13 16C 11.3 15.9 9.7 14.6 10 13C 10.3 11.4 11.4 10.2 13 10C 14.6 9.8 15.4 11.4 16 13"></path><path d="M 16 13C 16 14.6569 14.6569 16 13 16C 11.3431 16 10 14.6569 10 13C 10 11.3431 11.3431 10 13 10C 14.6569 10 16 11.3431 16 13Z"></path></g></g></g><g id="g-root-sy_1_cu-smallCircle_1ly1bbq1cwcutp-stroke" data-item-order="-3861" transform="translate(83, 311)"><g id="sy_1_cu-smallCircle_1ly1bbq1cwcutp-stroke" fill="none" stroke-linecap="round" stroke-linejoin="round" stroke-miterlimit="4" stroke="#0284c7" stroke-width="2"><g><path d="M 16 13C 15.7 14.6 14.5 15.4 13 16C 11.5 16.6 10.3 14.6 10 13C 9.7 11.4 11.4 9.5 13 10C 14.6 10.5 16.6 11.4 16 13"></path><path d="M 16 13C 16 14.6569 14.6569 16 13 16C 11.3431 16 10 14.6569 10 13C 10 11.3431 11.3431 10 13 10C 14.6569 10 16 11.3431 16 13Z"></path></g></g></g><g id="g-root-tx_processo_dccl1y1cwearm-stroke" data-item-order="0" transform="translate(50, 38)"></g><g id="g-root-tx_imprimir_v3mljq1cwe8eh-stroke" data-item-order="0" transform="translate(38, 194)"></g><g id="g-root-tx_assinatu_18egmty1cwe9zc-stroke" data-item-order="0" transform="translate(182, 194)"></g><g id="g-root-tx_autoriza_9mpw61cwcvlz-stroke" data-item-order="0" transform="translate(356, 194)"></g><g id="g-root-tx_armazena_18mksye1cwcwem-stroke" data-item-order="0" transform="translate(524, 194)"></g><g id="g-root-ic_hand_dcz5au1cw5udc-stroke" data-item-order="0" transform="translate(62, 254)"><g id="ic_hand_dcz5au1cw5udc-stroke" fill="none" stroke-linecap="round" stroke-linejoin="round" stroke-miterlimit="4" stroke="#0284c7" stroke-width="2"><g><path d="M 57 57C 55 55 54.400002 51.599998 52 50.200001C 51 47.200001 51.200001 44 52 41C 52.400002 37.400002 46.599998 33.599998 43 30M 47 45C 45 43.400002 43.799999 41 41.599998 39.400002C 40.799999 38.799999 39.400002 38.599998 38.599998 39.400002C 38 40.400002 38.200001 41.400002 38.599998 42.400002C 40.799999 44.200001 43 46.400002 44 49C 44.400002 50 43.799999 51 44 52C 44.400002 54 47.200001 57 47.200001 57M 37 51C 29 50.400002 20.799999 49.599998 13 51C 12 51.200001 10.6 50 11 49C 14.4 37.599998 10.6 25 11 13C 11 11.8 12 11.2 13 11C 22 8.8 32 8.6 41 11C 42 11.2 42.799999 11.8 43 13C 44.200001 22.200001 40.200001 32 43 40.799999M 37 47C 30.799999 47.599998 24 49 18 47C 17.4 46.799999 16.799999 46.599998 17 46C 18.4 42.200001 16 37.799999 17 34C 17.200001 33.400002 17.4 33.200001 18 33C 23.799999 31.200001 30 32.200001 36 33C 36.599998 33 37 33.400002 37 34C 37 35 37 36 37 37M 17 37C 23.6 37.400002 30.4 38 37 37M 23 33C 24.6 37.400002 24.4 42.599998 23 47M 29 33C 27.799999 37.599998 29.799999 42.400002 29 47M 29 19C 31.6 19.200001 34.400002 19 37 19M 29 23C 30.6 22.6 32.400002 22.4 34 23M 21 27C 21.200001 27.6 21.200001 28.4 21 29M 21 17C 20.799999 17.6 21.200001 18.4 21 19M 17 27C 19 26.6 21 27.200001 23 27C 24 26.799999 25.4 26 25 25C 24.6 24 24 23.4 23 23C 21.799999 22.6 20.200001 23.4 19 23C 18 22.6 17 22.200001 17 21C 17 19.799999 18 18.6 19 19C 21 19.6 23 18.6 25 19"></path><path d="M 57 57L 52 50.139999L 52 41C 52.099998 37.440002 46.84 33.279999 43 30M 47.040001 45L 41.66 39.459999C 40.831573 38.631569 39.488426 38.631569 38.659996 39.459999C 37.831573 40.288425 37.831573 41.631569 38.659996 42.459999L 44 49L 44 52C 44 54 47.119999 57 47.119999 57M 37 51L 13 51C 11.895431 51 11 50.104568 11 49L 11 13C 11 11.895431 11.895431 11 13 11L 41 11C 42.104568 11 43 11.895431 43 13L 43 40.84M 37 47L 18 47C 17.447716 47 17 46.552284 17 46L 17 34C 17 33.447716 17.447716 33 18 33L 36 33C 36.552284 33 37 33.447716 37 34L 37 37M 17 37L 37 37M 23 33L 23 47M 29 33L 29 47M 29 19L 37 19M 29 23L 34 23M 21 27L 21 29M 21 17L 21 19M 17 27L 23 27C 24.104568 27 25 26.10457 25 25C 25 23.895432 24.104568 23 23 23L 19 23C 17.895432 23 17 22.104568 17 21C 17 19.895432 17.895432 19 19 19L 25 19"></path></g></g></g><g id="g-root-ic_pass_1464wwm1cw4emm-stroke" data-item-order="0" transform="translate(230, 254)"><g id="ic_pass_1464wwm1cw4emm-stroke" fill="none" stroke-linecap="round" stroke-linejoin="round" stroke-miterlimit="4" stroke="#0284c7" stroke-width="2"><g><path d="M 37 56C 37.200001 51.400002 38.200001 46.799999 37 42.400002C 36.200001 43.200001 35.200001 44 34.200001 44.599998C 31.6 46 27.799999 47.200001 25.799999 44.799999C 24.6 43.200001 22.4 42.799999 21.200001 41.400002C 20.200001 40.200001 19.6 38.599998 20.6 37.200001C 21.4 35.799999 23.4 35.599998 24.799999 36.599998C 26.200001 37.599998 27.799999 38.799999 29.4 39.799999C 29.6 40 30.200001 40 30.6 39.799999C 33 38.599998 35 36.200001 37.200001 34.599998C 37.599998 34.200001 38.400002 34.200001 39 34C 39.599998 33.799999 40.400002 34.200001 41 34C 41.200001 35.400002 42.200001 36.599998 43.200001 37.599998C 43.400002 37.799999 43.599998 38 44 38C 44.400002 38 44.799999 37.799999 44.799999 37.599998C 45.200001 36.400002 46.200001 35.599998 46.799999 34.400002C 46.799999 34.200001 47.200001 34.200001 47.599998 34C 48 33.799999 48.599998 34 49 34C 52.400002 34 55.799999 36.799999 55 40C 54.200001 43.599998 54.599998 47.400002 55 51C 55.200001 52.599998 53.599998 54.200001 52 54C 50.400002 53.799999 49.200001 52.599998 49 51C 48.599998 47.599998 48.200001 44.200001 49 41M 49 56C 48.400002 54.400002 49.599998 52.599998 49 51M 40 22C 38 23.6 38.200001 27.799999 40.599998 28.799999C 43 29.6 45.400002 30.4 47.400002 28.799999C 49.400002 27 48.799999 24.4 48 22C 45.400002 21.6 42.599998 21.4 40 22M 48 22C 45 21.799999 42 21.6 39 22C 39 20.200001 37.400002 18.6 36.799999 16.799999C 36.599998 16.4 36.799999 16 37 15.8C 37 15.4 37.599998 15.2 37.799999 15.4C 41.200001 17.200001 45.200001 16.799999 48.799999 17.799999C 49 17.799999 49.200001 18 49.400002 18.200001C 49.599998 18.4 49.599998 19 49.400002 19.200001C 48.799999 20 48.200001 21 48 22M 39 22C 38 23 36.200001 23.200001 35 24M 21.6 30.4C 19 28.799999 16 27.4 13 27C 14.6 22.200001 13 17 13 12C 15.8 14 19.4 14.2 22.4 15.8C 22.799999 16 23 16.200001 23 16.6C 22.200001 20.799999 23.200001 25.200001 23 29.6C 23 29.799999 22.799999 30.200001 22.6 30.4C 22.200001 30.4 22 30.4 21.6 30.4M 13 12C 18 11.8 23.4 10.2 28 12C 28.6 12.2 29.200001 12.4 29 13C 28 17.6 29.6 22.4 29 27C 29 27.6 28.6 28.200001 28 28C 26.4 27.4 24.6 27.6 23 28"></path><path d="M 37 56L 37 42.355999L 34.200001 44.537998C 31.750952 46.422722 28.35961 46.491653 25.836 44.708L 21.256001 41.440002C 19.90764 40.476704 19.595337 38.602814 20.558407 37.254288C 21.521477 35.905769 23.395319 35.593155 24.743999 36.556L 29.318001 39.823997C 29.678867 40.083622 30.167801 40.073845 30.518 39.799999L 37.164001 34.629997C 37.688538 34.220982 38.334843 33.99921 39 34L 39 33.987999L 41 33.987999L 43.141998 37.559998C 43.322372 37.862633 43.648689 38.048027 44.000999 38.048027C 44.35331 38.048027 44.679626 37.862633 44.860001 37.559998L 46.709999 34.473999C 46.893642 34.177048 47.218864 33.997383 47.568001 34L 49 34C 52.313709 34 55 36.686295 55 40L 55 51C 55 52.656857 53.656857 54 52 54C 50.343147 54 49 52.656857 49 51L 49 41M 48.998001 56L 48.998001 51M 40.02 22C 38.452255 24.058849 38.714523 26.973726 40.624596 28.719662C 42.534676 30.465595 45.461327 30.465595 47.371403 28.719662C 49.281479 26.973726 49.543743 24.058849 47.976002 22ZM 48 22L 39 22L 36.760002 16.776001C 36.612724 16.432505 36.669281 16.035551 36.906631 15.746858C 37.143982 15.458164 37.522511 15.32592 37.888 15.403999L 48.736 17.728001C 49.038517 17.792944 49.29393 17.994265 49.427746 18.273239C 49.561562 18.552216 49.558701 18.877422 49.419998 19.153999ZM 38.998001 22L 34.998001 24M 21.625999 30.452L 13 27L 13 12L 22.369999 15.748C 22.749258 15.899992 22.997906 16.26742 22.998001 16.676001L 22.998001 29.521999C 22.998589 29.854252 22.834114 30.1651 22.55909 30.351524C 22.284065 30.537947 21.934408 30.575598 21.625999 30.452ZM 13 12L 28 12C 28.552284 12 29 12.447716 29 13L 29 27C 29 27.552284 28.552284 28 28 28L 23 28"></path></g></g></g><g id="g-root-ic_thro_mdly8m1cw31fw-stroke" data-item-order="0" transform="translate(398, 254)"><g id="ic_thro_mdly8m1cw31fw-stroke" fill="none" stroke-linecap="round" stroke-linejoin="round" stroke-miterlimit="4" stroke="#0284c7" stroke-width="2"><g><path d="M 21.799999 25.799999C 19.6 25.4 17.4 26.200001 15.2 25.799999C 14 25.6 13.6 24.799999 13.2 23.799999C 12.2 21.200001 14.2 18.200001 13.2 15.6C 12.8 14.6 14 13.8 15.2 13.6C 23.200001 13.2 31.200001 14.2 39.200001 13.6C 40.400002 13.6 41 14.6 41.200001 15.6C 41.400002 16.200001 41 16.799999 41.200001 17.4M 19.6 20.200001C 19.4 20.200001 19.200001 19.799999 19 19.6C 19 19.4 19.4 19 19.6 19.200001M 19.6 20.200001C 19.799999 20.200001 20 19.799999 20 19.6C 20 19.4 19.799999 19.200001 19.6 19.200001M 25.200001 20.200001C 25 20.200001 24.6 19.799999 24.799999 19.6C 24.799999 19.4 25 19.200001 25.200001 19.200001M 25.200001 20.200001C 25.6 20 25.6 19.799999 25.799999 19.6C 25.799999 19.4 25.4 19.200001 25.200001 19.200001M 10 10M 54.799999 45.200001C 47.599998 43.200001 39.599998 43.599998 32.200001 45.200001M 25.200001 45.200001C 21.200001 45.200001 17 44 13.2 45.200001M 10 10M 17 41.400002C 15.6 42.400002 14 43.599998 13.2 45.200001C 14.6 46.200001 15.6 48 17 49.200001M 47.799999 50.599998C 47.599998 52.599998 46 54.400002 44 54.400002C 39 54.200001 34 54.400002 29 54.400002C 27 54.400002 24.6 52.799999 25.200001 50.599998C 26.4 47 24.6 43 25.200001 39.400002C 25.6 37.400002 27 35.400002 29 35.599998C 34 36.200001 39.200001 37.200001 44 35.599998C 45.799999 35 48 37.400002 47.799999 39.400002M 36.400002 24.4C 32.200001 24.799999 28.6 27.6 29 31.799999C 29 33.200001 29 34.400002 29 35.599998C 34 35.799999 39 36 44 35.599998C 43.599998 34.400002 44 33.200001 44 31.799999C 44 27.799999 40.599998 23.6 36.400002 24.4"></path><path d="M 21.836781 25.78124L 15.121099 25.78124C 14.01652 25.78124 13.121099 24.88582 13.121099 23.78124L 13.121099 15.67188C 13.121099 14.5673 14.01652 13.67188 15.121099 13.67188L 39.236401 13.67188C 40.340797 13.67188 41.236401 14.5673 41.236401 15.67188L 41.236401 17.3806M 19.56912 20.114861C 19.300079 20.114861 19.082039 19.89682 19.082039 19.627781C 19.082039 19.35874 19.300079 19.140621 19.56912 19.140621M 19.5676 20.114861C 19.836639 20.114861 20.05468 19.89682 20.05468 19.627781C 20.05468 19.35874 19.836639 19.140621 19.5676 19.140621M 25.233181 20.114861C 24.96414 20.114861 24.746101 19.89682 24.746101 19.627781C 24.746101 19.35874 24.96414 19.140621 25.233181 19.140621M 25.231659 20.114861C 25.5007 20.114861 25.71876 19.89682 25.71876 19.627781C 25.71876 19.35874 25.5007 19.140621 25.231659 19.140621M 10 10M 54.879002 45.234402L 32.2714 45.234402M 25.230461 45.234402L 13.12076 45.234402M 10 10M 17.02734 41.328201L 13.11972 45.237202L 17.02734 49.144798M 47.701199 50.589802C 47.701199 52.5872 45.9534 54.334999 43.956001 54.334999L 28.97558 54.334999C 26.978201 54.334999 25.230461 52.837002 25.230461 50.589802L 25.230461 39.354401C 25.230461 37.357002 26.978201 35.609398 28.97558 35.609398L 43.956001 35.609398C 45.9534 35.609398 47.701199 37.357002 47.701199 39.354401M 36.466801 24.375C 32.222401 24.375 28.976561 27.62076 28.976561 31.8652L 28.976561 35.610397L 43.957001 35.610397L 43.957001 31.8652C 43.957001 27.87044 40.711201 24.375 36.466801 24.375Z"></path></g></g></g><g id="g-root-ic_mana_1q6zlhy1cwe9sb-stroke" data-item-order="0" transform="translate(566, 254)"><g id="ic_mana_1q6zlhy1cwe9sb-stroke" fill="none" stroke-linecap="round" stroke-linejoin="round" stroke-miterlimit="4" stroke="#0284c7" stroke-width="2"><g><path d="M 10 10M 51.599998 55.200001C 50 53.400002 47.799999 52.400002 45.599998 51.599998C 44.599998 50.799999 44 49.599998 44.200001 48.200001C 44.400002 47 44.400002 45.799999 44.200001 44.599998C 43.400002 43.799999 42.799999 42.799999 42 42.200001C 40.599998 41.599998 41.200001 39.799999 42 38.400002C 42 38.200001 42.200001 38.200001 42.400002 38.200001C 43.400002 37.400002 45.200001 37.400002 45.799999 38.400002C 46.400002 39.799999 48 40.400002 49 41.599998M 45.599998 28C 47.200001 30.799999 50.599998 32.400002 53.200001 34.599998C 53.599998 36.400002 55.400002 38 54.799999 39.799999C 54.400002 41.200001 55 42.799999 54.799999 44.200001C 54.599998 45.599998 55.200001 47 56.200001 47.599998C 56.400002 47.799999 56.599998 48 56.799999 48.200001M 19 41.599998C 19.799999 40.400002 20.799999 39 22.200001 38.400002C 23.4 38 24.799999 37 25.6 38.200001C 25.799999 38.200001 26 38.200001 26 38.400002C 26.799999 39.799999 26.799999 41 26 42.200001C 25.6 43.200001 24.4 43.599998 23.799999 44.599998C 24 45.799999 23.6 47 23.799999 48.200001C 24.200001 49.400002 23.200001 50.599998 22.4 51.599998C 21 53.400002 18 53.599998 16.4 55.200001M 11.2 48.200001C 11.2 48 11.6 48 11.8 47.599998C 12.2 46.400002 13.6 45.400002 13.2 44.200001C 12.8 42.799999 13 41.200001 13.2 39.799999C 13.4 38 13.6 36 14.8 34.400002C 16.6 31.799999 20.200001 30.4 22.4 28M 45.799999 38.400002C 44.599998 31.799999 45.200001 25 45.799999 18.4C 45.799999 17.6 45 17.200001 44.200001 16.799999C 42.400002 16.200001 40 17.4 38.200001 16.799999C 37.200001 14.8 36.200001 13.4 34 12.8C 31.799999 12.2 30.4 14.6 30 16.799999C 28 17.4 25.799999 16.4 23.799999 16.799999C 23 17 22.4 17.6 22.4 18.4C 21.4 25 22 31.799999 22.4 38.400002M 23.799999 48C 30.6 47.799999 37.400002 47.200001 44.200001 48M 26.4 23.200001C 28.4 23.6 30.799999 22.6 32.799999 23.200001M 40 23.200001C 40.599998 23 41.200001 23.200001 41.799999 23.200001M 26.4 28C 28.4 28.6 30.799999 27.6 32.799999 28M 40 28C 40.599998 27.6 41.200001 28.200001 41.799999 28M 26.4 33.599998C 28.4 34.400002 30.799999 33.400002 32.799999 33.599998M 40 33.599998C 40.599998 33.400002 41.200001 33.799999 41.799999 33.599998"></path><path d="M 10 10M 51.599998 55.200001L 45.577999 51.636002C 44.499874 50.86338 43.956497 49.543758 44.178001 48.236L 44.178001 44.52L 41.919998 42.268002C 40.867397 41.214542 40.867397 39.507458 41.919998 38.454002C 42.045425 38.328354 42.182735 38.215157 42.329998 38.115997L 42.330002 38.115997C 43.399769 37.406853 44.820782 37.548119 45.73 38.454002L 48.902 41.627998M 45.694 27.903999L 53.141998 34.503998C 54.251747 36.055931 54.848263 37.916115 54.848 39.823997L 54.848 44.259998C 54.846191 45.533974 55.349655 46.756676 56.247997 47.66L 56.830002 48.240002M 19.098 41.627998L 22.27 38.454002C 23.179218 37.548119 24.600231 37.406853 25.67 38.115997L 25.67 38.115997C 25.817265 38.215157 25.954571 38.328354 26.08 38.453999C 27.132603 39.507458 27.132603 41.214542 26.08 42.268002L 23.83 44.52L 23.83 48.228001C 24.0515 49.535759 23.508125 50.855381 22.43 51.627998L 16.4 55.200001M 11.164 48.228001L 11.746 47.647999C 12.644341 46.744675 13.147807 45.521973 13.146 44.247997L 13.146 39.813999C 13.145735 37.906113 13.742252 36.045929 14.851999 34.493999L 22.306 27.903999M 45.740002 38.454002L 45.740002 18.4C 45.738895 17.557671 45.056328 16.875101 44.213997 16.874001L 38.112 16.874001C 38.112 14.627306 36.290695 12.806 34.043999 12.806C 31.797304 12.806 29.976 14.627306 29.976 16.874001L 23.875999 16.874001C 23.033215 16.874001 22.35 17.557213 22.35 18.400002L 22.35 38.454002M 23.875999 48.074001L 44.214001 48.074001M 26.354 23.246L 32.834 23.246M 39.973999 23.246L 41.841999 23.246M 26.354 27.914L 32.834 27.914M 39.973999 27.914L 41.841999 27.914M 26.354 33.681999L 32.834 33.681999M 39.973999 33.681999L 41.841999 33.681999"></path></g></g></g></g></g></svg>