<?xml version="1.0" encoding="utf-8" standalone="yes"?>
<!DOCTYPE svg PUBLIC "-//W3C//DTD SVG 1.1//EN" "http://www.w3.org/Graphics/SVG/1.1/DTD/svg11.dtd">
<svg width="864" height="540" viewBox="0 0 864 540" style="fill:none;stroke:none;fill-rule:evenodd;clip-rule:evenodd;stroke-linecap:round;stroke-linejoin:round;stroke-miterlimit:1.5;" version="1.1" xmlns="http://www.w3.org/2000/svg" xmlns:xlink="http://www.w3.org/1999/xlink"><style class="text-font-style fontImports" data-font-family="Shantell Sans">@import url('https://fonts.googleapis.com/css2?family=Shantell+Sans:wght@300..800&amp;display=block');</style><g id="items" style="isolation: isolate"><g id="blend" style="mix-blend-mode: normal"><g id="g-root-cp_1_g-1_18k1rl21dq1sei-fill" data-item-order="-362292" transform="translate(14, 98)"><g id="cp_1_g-1_18k1rl21dq1sei-fill" stroke="none" fill="#ffffff"><g><path d="M 82 10L 139.6 10L 154 34L 139.6 58L 82 58L 96.4 34L 82 10ZM 38.8 10L 67.6 10L 82 34L 67.6 58L 38.8 58L 53.2 34L 38.8 10ZM 10 10L 24.4 10L 38.8 34L 24.4 58L 10 58L 24.4 34L 10 10ZM 82 34L 53.2 34M 38.8 34L 24.4 34M 96.4 34L 154 34"></path></g></g></g><g id="g-root-cp_2_g-2_hxr7xi1dq1sek-fill" data-item-order="-362272" transform="translate(182, 98)"><g id="cp_2_g-2_hxr7xi1dq1sek-fill" stroke="none" fill="#ffffff"><g><path d="M 82 10L 139.6 10L 154 34L 139.6 58L 82 58L 96.4 34L 82 10ZM 38.8 10L 67.6 10L 82 34L 67.6 58L 38.8 58L 53.2 34L 38.8 10ZM 10 10L 24.4 10L 38.8 34L 24.4 58L 10 58L 24.4 34L 10 10ZM 82 34L 53.2 34M 38.8 34L 24.4 34M 96.4 34L 154 34"></path></g></g></g><g id="g-root-cp_3_g-3_4mapk61dq1tzi-fill" data-item-order="-362254" transform="translate(350, 98)"><g id="cp_3_g-3_4mapk61dq1tzi-fill" stroke="none" fill="#ffffff"><g><path d="M 82 10L 139.6 10L 154 34L 139.6 58L 82 58L 96.4 34L 82 10ZM 38.8 10L 67.6 10L 82 34L 67.6 58L 38.8 58L 53.2 34L 38.8 10ZM 10 10L 24.4 10L 38.8 34L 24.4 58L 10 58L 24.4 34L 10 10ZM 82 34L 53.2 34M 38.8 34L 24.4 34M 96.4 34L 154 34"></path></g></g></g><g id="g-root-cp_4_g-4_1use8di1dq1s74-fill" data-item-order="-362236" transform="translate(518, 98)"><g id="cp_4_g-4_1use8di1dq1s74-fill" stroke="none" fill="#ffffff"><g><path d="M 82 10L 139.6 10L 154 34L 139.6 58L 82 58L 96.4 34L 82 10ZM 38.8 10L 67.6 10L 82 34L 67.6 58L 38.8 58L 53.2 34L 38.8 10ZM 10 10L 24.4 10L 38.8 34L 24.4 58L 10 58L 24.4 34L 10 10ZM 82 34L 53.2 34M 38.8 34L 24.4 34M 96.4 34L 154 34"></path></g></g></g><g id="g-root-cp_5_g-5_1hgxq061dq1ts2-fill" data-item-order="-362218" transform="translate(686, 98)"><g id="cp_5_g-5_1hgxq061dq1ts2-fill" stroke="none" fill="#ffffff"><g><path d="M 82 10L 139.6 10L 154 34L 139.6 58L 82 58L 96.4 34L 82 10ZM 38.8 10L 67.6 10L 82 34L 67.6 58L 38.8 58L 53.2 34L 38.8 10ZM 10 10L 24.4 10L 38.8 34L 24.4 58L 10 58L 24.4 34L 10 10ZM 82 34L 53.2 34M 38.8 34L 24.4 34M 96.4 34L 154 34"></path></g></g></g><g id="g-root-tx_processo_1463opy1dq1s78-fill" data-item-order="0" transform="translate(152, 38)"><g id="tx_processo_1463opy1dq1s78-fill" stroke="none" fill="#0284c7"><g><text style="font: bold 25px &quot;Shantell Sans&quot;, cursive; white-space: pre;" font-weight="bold" font-size="25px" font-family="'Shantell Sans', cursive"><tspan x="14.46" y="45" dominant-baseline="ideographic">Processo de Fechamento Diário do Caixa</tspan></text></g></g></g><g id="g-root-tx_contardi_4o64ti1dq1szx-fill" data-item-order="0" transform="translate(32, 254)"><g id="tx_contardi_4o64ti1dq1szx-fill" stroke="none" fill="#0284c7"><g><text style="font: bold 20px &quot;Shantell Sans&quot;, cursive; white-space: pre;" font-weight="bold" font-size="20px" font-family="'Shantell Sans', cursive"><tspan x="24.81" y="35" dominant-baseline="ideographic">Contar </tspan><tspan x="16.77" y="59" dominant-baseline="ideographic">Dinheiro </tspan><tspan x="31.88" y="83" dominant-baseline="ideographic">Físico</tspan></text></g></g></g><g id="g-root-tx_realizar_v3lgiu1dq38qp-fill" data-item-order="0" transform="translate(368, 254)"><g id="tx_realizar_v3lgiu1dq38qp-fill" stroke="none" fill="#0284c7"><g><text style="font: bold 20px &quot;Shantell Sans&quot;, cursive; white-space: pre;" font-weight="bold" font-size="20px" font-family="'Shantell Sans', cursive"><tspan x="16.01" y="35" dominant-baseline="ideographic">Realizar </tspan><tspan x="19.95" y="59" dominant-baseline="ideographic">Sangria</tspan></text></g></g></g><g id="g-root-tx_gerarrel_8yzu921dq36yt-fill" data-item-order="0" transform="translate(686, 254)"><g id="tx_gerarrel_8yzu921dq36yt-fill" stroke="none" fill="#0284c7"><g><text style="font: bold 20px &quot;Shantell Sans&quot;, cursive; white-space: pre;" font-weight="bold" font-size="20px" font-family="'Shantell Sans', cursive"><tspan x="48.94" y="35" dominant-baseline="ideographic">Gerar </tspan><tspan x="14.27" y="59" dominant-baseline="ideographic">Relatório de </tspan><tspan x="16.63" y="83" dominant-baseline="ideographic">Fechamento</tspan></text></g></g></g><g id="g-root-tx_removero_8x4ezq1dq37yi-fill" data-item-order="0" transform="translate(350, 314)"><g id="tx_removero_8x4ezq1dq37yi-fill" stroke="none" fill="#0284c7"><g><text style="font: 15px &quot;Shantell Sans&quot;, cursive; white-space: pre;" font-size="15px" font-family="'Shantell Sans', cursive"><tspan x="11.88" y="32" dominant-baseline="ideographic">Remover o excesso </tspan><tspan x="27.67" y="50" dominant-baseline="ideographic">de dinheiro do </tspan><tspan x="61.7" y="68" dominant-baseline="ideographic">caixa</tspan></text></g></g></g><g id="g-root-tx_contarto_18n650m1dq1tl2-fill" data-item-order="0" transform="translate(20, 338)"><g id="tx_contarto_18n650m1dq1tl2-fill" stroke="none" fill="#0284c7"><g><text style="font: 15px &quot;Shantell Sans&quot;, cursive; white-space: pre;" font-size="15px" font-family="'Shantell Sans', cursive"><tspan x="24.91" y="32" dominant-baseline="ideographic">Contar todo o </tspan><tspan x="33.11" y="50" dominant-baseline="ideographic">dinheiro em </tspan><tspan x="16.92" y="68" dominant-baseline="ideographic">espécie no caixa</tspan></text></g></g></g><g id="g-root-tx_verifica_958l461dq1udr-fill" data-item-order="0" transform="translate(182, 326)"><g id="tx_verifica_958l461dq1udr-fill" stroke="none" fill="#0284c7"><g><text style="font: bold 20px &quot;Shantell Sans&quot;, cursive; white-space: pre;" font-weight="bold" font-size="20px" font-family="'Shantell Sans', cursive"><tspan x="41.27" y="35" dominant-baseline="ideographic">Verificar </tspan><tspan x="12.23" y="59" dominant-baseline="ideographic">Comprovantes </tspan><tspan x="15.63" y="83" dominant-baseline="ideographic">de Transação</tspan></text></g></g></g><g id="g-root-tx_registra_1q7kxk61dq36yr-fill" data-item-order="0" transform="translate(518, 326)"><g id="tx_registra_1q7kxk61dq36yr-fill" stroke="none" fill="#0284c7"><g><text style="font: bold 20px &quot;Shantell Sans&quot;, cursive; white-space: pre;" font-weight="bold" font-size="20px" font-family="'Shantell Sans', cursive"><tspan x="32.22" y="35" dominant-baseline="ideographic">Registrar </tspan><tspan x="15.64" y="59" dominant-baseline="ideographic">Divergências</tspan></text></g></g></g><g id="g-root-tx_criarumr_1hdtckm1dq36rq-fill" data-item-order="0" transform="translate(686, 338)"><g id="tx_criarumr_1hdtckm1dq36rq-fill" stroke="none" fill="#0284c7"><g><text style="font: 15px &quot;Shantell Sans&quot;, cursive; white-space: pre;" font-size="15px" font-family="'Shantell Sans', cursive"><tspan x="14.46" y="29" dominant-baseline="ideographic">Criar um relatório </tspan><tspan x="30.57" y="47" dominant-baseline="ideographic">detalhado do </tspan><tspan x="25.62" y="65" dominant-baseline="ideographic">fechamento do </tspan><tspan x="60.62" y="83" dominant-baseline="ideographic">caixa</tspan></text></g></g></g><g id="g-root-tx_document_1cw4f6u1dq38jo-fill" data-item-order="0" transform="translate(536, 386)"><g id="tx_document_1cw4f6u1dq38jo-fill" stroke="none" fill="#0284c7"><g><text style="font: 15px &quot;Shantell Sans&quot;, cursive; white-space: pre;" font-size="15px" font-family="'Shantell Sans', cursive"><tspan x="17.87" y="29" dominant-baseline="ideographic">Documentar </tspan><tspan x="26.29" y="47" dominant-baseline="ideographic">quaisquer </tspan><tspan x="12.82" y="65" dominant-baseline="ideographic">discrepâncias </tspan><tspan x="16.07" y="83" dominant-baseline="ideographic">encontradas</tspan></text></g></g></g><g id="g-root-tx_revisart_1lpw06e1dq38qo-fill" data-item-order="0" transform="translate(188, 410)"><g id="tx_revisart_1lpw06e1dq38qo-fill" stroke="none" fill="#0284c7"><g><text style="font: 15px &quot;Shantell Sans&quot;, cursive; white-space: pre;" font-size="15px" font-family="'Shantell Sans', cursive"><tspan x="21.53" y="29" dominant-baseline="ideographic">Revisar todos os </tspan><tspan x="20.19" y="47" dominant-baseline="ideographic">comprovantes de </tspan><tspan x="51.45" y="65" dominant-baseline="ideographic">cartão e </tspan><tspan x="13.06" y="83" dominant-baseline="ideographic">transações digitais</tspan></text></g></g></g><g id="g-root-cp_1_g-1_18k1rl21dq1sei-stroke" data-item-order="-362292" transform="translate(14, 98)"><g id="cp_1_g-1_18k1rl21dq1sei-stroke" fill="none" stroke-linecap="round" stroke-linejoin="round" stroke-miterlimit="4" stroke="#0284c7" stroke-width="4"><g><path d="M 82 10C 101.2 11.1 120.4 9 139.6 10C 144.8 17.8 150.3 25.4 154 34C 147.6 40.8 143.1 49.3 139.6 58C 120.4 58 101.1 56 82 58C 87.2 50.3 91 41.6 96.4 34C 91.7 25.9 87.2 17.8 82 10M 38.8 10C 48.4 9.7 58 11 67.6 10C 73.9 16.9 76.3 26.6 82 34C 76.7 41.7 73.3 50.6 67.6 58C 58.1 59.5 48.3 57.1 38.8 58C 42.9 49.6 48 41.7 53.2 34C 48.5 25.9 44 17.7 38.8 10M 10 10C 14.7 9 19.6 9.6 24.4 10C 28.8 18.2 33.3 26.5 38.8 34C 33 41.3 28 49.4 24.4 58C 19.6 58.5 14.8 58 10 58C 15.6 50.5 20.1 42.3 24.4 34C 20 25.8 14.6 18.1 10 10M 82 34C 72.5 32.4 62.7 35.7 53.2 34M 38.8 34C 34 33.9 29.2 34.2 24.4 34M 96.4 34C 115.5 35.8 134.8 33.9 154 34M 82 70C 81.3 83 80.6 96.2 82 109.2C 83.6 124 82.2 139.1 82 154"></path><path d="M 82 10L 139.6 10L 154 34L 139.6 58L 82 58L 96.4 34L 82 10ZM 38.8 10L 67.6 10L 82 34L 67.6 58L 38.8 58L 53.2 34L 38.8 10ZM 10 10L 24.4 10L 38.8 34L 24.4 58L 10 58L 24.4 34L 10 10ZM 82 34L 53.2 34M 38.8 34L 24.4 34M 96.4 34L 154 34M 82 70L 82 154"></path></g></g></g><g id="g-root-cp_2_g-2_hxr7xi1dq1sek-stroke" data-item-order="-362272" transform="translate(182, 98)"><g id="cp_2_g-2_hxr7xi1dq1sek-stroke" fill="none" stroke-linecap="round" stroke-linejoin="round" stroke-miterlimit="4" stroke="#0284c7" stroke-width="4"><g><path d="M 82 10C 101.2 9.6 120.4 10.1 139.6 10C 143.3 18.6 149 26.1 154 34C 149.4 42.1 143.1 49.3 139.6 58C 120.4 57.4 101.2 58.1 82 58C 85.6 49.4 90.8 41.5 96.4 34C 92.4 25.6 88.1 17 82 10M 38.8 10C 48.4 9.3 58.1 11.1 67.6 10C 71.3 18.6 76.1 26.8 82 34C 77.1 41.9 72 49.8 67.6 58C 58.1 56.7 48.4 57.7 38.8 58C 43.9 50.2 47.7 41.5 53.2 34C 49.5 25.4 44 17.7 38.8 10M 10 10C 14.8 9.5 19.6 9.3 24.4 10C 27.5 18.8 35.3 25.4 38.8 34C 35 42.5 29.1 50 24.4 58C 19.7 59.1 14.7 58.7 10 58C 15.5 50.5 20 42.2 24.4 34C 20.4 25.6 14.9 17.9 10 10M 82 34C 72.4 34.4 62.8 33.3 53.2 34M 38.8 34C 34 34.6 29.2 34.4 24.4 34M 96.4 34C 115.6 33.3 134.9 32.4 154 34M 82 70C 80.7 86.2 82.9 102.6 82 118.8C 81.1 135.6 81.3 152.4 82 169.2C 82.7 188.1 82 207.1 82 226"></path><path d="M 82 10L 139.6 10L 154 34L 139.6 58L 82 58L 96.4 34L 82 10ZM 38.8 10L 67.6 10L 82 34L 67.6 58L 38.8 58L 53.2 34L 38.8 10ZM 10 10L 24.4 10L 38.8 34L 24.4 58L 10 58L 24.4 34L 10 10ZM 82 34L 53.2 34M 38.8 34L 24.4 34M 96.4 34L 154 34M 82 70L 82 226"></path></g></g></g><g id="g-root-cp_3_g-3_4mapk61dq1tzi-stroke" data-item-order="-362254" transform="translate(350, 98)"><g id="cp_3_g-3_4mapk61dq1tzi-stroke" fill="none" stroke-linecap="round" stroke-linejoin="round" stroke-miterlimit="4" stroke="#0284c7" stroke-width="4"><g><path d="M 82 10C 101.2 11.3 120.4 10.4 139.6 10C 143.7 18.4 149.7 25.7 154 34C 147.9 41 145.4 50.7 139.6 58C 120.4 58 101.2 57.3 82 58C 86.8 50 92.7 42.5 96.4 34C 90.8 26.5 88.4 16.8 82 10M 38.8 10C 48.3 8.9 58 9.7 67.6 10C 72.9 17.7 78.1 25.5 82 34C 77.7 42.3 72.7 50.2 67.6 58C 58 57.3 48.3 59.5 38.8 58C 43.5 50 46.9 40.9 53.2 34C 47.8 26.4 44 17.8 38.8 10M 10 10C 14.8 9.3 19.6 9.6 24.4 10C 28.6 18.3 34.8 25.6 38.8 34C 33.4 41.6 28.8 49.8 24.4 58C 19.6 57.7 14.8 58.2 10 58C 16.1 50.9 18.7 41.4 24.4 34C 18.9 26.5 15.4 17.6 10 10M 82 34C 72.4 34.3 62.8 33 53.2 34M 38.8 34C 34 34.1 29.2 34.6 24.4 34M 96.4 34C 115.5 35.5 134.8 34.3 154 34M 82 70C 80.4 97.9 81.1 126 82 154"></path><path d="M 82 10L 139.6 10L 154 34L 139.6 58L 82 58L 96.4 34L 82 10ZM 38.8 10L 67.6 10L 82 34L 67.6 58L 38.8 58L 53.2 34L 38.8 10ZM 10 10L 24.4 10L 38.8 34L 24.4 58L 10 58L 24.4 34L 10 10ZM 82 34L 53.2 34M 38.8 34L 24.4 34M 96.4 34L 154 34M 82 70L 82 154"></path></g></g></g><g id="g-root-cp_4_g-4_1use8di1dq1s74-stroke" data-item-order="-362236" transform="translate(518, 98)"><g id="cp_4_g-4_1use8di1dq1s74-stroke" fill="none" stroke-linecap="round" stroke-linejoin="round" stroke-miterlimit="4" stroke="#0284c7" stroke-width="4"><g><path d="M 82 10C 101.1 11.6 120.5 11.6 139.6 10C 142.7 18.8 149.8 25.7 154 34C 148.2 41.3 144.5 50.1 139.6 58C 120.4 58.9 101.2 58.4 82 58C 86.8 50 91.2 41.7 96.4 34C 91.8 25.9 86.1 18.4 82 10M 38.8 10C 48.3 8.5 58 9.9 67.6 10C 72.7 17.8 77.4 25.9 82 34C 75.9 41 73.5 50.8 67.6 58C 58 58.2 48.4 58.6 38.8 58C 44.4 50.6 47.6 41.5 53.2 34C 47.5 26.6 44.7 17.2 38.8 10M 10 10C 14.8 9.3 19.6 10.2 24.4 10C 28.5 18.4 32.9 26.8 38.8 34C 33.1 41.4 30.6 51 24.4 58C 19.6 58.5 14.8 57.7 10 58C 14.3 49.7 19.6 42 24.4 34C 20.6 25.5 16.1 17.1 10 10M 82 34C 72.5 32.9 62.7 35 53.2 34M 38.8 34C 34.2 32.6 29.2 34.2 24.4 34M 96.4 34C 115.6 34.1 134.8 34.7 154 34M 82 70C 80.8 83 81.6 96.1 82 109.2C 82.4 122.7 81.7 136.3 82 149.8C 82.3 161.5 80.7 173.3 82 185C 83.5 198.6 81 212.4 82 226"></path><path d="M 82 10L 139.6 10L 154 34L 139.6 58L 82 58L 96.4 34L 82 10ZM 38.8 10L 67.6 10L 82 34L 67.6 58L 38.8 58L 53.2 34L 38.8 10ZM 10 10L 24.4 10L 38.8 34L 24.4 58L 10 58L 24.4 34L 10 10ZM 82 34L 53.2 34M 38.8 34L 24.4 34M 96.4 34L 154 34M 82 70L 82 226"></path></g></g></g><g id="g-root-cp_5_g-5_1hgxq061dq1ts2-stroke" data-item-order="-362218" transform="translate(686, 98)"><g id="cp_5_g-5_1hgxq061dq1ts2-stroke" fill="none" stroke-linecap="round" stroke-linejoin="round" stroke-miterlimit="4" stroke="#0284c7" stroke-width="4"><g><path d="M 82 10C 101.2 10.5 120.4 11.3 139.6 10C 144.3 18.1 149.1 26 154 34C 147.6 40.8 145.5 50.8 139.6 58C 120.5 59.7 101.2 57.9 82 58C 86.6 49.8 90.7 41.4 96.4 34C 92.8 25.4 86.1 18.4 82 10M 38.8 10C 48.4 9.6 58.1 11.4 67.6 10C 72.3 18.1 78.7 25.3 82 34C 77.7 42.3 71.2 49.4 67.6 58C 58 57.7 48.4 57.6 38.8 58C 43.7 50.1 49.3 42.5 53.2 34C 49.2 25.6 42.4 18.6 38.8 10M 10 10C 14.8 9.5 19.6 9.7 24.4 10C 27.4 18.8 33.5 26.3 38.8 34C 33 41.3 29.9 50.5 24.4 58C 19.7 57.3 14.8 58.6 10 58C 14.2 49.6 21.2 42.8 24.4 34C 19.4 26.1 16.2 16.9 10 10M 82 34C 72.6 32.1 62.8 34.4 53.2 34M 38.8 34C 34 33.5 29.2 34.1 24.4 34M 96.4 34C 115.5 35.8 134.8 34.5 154 34M 82 70C 82.7 98 83.7 126.1 82 154"></path><path d="M 82 10L 139.6 10L 154 34L 139.6 58L 82 58L 96.4 34L 82 10ZM 38.8 10L 67.6 10L 82 34L 67.6 58L 38.8 58L 53.2 34L 38.8 10ZM 10 10L 24.4 10L 38.8 34L 24.4 58L 10 58L 24.4 34L 10 10ZM 82 34L 53.2 34M 38.8 34L 24.4 34M 96.4 34L 154 34M 82 70L 82 154"></path></g></g></g><g id="g-root-tx_processo_1463opy1dq1s78-stroke" data-item-order="0" transform="translate(152, 38)"></g><g id="g-root-tx_contardi_4o64ti1dq1szx-stroke" data-item-order="0" transform="translate(32, 254)"></g><g id="g-root-tx_realizar_v3lgiu1dq38qp-stroke" data-item-order="0" transform="translate(368, 254)"></g><g id="g-root-tx_gerarrel_8yzu921dq36yt-stroke" data-item-order="0" transform="translate(686, 254)"></g><g id="g-root-tx_removero_8x4ezq1dq37yi-stroke" data-item-order="0" transform="translate(350, 314)"></g><g id="g-root-tx_contarto_18n650m1dq1tl2-stroke" data-item-order="0" transform="translate(20, 338)"></g><g id="g-root-tx_verifica_958l461dq1udr-stroke" data-item-order="0" transform="translate(182, 326)"></g><g id="g-root-tx_registra_1q7kxk61dq36yr-stroke" data-item-order="0" transform="translate(518, 326)"></g><g id="g-root-tx_criarumr_1hdtckm1dq36rq-stroke" data-item-order="0" transform="translate(686, 338)"></g><g id="g-root-tx_document_1cw4f6u1dq38jo-stroke" data-item-order="0" transform="translate(536, 386)"></g><g id="g-root-tx_revisart_1lpw06e1dq38qo-stroke" data-item-order="0" transform="translate(188, 410)"></g></g></g></svg>