<?xml version="1.0" encoding="utf-8" standalone="yes"?>
<!DOCTYPE svg PUBLIC "-//W3C//DTD SVG 1.1//EN" "http://www.w3.org/Graphics/SVG/1.1/DTD/svg11.dtd">
<svg width="1020" height="552" viewBox="0 0 1020 552" style="fill:none;stroke:none;fill-rule:evenodd;clip-rule:evenodd;stroke-linecap:round;stroke-linejoin:round;stroke-miterlimit:1.5;" version="1.1" xmlns="http://www.w3.org/2000/svg" xmlns:xlink="http://www.w3.org/1999/xlink"><style class="text-font-style fontImports" data-font-family="Shantell Sans">@import url('https://fonts.googleapis.com/css2?family=Shantell+Sans:wght@300..800&amp;display=block');</style><g id="items" style="isolation: isolate"><g id="blend" style="mix-blend-mode: normal"><g id="g-root-cp_1_row-1_1hhkzit1cw7764-fill" data-item-order="-443222" transform="translate(26, 121)"><g id="cp_1_row-1_1hhkzit1cw7764-fill" stroke="none" fill="#ffffff"><g><path d="M 10 10L 514 10L 562 52L 514 94L 10 94L 10 10Z"></path></g></g></g><g id="g-root-cp_2_row-2_1464h5h1cw78r2-fill" data-item-order="-443204" transform="translate(26, 205)"><g id="cp_2_row-2_1464h5h1cw78r2-fill" stroke="none" fill="#ffffff"><g><path d="M 10 10L 514 10L 562 52L 514 94L 10 94L 10 10Z"></path></g></g></g><g id="g-root-cp_3_row-3_vb3xzp1cw775s-fill" data-item-order="-443188" transform="translate(26, 289)"><g id="cp_3_row-3_vb3xzp1cw775s-fill" stroke="none" fill="#ffffff"><g><path d="M 10 10L 514 10L 562 52L 514 94L 10 94L 10 10Z"></path></g></g></g><g id="g-root-cp_4_row-4_hznfmd1cw78qq-fill" data-item-order="-443172" transform="translate(26, 373)"><g id="cp_4_row-4_hznfmd1cw78qq-fill" stroke="none" fill="#ffffff"><g><path d="M 10 9.999999L 514 9.999999L 562 58L 514 106L 10 106L 10 9.999999Z"></path></g></g></g><g id="g-root-cp_1_g-1_4otec51cw775w-fill" data-item-order="-443154" transform="translate(734, 92)"><g id="cp_1_g-1_4otec51cw775w-fill" stroke="none" fill="#ffffff"><g><path d="M 250 130L 58 130L 10 46L 250 46L 250 130ZM 250 10L 30.5 10L 10 46L 250 46L 250 10Z"></path></g></g></g><g id="g-root-cp_2_g-2_1uuag2d1cw77ri-fill" data-item-order="-443150" transform="translate(746, 180.5)"><g id="cp_2_g-2_1uuag2d1cw77ri-fill" stroke="none" fill="#ffffff"><g><path d="M 238 125.5L 58 125.5L 10 41.5L 238 41.5L 238 125.5ZM 46 41.5L 28 10L 10 41.5L 46 41.5Z"></path></g></g></g><g id="g-root-cp_3_g-3_1lynfth1cw79c0-fill" data-item-order="-443146" transform="translate(758, 264.5)"><g id="cp_3_g-3_1lynfth1cw79c0-fill" stroke="none" fill="#ffffff"><g><path d="M 226 125.5L 58 125.5L 10 41.5L 226 41.5L 226 125.5ZM 46 41.5L 28 10L 10 41.5L 46 41.5Z"></path></g></g></g><g id="g-root-cp_4_g-4_1d30fkl1cw7a4q-fill" data-item-order="-443142" transform="translate(769.5, 348.5)"><g id="cp_4_g-4_1d30fkl1cw7a4q-fill" stroke="none" fill="#ffffff"><g><path d="M 214.5 125.5L 58 125.5L 10 41.5L 214.5 41.5L 214.5 125.5ZM 46.5 41.5L 28.5 10L 10.5 41.5L 46.5 41.5Z"></path></g></g></g><g id="g-root-ic_r_90w1xx1cwa0p0-fill" data-item-order="0" transform="translate(908, 146)"></g><g id="g-root-tx_gerarodo_4g2r4l1cw8nwm-fill" data-item-order="0" transform="translate(122, 170)"><g id="tx_gerarodo_4g2r4l1cw8nwm-fill" stroke="none" fill="#0284c7"><g><text style="font: 15px &quot;Shantell Sans&quot;, cursive; white-space: pre;" font-size="15px" font-family="'Shantell Sans', cursive"><tspan x="12" y="32" dominant-baseline="ideographic">Gerar o documento de romaneio necessário</tspan></text></g></g></g><g id="g-root-tx_2_hss7o51cw8ohu-fill" data-item-order="0" transform="translate(56, 230)"><g id="tx_2_hss7o51cw8ohu-fill" stroke="none" fill="#0284c7"><g><text style="font: bold 30px &quot;Shantell Sans&quot;, cursive; white-space: pre;" font-weight="bold" font-size="30px" font-family="'Shantell Sans', cursive"><tspan x="17.5" y="48" dominant-baseline="ideographic">2</tspan></text></g></g></g><g id="g-root-tx_1_1q6crth1cw8m4n-fill" data-item-order="0" transform="translate(62, 146)"><g id="tx_1_1q6crth1cw8m4n-fill" stroke="none" fill="#0284c7"><g><text style="font: bold 30px &quot;Shantell Sans&quot;, cursive; white-space: pre;" font-weight="bold" font-size="30px" font-family="'Shantell Sans', cursive"><tspan x="15.17" y="48" dominant-baseline="ideographic">1</tspan></text></g></g></g><g id="g-root-tx_baixarro_18f2rbp1cw8ohs-fill" data-item-order="0" transform="translate(122, 218)"><g id="tx_baixarro_18f2rbp1cw8ohs-fill" stroke="none" fill="#0284c7"><g><text style="font: bold 20px &quot;Shantell Sans&quot;, cursive; white-space: pre;" font-weight="bold" font-size="20px" font-family="'Shantell Sans', cursive"><tspan x="12" y="35" dominant-baseline="ideographic">Baixar Romaneio</tspan></text></g></g></g><g id="g-root-tx_lidarcom_deu4t11cw8nin-fill" data-item-order="0" transform="translate(122, 422)"><g id="tx_lidarcom_deu4t11cw8nin-fill" stroke="none" fill="#0284c7"><g><text style="font: 15px &quot;Shantell Sans&quot;, cursive; white-space: pre;" font-size="15px" font-family="'Shantell Sans', cursive"><tspan x="12" y="29" dominant-baseline="ideographic">Lidar com requisitos únicos para IFOOD e </tspan><tspan x="12" y="47" dominant-baseline="ideographic">FARMÁCIAS APP</tspan></text></g></g></g><g id="g-root-ic_ruth_qof7x11cwa137-fill" data-item-order="0" transform="translate(908, 230)"></g><g id="g-root-tx_selecion_v48q1h1cw8mwx-fill" data-item-order="0" transform="translate(122, 254)"><g id="tx_selecion_v48q1h1cw8mwx-fill" stroke="none" fill="#0284c7"><g><text style="font: 15px &quot;Shantell Sans&quot;, cursive; white-space: pre;" font-size="15px" font-family="'Shantell Sans', cursive"><tspan x="12" y="32" dominant-baseline="ideographic">Selecionar o romaneio para processamento</tspan></text></g></g></g><g id="g-root-tx_3_1414ogl1cw8nil-fill" data-item-order="0" transform="translate(56, 314)"><g id="tx_3_1414ogl1cw8nil-fill" stroke="none" fill="#0284c7"><g><text style="font: bold 30px &quot;Shantell Sans&quot;, cursive; white-space: pre;" font-weight="bold" font-size="30px" font-family="'Shantell Sans', cursive"><tspan x="17.5" y="48" dominant-baseline="ideographic">3</tspan></text></g></g></g><g id="g-root-tx_criarrom_hrj9hx1cw8mbp-fill" data-item-order="0" transform="translate(122, 134)"><g id="tx_criarrom_hrj9hx1cw8mbp-fill" stroke="none" fill="#0284c7"><g><text style="font: bold 20px &quot;Shantell Sans&quot;, cursive; white-space: pre;" font-weight="bold" font-size="20px" font-family="'Shantell Sans', cursive"><tspan x="12" y="35" dominant-baseline="ideographic">Criar Romaneio</tspan></text></g></g></g><g id="g-root-tx_processa_4hy6dx1cw8mwz-fill" data-item-order="0" transform="translate(122, 302)"><g id="tx_processa_4hy6dx1cw8mwz-fill" stroke="none" fill="#0284c7"><g><text style="font: bold 20px &quot;Shantell Sans&quot;, cursive; white-space: pre;" font-weight="bold" font-size="20px" font-family="'Shantell Sans', cursive"><tspan x="12" y="35" dominant-baseline="ideographic">Processar Devoluções</tspan></text></g></g></g><g id="g-root-ic_loca_1hdu5051cw8o3t-fill" data-item-order="0" transform="translate(908, 314)"></g><g id="g-root-tx_gerencia_1q7lpzp1cw8oas-fill" data-item-order="0" transform="translate(122, 338)"><g id="tx_gerencia_1q7lpzp1cw8oas-fill" stroke="none" fill="#0284c7"><g><text style="font: 15px &quot;Shantell Sans&quot;, cursive; white-space: pre;" font-size="15px" font-family="'Shantell Sans', cursive"><tspan x="12" y="32" dominant-baseline="ideographic">Gerenciar entregas não realizadas</tspan></text></g></g></g><g id="g-root-tx_processo_zs6ead1cw78jw-fill" data-item-order="0" transform="translate(260, 38)"><g id="tx_processo_zs6ead1cw78jw-fill" stroke="none" fill="#0284c7"><g><text style="font: bold 25px &quot;Shantell Sans&quot;, cursive; white-space: pre;" font-weight="bold" font-size="25px" font-family="'Shantell Sans', cursive"><tspan x="15.21" y="45" dominant-baseline="ideographic">Processo de Finalização de Entrega</tspan></text></g></g></g><g id="g-root-tx_procedim_zlb6c51cw8oau-fill" data-item-order="0" transform="translate(122, 386)"><g id="tx_procedim_zlb6c51cw8oau-fill" stroke="none" fill="#0284c7"><g><text style="font: bold 20px &quot;Shantell Sans&quot;, cursive; white-space: pre;" font-weight="bold" font-size="20px" font-family="'Shantell Sans', cursive"><tspan x="12" y="35" dominant-baseline="ideographic">Procedimentos Específicos</tspan></text></g></g></g><g id="g-root-tx_4_4jtln91cw8lxc-fill" data-item-order="0" transform="translate(56, 404)"><g id="tx_4_4jtln91cw8lxc-fill" stroke="none" fill="#0284c7"><g><text style="font: bold 30px &quot;Shantell Sans&quot;, cursive; white-space: pre;" font-weight="bold" font-size="30px" font-family="'Shantell Sans', cursive"><tspan x="17.5" y="48" dominant-baseline="ideographic">4</tspan></text></g></g></g><g id="g-root-ic_hist_1d1rhed1cw8m4q-fill" data-item-order="0" transform="translate(908, 398)"></g><g id="g-root-cp_1_row-1_1hhkzit1cw7764-stroke" data-item-order="-443222" transform="translate(26, 121)"><g id="cp_1_row-1_1hhkzit1cw7764-stroke" fill="none" stroke-linecap="round" stroke-linejoin="round" stroke-miterlimit="4" stroke="#0284c7" stroke-width="4"><g><path d="M 10 10C 36.9 11.9 63.9 10.8 90.8 10C 118.6 9.2 146.5 10 174.4 10C 205.4 10 236.5 10.4 267.5 10C 292.2 9.7 316.8 10.6 341.5 10C 369.4 9.3 397.4 10.3 425.3 10C 454.9 9.7 484.5 8.6 514 10C 531 22.7 545.7 38.4 562 52C 545 64.8 529.5 79.5 514 94C 496 95.9 477.8 94.9 459.7 94C 442.1 93.1 424.4 93.5 406.8 94C 388.2 94.5 369.6 94.3 351 94C 333.5 93.8 316 93.5 298.5 94C 277.7 94.6 256.8 92.3 236.1 94C 219 95.4 201.7 92.2 184.6 94C 166.7 95.9 148.4 92.1 130.5 94C 108.9 96.3 87 95 65.2 94C 46.8 93.1 28.4 95.2 10 94C 11.1 81.2 10.6 68.3 10 55.5C 9.3 40.3 8.6 25.1 10 10"></path><path d="M 10 10L 514 10L 562 52L 514 94L 10 94L 10 10Z"></path></g></g></g><g id="g-root-cp_2_row-2_1464h5h1cw78r2-stroke" data-item-order="-443204" transform="translate(26, 205)"><g id="cp_2_row-2_1464h5h1cw78r2-stroke" fill="none" stroke-linecap="round" stroke-linejoin="round" stroke-miterlimit="4" stroke="#0284c7" stroke-width="4"><g><path d="M 10 10C 22.7 10.4 35.3 10.4 48 10C 61 9.5 74 11 87 10C 101.5 8.9 116.1 8.7 130.5 10C 144 11.2 157.7 8.6 171.2 10C 184.7 11.4 198.3 9.2 211.9 10C 226.6 10.8 241.3 10.3 256 10C 271.3 9.7 286.6 10.7 301.8 10C 316.4 9.3 331.2 8.3 345.8 10C 360.6 11.8 375.7 10.6 390.7 10C 405.6 9.4 420.7 8.6 435.6 10C 449.1 11.3 462.8 11.5 476.2 10C 488.8 8.6 501.5 11.2 514 10C 529.4 24.7 546.3 37.7 562 52C 545.9 65.9 529.9 79.9 514 94C 487.1 95.9 460 93 433 94C 404.4 95.1 375.6 92.5 346.9 94C 316.5 95.6 285.9 93.8 255.4 94C 228.5 94.2 201.7 93.3 174.8 94C 148.2 94.7 121.6 95.2 94.9 94C 66.7 92.7 38.3 92.9 10 94C 8.7 66 8.3 37.9 10 10"></path><path d="M 10 10L 514 10L 562 52L 514 94L 10 94L 10 10Z"></path></g></g></g><g id="g-root-cp_3_row-3_vb3xzp1cw775s-stroke" data-item-order="-443188" transform="translate(26, 289)"><g id="cp_3_row-3_vb3xzp1cw775s-stroke" fill="none" stroke-linecap="round" stroke-linejoin="round" stroke-miterlimit="4" stroke="#0284c7" stroke-width="4"><g><path d="M 10 10C 23.7 8.1 37.7 11 51.5 10C 66.7 8.9 82 10.9 97.3 10C 111.2 9.1 125.2 10.5 139.1 10C 154.1 9.5 169.1 10.4 184.1 10C 199.1 9.7 214.2 8 229 10C 245.5 12.2 262.4 9.3 279.1 10C 294.3 10.6 309.7 8.6 324.9 10C 342.1 11.5 359.5 9.3 376.8 10C 391.7 10.6 406.9 8 421.7 10C 436.8 12 452.2 10.7 467.4 10C 482.9 9.3 498.5 11.4 514 10C 530.3 23.6 545.7 38.3 562 52C 546.8 66.8 529.8 79.7 514 94C 488.3 94.1 462.5 95.1 436.8 94C 411.5 92.9 386.1 94.3 360.8 94C 336.4 93.8 312 92.3 287.6 94C 263.8 95.6 239.8 94.9 215.9 94C 191.9 93.1 167.8 94.6 143.8 94C 119.3 93.4 94.7 95.3 70.2 94C 50.2 93 30.1 93.1 10 94C 11.4 66 9.9 38 10 10"></path><path d="M 10 10L 514 10L 562 52L 514 94L 10 94L 10 10Z"></path></g></g></g><g id="g-root-cp_4_row-4_hznfmd1cw78qq-stroke" data-item-order="-443172" transform="translate(26, 373)"><g id="cp_4_row-4_hznfmd1cw78qq-stroke" fill="none" stroke-linecap="round" stroke-linejoin="round" stroke-miterlimit="4" stroke="#0284c7" stroke-width="4"><g><path d="M 10 10C 25 9.5 40 9.3 54.9 10C 68.7 10.6 82.5 10.1 96.3 10C 109.8 10 123.5 11.8 136.9 10C 150.9 8.1 165.2 10.3 179.4 10C 193.3 9.7 207.3 11.6 221.1 10C 236 8.3 251.1 9.6 266.1 10C 278.6 10.3 291.2 8.4 303.6 10C 318.4 11.9 333.6 8.7 348.5 10C 362 11.2 375.7 10.7 389.3 10C 404.1 9.3 419.2 8.2 433.9 10C 446.1 11.5 458.5 10.8 470.7 10C 485.1 9 499.6 8.7 514 10C 523.2 16.9 530.6 26 538.5 34.5C 546.1 42.6 555 49.4 562 58C 545.4 73.4 529.1 89.1 514 106C 484.8 105.3 455.6 105.1 426.5 106C 396.9 106.9 367.2 104.5 337.7 106C 311.6 107.4 285.5 107.1 259.5 106C 232.7 104.8 205.8 105.2 179.1 106C 151.4 106.9 123.8 105.2 96.2 106C 67.5 106.8 38.7 106.4 10 106C 8.2 74 11 42 10 10"></path><path d="M 10 9.999999L 514 9.999999L 562 58L 514 106L 10 106L 10 9.999999Z"></path></g></g></g><g id="g-root-cp_1_g-1_4otec51cw775w-stroke" data-item-order="-443154" transform="translate(734, 92)"><g id="cp_1_g-1_4otec51cw775w-stroke" fill="none" stroke-linecap="round" stroke-linejoin="round" stroke-miterlimit="4" stroke="#0284c7" stroke-width="4"><g><path d="M 250 130C 219.6 128.5 189.1 129 158.7 130C 125.2 131.1 91.5 131.5 58 130C 48.7 115.4 41.6 99.5 32.2 84.9C 24.1 72.3 16.9 59.3 10 46C 38.7 47.3 67.4 46.8 96.1 46C 122.5 45.3 148.9 45.7 175.3 46C 200.2 46.3 225.1 44.4 250 46C 251.2 59.6 248.7 73.4 250 87C 251.4 101.3 249.7 115.7 250 130M 250 10C 224.9 9.3 199.7 8.7 174.7 10C 150.6 11.2 126.4 8.6 102.4 10C 78.5 11.4 54.5 10.6 30.5 10C 22.1 21 16.1 33.6 10 46C 31.2 44.7 52.6 46.7 73.8 46C 95 45.3 116.2 46.5 137.4 46C 156.4 45.5 175.5 47.5 194.5 46C 213 44.6 231.6 44.1 250 46C 251.9 34.2 251.4 21.9 250 10"></path><path d="M 250 130L 58 130L 10 46L 250 46L 250 130ZM 250 10L 30.5 10L 10 46L 250 46L 250 10Z"></path></g></g></g><g id="g-root-cp_2_g-2_1uuag2d1cw77ri-stroke" data-item-order="-443150" transform="translate(746, 180.5)"><g id="cp_2_g-2_1uuag2d1cw77ri-stroke" fill="none" stroke-linecap="round" stroke-linejoin="round" stroke-miterlimit="4" stroke="#0284c7" stroke-width="4"><g><path d="M 238 125.5C 206.5 125.7 174.9 126.5 143.4 125.5C 115 124.6 86.5 125.5 58 125.5C 49.6 111.9 43.6 96.8 34.2 83.9C 24.7 70.7 18 55.7 10 41.5C 29 40.1 48 40.1 67 41.5C 85.1 42.9 103.3 42.1 121.4 41.5C 138.9 40.9 156.6 43.2 174 41.5C 195.2 39.4 216.7 41.3 238 41.5C 238.4 69.5 237.6 97.5 238 125.5M 46 41.5C 38.6 31.9 33 21 28 10C 21 19.9 14.3 30.2 10 41.5C 21.9 42.6 34 41.3 46 41.5"></path><path d="M 238 125.5L 58 125.5L 10 41.5L 238 41.5L 238 125.5ZM 46 41.5L 28 10L 10 41.5L 46 41.5Z"></path></g></g></g><g id="g-root-cp_3_g-3_1lynfth1cw79c0-stroke" data-item-order="-443146" transform="translate(758, 264.5)"><g id="cp_3_g-3_1lynfth1cw79c0-stroke" fill="none" stroke-linecap="round" stroke-linejoin="round" stroke-miterlimit="4" stroke="#0284c7" stroke-width="4"><g><path d="M 226 125.5C 206.4 126.4 186.7 126.6 167 125.5C 148.8 124.5 130.5 124.2 112.3 125.5C 94.3 126.8 76.1 126.2 58 125.5C 49.9 112.3 42.7 98.7 35 85.3C 26.6 70.7 19.9 55.1 10 41.5C 24 40.8 38.1 41.5 52.1 41.5C 67.1 41.5 82.2 43.2 97.1 41.5C 109.9 40 122.9 42 135.8 41.5C 150.2 41 164.6 42 179 41.5C 194.7 40.9 210.4 42.3 226 41.5C 224.6 69.5 228 97.6 226 125.5M 46 41.5C 40.3 30.9 32.9 21.1 28 10C 21.9 20.4 15.8 30.9 10 41.5C 22 42.1 34 42.3 46 41.5"></path><path d="M 226 125.5L 58 125.5L 10 41.5L 226 41.5L 226 125.5ZM 46 41.5L 28 10L 10 41.5L 46 41.5Z"></path></g></g></g><g id="g-root-cp_4_g-4_1d30fkl1cw7a4q-stroke" data-item-order="-443142" transform="translate(769.5, 348.5)"><g id="cp_4_g-4_1d30fkl1cw7a4q-stroke" fill="none" stroke-linecap="round" stroke-linejoin="round" stroke-miterlimit="4" stroke="#0284c7" stroke-width="4"><g><path d="M 214.5 125.5C 198.8 126.6 183 123.9 167.4 125.5C 147.6 127.5 127.7 124.3 107.9 125.5C 91.3 126.5 74.6 127 58 125.5C 51.4 110.4 41.3 97.1 33.5 82.7C 26 68.8 17.2 55.6 10 41.5C 24.3 40.2 38.7 42.8 53 41.5C 67.4 40.2 81.9 41.9 96.3 41.5C 109.6 41.1 122.9 43.4 136 41.5C 149.2 39.6 162.8 43 176 41.5C 188.8 40 201.7 40.6 214.5 41.5C 215.6 56.7 215.4 72 214.5 87.3C 213.7 100 212.5 112.9 214.5 125.5M 46.5 41.5C 40.5 31 35.7 19.7 28.5 10C 22.3 20.4 16.1 30.8 10.5 41.5C 22.5 41.6 34.5 42 46.5 41.5"></path><path d="M 214.5 125.5L 58 125.5L 10 41.5L 214.5 41.5L 214.5 125.5ZM 46.5 41.5L 28.5 10L 10.5 41.5L 46.5 41.5Z"></path></g></g></g><g id="g-root-ic_r_90w1xx1cwa0p0-stroke" data-item-order="0" transform="translate(908, 146)"><g id="ic_r_90w1xx1cwa0p0-stroke" fill="none" stroke-linecap="round" stroke-linejoin="round" stroke-miterlimit="4" stroke="#0284c7" stroke-width="2"><g><path d="M 37 57C 42.599998 54.799999 49 56.200001 55 57C 56 57.200001 57 56 57 55C 56.799999 44.400002 58 33.599998 57 23C 56.400002 16.4 51.599998 12.2 45 11C 37.200001 9.6 29 11.4 21 11C 19.799999 11 19.200001 12 19 13C 17.799999 17.6 19.799999 22.4 19 27M 47 11.2C 47.599998 13.6 46.200001 16.6 47 19C 47.400002 20 48 20.799999 49 21C 51.599998 21.4 54.400002 21.799999 56.799999 21M 11 45C 8.8 51.200001 16.6 55.400002 23 57C 29.4 58.599998 33.599998 51.400002 35 45C 36.400002 38.599998 29.200001 30.799999 23 33C 16.799999 35.200001 10.4 38.400002 11 45M 27 42C 26.4 43.599998 25.6 45.599998 24 45C 23 44.599998 22 45 21 45C 21.6 43 20.200001 40.799999 21 39C 22 39.200001 23 39.200001 24 39C 25.6 38.599998 27 40.400002 27 42M 21 50C 20.4 48.400002 20.4 46.599998 21 45M 26 50C 25 47.799999 22.799999 46.599998 21 45"></path><path d="M 37 57L 55 57C 56.104568 57 57 56.104568 57 55L 57 22.950001C 57 16.350197 51.649803 11 45.049999 11L 21 11C 19.895432 11 19 11.895431 19 13L 19 27M 47 11.16L 47 19C 47 20.104568 47.895432 21 49 21L 56.84 21M 11 45C 11 51.627419 16.372583 57 23 57C 29.627417 57 35 51.627419 35 45C 35 38.372581 29.627417 33 23 33C 16.372583 33 11 38.372581 11 45ZM 27 42C 27 43.656857 25.656855 45 24 45L 21 45L 21 39L 24 39C 25.656855 39 27 40.343147 27 42ZM 21 50L 21 45M 26 50L 21 45"></path></g></g></g><g id="g-root-tx_gerarodo_4g2r4l1cw8nwm-stroke" data-item-order="0" transform="translate(122, 170)"></g><g id="g-root-tx_2_hss7o51cw8ohu-stroke" data-item-order="0" transform="translate(56, 230)"></g><g id="g-root-tx_1_1q6crth1cw8m4n-stroke" data-item-order="0" transform="translate(62, 146)"></g><g id="g-root-tx_baixarro_18f2rbp1cw8ohs-stroke" data-item-order="0" transform="translate(122, 218)"></g><g id="g-root-tx_lidarcom_deu4t11cw8nin-stroke" data-item-order="0" transform="translate(122, 422)"></g><g id="g-root-ic_ruth_qof7x11cwa137-stroke" data-item-order="0" transform="translate(908, 230)"><g id="ic_ruth_qof7x11cwa137-stroke" fill="none" stroke-linecap="round" stroke-linejoin="round" stroke-miterlimit="4" stroke="#0284c7" stroke-width="2"><g><path d="M 13 11C 27 11.8 41 10.4 55 11C 55 11 56.599998 11 57 13C 60.400002 26.6 55.599998 41 57 55C 57 55 57 56.400002 55 57C 41.599998 61 26.799999 59.599998 13 57C 13 57 10.8 57 11 55C 12.6 41.200001 9.4 27 11 13C 11 13 11.2 11.6 13 11M 24 48C 30.6 49.200001 37.400002 49 44 48M 22.6 43C 23 40.599998 22.200001 38 22.6 35.599998M 22.6 35.599998C 22 32 22 28.4 22.6 25C 23.799999 24.799999 25 24.799999 26.200001 25C 29.200001 25.200001 31.6 27.4 31.6 30.200001C 31.4 33.200001 29.200001 35.400002 26.200001 35.599998C 25 35.599998 23.799999 35.200001 22.6 35.599998M 28.6 35.599998C 30 37.799999 31.4 40.400002 32.200001 43M 43.599998 33C 43 35.200001 43.799999 37.599998 43.599998 39.799999C 43.400002 41.599998 42.200001 43.599998 40.599998 43C 38.799999 42.400002 37.599998 41.599998 37.400002 39.799999C 37 37.599998 36.799999 35.200001 37.400002 33M 43.599998 39.799999C 43.799999 40.799999 43.799999 42 43.599998 43"></path><path d="M 13 11L 55 11C 55 11 57 11 57 13L 57 55C 57 55 57 57 55 57L 13 57C 13 57 11 57 11 55L 11 13C 11 13 11 11 13 11M 24 48L 44 48M 22.5 43L 22.5 35.5M 22.5 35.5L 22.5 25L 26.25 25C 29.149496 25 31.5 27.350506 31.5 30.25L 31.5 30.25C 31.5 33.149498 29.149496 35.5 26.25 35.5L 22.5 35.5ZM 28.5 35.5L 32.25 43M 43.66 33L 43.66 39.841999C 43.658897 41.586441 42.244438 43 40.5 43L 40.5 43C 38.755882 43 37.342003 41.586113 37.342003 39.842003L 37.341999 33M 43.66 39.841999L 43.66 43"></path></g></g></g><g id="g-root-tx_selecion_v48q1h1cw8mwx-stroke" data-item-order="0" transform="translate(122, 254)"></g><g id="g-root-tx_3_1414ogl1cw8nil-stroke" data-item-order="0" transform="translate(56, 314)"></g><g id="g-root-tx_criarrom_hrj9hx1cw8mbp-stroke" data-item-order="0" transform="translate(122, 134)"></g><g id="g-root-tx_processa_4hy6dx1cw8mwz-stroke" data-item-order="0" transform="translate(122, 302)"></g><g id="g-root-ic_loca_1hdu5051cw8o3t-stroke" data-item-order="0" transform="translate(908, 314)"><g id="ic_loca_1hdu5051cw8o3t-stroke" fill="none" stroke-linecap="round" stroke-linejoin="round" stroke-miterlimit="4" stroke="#0284c7" stroke-width="2"><g><path d="M 43.599998 31.6C 49 30.200001 51.799999 36.200001 53.599998 41.599998C 56.200001 50 45.200001 54.799999 44 56.400002C 43.599998 56.400002 43.400002 56.599998 43.200001 56.400002C 41.799999 54.799999 33.200001 50.400002 33.599998 41.599998C 33.599998 36 38 32.799999 43.599998 31.6M 10 10M 40.200001 39.400002C 41.599998 42 44.200001 44.200001 46.799999 46M 10 10M 46.799999 39.400002C 44.799999 41.799999 42.599998 44 40.200001 46M 27.799999 47.599998C 24.4 47.200001 20.799999 46.799999 17.4 47.599998C 16 47.799999 14.4 46 14.4 44.599998C 14.6 37.599998 15 30.4 14.4 23.6C 14.4 22 16 20.4 17.4 20.6C 27.4 20.799999 37.799999 22.799999 47.400002 20.6C 49 20.200001 50.599998 21.799999 50.400002 23.6C 50.400002 24.799999 50.400002 26 50.400002 27.4M 10 10M 49.400002 21.4C 47.200001 18.799999 46.200001 15.4 43.799999 13C 43.400002 12 42.400002 11.2 41.400002 11.6C 36 13.8 29.200001 9.4 23.6 11.6C 22.799999 11.8 21.4 12 21.200001 13C 18.799999 15.2 17.200001 18.4 15.4 21.4M 32.400002 11.6C 32.200001 14.4 32.799999 17.6 32.400002 20.6"></path><path d="M 43.500198 31.540001C 49.100201 31.540001 53.500198 35.940002 53.500198 41.540001C 53.500198 50.34 45.700199 55.34 43.9002 56.34C 43.700199 56.540001 43.300201 56.540001 43.100201 56.34C 41.300201 55.34 33.500198 50.34 33.500198 41.540001C 33.500198 35.940002 37.9002 31.540001 43.500198 31.540001ZM 10 10M 40.100403 39.34L 46.700401 45.939999M 10 10M 46.700401 39.34L 40.100403 45.939999M 27.899759 47.5L 17.49976 47.5C 15.899759 47.5 14.49976 46.099998 14.49976 44.5L 14.49976 23.5C 14.49976 21.9 15.899759 20.5 17.49976 20.5L 47.499802 20.5C 49.0998 20.5 50.499802 21.9 50.499802 23.5L 50.499802 27.299999M 10 10M 49.499802 21.30002L 43.899799 12.9C 43.299801 12.1 42.499802 11.5 41.499802 11.5L 23.69976 11.5C 22.69976 11.5 21.69976 12.1 21.299759 12.9L 15.49976 21.30002M 32.499802 11.5L 32.499802 20.5"></path></g></g></g><g id="g-root-tx_gerencia_1q7lpzp1cw8oas-stroke" data-item-order="0" transform="translate(122, 338)"></g><g id="g-root-tx_processo_zs6ead1cw78jw-stroke" data-item-order="0" transform="translate(260, 38)"></g><g id="g-root-tx_procedim_zlb6c51cw8oau-stroke" data-item-order="0" transform="translate(122, 386)"></g><g id="g-root-tx_4_4jtln91cw8lxc-stroke" data-item-order="0" transform="translate(56, 404)"></g><g id="g-root-ic_hist_1d1rhed1cw8m4q-stroke" data-item-order="0" transform="translate(908, 398)"><g id="ic_hist_1d1rhed1cw8m4q-stroke" fill="none" stroke-linecap="round" stroke-linejoin="round" stroke-miterlimit="4" stroke="#0284c7" stroke-width="2"><g><path d="M 28.4 30.6C 27.4 33.599998 31 36 34 36.200001C 37 36.400002 40.400002 33.599998 39.599998 30.6C 38.799999 27.6 37.200001 24.799999 34 25C 31 25.200001 28.200001 27.6 28.4 30.6M 41.799999 43.799999C 39.200001 41.599998 37.200001 39 34 39C 30.799999 39 28.4 41.200001 26.200001 43.799999M 56 43.599998C 57 45.200001 57.400002 47 56 48.400002C 53.400002 51 51.200001 54 48.200001 56C 47.400002 57.599998 45.200001 57 43.599998 56C 42.200001 55 42.200001 52.599998 43.599998 51.400002C 45.599998 48.200001 48.599998 46 51.400002 43.599998C 52.799999 42.400002 54.799999 42.400002 56 43.599998M 47.400002 47.599998C 48.799999 49.200001 50.200001 51.200001 52.200001 52.200001M 12.6 26.4C 15.6 25.799999 18.799999 25.799999 21.799999 26.4C 22.6 26.6 23.200001 25.6 23.200001 24.799999C 23.6 21.4 22 17.799999 23.200001 14.8C 23.4 14.4 23.200001 13.8 22.799999 13.6C 22 13.2 21.4 12.2 20.6 11.4C 20.4 11.2 20 11 19.6 11C 17.200001 11.4 14.8 11.6 12.6 11C 12.2 10.8 11.8 11.2 11.4 11.4C 11 11.6 11 12.2 11 12.6C 10.8 16.6 10.6 20.799999 11 24.799999C 11 25.200001 11 25.799999 11.4 25.799999C 11.8 26 12.2 26.200001 12.6 26.4M 29.799999 18.200001C 35 17.4 40.400002 18 44.599998 21.4C 49 24.6 50.799999 29.799999 51.400002 35C 51.400002 36 51.200001 37 51.200001 38M 36 52.200001C 31 52.799999 26.6 50.599998 22.4 48C 18.200001 45.400002 15.6 39.799999 16.6 35C 16.799999 34 16.6 33 16.799999 32M 15.4 16.6C 16.6 16.799999 17.6 16.6 18.799999 16.6M 15.4 21.200001C 16.6 21.4 17.6 21.200001 18.799999 21.200001"></path><path d="M 28.396 30.612C 28.395821 33.70713 30.904871 36.216324 34 36.216324C 37.095131 36.216324 39.604179 33.70713 39.604 30.612C 39.604179 27.51687 37.095131 25.007675 34 25.007675C 30.904871 25.007675 28.395821 27.51687 28.396 30.612M 41.700001 43.82C 40.291733 40.842857 37.293411 38.944298 34 38.944298C 30.706587 38.944298 27.708261 40.842857 26.299999 43.82M 56.035999 43.655998C 57.320545 44.941422 57.320545 47.024574 56.035999 48.309998L 48.265999 56.076C 46.971539 57.304482 44.93396 57.277843 43.672058 56.015942C 42.410156 54.75404 42.383518 52.716461 43.612 51.422001L 51.372002 43.655998C 52.657654 42.370121 54.742348 42.370121 56.028 43.655998ZM 47.492001 47.534L 52.146 52.188M 12.534 26.332001L 21.734001 26.332001C 22.580425 26.332001 23.266895 25.646423 23.268 24.799999L 23.268 14.702C 23.267502 14.295717 23.106476 13.906091 22.82 13.618L 20.652 11.45C 20.365108 11.161486 19.974876 10.999489 19.568001 11L 12.534 11C 12.126995 10.999468 11.736507 11.160915 11.448711 11.448711C 11.160915 11.736507 10.999468 12.126995 11 12.534L 11 24.799999C 11 25.206657 11.161681 25.59663 11.449419 25.883995C 11.737158 26.171358 12.127342 26.332529 12.534 26.331999ZM 29.775999 18.161999C 34.968269 16.865635 40.468254 18.032459 44.686913 21.325356C 48.905567 24.618252 51.372879 29.670345 51.375999 35.022003C 51.376171 36.013947 51.292542 37.004135 51.125999 37.982002M 35.940002 52.290001C 31.025036 52.840279 26.108379 51.270809 22.421263 47.974625C 18.734146 44.678436 16.625729 39.967674 16.624001 35.021999C 16.623081 34.021233 16.708061 33.022232 16.878 32.035999M 15.454 16.676001L 18.813999 16.676001M 15.454 21.136L 18.813999 21.136"></path></g></g></g></g></g></svg>