<?xml version="1.0" encoding="utf-8" standalone="yes"?>
<!DOCTYPE svg PUBLIC "-//W3C//DTD SVG 1.1//EN" "http://www.w3.org/Graphics/SVG/1.1/DTD/svg11.dtd">
<svg width="678" height="516" viewBox="0 0 678 516" style="fill:none;stroke:none;fill-rule:evenodd;clip-rule:evenodd;stroke-linecap:round;stroke-linejoin:round;stroke-miterlimit:1.5;" version="1.1" xmlns="http://www.w3.org/2000/svg" xmlns:xlink="http://www.w3.org/1999/xlink"><style class="text-font-style fontImports" data-font-family="Shantell Sans">@import url('https://fonts.googleapis.com/css2?family=Shantell+Sans:wght@300..800&amp;display=block');</style><g id="items" style="isolation: isolate"><g id="blend" style="mix-blend-mode: normal"><g id="g-root-sy_-1_line_v98vad1ghqp6s-fill" data-item-order="-3737" transform="translate(569, 289.99609375)"></g><g id="g-root-sy_-1_vector_mdlv1h1ghqpzh-fill" data-item-order="-3733" transform="translate(14, 289.99609375)"></g><g id="g-root-sy_6_cu-smallCircle_925co51ghqrke-fill" data-item-order="-3729" transform="translate(563, 287)"></g><g id="g-root-sy_5_cu-smallCircle_4mybmt1ghqp6v-fill" data-item-order="-3725" transform="translate(467, 287)"></g><g id="g-root-sy_4_cu-smallCircle_74tid1ghqpz4-fill" data-item-order="-3721" transform="translate(371, 287)"></g><g id="g-root-sy_3_cu-smallCircle_1qclv8l1ghqqkp-fill" data-item-order="-3717" transform="translate(275, 287)"></g><g id="g-root-sy_2_cu-smallCircle_1lwsd451ghqrcy-fill" data-item-order="-3713" transform="translate(179, 287)"></g><g id="g-root-sy_1_cu-smallCircle_1d1rtyd1ghqozv-fill" data-item-order="-3709" transform="translate(83, 287)"></g><g id="g-root-tx_processo_8vwlt11ghs45m-fill" data-item-order="0" transform="translate(74, 38)"><g id="tx_processo_8vwlt11ghs45m-fill" stroke="none" fill="#0284c7"><g><text style="font: bold 25px &quot;Shantell Sans&quot;, cursive; white-space: pre;" font-weight="bold" font-size="25px" font-family="'Shantell Sans', cursive"><tspan x="14.23" y="45" dominant-baseline="ideographic">Processo de Abertura do Sistema PDV</tspan></text></g></g></g><g id="g-root-tx_ligaroco_vcd8px1ghqqdd-fill" data-item-order="0" transform="translate(14, 146)"><g id="tx_ligaroco_vcd8px1ghqqdd-fill" stroke="none" fill="#0284c7"><g><text style="font: 20px &quot;Shantell Sans&quot;, cursive; white-space: pre;" font-size="20px" font-family="'Shantell Sans', cursive"><tspan x="45.97" y="35" dominant-baseline="ideographic">Ligar o </tspan><tspan x="13.22" y="59" dominant-baseline="ideographic">computador e </tspan><tspan x="30.63" y="83" dominant-baseline="ideographic">periféricos</tspan></text></g></g></g><g id="g-root-tx_clicarno_1hiua911ghqqdr-fill" data-item-order="0" transform="translate(212, 146)"><g id="tx_clicarno_1hiua911ghqqdr-fill" stroke="none" fill="#0284c7"><g><text style="font: 20px &quot;Shantell Sans&quot;, cursive; white-space: pre;" font-size="20px" font-family="'Shantell Sans', cursive"><tspan x="33.1" y="35" dominant-baseline="ideographic">Clicar no </tspan><tspan x="35.04" y="59" dominant-baseline="ideographic">ícone do </tspan><tspan x="16.95" y="83" dominant-baseline="ideographic">sistema PDV</tspan></text></g></g></g><g id="g-root-tx_aguardar_940rxh1ghqqkt-fill" data-item-order="0" transform="translate(404, 146)"><g id="tx_aguardar_940rxh1ghqqkt-fill" stroke="none" fill="#0284c7"><g><text style="font: 20px &quot;Shantell Sans&quot;, cursive; white-space: pre;" font-size="20px" font-family="'Shantell Sans', cursive"><tspan x="16.38" y="35" dominant-baseline="ideographic">Aguardar a </tspan><tspan x="18.3" y="59" dominant-baseline="ideographic">entrada do </tspan><tspan x="22.85" y="83" dominant-baseline="ideographic">supervisor</tspan></text></g></g></g><g id="g-root-ic_lapt_dj7syt1ghtki0-fill" data-item-order="0" transform="translate(62, 230)"></g><g id="g-root-ic_touc_1ijqd1ghtki6-fill" data-item-order="0" transform="translate(254, 230)"></g><g id="g-root-ic_2_hvwxnp1ghs5xg-fill" data-item-order="0" transform="translate(446, 230)"></g><g id="g-root-ic_circ_4l2wdh1ghthqf-fill" data-item-order="0" transform="translate(158, 302)"></g><g id="g-root-ic_2_quobc51ghs5j9-fill" data-item-order="0" transform="translate(350, 302)"></g><g id="g-root-ic_2_1ulk5et1ghs5jf-fill" data-item-order="0" transform="translate(542, 302)"></g><g id="g-root-tx_aguardar_18ntr391ghqosg-fill" data-item-order="0" transform="translate(110, 362)"><g id="tx_aguardar_18ntr391ghqosg-fill" stroke="none" fill="#0284c7"><g><text style="font: 20px &quot;Shantell Sans&quot;, cursive; white-space: pre;" font-size="20px" font-family="'Shantell Sans', cursive"><tspan x="24.03" y="35" dominant-baseline="ideographic">Aguardar o </tspan><tspan x="12.42" y="59" dominant-baseline="ideographic">carregamento </tspan><tspan x="27.84" y="83" dominant-baseline="ideographic">do sistema </tspan><tspan x="23.88" y="107" dominant-baseline="ideographic">operacional</tspan></text></g></g></g><g id="g-root-tx_inseriru_1uuasmd1ghqosu-fill" data-item-order="0" transform="translate(320, 362)"><g id="tx_inseriru_1uuasmd1ghqosu-fill" stroke="none" fill="#0284c7"><g><text style="font: 20px &quot;Shantell Sans&quot;, cursive; white-space: pre;" font-size="20px" font-family="'Shantell Sans', cursive"><tspan x="27.23" y="35" dominant-baseline="ideographic">Inserir </tspan><tspan x="16.2" y="59" dominant-baseline="ideographic">usuário e </tspan><tspan x="31.78" y="83" dominant-baseline="ideographic">senha</tspan></text></g></g></g><g id="g-root-tx_inserirt_zqbbl11ghqqks-fill" data-item-order="0" transform="translate(488, 362)"><g id="tx_inserirt_zqbbl11ghqqks-fill" stroke="none" fill="#0284c7"><g><text style="font: 20px &quot;Shantell Sans&quot;, cursive; white-space: pre;" font-size="20px" font-family="'Shantell Sans', cursive"><tspan x="54.11" y="35" dominant-baseline="ideographic">Inserir </tspan><tspan x="15.53" y="59" dominant-baseline="ideographic">troco/fundo de </tspan><tspan x="22.94" y="83" dominant-baseline="ideographic">caixa como 0</tspan></text></g></g></g><g id="g-root-sy_-1_line_v98vad1ghqp6s-stroke" data-item-order="-3737" transform="translate(569, 289.99609375)"><g id="sy_-1_line_v98vad1ghqp6s-stroke" fill="none" stroke-linecap="round" stroke-linejoin="round" stroke-miterlimit="4" stroke="#0284c7" stroke-width="2"><g><path d="M 77 10.003906C 65.6 10.803906 54.1 10.503906 42.7 10.003906C 31.8 9.503906 20.8 8.303906 10 10.003906"></path><path d="M 77 10.003906L 10 10.003906"></path><path d="M 71 16.503906C 72.6 13.903906 75.2 12.003906 77.5 10.003906C 75.1 8.103906 73.8 4.703906 71 3.503906" stroke-dasharray="none"></path><path d="M 71 16.503906L 77.5 10.003906L 71 3.503906" stroke-dasharray="none"></path></g></g></g><g id="g-root-sy_-1_vector_mdlv1h1ghqpzh-stroke" data-item-order="-3733" transform="translate(14, 289.99609375)"><g id="sy_-1_vector_mdlv1h1ghqpzh-stroke" fill="none" stroke-linecap="round" stroke-linejoin="round" stroke-miterlimit="4" stroke="#0284c7" stroke-width="2"><g><path d="M 559 10C 529 10.2 498.9 8.1 469 10M 463 10C 448.6 8.6 434.1 9.1 419.7 10C 404.2 11 388.5 9.2 373 10M 367 10C 351.4 9.3 335.7 8.3 320.2 10C 305.9 11.6 291.4 10.4 277 10M 271 10C 256.8 10.8 242.5 10.4 228.3 10C 212.5 9.5 196.8 9.4 181 10M 175 10C 145 9.6 115 10.6 85 10M 79 10C 56 11 33 11 10 10"></path><path d="M 559 9.999992L 469 9.999992M 463 9.999992L 373 9.999992M 367 9.999992L 277 9.999992M 271 9.999992L 181 9.999992M 174.9976 9.999992L 84.9976 9.999992M 78.9976 9.999992L 10 9.999992"></path></g></g></g><g id="g-root-sy_6_cu-smallCircle_925co51ghqrke-stroke" data-item-order="-3729" transform="translate(563, 287)"><g id="sy_6_cu-smallCircle_925co51ghqrke-stroke" fill="none" stroke-linecap="round" stroke-linejoin="round" stroke-miterlimit="4" stroke="#0284c7" stroke-width="2"><g><path d="M 16 13C 16 14.7 14.6 15.4 13 16C 11.4 16.6 9.4 14.6 10 13C 10.6 11.4 11.4 10.5 13 10C 14.6 9.5 15.9 11.4 16 13"></path><path d="M 16 13C 16 14.6569 14.6569 16 13 16C 11.3431 16 10 14.6569 10 13C 10 11.3431 11.3431 10 13 10C 14.6569 10 16 11.3431 16 13Z"></path></g></g></g><g id="g-root-sy_5_cu-smallCircle_4mybmt1ghqp6v-stroke" data-item-order="-3725" transform="translate(467, 287)"><g id="sy_5_cu-smallCircle_4mybmt1ghqp6v-stroke" fill="none" stroke-linecap="round" stroke-linejoin="round" stroke-miterlimit="4" stroke="#0284c7" stroke-width="2"><g><path d="M 16 13C 15.8 14.6 14.6 15.9 13 16C 11.3 16.1 9.8 14.6 10 13C 10.2 11.4 11.4 9.8 13 10C 14.6 10.2 15.7 11.4 16 13"></path><path d="M 16 13C 16 14.6569 14.6569 16 13 16C 11.3431 16 10 14.6569 10 13C 10 11.3431 11.3431 10 13 10C 14.6569 10 16 11.3431 16 13Z"></path></g></g></g><g id="g-root-sy_4_cu-smallCircle_74tid1ghqpz4-stroke" data-item-order="-3721" transform="translate(371, 287)"><g id="sy_4_cu-smallCircle_74tid1ghqpz4-stroke" fill="none" stroke-linecap="round" stroke-linejoin="round" stroke-miterlimit="4" stroke="#0284c7" stroke-width="2"><g><path d="M 16 13C 16.5 14.6 14.6 16.3 13 16C 11.4 15.7 10.2 14.6 10 13C 9.8 11.4 11.5 9.4 13 10C 14.5 10.6 15.4 11.4 16 13"></path><path d="M 16 13C 16 14.6569 14.6569 16 13 16C 11.3431 16 10 14.6569 10 13C 10 11.3431 11.3431 10 13 10C 14.6569 10 16 11.3431 16 13Z"></path></g></g></g><g id="g-root-sy_3_cu-smallCircle_1qclv8l1ghqqkp-stroke" data-item-order="-3717" transform="translate(275, 287)"><g id="sy_3_cu-smallCircle_1qclv8l1ghqqkp-stroke" fill="none" stroke-linecap="round" stroke-linejoin="round" stroke-miterlimit="4" stroke="#0284c7" stroke-width="2"><g><path d="M 16 13C 16.2 14.6 14.7 16 13 16C 11.3 16 10 14.7 10 13C 10 11.3 11.3 10 13 10C 14.7 10 16.6 11.4 16 13"></path><path d="M 16 13C 16 14.6569 14.6569 16 13 16C 11.3431 16 10 14.6569 10 13C 10 11.3431 11.3431 10 13 10C 14.6569 10 16 11.3431 16 13Z"></path></g></g></g><g id="g-root-sy_2_cu-smallCircle_1lwsd451ghqrcy-stroke" data-item-order="-3713" transform="translate(179, 287)"><g id="sy_2_cu-smallCircle_1lwsd451ghqrcy-stroke" fill="none" stroke-linecap="round" stroke-linejoin="round" stroke-miterlimit="4" stroke="#0284c7" stroke-width="2"><g><path d="M 16 13C 16.5 14.6 14.6 16.6 13 16C 11.4 15.4 9.8 14.6 10 13C 10.2 11.4 11.4 10.6 13 10C 14.5 9.4 16.1 11.3 16 13"></path><path d="M 16 13C 16 14.6569 14.6569 16 13 16C 11.3431 16 10 14.6569 10 13C 10 11.3431 11.3431 10 13 10C 14.6569 10 16 11.3431 16 13Z"></path></g></g></g><g id="g-root-sy_1_cu-smallCircle_1d1rtyd1ghqozv-stroke" data-item-order="-3709" transform="translate(83, 287)"><g id="sy_1_cu-smallCircle_1d1rtyd1ghqozv-stroke" fill="none" stroke-linecap="round" stroke-linejoin="round" stroke-miterlimit="4" stroke="#0284c7" stroke-width="2"><g><path d="M 16 13C 15.9 14.6 14.7 16.1 13 16C 11.3 15.9 9.7 14.6 10 13C 10.3 11.4 11.3 10 13 10C 14.7 10 16.2 11.4 16 13"></path><path d="M 16 13C 16 14.6569 14.6569 16 13 16C 11.3431 16 10 14.6569 10 13C 10 11.3431 11.3431 10 13 10C 14.6569 10 16 11.3431 16 13Z"></path></g></g></g><g id="g-root-tx_processo_8vwlt11ghs45m-stroke" data-item-order="0" transform="translate(74, 38)"></g><g id="g-root-tx_ligaroco_vcd8px1ghqqdd-stroke" data-item-order="0" transform="translate(14, 146)"></g><g id="g-root-tx_clicarno_1hiua911ghqqdr-stroke" data-item-order="0" transform="translate(212, 146)"></g><g id="g-root-tx_aguardar_940rxh1ghqqkt-stroke" data-item-order="0" transform="translate(404, 146)"></g><g id="g-root-ic_lapt_dj7syt1ghtki0-stroke" data-item-order="0" transform="translate(62, 230)"><g id="ic_lapt_dj7syt1ghtki0-stroke" fill="none" stroke-linecap="round" stroke-linejoin="round" stroke-miterlimit="4" stroke="#0284c7" stroke-width="2"><g><path d="M 38 11C 42.599998 10 47.400002 11.8 52 11C 52 11 53.599998 11 54 13C 54.599998 16 53 19.200001 54 22C 54 22 54 24.4 52 24C 47.400002 23.200001 42.599998 24.4 38 24C 38 24 36.200001 24 36 22C 35.599998 19 35.599998 16 36 13C 36 13 36 11.2 38 11M 56.799999 30.6C 57 30.799999 57 31.200001 57 31.4C 57.200001 32.200001 56.200001 33 55.400002 33C 48.400002 33 41.400002 33.799999 34.599998 33C 33.799999 32.799999 32.799999 32.200001 33 31.4C 33 31.200001 33 30.799999 33.200001 30.6C 34.200001 29.200001 34.200001 27.200001 35.200001 25.799999C 36 24.799999 36.799999 23.799999 38 24C 42.599998 24.4 47.599998 25.799999 52 24C 53.200001 23.6 54.200001 24.799999 54.799999 25.799999C 55.599998 27.4 56.400002 29 56.799999 30.6M 16 31.4C 18.799999 29 23.6 28.6 26 31.4M 12.6 27.200001C 17.799999 23.200001 25.6 21.799999 29.4 27.200001M 13 37C 18 38.599998 23.799999 36 29 37C 29 37 30.799999 37 31 39C 31.799999 44.200001 30.6 49.599998 31 55C 31 55 31 57 29 57C 23.6 56.799999 18.200001 56 13 57C 13 57 11 57 11 55C 11 49.599998 9.2 44 11 39C 11 39 11 37 13 37M 17 46C 17 48.200001 18.799999 50.400002 21 50C 23.200001 49.599998 25.200001 48.200001 25 46C 24.799999 43.799999 23.200001 42 21 42C 18.799999 41.799999 17.4 43.799999 17 46M 21 50C 21.200001 51 20.799999 52 21 53M 42 29C 44 29 46 29.200001 48 29"></path><path d="M 38 11L 52 11C 52 11 54 11 54 13L 54 22C 54 22 54 24 52 24L 38 24C 38 24 36 24 36 22L 36 13C 36 13 36 11 38 11M 56.82 30.639999C 56.938171 30.875933 56.999798 31.136131 57.000004 31.400002C 57 32.283653 56.283657 33 55.400002 33L 34.599998 33C 33.716347 33 33 32.283653 33 31.4C 33.000206 31.136131 33.061832 30.875933 33.18 30.640001L 35.18 25.84C 35.659134 24.710918 36.773567 23.98377 38 24L 52 24C 53.211918 23.999971 54.306469 24.724422 54.779999 25.84ZM 16 31.42C 18.922663 29.079998 23.077337 29.079998 26 31.42M 12.52 27.18C 17.205082 22.500746 24.79492 22.500746 29.480001 27.18M 13 37L 29 37C 29 37 31 37 31 39L 31 55C 31 55 31 57 29 57L 13 57C 13 57 11 57 11 55L 11 39C 11 39 11 37 13 37M 17 46C 17 48.209141 18.790861 50 21 50C 23.209139 50 25 48.209141 25 46C 25 43.790859 23.209139 42 21 42C 18.790861 42 17 43.790859 17 46M 21 50L 21 53M 42 29L 48 29"></path></g></g></g><g id="g-root-ic_touc_1ijqd1ghtki6-stroke" data-item-order="0" transform="translate(254, 230)"><g id="ic_touc_1ijqd1ghtki6-stroke" fill="none" stroke-linecap="round" stroke-linejoin="round" stroke-miterlimit="4" stroke="#0284c7" stroke-width="2"><g><path d="M 42 54C 39.400002 51.400002 37.799999 48 35.799999 44.799999C 33.599998 41 39.799999 39.799999 42.200001 46C 42.200001 40.799999 43.599998 35.200001 42.200001 30C 42 29 43.200001 27.799999 44.200001 28C 45.200001 28.200001 46.599998 29 46.200001 30C 45.400002 33 45 36.599998 46.200001 39.599998C 48.799999 40.799999 51.400002 41.799999 54.200001 41.799999C 55.599998 41.799999 55.799999 43.599998 56 44.799999C 56.200001 45.799999 54 44.400002 54.400002 54M 32.200001 44C 26.6 44 20.799999 42.799999 15.2 44C 13.6 44.400002 12.2 42.599998 12.2 41C 12 33 12 25 12.2 17C 12.2 15.4 13.6 14.4 15.2 14C 26.799999 11.2 39.200001 14.4 51.200001 14C 52.799999 14 54.599998 15.4 54.200001 17C 53 23.799999 56.200001 31.200001 54.200001 38M 23.200001 50C 26.6 50.599998 30.200001 51.200001 33.200001 50M 30.200001 44C 30 46 30.6 48 30.200001 50"></path><path d="M 42 54L 35.879997 44.82C 33.440002 41.099998 39.459999 39.860001 42.220001 46.040001L 42.220001 30C 42.220001 28.89543 43.115429 28 44.220001 28C 45.32457 28 46.220001 28.89543 46.220001 30L 46.220001 39.5L 54.220001 41.799999C 55.528519 42.179165 56.316727 43.510361 56.02 44.84C 55.779999 45.82 56.02 44.48 54.32 54M 32.200001 44L 15.2 44C 13.543146 44 12.2 42.656857 12.2 41L 12.2 17C 12.2 15.343145 13.543146 14 15.200001 14L 51.200001 14C 52.856857 14 54.200001 15.343145 54.200001 17L 54.200001 38M 23.200001 50L 33.200001 50M 30.200001 44L 30.200001 50"></path></g></g></g><g id="g-root-ic_2_hvwxnp1ghs5xg-stroke" data-item-order="0" transform="translate(446, 230)"><g id="ic_2_hvwxnp1ghs5xg-stroke" fill="none" stroke-linecap="round" stroke-linejoin="round" stroke-miterlimit="4" stroke="#0284c7" stroke-width="2"><g><path d="M 22 42C 21.799999 35.599998 27.200001 32.599998 33.200001 30C 33.400002 29.799999 33.799999 29.799999 34 30C 40.200001 28.200001 46.599998 34.799999 46 41C 46 41.400002 46 41.799999 46 42C 38.599998 45 30 41 22 42M 26 19C 27.6 23.200001 29.799999 28.4 34 27C 38.200001 25.6 42.200001 23.4 42 19C 41.799999 14.6 38.400002 11 34 11C 29.6 11 24.799999 14.8 26 19M 41.400002 18C 40.200001 18.799999 38.799999 19.200001 37.200001 19C 33.599998 18.6 30 17 28.4 13.6M 34 34C 33.799999 35 33.799999 36 34 37M 12 57C 15.6 53.200001 18.799999 49 23 46M 23 54C 22.799999 51.400002 22.4 48.599998 23 46C 20.4 46.599998 17.6 46 15 46M 56 57C 52.400002 53.400002 47 50.799999 45 46M 45 54C 44.799999 51.400002 44.200001 48.599998 45 46C 47.599998 45.200001 50.400002 45.799999 53 46"></path><path d="M 22.043999 42C 21.793907 35.621292 26.763212 30.2481 33.141998 30C 33.442001 29.988001 33.742001 29.988001 34.043999 30C 40.421883 29.752151 45.793728 34.720215 46.044003 41.098C 46.054001 41.398003 46.054001 41.697998 46.043999 42ZM 26.044001 19C 26.044001 23.418278 29.625723 27 34.043999 27C 38.46228 27 42.043999 23.418278 42.043999 19C 42.043999 14.581722 38.46228 11 34.043999 11C 29.625723 11 26.044001 14.581722 26.044001 19M 41.498001 17.934C 40.202461 18.647308 38.744862 19.014465 37.266003 19C 33.547661 19.008444 30.142534 16.918934 28.466 13.6M 34.043999 34L 34.043999 37M 12 57L 23 46M 23 54L 23 46L 15 46M 56 57L 45 46M 45 54L 45 46L 53 46"></path></g></g></g><g id="g-root-ic_circ_4l2wdh1ghthqf-stroke" data-item-order="0" transform="translate(158, 302)"><g id="ic_circ_4l2wdh1ghthqf-stroke" fill="none" stroke-linecap="round" stroke-linejoin="round" stroke-miterlimit="4" stroke="#0284c7" stroke-width="2"><g><path d="M 34 51C 34.599998 52.200001 33.599998 53.799999 34 55M 53 36C 51.799999 35.799999 50.200001 36.400002 49 36M 34 13C 34.799999 15.6 34.400002 18.4 34 21M 27.799999 49.799999C 27.799999 51 26.4 52.200001 26.4 53.400002M 40.200001 49.799999C 40.200001 51 41 52.200001 41.599998 53.400002M 19 36C 17.6 36.200001 16.4 36 15 36M 51.599998 28.799999C 50.200001 29 49 29.4 47.799999 30.200001M 20.200001 41.799999C 19 42.200001 17.6 42.599998 16.4 43.200001M 44.599998 46.599998C 45.799999 47.200001 46.200001 48.799999 47.400002 49.400002M 47.400002 22.6C 46.799999 23.799999 45.799999 24.799999 44.599998 25.4M 41.200001 18.4C 41 19.799999 40.599998 21.200001 39.799999 22.200001M 26.799999 18.4C 27.6 19.6 27.6 21 28.200001 22.200001M 20.6 22.6C 21.6 23.4 22.4 24.6 23.4 25.4M 23.4 46.599998C 22.200001 47.400002 21.4 48.400002 20.6 49.400002M 47.799999 41.799999C 49 42.200001 50.200001 43 51.599998 43.200001M 16.4 28.799999C 17.6 29.4 19 29.6 20.200001 30.200001"></path><path d="M 34 50.995998L 34 54.995998M 53 35.996002L 49 35.996002M 34 12.996L 34 20.996M 27.879999 49.778L 26.346001 53.472M 40.127998 49.778L 41.652 53.472M 19 35.996002L 15 35.996002M 51.551998 28.724001L 47.858002 30.256001M 20.139999 41.736L 16.445999 43.268002M 44.605999 46.604L 47.433998 49.431999M 47.433998 22.560001L 44.605999 25.388M 41.27 18.442001L 39.737999 22.138M 26.726 18.444L 28.26 22.138M 20.563999 22.560001L 23.392 25.388M 23.392 46.604L 20.563999 49.431999M 47.858002 41.736L 51.551998 43.268002M 16.445999 28.724001L 20.139999 30.256001"></path></g></g></g><g id="g-root-ic_2_quobc51ghs5j9-stroke" data-item-order="0" transform="translate(350, 302)"><g id="ic_2_quobc51ghs5j9-stroke" fill="none" stroke-linecap="round" stroke-linejoin="round" stroke-miterlimit="4" stroke="#0284c7" stroke-width="2"><g><path d="M 10 10M 55.799999 48.799999C 49 48.799999 42.200001 48.200001 35.599998 48.799999M 10 10M 42.599998 41.799999C 39.799999 43.400002 38 46.400002 35.599998 48.799999C 38.400002 50.400002 40.200001 53.200001 42.599998 55.599998M 29 30.200001C 31.6 29.6 34.200001 28 33.799999 25.4C 33.400002 22.6 31.6 20.799999 29 20.4C 26.4 20.200001 24.6 22.6 24.200001 25.4C 23.799999 28 26.4 29.4 29 30.200001M 37 37.599998C 37.200001 34 32.799999 32.200001 29 31.6C 25.200001 31 21.799999 34.200001 20.799999 37.599998M 10 10M 29.799999 45.799999C 24.799999 46.799999 19.200001 44.400002 14.2 45.799999C 13.2 46 12 44.799999 12.2 43.799999C 14.2 34.200001 10.8 24 12.2 14.4C 12.4 13.2 13.2 12.6 14.2 12.4C 24 10.6 34.200001 14.6 43.599998 12.4C 44.799999 12.2 45.799999 13.2 45.599998 14.4C 44.799999 20.799999 46.200001 27.4 45.599998 33.799999"></path><path d="M 10 10M 55.707001 48.744202L 35.648399 48.744202M 10 10M 42.515598 41.873001L 35.647202 48.741402L 42.515598 55.609798M 28.96664 30.162399C 31.639601 30.162399 33.806602 27.99538 33.806602 25.322361C 33.806602 22.64934 31.639601 20.48242 28.96664 20.48242C 26.293619 20.48242 24.126701 22.64934 24.126701 25.322361C 24.126701 27.99538 26.293619 30.162399 28.96664 30.162399ZM 37.0826 37.6824C 36.023003 34.2104 32.740997 31.607401 28.971001 31.607401C 25.201 31.607401 21.919079 34.2104 20.859379 37.6824M 10 10M 29.863159 45.7714L 14.29296 45.7714C 13.1884 45.7714 12.29296 44.875999 12.29296 43.7714L 12.29296 14.38868C 12.29296 13.2841 13.1884 12.38868 14.29296 12.38868L 43.6758 12.38868C 44.780399 12.38868 45.6758 13.2841 45.6758 14.38868L 45.6758 33.857002"></path></g></g></g><g id="g-root-ic_2_1ulk5et1ghs5jf-stroke" data-item-order="0" transform="translate(542, 302)"><g id="ic_2_1ulk5et1ghs5jf-stroke" fill="none" stroke-linecap="round" stroke-linejoin="round" stroke-miterlimit="4" stroke="#0284c7" stroke-width="2"><g><path d="M 38.599998 47.200001C 38 49.200001 36.599998 50.799999 34.599998 51.200001C 28.200001 52 21.799999 51 15.6 51.200001C 13.4 51.200001 11.2 49.200001 11.6 47.200001C 12.8 39.400002 11 31.4 11.6 23.6C 11.6 21.4 13.4 18.799999 15.6 19.6C 21.6 21.6 28.200001 20.4 34.599998 19.6C 36.599998 19.200001 38.400002 21.4 38.599998 23.6C 39 31.4 37 39.400002 38.599998 47.200001M 11.6 31.6C 20.6 31.6 30 28.6 38.599998 31.6M 18.6 25.6C 22.6 24.4 27.200001 24.4 31.6 25.6M 51.599998 44.200001C 51.400002 45 51.400002 46.200001 51.599998 47.200001C 52.400002 52 47.400002 56.799999 42.599998 56.200001C 39 55.599998 36.799999 53.400002 34.599998 51.200001M 33.799999 19.4C 34.400002 15.2 38.200001 12.6 42.599998 11.8C 47.400002 11.2 50.400002 16 51.599998 20.799999C 52 23.6 50.599998 26.4 51.599998 29M 10 10M 46.599998 24.200001C 48 26 50.200001 27 51.599998 29.200001C 52.400002 27 55.200001 26.200001 56.599998 24.200001M 25 39C 25.799999 38.599998 27 38.200001 26.799999 37.200001C 26.4 36.400002 26 35.799999 25 35.599998C 24 35.400002 23 36.400002 23.200001 37.200001C 23.6 38.200001 24.200001 38.599998 25 39M 17.6 39C 18.6 39.200001 19.6 38.200001 19.200001 37.200001C 19 36.400002 18.4 35.799999 17.6 35.599998C 16.6 35.200001 15.6 36.400002 15.8 37.200001C 16.200001 38.200001 16.6 38.799999 17.6 39M 32.400002 39C 33.400002 39 34.400002 38.200001 34.200001 37.200001C 34 36.400002 33.400002 35.200001 32.400002 35.599998C 31.6 35.799999 30.6 36.400002 30.799999 37.200001C 31 38.200001 31.6 39.200001 32.400002 39M 25 46.400002C 26 46.599998 26.6 45.599998 26.799999 44.799999C 26.799999 43.799999 26 42.799999 25 43C 24 43.200001 23 43.799999 23.200001 44.799999C 23.4 45.599998 24.200001 46.799999 25 46.400002M 17.6 46.400002C 18.4 46.799999 19.4 45.799999 19.200001 44.799999C 19.200001 43.799999 18.6 43.200001 17.6 43C 16.6 42.799999 16 43.799999 15.8 44.799999C 15.8 45.599998 16.6 46.200001 17.6 46.400002M 32.400002 46.400002C 33.400002 46.599998 34 45.599998 34.200001 44.799999C 34.400002 43.799999 33.400002 43.200001 32.400002 43C 31.6 42.799999 31 43.799999 30.799999 44.799999C 30.4 45.599998 31.4 46.599998 32.400002 46.400002"></path><path d="M 38.5 47.099998C 38.5 49.299999 36.700001 51.099998 34.5 51.099998L 15.5 51.099998C 13.3 51.099998 11.5 49.299999 11.5 47.099998L 11.5 23.5C 11.5 21.299999 13.3 19.5 15.5 19.5L 34.5 19.5C 36.700001 19.5 38.5 21.299999 38.5 23.5L 38.5 47.099998ZM 11.5 31.5L 38.5 31.5M 18.5 25.5L 31.5 25.5M 51.5 44.099998L 51.5 47.099998C 51.5 52.099998 47.5 56.099998 42.5 56.099998C 38.900002 56.099998 35.900002 54.099998 34.5 51.099998M 33.700001 19.49988C 34.5 15.29988 38.099998 11.899902 42.5 11.899902C 47.5 11.899902 51.5 15.8999 51.5 20.8999L 51.5 29M 10 10M 46.5 24.1001L 51.5 29.1001L 56.5 24.1001M 25 38.986603C 25.95636 38.986603 26.731621 38.211399 26.731621 37.254997C 26.731621 36.298798 25.95636 35.523399 25 35.523399C 24.04364 35.523399 23.268341 36.298798 23.268341 37.254997C 23.268341 38.211399 24.04364 38.986603 25 38.986603ZM 17.562099 38.986603C 18.518459 38.986603 19.29372 38.211399 19.29372 37.254997C 19.29372 36.298798 18.518459 35.523399 17.562099 35.523399C 16.60574 35.523399 15.830441 36.298798 15.830441 37.254997C 15.830441 38.211399 16.60574 38.986603 17.562099 38.986603ZM 32.437798 38.986603C 33.394199 38.986603 34.169601 38.211399 34.169601 37.254997C 34.169601 36.298798 33.394199 35.523399 32.437798 35.523399C 31.4816 35.523399 30.7062 36.298798 30.7062 37.254997C 30.7062 38.211399 31.4816 38.986603 32.437798 38.986603ZM 25 46.473999C 25.95636 46.473999 26.731621 45.698799 26.731621 44.742401C 26.731621 43.785999 25.95636 43.010799 25 43.010799C 24.04364 43.010799 23.268341 43.785999 23.268341 44.742401C 23.268341 45.698799 24.04364 46.473999 25 46.473999ZM 17.562099 46.473999C 18.518459 46.473999 19.29372 45.698799 19.29372 44.742401C 19.29372 43.785999 18.518459 43.010799 17.562099 43.010799C 16.60574 43.010799 15.830441 43.785999 15.830441 44.742401C 15.830441 45.698799 16.60574 46.473999 17.562099 46.473999ZM 32.437798 46.473999C 33.394199 46.473999 34.169601 45.698799 34.169601 44.742401C 34.169601 43.785999 33.394199 43.010799 32.437798 43.010799C 31.4816 43.010799 30.7062 43.785999 30.7062 44.742401C 30.7062 45.698799 31.4816 46.473999 32.437798 46.473999Z"></path></g></g></g><g id="g-root-tx_aguardar_18ntr391ghqosg-stroke" data-item-order="0" transform="translate(110, 362)"></g><g id="g-root-tx_inseriru_1uuasmd1ghqosu-stroke" data-item-order="0" transform="translate(320, 362)"></g><g id="g-root-tx_inserirt_zqbbl11ghqqks-stroke" data-item-order="0" transform="translate(488, 362)"></g></g></g></svg>