<?xml version="1.0" encoding="utf-8" standalone="yes"?>
<!DOCTYPE svg PUBLIC "-//W3C//DTD SVG 1.1//EN" "http://www.w3.org/Graphics/SVG/1.1/DTD/svg11.dtd">
<svg width="828" height="624" viewBox="0 0 828 624" style="fill:none;stroke:none;fill-rule:evenodd;clip-rule:evenodd;stroke-linecap:round;stroke-linejoin:round;stroke-miterlimit:1.5;" version="1.1" xmlns="http://www.w3.org/2000/svg" xmlns:xlink="http://www.w3.org/1999/xlink"><style class="text-font-style fontImports" data-font-family="Shantell Sans">@import url('https://fonts.googleapis.com/css2?family=Shantell+Sans:wght@300..800&amp;display=block');</style><g id="items" style="isolation: isolate"><g id="blend" style="mix-blend-mode: normal"><g id="g-root-cp_0_g-0_hu18wm1e05l3d-fill" data-item-order="-411830" transform="translate(14, 241.512939453125)"><g id="cp_0_g-0_hu18wm1e05l3d-fill" stroke="none" fill="#ffffff"><g><path d="M 652 130.5L 705.468 130.5L 705.468 154.5L 777.475 82.5026L 705.468 10L 705.468 34.5L 665.067 34.5L 652 130.5ZM 545.114 34.5L 509.103 34.5L 496.037 130.5L 532.047 130.5L 545.114 34.5ZM 389.103 34.5L 353.134 34.5L 340.067 130.5L 376.037 130.5L 389.103 34.5ZM 233.134 34.5L 197.598 34.5L 184.532 130.5L 220.067 130.5L 233.134 34.5ZM 77.5983 34.5L 10 34.5L 10 130.5L 64.5316 130.5L 77.5983 34.5Z"></path></g></g></g><g id="g-root-cp_1_g-1_4ikqja1e05mob-fill" data-item-order="-411826" transform="translate(38, 230)"><g id="cp_1_g-1_4ikqja1e05mob-fill" stroke="none" fill="#ffffff"><g><path d="M 58.5 10L 178.5 10L 154 190L 34 190L 58.5 10Z"></path></g></g><g id="cp_1_g-1_4ikqja1e05mob-fill" stroke="none" fill="#ffffff"><g><path d="M 178.500081 10L 173.595581 46L 202.000081 46L 178.500081 10Z"></path></g></g><g id="cp_1_g-1_4ikqja1e05mob-fill" stroke="none" fill="#ffffff"><g><path d="M 10 142L 34 190L 40.5 142L 10 142Z"></path></g></g></g><g id="g-root-cp_2_g-2_1q8ur861e05kwf-fill" data-item-order="-411818" transform="translate(193.53500366210938, 230)"><g id="cp_2_g-2_1q8ur861e05kwf-fill" stroke="none" fill="#ffffff"><g><path d="M 58.5 10L 178.5 10L 154 190L 34 190L 58.5 10Z"></path></g></g><g id="cp_2_g-2_1q8ur861e05kwf-fill" stroke="none" fill="#ffffff"><g><path d="M 178.500081 10L 173.595581 46L 202.000081 46L 178.500081 10Z"></path></g></g><g id="cp_2_g-2_1q8ur861e05kwf-fill" stroke="none" fill="#ffffff"><g><path d="M 10 142L 34 190L 40.5 142L 10 142Z"></path></g></g></g><g id="g-root-cp_3_g-3_1hd7qza1e05mgz-fill" data-item-order="-411810" transform="translate(349.5039978027344, 230)"><g id="cp_3_g-3_1hd7qza1e05mgz-fill" stroke="none" fill="#ffffff"><g><path d="M 58.5 10L 178.5 10L 154 190L 34 190L 58.5 10Z"></path></g></g><g id="cp_3_g-3_1hd7qza1e05mgz-fill" stroke="none" fill="#ffffff"><g><path d="M 178.500081 10L 173.595581 46L 202.000081 46L 178.500081 10Z"></path></g></g><g id="cp_3_g-3_1hd7qza1e05mgz-fill" stroke="none" fill="#ffffff"><g><path d="M 10 142L 34 190L 40.5 142L 10 142Z"></path></g></g></g><g id="g-root-cp_4_g-4_142dpp21e05kw7-fill" data-item-order="-411802" transform="translate(505.5159912109375, 230)"><g id="cp_4_g-4_142dpp21e05kw7-fill" stroke="none" fill="#ffffff"><g><path d="M 58.5 10L 178.5 10L 154 190L 34 190L 58.5 10Z"></path></g></g><g id="cp_4_g-4_142dpp21e05kw7-fill" stroke="none" fill="#ffffff"><g><path d="M 178.500081 10L 173.595581 46L 202.000081 46L 178.500081 10Z"></path></g></g><g id="cp_4_g-4_142dpp21e05kw7-fill" stroke="none" fill="#ffffff"><g><path d="M 10 142L 34 190L 40.5 142L 10 142Z"></path></g></g></g><g id="g-root-cp_1_g-1_1_qqx7bq1e05mh7-fill" data-item-order="-411779" transform="translate(146, 98)"></g><g id="g-root-cp_3_g-3_1_mb3p7a1e05n9h-fill" data-item-order="-411769" transform="translate(458, 98)"></g><g id="g-root-cp_2_g-2_1_909nx21e05lon-fill" data-item-order="-411759" transform="translate(278, 410)"></g><g id="g-root-cp_4_g-4_1_4kg5sm1e05mgx-fill" data-item-order="-411749" transform="translate(590, 410)"></g><g id="g-root-tx_inseriro_1d3mzpy1e0728b-fill" data-item-order="0" transform="translate(470, 158)"><g id="tx_inseriro_1d3mzpy1e0728b-fill" stroke="none" fill="#0284c7"><g><text style="font: 15px &quot;Shantell Sans&quot;, cursive; white-space: pre;" font-size="15px" font-family="'Shantell Sans', cursive"><tspan x="12" y="29" dominant-baseline="ideographic">Inserir o número do </tspan><tspan x="12" y="47" dominant-baseline="ideographic">pedido para autorização</tspan></text></g></g></g><g id="g-root-tx_imprimir_i09zrq1e070uh-fill" data-item-order="0" transform="translate(158, 158)"><g id="tx_imprimir_i09zrq1e070uh-fill" stroke="none" fill="#0284c7"><g><text style="font: 15px &quot;Shantell Sans&quot;, cursive; white-space: pre;" font-size="15px" font-family="'Shantell Sans', cursive"><tspan x="12" y="29" dominant-baseline="ideographic">Imprimir o pedido do </tspan><tspan x="12" y="47" dominant-baseline="ideographic">IFOOD para processamento</tspan></text></g></g></g><g id="g-root-tx_finaliza_9mgd21e0701u-fill" data-item-order="0" transform="translate(470, 98)"><g id="tx_finaliza_9mgd21e0701u-fill" stroke="none" fill="#0284c7"><g><text style="font: bold 20px &quot;Shantell Sans&quot;, cursive; white-space: pre;" font-weight="bold" font-size="20px" font-family="'Shantell Sans', cursive"><tspan x="12" y="35" dominant-baseline="ideographic">Finalização da </tspan><tspan x="12" y="59" dominant-baseline="ideographic">Entrega</tspan></text></g></g></g><g id="g-root-ic_hand_143mnva1e05n2k-fill" data-item-order="0" transform="translate(98, 279)"></g><g id="g-root-ic_pass_zrk09i1e05l3h-fill" data-item-order="0" transform="translate(253.75201416015625, 279)"></g><g id="g-root-ic_next_4ikqja1e070um-fill" data-item-order="0" transform="translate(410, 279)"></g><g id="g-root-ic_mana_mcz4gm1e06znr-fill" data-item-order="0" transform="translate(566, 279)"></g><g id="g-root-tx_impresso_146r1au1e071mo-fill" data-item-order="0" transform="translate(158, 98)"><g id="tx_impresso_146r1au1e071mo-fill" stroke="none" fill="#0284c7"><g><text style="font: bold 20px &quot;Shantell Sans&quot;, cursive; white-space: pre;" font-weight="bold" font-size="20px" font-family="'Shantell Sans', cursive"><tspan x="12" y="35" dominant-baseline="ideographic">Impressão do </tspan><tspan x="12" y="59" dominant-baseline="ideographic">Pedido</tspan></text></g></g></g><g id="g-root-tx_guardaro_1q6zbyu1e08e87-fill" data-item-order="0" transform="translate(398, 506)"><g id="tx_guardaro_1q6zbyu1e08e87-fill" stroke="none" fill="#0284c7"><g><text style="font: 15px &quot;Shantell Sans&quot;, cursive; white-space: pre;" font-size="15px" font-family="'Shantell Sans', cursive"><tspan x="14.05" y="32" dominant-baseline="ideographic">Guardar o comprovante </tspan><tspan x="85.63" y="50" dominant-baseline="ideographic">assinado para </tspan><tspan x="89.28" y="68" dominant-baseline="ideographic">contabilidade</tspan></text></g></g></g><g id="g-root-tx_assinatu_zitd1y1e08f7w-fill" data-item-order="0" transform="translate(110, 446)"><g id="tx_assinatu_zitd1y1e08f7w-fill" stroke="none" fill="#0284c7"><g><text style="font: bold 20px &quot;Shantell Sans&quot;, cursive; white-space: pre;" font-weight="bold" font-size="20px" font-family="'Shantell Sans', cursive"><tspan x="15.89" y="35" dominant-baseline="ideographic">Assinatura do </tspan><tspan x="70.39" y="59" dominant-baseline="ideographic">Motoboy</tspan></text></g></g></g><g id="g-root-tx_armazena_4gpb9y1e08g06-fill" data-item-order="0" transform="translate(398, 446)"><g id="tx_armazena_4gpb9y1e08g06-fill" stroke="none" fill="#0284c7"><g><text style="font: bold 20px &quot;Shantell Sans&quot;, cursive; white-space: pre;" font-weight="bold" font-size="20px" font-family="'Shantell Sans', cursive"><tspan x="13.84" y="35" dominant-baseline="ideographic">Armazenamento </tspan><tspan x="17.39" y="59" dominant-baseline="ideographic">do Comprovante</tspan></text></g></g></g><g id="g-root-tx_omotoboy_hs5tna1e08ef9-fill" data-item-order="0" transform="translate(98, 506)"><g id="tx_omotoboy_hs5tna1e08ef9-fill" stroke="none" fill="#0284c7"><g><text style="font: 15px &quot;Shantell Sans&quot;, cursive; white-space: pre;" font-size="15px" font-family="'Shantell Sans', cursive"><tspan x="31.39" y="32" dominant-baseline="ideographic">O motoboy assina o </tspan><tspan x="21.05" y="50" dominant-baseline="ideographic">pedido impresso para </tspan><tspan x="86.45" y="68" dominant-baseline="ideographic">confirmação</tspan></text></g></g></g><g id="g-root-tx_processo_1qaq6hi1e05koz-fill" data-item-order="0" transform="translate(74, 38)"><g id="tx_processo_1qaq6hi1e05koz-fill" stroke="none" fill="#0284c7"><g><text style="font: bold 25px &quot;Shantell Sans&quot;, cursive; white-space: pre;" font-weight="bold" font-size="25px" font-family="'Shantell Sans', cursive"><tspan x="17.48" y="45" dominant-baseline="ideographic">Processo de Gerenciamento de Pedidos do IFOOD</tspan></text></g></g></g><g id="g-root-cp_0_g-0_hu18wm1e05l3d-stroke" data-item-order="-411830" transform="translate(14, 241.512939453125)"><g id="cp_0_g-0_hu18wm1e05l3d-stroke" fill="none" stroke-linecap="round" stroke-linejoin="round" stroke-miterlimit="4" stroke="#0284c7" stroke-width="4"><g><path d="M 652 130.5C 669.8 130.6 687.7 131.9 705.5 130.5C 705.5 138.5 705.5 146.5 705.5 154.5C 716.6 141.5 728.7 129.3 741.7 118.3C 754.6 107.4 766.9 95.6 777.5 82.5C 766.3 69.6 752.7 59 741.4 46.2C 730.1 33.4 718 21.4 705.5 10C 707.1 18 703.8 26.5 705.5 34.5C 692 34.7 678.5 35.1 665.1 34.5C 661.7 51.5 659.3 68.7 658.1 86C 657 100.9 655.6 116 652 130.5M 545.1 34.5C 533.1 35.1 521.1 35 509.1 34.5C 504.1 66.4 501.3 98.6 496 130.5C 508 130.1 520 130.5 532 130.5C 535.2 113.4 538.2 96.2 539.1 78.8C 539.9 63.9 543 49.3 545.1 34.5M 389.1 34.5C 377.2 32.8 365.1 34.9 353.1 34.5C 347.8 66.3 342.7 98.3 340.1 130.5C 352 129.7 364 130.8 376 130.5C 380.2 98.5 384 66.4 389.1 34.5M 233.1 34.5C 221.3 33.7 209.4 33.3 197.6 34.5C 195.9 50.9 192.9 67.2 190.9 83.6C 189 99.2 187.3 114.9 184.5 130.5C 196.2 128.6 208.4 132.4 220.1 130.5C 224.4 98.5 229.6 66.6 233.1 34.5M 77.6 34.5C 55.1 33 32.5 35.2 10 34.5C 11.3 51.8 9.1 69.3 10 86.7C 10.7 101.3 12 116 10 130.5C 28.2 130 46.4 129.9 64.5 130.5C 70.3 98.7 74.7 66.7 77.6 34.5"></path><path d="M 652 130.5L 705.4684 130.5L 705.4684 154.5L 777.4749 82.5026L 705.4684 10L 705.4684 34.5L 665.0667 34.5L 652 130.5ZM 545.1135 34.5L 509.1033 34.5L 496.0366 130.5L 532.0469 130.5L 545.1135 34.5ZM 389.1033 34.5L 353.1337 34.5L 340.067 130.5L 376.0366 130.5L 389.1033 34.5ZM 233.1337 34.5L 197.5983 34.5L 184.5316 130.5L 220.067 130.5L 233.1337 34.5ZM 77.5983 34.5L 10 34.5L 10 130.5L 64.5316 130.5L 77.5983 34.5Z"></path></g></g></g><g id="g-root-cp_1_g-1_4ikqja1e05mob-stroke" data-item-order="-411826" transform="translate(38, 230)"><g id="cp_1_g-1_4ikqja1e05mob-stroke" fill="none" stroke-linecap="round" stroke-linejoin="round" stroke-miterlimit="4" stroke="#0284c7" stroke-width="4"><g><path d="M 58.5 10C 80.2 9.6 101.9 8.3 123.5 10C 141.8 11.4 160.2 9.2 178.5 10C 177.2 21.8 177 33.9 173.7 45.3C 169.9 58.1 169.8 71.8 168.3 85.1C 166.9 97.2 164.9 109.2 163.3 121.4C 161.9 132.9 160.8 144.4 158.6 155.8C 156.5 167.1 154.3 178.5 154 190C 114 190 74 191 34 190C 37 178.9 35.6 166.8 38.7 155.7C 42 143.7 42.4 131 43.7 118.6C 45 106.6 47.8 94.9 48.6 82.9C 49.3 71.7 53.1 60.8 53.1 49.5C 53.2 36.2 56.6 23.2 58.5 10"></path><path d="M 58.5 10L 178.5 10L 154 190L 34 190L 58.5 10Z"></path></g></g><g id="cp_1_g-1_4ikqja1e05mob-stroke" fill="none" stroke-linecap="round" stroke-linejoin="round" stroke-miterlimit="4" stroke="#0284c7" stroke-width="4"><g><path d="M 178.5 10C 177.3 22.1 176.4 34.2 173.6 46C 182.9 47.8 192.6 45.3 202 46C 193.9 34.2 186.7 21.8 178.5 10"></path><path d="M 178.500081 10L 173.595581 46L 202.000081 46L 178.500081 10Z"></path></g></g><g id="cp_1_g-1_4ikqja1e05mob-stroke" fill="none" stroke-linecap="round" stroke-linejoin="round" stroke-miterlimit="4" stroke="#0284c7" stroke-width="4"><g><path d="M 10 142C 18.4 157.8 27.5 173.3 34 190C 37.9 174.3 37.6 157.9 40.5 142C 30.3 142.3 20.2 141.7 10 142"></path><path d="M 10 142L 34 190L 40.5 142L 10 142Z"></path></g></g></g><g id="g-root-cp_2_g-2_1q8ur861e05kwf-stroke" data-item-order="-411818" transform="translate(193.53500366210938, 230)"><g id="cp_2_g-2_1q8ur861e05kwf-stroke" fill="none" stroke-linecap="round" stroke-linejoin="round" stroke-miterlimit="4" stroke="#0284c7" stroke-width="4"><g><path d="M 58.5 10C 78.2 11.5 98 10.3 117.7 10C 138 9.7 158.3 10.8 178.5 10C 177.1 26.2 172.4 42 171.9 58.3C 171.5 73.9 165.8 89.1 165.6 104.7C 165.4 118.5 160 131.9 160 145.7C 160.1 160.6 157.7 175.6 154 190C 135.8 190.3 117.6 190 99.3 190C 77.6 190 55.8 189.4 34 190C 37.3 170.9 40.5 151.8 41.8 132.5C 43.3 110.1 49.3 88.2 50.9 65.9C 52.3 47.1 56.3 28.7 58.5 10"></path><path d="M 58.5 10L 178.5 10L 154 190L 34 190L 58.5 10Z"></path></g></g><g id="cp_2_g-2_1q8ur861e05kwf-stroke" fill="none" stroke-linecap="round" stroke-linejoin="round" stroke-miterlimit="4" stroke="#0284c7" stroke-width="4"><g><path d="M 178.5 10C 175.6 21.8 175 34 173.6 46C 183 44.6 192.6 46.8 202 46C 192.6 35.2 187 21.5 178.5 10"></path><path d="M 178.500081 10L 173.595581 46L 202.000081 46L 178.500081 10Z"></path></g></g><g id="cp_2_g-2_1q8ur861e05kwf-stroke" fill="none" stroke-linecap="round" stroke-linejoin="round" stroke-miterlimit="4" stroke="#0284c7" stroke-width="4"><g><path d="M 10 142C 16.7 158.6 25.8 174.1 34 190C 34.4 173.9 39.1 158.1 40.5 142C 30.5 143.9 20.1 141.2 10 142"></path><path d="M 10 142L 34 190L 40.5 142L 10 142Z"></path></g></g></g><g id="g-root-cp_3_g-3_1hd7qza1e05mgz-stroke" data-item-order="-411810" transform="translate(349.5039978027344, 230)"><g id="cp_3_g-3_1hd7qza1e05mgz-stroke" fill="none" stroke-linecap="round" stroke-linejoin="round" stroke-miterlimit="4" stroke="#0284c7" stroke-width="4"><g><path d="M 58.5 10C 98.5 10.1 138.5 8.5 178.5 10C 172.7 38.5 170 67.5 166.7 96.4C 163.3 127.7 156.6 158.6 154 190C 135.4 191.2 116.8 190.5 98.1 190C 76.8 189.4 55.3 188.2 34 190C 34.6 174.6 37.8 159.5 40.2 144.3C 42.8 128 43.9 111.5 46.9 95.3C 49.4 81.8 49.1 67.7 52.5 54.4C 56.1 39.9 57.7 24.9 58.5 10"></path><path d="M 58.5 10L 178.5 10L 154 190L 34 190L 58.5 10Z"></path></g></g><g id="cp_3_g-3_1hd7qza1e05mgz-stroke" fill="none" stroke-linecap="round" stroke-linejoin="round" stroke-miterlimit="4" stroke="#0284c7" stroke-width="4"><g><path d="M 178.5 10C 176.7 22 176.8 34.3 173.6 46C 182.9 47.9 192.6 46.6 202 46C 194.6 33.7 187.6 21 178.5 10"></path><path d="M 178.500081 10L 173.595581 46L 202.000081 46L 178.500081 10Z"></path></g></g><g id="cp_3_g-3_1hd7qza1e05mgz-stroke" fill="none" stroke-linecap="round" stroke-linejoin="round" stroke-miterlimit="4" stroke="#0284c7" stroke-width="4"><g><path d="M 10 142C 17.9 158.1 27.4 173.4 34 190C 38 174.4 39 158.1 40.5 142C 30.4 141.5 20.1 140.8 10 142"></path><path d="M 10 142L 34 190L 40.5 142L 10 142Z"></path></g></g></g><g id="g-root-cp_4_g-4_142dpp21e05kw7-stroke" data-item-order="-411802" transform="translate(505.5159912109375, 230)"><g id="cp_4_g-4_142dpp21e05kw7-stroke" fill="none" stroke-linecap="round" stroke-linejoin="round" stroke-miterlimit="4" stroke="#0284c7" stroke-width="4"><g><path d="M 58.5 10C 80.3 10.9 102.3 8.1 124.1 10C 142.2 11.5 160.4 9.4 178.5 10C 173.7 41.3 168.6 72.6 165.7 104.1C 163.1 132.9 157 161.3 154 190C 140.3 191.4 126.5 190.1 112.8 190C 99.3 189.9 85.8 189.5 72.3 190C 59.5 190.4 46.7 191.2 34 190C 36.6 173.7 38.3 157.2 40.7 140.9C 42.9 126 44.5 111 46.8 96.1C 49.1 80.7 50.1 65 53.1 49.7C 55.6 36.6 58.2 23.3 58.5 10"></path><path d="M 58.5 10L 178.5 10L 154 190L 34 190L 58.5 10Z"></path></g></g><g id="cp_4_g-4_142dpp21e05kw7-stroke" fill="none" stroke-linecap="round" stroke-linejoin="round" stroke-miterlimit="4" stroke="#0284c7" stroke-width="4"><g><path d="M 178.5 10C 176 21.8 176.6 34.3 173.6 46C 183 44.6 192.6 45.5 202 46C 193.4 34.5 185.9 22.3 178.5 10"></path><path d="M 178.500081 10L 173.595581 46L 202.000081 46L 178.500081 10Z"></path></g></g><g id="cp_4_g-4_142dpp21e05kw7-stroke" fill="none" stroke-linecap="round" stroke-linejoin="round" stroke-miterlimit="4" stroke="#0284c7" stroke-width="4"><g><path d="M 10 142C 17.2 158.4 27.7 173.3 34 190C 34.8 173.9 37.7 157.9 40.5 142C 30.4 142.9 20.1 142.5 10 142"></path><path d="M 10 142L 34 190L 40.5 142L 10 142Z"></path></g></g></g><g id="g-root-cp_1_g-1_1_qqx7bq1e05mh7-stroke" data-item-order="-411779" transform="translate(146, 98)"><g id="cp_1_g-1_1_qqx7bq1e05mh7-stroke" fill="none" stroke-linecap="round" stroke-linejoin="round" stroke-miterlimit="4" stroke="#0284c7" stroke-width="2"><g><path d="M 10 10C 11.4 30.8 8.9 51.7 10 72.4C 11.2 95.6 9 118.8 10 142"></path><path d="M 10 10L 10 142"></path></g></g></g><g id="g-root-cp_3_g-3_1_mb3p7a1e05n9h-stroke" data-item-order="-411769" transform="translate(458, 98)"><g id="cp_3_g-3_1_mb3p7a1e05n9h-stroke" fill="none" stroke-linecap="round" stroke-linejoin="round" stroke-miterlimit="4" stroke="#0284c7" stroke-width="2"><g><path d="M 10 10C 10.2 29.9 8.1 50 10 69.8C 12.3 93.8 8.7 118 10 142"></path><path d="M 10 10L 10 142"></path></g></g></g><g id="g-root-cp_2_g-2_1_909nx21e05lon-stroke" data-item-order="-411759" transform="translate(278, 410)"><g id="cp_2_g-2_1_909nx21e05lon-stroke" fill="none" stroke-linecap="round" stroke-linejoin="round" stroke-miterlimit="4" stroke="#0284c7" stroke-width="2"><g><path d="M 10 10C 10 26.5 9.1 43 10 59.5C 10.9 75.5 10.8 91.6 10 107.7C 9 127.1 10.9 146.6 10 166"></path><path d="M 10 10L 10 166.000031"></path></g></g></g><g id="g-root-cp_4_g-4_1_4kg5sm1e05mgx-stroke" data-item-order="-411749" transform="translate(590, 410)"><g id="cp_4_g-4_1_4kg5sm1e05mgx-stroke" fill="none" stroke-linecap="round" stroke-linejoin="round" stroke-miterlimit="4" stroke="#0284c7" stroke-width="2"><g><path d="M 10 10C 10.5 28 10.8 46 10 64C 9.2 82.2 11.2 100.5 10 118.7C 9 134.4 10.5 150.2 10 166"></path><path d="M 10 10L 10 166.000031"></path></g></g></g><g id="g-root-tx_inseriro_1d3mzpy1e0728b-stroke" data-item-order="0" transform="translate(470, 158)"></g><g id="g-root-tx_imprimir_i09zrq1e070uh-stroke" data-item-order="0" transform="translate(158, 158)"></g><g id="g-root-tx_finaliza_9mgd21e0701u-stroke" data-item-order="0" transform="translate(470, 98)"></g><g id="g-root-ic_hand_143mnva1e05n2k-stroke" data-item-order="0" transform="translate(98, 279)"><g id="ic_hand_143mnva1e05n2k-stroke" fill="none" stroke-linecap="round" stroke-linejoin="round" stroke-miterlimit="4" stroke="#0284c7" stroke-width="2"><g><path d="M 80.5 80.5C 77.5 77.5 75.399994 73.600006 73 70.300003C 72.100006 65.800003 73.600006 61 73 56.5C 72.100006 51.099998 65.800003 43.900002 59.5 40M 65.5 62.5C 63.399998 59.199997 60.100002 57.099998 57.400002 54.099998C 56.199997 52.900002 54.099998 52.900002 52.900002 54.099998C 51.699997 55.599998 51.699997 57.699997 52.900002 58.600002C 55.300003 62.199997 58.600002 64.899994 61 68.5C 60.699997 70 60.699997 71.5 61 73C 61.600002 76 65.800003 80.5 65.800003 80.5M 50.5 71.5C 38.800003 68.5 26.5 71.5 14.5 71.5C 12.7 71.5 11.2 70 11.5 68.5C 15.4 50.800003 16 31.900002 11.5 14.5C 11.2 13 12.7 11.8 14.5 11.5C 28.299999 10 42.400002 12.1 56.5 11.5C 58.300003 11.5 59.800003 13 59.5 14.5C 57.099998 28.299999 56.199997 42.699997 59.5 56.199997M 50.5 65.5C 41.5 68.199997 31.599998 66.399994 22 65.5C 21.1 65.5 20.799999 64.899994 20.5 64C 18.4 58.300003 21.4 52 20.5 46C 20.5 45.099998 21.1 44.199997 22 44.5C 30.700001 46 40 44.199997 49 44.5C 49.900002 44.5 50.5 45.099998 50.5 46C 50.5 47.5 50.199997 49 50.5 50.5M 20.5 50.5C 30.400002 50.199997 40.900002 53.800003 50.5 50.5M 29.5 44.5C 30.400002 51.400002 28 58.600002 29.5 65.5M 38.5 44.5C 37 51.400002 39.400002 58.600002 38.5 65.5M 38.5 23.5C 42.400002 22.599998 46.599998 24.400002 50.5 23.5M 38.5 29.5C 40.900002 28.900002 43.599998 28.900002 46 29.5M 26.5 35.5C 26.799999 36.400002 26.5 37.599998 26.5 38.5M 26.5 20.5C 26.5 21.4 26.5 22.599998 26.5 23.5M 20.5 35.5C 23.5 35.800003 26.5 34.900002 29.5 35.5C 31 35.800003 32.200001 34.300003 32.5 32.5C 32.799999 31 31.299999 29.5 29.5 29.5C 27.400002 29.5 25.599998 29.200001 23.5 29.5C 22 29.799999 20.799999 28.299999 20.5 26.5C 20.200001 25 22 23.5 23.5 23.5C 26.5 23.5 29.799999 22.599998 32.5 23.5"></path><path d="M 80.5 80.5L 73 70.209999L 73 56.5C 73.149994 51.16 65.260002 44.920002 59.5 40M 65.559998 62.5L 57.489998 54.189999C 56.247356 52.947357 54.232639 52.947357 52.989998 54.189999C 51.747356 55.43264 51.747356 57.447357 52.989998 58.689999L 61 68.5L 61 73C 61 76 65.68 80.5 65.68 80.5M 50.5 71.5L 14.5 71.5C 12.843145 71.5 11.5 70.156853 11.5 68.5L 11.5 14.5C 11.5 12.843145 12.843145 11.5 14.5 11.5L 56.5 11.5C 58.156853 11.5 59.5 12.843145 59.5 14.5L 59.5 56.260002M 50.5 65.5L 22 65.5C 21.171574 65.5 20.5 64.82843 20.5 64L 20.5 46C 20.5 45.171574 21.171574 44.5 22 44.5L 49 44.5C 49.828426 44.5 50.5 45.171574 50.5 46L 50.5 50.5M 20.5 50.5L 50.5 50.5M 29.5 44.5L 29.5 65.5M 38.5 44.5L 38.5 65.5M 38.5 23.5L 50.5 23.5M 38.5 29.5L 46 29.5M 26.5 35.5L 26.5 38.5M 26.5 20.5L 26.5 23.5M 20.5 35.5L 29.5 35.5C 31.156855 35.5 32.5 34.156857 32.5 32.5C 32.5 30.843145 31.156855 29.5 29.5 29.5L 23.5 29.5C 21.843145 29.5 20.5 28.156855 20.5 26.5C 20.5 24.843145 21.843145 23.5 23.5 23.5L 32.5 23.5"></path></g></g></g><g id="g-root-ic_pass_zrk09i1e05l3h-stroke" data-item-order="0" transform="translate(253.75201416015625, 279)"><g id="ic_pass_zrk09i1e05l3h-stroke" fill="none" stroke-linecap="round" stroke-linejoin="round" stroke-miterlimit="4" stroke="#0284c7" stroke-width="2"><g><path d="M 50.5 79C 48.400002 72.699997 49.900002 65.199997 50.5 58.600002C 49 59.5 47.800003 61 46.300003 61.899998C 42.099998 64 37.300003 64.899994 33.700001 62.199997C 31.599998 60.399998 28.900002 58.899998 26.799999 57.099998C 25 55.599998 24.400002 52.900002 25.900002 50.800003C 27.099998 48.699997 30.700001 47.800003 32.200001 49.900002C 33.700001 52 37.300003 52.300003 39.099998 54.699997C 39.400002 55.300003 40.300003 55 40.900002 54.699997C 44.199997 52.300003 47.5 49.599998 50.800003 46.900002C 51.400002 46.300003 52.599998 45.699997 53.5 46C 54.400002 46.300003 55.599998 46.300003 56.5 46C 56.800003 48.099998 59.199997 49.300003 59.800003 51.400002C 59.800003 51.699997 60.399998 52.300003 61 52C 61.600002 52 62.199997 51.699997 62.199997 51.400002C 62.5 49.599998 64.600006 48.400002 65.199997 46.599998C 65.199997 46.300003 65.800003 46.300003 66.399994 46C 67 45.699997 67.899994 45.699997 68.5 46C 73.300003 47.199997 77.199997 50.199997 77.5 55C 77.800003 60.399998 76.600006 66.100006 77.5 71.5C 77.800003 73.899994 75.399994 75.699997 73 76C 70.600006 76.300003 69.100006 73.899994 68.5 71.5C 67.600006 66.699997 69.100006 61.600002 68.5 56.5M 68.5 79C 69.399994 76.600006 67.899994 73.899994 68.5 71.5M 55 28C 53.800003 31.599998 53.5 34.900002 55.900002 38.199997C 58.300003 41.199997 62.5 39.400002 66.100006 38.199997C 69.699997 36.699997 69.699997 30.700001 67 28C 63.100002 29.5 58.899998 28.900002 55 28M 67 28C 62.5 27.099998 57.699997 26.200001 53.5 28C 51.699997 25.900002 51.699997 22.299999 50.199997 20.200001C 49.900002 19.6 49.900002 19 50.5 18.700001C 50.800003 18.1 51.400002 18.1 51.699997 18.1C 57.400002 17.799999 62.5 22.299999 68.199997 21.700001C 68.5 21.4 69.100006 22 69.100006 22.299999C 69.399994 22.900002 69.100006 23.200001 69.100006 23.799999C 68.800003 25.299999 67.300003 26.5 67 28M 53.5 28C 51.400002 28.900002 49.300003 29.799999 47.5 31M 27.400002 40.599998C 22.900002 40.300003 18.700001 37.300003 14.5 35.5C 12.1 28.299999 11.8 19.9 14.5 13C 18.4 16 23.5 18.1 28.599998 18.700001C 29.200001 18.700001 29.200001 19.6 29.5 19.9C 31.900002 25.900002 28.599998 32.799999 29.5 39.400002C 29.5 39.699997 29.200001 40.300003 28.900002 40.599998C 28.299999 40.900002 28 40.900002 27.400002 40.599998M 14.5 13C 22 11.5 29.5 12.7 37 13C 37.900002 13 38.199997 13.6 38.5 14.5C 40.599998 21.1 38.800003 28.599998 38.5 35.5C 38.5 36.400002 37.900002 37.300003 37 37C 34.599998 36.400002 31.900002 36.099998 29.5 37"></path><path d="M 50.5 79L 50.5 58.533997L 46.300003 61.806999C 42.626427 64.634079 37.539413 64.73748 33.754002 62.062L 26.883999 57.16C 24.861462 55.715057 24.393003 52.904217 25.83761 50.881435C 27.282217 48.858654 30.092979 48.389729 32.115997 49.834L 38.977001 54.736C 39.518303 55.125435 40.251701 55.110767 40.777 54.699997L 50.745998 46.945C 51.53281 46.331474 52.502266 45.998817 53.500004 46.000004L 53.5 45.982002L 56.5 45.982002L 59.712997 51.34C 59.983559 51.793953 60.473034 52.072037 61.001499 52.072037C 61.529964 52.072037 62.01944 51.793953 62.290001 51.34L 65.065002 46.711002C 65.340462 46.265575 65.828293 45.996071 66.352005 46L 68.5 46C 73.470566 46 77.5 50.029438 77.5 55L 77.5 71.5C 77.5 73.985283 75.485283 76 73 76C 70.514725 76 68.5 73.985283 68.5 71.5L 68.5 56.5M 68.497002 79L 68.497002 71.5M 55.029999 28C 52.678387 31.088274 53.071781 35.46059 55.936897 38.079491C 58.802013 40.698395 63.19199 40.698395 66.057106 38.079491C 68.922218 35.46059 69.315613 31.088274 66.964005 28ZM 67 28L 53.5 28L 50.139999 20.164C 49.919083 19.648758 50.003922 19.053326 50.359947 18.620287C 50.715977 18.187246 51.283768 17.98888 51.832001 18.105999L 68.104004 21.592001C 68.557777 21.689415 68.940895 21.991396 69.141617 22.409859C 69.342346 22.828321 69.338051 23.316132 69.129997 23.731001ZM 53.496998 28L 47.496998 31M 27.439001 40.678001L 14.5 35.5L 14.5 13L 28.555 18.622C 29.123886 18.849987 29.496857 19.401131 29.497 20.014L 29.497 39.282997C 29.497881 39.78138 29.251171 40.24765 28.838634 40.527287C 28.426098 40.806919 27.901611 40.863396 27.439001 40.678001ZM 14.5 13L 37 13C 37.828426 13 38.5 13.671573 38.5 14.5L 38.5 35.5C 38.5 36.328426 37.828426 37 37 37L 29.5 37"></path></g></g></g><g id="g-root-ic_next_4ikqja1e070um-stroke" data-item-order="0" transform="translate(410, 279)"><g id="ic_next_4ikqja1e070um-stroke" fill="none" stroke-linecap="round" stroke-linejoin="round" stroke-miterlimit="4" stroke="#0284c7" stroke-width="2"><g><path d="M 33.099998 60.399998C 28.299999 59.199997 22.900002 58.300003 18.1 60.399998C 16.6 61 15.7 58.899998 15.1 57.400002C 12.1 48.099998 16.299999 37.900002 15.1 28.599998C 15.1 27.700001 15.4 26.799999 16 26.5C 20.5 24.400002 22.900002 19.6 26.5 16C 26.799999 15.7 27.700001 15.4 28.599998 15.4C 33.700001 14.2 38.800003 14.2 43.900002 15.4C 44.800003 15.4 45.699997 15.4 46 16C 48.400002 20.200001 53.5 22.299999 56.5 26.5C 56.800003 27.099998 57.099998 27.700001 57.099998 28.599998C 57.400002 30.099998 57.699997 31.599998 57.099998 33.400002M 36.099998 15.4C 36.699997 19.299999 34.900002 23.5 36.099998 27.400002M 63.399998 42.400002C 67.899994 45.400002 71.5 50.5 76.899994 52.900002C 71.800003 55.599998 66.699997 58.899998 63.399998 63.399998M 76.899994 52.900002C 73.300003 52.900002 69.699997 53.800003 66.399994 52.900002C 56.800003 49.900002 48.400002 60.699997 48.400002 70.899994C 48.099998 72.699997 48.699997 74.800003 48.400002 76.899994M 57.099998 27.400002C 43.300003 27.400002 29.200001 28.900002 15.4 27.400002"></path><path d="M 33.247002 60.25L 18.247 60.25C 16.590145 60.25 15.247 58.906853 15.247 57.25L 15.247 28.492001C 15.24717 27.696415 15.563352 26.933477 16.125999 26.370998L 26.368 16.129C 26.930477 15.566352 27.693417 15.25017 28.489 15.25L 44.005001 15.25C 44.800583 15.25017 45.563522 15.566352 46.125999 16.129L 56.368 26.370998C 56.930649 26.933477 57.24683 27.696415 57.246998 28.492001L 57.246998 33.25M 36.246998 15.25L 36.246998 27.25M 63.252998 42.25L 76.752998 52.75L 63.252998 63.25M 76.752998 52.75L 66.252998 52.75C 56.311874 52.75 48.253002 60.808876 48.253002 70.75L 48.253002 76.75M 56.977001 27.25L 15.517 27.25"></path></g></g></g><g id="g-root-ic_mana_mcz4gm1e06znr-stroke" data-item-order="0" transform="translate(566, 279)"><g id="ic_mana_mcz4gm1e06znr-stroke" fill="none" stroke-linecap="round" stroke-linejoin="round" stroke-miterlimit="4" stroke="#0284c7" stroke-width="2"><g><path d="M 10 10M 72.399994 77.800003C 69.100006 76.600006 66.699997 73.600006 63.399998 72.399994C 61.600002 71.800003 60.699997 69.399994 61.300003 67.300003C 61.600002 65.5 61.300003 63.699997 61.300003 61.899998C 59.800003 61 58.899998 59.800003 58 58.300003C 56.5 56.5 56.800003 54.699997 58 52.599998C 58 52.300003 58.300003 52.300003 58.600002 52.300003C 60.399998 51.699997 62.199997 51.400002 63.699997 52.599998C 65.199997 54.099998 67.300003 55.300003 68.5 57.400002M 63.399998 37C 67.899994 39.099998 72.399994 42.400002 74.800003 46.900002C 76.899994 48.400002 76.899994 52 77.199997 54.699997C 77.5 56.800003 77.800003 59.199997 77.199997 61.300003C 76.899994 63.399998 77.5 65.5 79.300003 66.399994C 79.600006 66.699997 79.899994 67.300003 80.199997 67.300003M 23.5 57.400002C 25.599998 56.199997 26.5 53.800003 28.299999 52.599998C 30.099998 51.699997 31.599998 51.400002 33.400002 52.300003C 33.700001 52.300003 34 52.599998 34 52.599998C 35.5 54.400002 36.099998 57.699997 34 58.300003C 32.5 58.899998 31.900002 60.699997 30.700001 61.899998C 31.299999 63.699997 31.299999 65.5 30.700001 67.300003C 31.599998 69.100006 30.400002 71.5 28.599998 72.399994C 25.900002 74.800003 22.599998 76 19.6 77.800003M 11.8 67.300003C 12.1 67 12.4 66.699997 12.7 66.399994C 14.2 65.199997 14.2 63.100002 14.8 61.300003C 15.4 59.199997 14.2 56.800003 14.8 54.699997C 15.7 52 15.7 49.300003 17.200001 46.599998C 21.700001 44.199997 24.700001 40.300003 28.599998 37M 63.699997 52.599998C 65.199997 42.699997 62.800003 32.5 63.699997 22.599998C 63.699997 21.4 62.5 19.9 61.300003 20.200001C 58.300003 21.1 55 21.1 52.300003 20.200001C 52.300003 16.9 49.300003 13.3 46 14.2C 42.699997 15.1 39.400002 16.9 40 20.200001C 37 20.5 33.700001 21.1 30.700001 20.200001C 29.5 19.9 28.599998 21.4 28.599998 22.599998C 27.700001 32.5 29.799999 42.699997 28.599998 52.599998M 30.700001 67C 40.900002 68.199997 51.699997 64.300003 61.300003 67M 34.599998 29.799999C 37.599998 30.700001 40.900002 30.099998 44.199997 29.799999M 55 29.799999C 55.900002 29.799999 56.800003 30.099998 57.699997 29.799999M 34.599998 37C 37.900002 37.300003 41.199997 37.599998 44.199997 37M 55 37C 55.900002 37 56.800003 36.699997 57.699997 37M 34.599998 45.400002C 37.599998 46.300003 40.900002 45.400002 44.199997 45.400002M 55 45.400002C 55.900002 45.400002 56.800003 45.400002 57.699997 45.400002"></path><path d="M 10 10M 72.399994 77.800003L 63.366997 72.454002C 61.749809 71.295074 60.934746 69.315636 61.267002 67.354004L 61.267002 61.779999L 57.880001 58.402C 56.301094 56.821815 56.301094 54.261185 57.880001 52.681C 58.068138 52.492527 58.274101 52.322735 58.494995 52.174L 58.495003 52.174C 60.099655 51.110283 62.231171 51.322182 63.595001 52.681L 68.352997 57.442001M 63.541 36.855999L 74.712997 46.756001C 76.377625 49.083893 77.272392 51.874172 77.272003 54.736L 77.272003 61.389999C 77.269287 63.300961 78.024483 65.13501 79.371994 66.489998L 80.245003 67.360001M 23.646999 57.442001L 28.405001 52.681C 29.768826 51.322182 31.900345 51.110283 33.505001 52.174L 33.505001 52.174C 33.725895 52.322735 33.931858 52.492527 34.119999 52.681C 35.698906 54.261185 35.698906 56.821815 34.119999 58.402L 30.744999 61.779999L 30.744999 67.342003C 31.077251 69.303635 30.26219 71.283073 28.645 72.442001L 19.6 77.800003M 11.746 67.342003L 12.619 66.472C 13.966513 65.117012 14.72171 63.282959 14.719 61.371994L 14.719 54.721001C 14.718602 51.859173 15.613379 49.068897 17.278 46.740997L 28.459 36.855999M 63.610001 52.681L 63.610001 22.599998C 63.608345 21.336506 62.584492 20.312653 61.320995 20.310999L 52.167999 20.311001C 52.167999 16.940958 49.436039 14.209 46.065998 14.209C 42.695957 14.209 39.964001 16.940958 39.964001 20.310999L 30.814001 20.311001C 29.54982 20.311001 28.525002 21.335821 28.525002 22.6L 28.525002 52.681M 30.814001 67.111L 61.320999 67.111M 34.530998 29.868999L 44.250999 29.868999M 54.961002 29.868999L 57.763 29.868999M 34.530998 36.870998L 44.250999 36.870998M 54.961002 36.870998L 57.763 36.870998M 34.530998 45.522999L 44.250999 45.522999M 54.961002 45.522999L 57.763 45.522999"></path></g></g></g><g id="g-root-tx_impresso_146r1au1e071mo-stroke" data-item-order="0" transform="translate(158, 98)"></g><g id="g-root-tx_guardaro_1q6zbyu1e08e87-stroke" data-item-order="0" transform="translate(398, 506)"></g><g id="g-root-tx_assinatu_zitd1y1e08f7w-stroke" data-item-order="0" transform="translate(110, 446)"></g><g id="g-root-tx_armazena_4gpb9y1e08g06-stroke" data-item-order="0" transform="translate(398, 446)"></g><g id="g-root-tx_omotoboy_hs5tna1e08ef9-stroke" data-item-order="0" transform="translate(98, 506)"></g><g id="g-root-tx_processo_1qaq6hi1e05koz-stroke" data-item-order="0" transform="translate(74, 38)"></g></g></g></svg>