<?xml version="1.0" encoding="utf-8" standalone="yes"?>
<!DOCTYPE svg PUBLIC "-//W3C//DTD SVG 1.1//EN" "http://www.w3.org/Graphics/SVG/1.1/DTD/svg11.dtd">
<svg width="1092" height="864" viewBox="0 0 1092 864" style="fill:none;stroke:none;fill-rule:evenodd;clip-rule:evenodd;stroke-linecap:round;stroke-linejoin:round;stroke-miterlimit:1.5;" version="1.1" xmlns="http://www.w3.org/2000/svg" xmlns:xlink="http://www.w3.org/1999/xlink"><style class="text-font-style fontImports" data-font-family="Shantell Sans">@import url('https://fonts.googleapis.com/css2?family=Shantell+Sans:wght@300..800&amp;display=block');</style><g id="items" style="isolation: isolate"><g id="blend" style="mix-blend-mode: normal"><g id="g-root-cp_5_g-5_1lpwvon1eu4etq-fill" data-item-order="-801780" transform="translate(776, 120)"><g id="cp_5_g-5_1lpwvon1eu4etq-fill" stroke="none" fill="#ffffff"><g><path d="M 60.5906 93.1207C 79.6664 89.1559 94 72.2519 94 52C 94 28.804 75.196 10 52 10C 28.804 10 10 28.804 10 52C 10 72.2519 24.3336 89.1559 43.4094 93.1207L 52 108L 60.5906 93.1207ZM 80 52C 80 67.464 67.464 80 52 80C 36.536 80 24 67.464 24 52C 24 36.536 36.536 24 52 24C 67.464 24 80 36.536 80 52Z"></path></g></g><g id="cp_5_g-5_1lpwvon1eu4etq-fill" stroke="none" fill="#ffffff"><g><path d="M 16.000977 120L 244.000977 120L 268.000977 180L 244.000977 240L 16.000977 240L 16.000977 180L 16.000977 120Z"></path></g></g></g><g id="g-root-cp_4_g-4_13z9c9z1eu4e15-fill" data-item-order="-801762" transform="translate(596, 252)"><g id="cp_4_g-4_13z9c9z1eu4e15-fill" stroke="none" fill="#ffffff"><g><path d="M 60.5906 93.1207C 79.6664 89.1559 94 72.2519 94 52C 94 28.804 75.196 10 52 10C 28.804 10 10 28.804 10 52C 10 72.2519 24.3336 89.1559 43.4094 93.1207L 52 108L 60.5906 93.1207ZM 80 52C 80 67.464 67.464 80 52 80C 36.536 80 24 67.464 24 52C 24 36.536 36.536 24 52 24C 67.464 24 80 36.536 80 52Z"></path></g></g><g id="cp_4_g-4_13z9c9z1eu4e15-fill" stroke="none" fill="#ffffff"><g><path d="M 16.000977 120L 244.000977 120L 244.000977 176L 244.000977 216L 16.000977 216L 16.000977 168L 16.000977 120Z"></path></g></g><g id="cp_4_g-4_13z9c9z1eu4e15-fill" stroke="none" fill="#ffffff"><g><path d="M 196 108L 208 120L 244 120L 232 108L 196 108Z"></path></g></g></g><g id="g-root-cp_3_g-3_dcysmf1eu4e19-fill" data-item-order="-801742" transform="translate(416, 360)"><g id="cp_3_g-3_dcysmf1eu4e19-fill" stroke="none" fill="#ffffff"><g><path d="M 60.5906 93.1207C 79.6664 89.1559 94 72.2519 94 52C 94 28.804 75.196 10 52 10C 28.804 10 10 28.804 10 52C 10 72.2519 24.3336 89.1559 43.4094 93.1207L 52 108L 60.5906 93.1207ZM 80 52C 80 67.464 67.464 80 52 80C 36.536 80 24 67.464 24 52C 24 36.536 36.536 24 52 24C 67.464 24 80 36.536 80 52Z"></path></g></g><g id="cp_3_g-3_dcysmf1eu4e19-fill" stroke="none" fill="#ffffff"><g><path d="M 16.000977 120L 244.000977 120L 244.000977 176L 244.000977 216L 16.000977 216L 16.000977 168L 16.000977 120Z"></path></g></g><g id="cp_3_g-3_dcysmf1eu4e19-fill" stroke="none" fill="#ffffff"><g><path d="M 196 108L 208 120L 244 120L 232 108L 196 108Z"></path></g></g></g><g id="g-root-cp_2_g-2_1unfb6v1eu4d1l-fill" data-item-order="-801722" transform="translate(236, 468)"><g id="cp_2_g-2_1unfb6v1eu4d1l-fill" stroke="none" fill="#ffffff"><g><path d="M 60.5906 93.1207C 79.6664 89.1559 94 72.2519 94 52C 94 28.804 75.196 10 52 10C 28.804 10 10 28.804 10 52C 10 72.2519 24.3336 89.1559 43.4094 93.1207L 52 108L 60.5906 93.1207ZM 80 52C 80 67.464 67.464 80 52 80C 36.536 80 24 67.464 24 52C 24 36.536 36.536 24 52 24C 67.464 24 80 36.536 80 52Z"></path></g></g><g id="cp_2_g-2_1unfb6v1eu4d1l-fill" stroke="none" fill="#ffffff"><g><path d="M 16.000977 120L 244.000977 120L 244.000977 176L 244.000977 216L 16.000977 216L 16.000977 168L 16.000977 120Z"></path></g></g><g id="cp_2_g-2_1unfb6v1eu4d1l-fill" stroke="none" fill="#ffffff"><g><path d="M 196 108L 208 120L 244 120L 232 108L 196 108Z"></path></g></g></g><g id="g-root-cp_1_g-1_1cw5ap31eu4fet-fill" data-item-order="-801702" transform="translate(38.0009765625, 576)"><g id="cp_1_g-1_1cw5ap31eu4fet-fill" stroke="none" fill="#ffffff"><g><path d="M 78.589623 93.1207C 97.665423 89.1559 111.999023 72.2519 111.999023 52C 111.999023 28.804 93.195023 10 69.999023 10C 46.803023 10 27.999023 28.804 27.999023 52C 27.999023 72.2519 42.332623 89.1559 61.408423 93.1207L 69.999023 108L 78.589623 93.1207ZM 97.999023 52C 97.999023 67.464 85.463023 80 69.999023 80C 54.535023 80 41.999023 67.464 41.999023 52C 41.999023 36.536 54.535023 24 69.999023 24C 85.463023 24 97.999023 36.536 97.999023 52Z"></path></g></g><g id="cp_1_g-1_1cw5ap31eu4fet-fill" stroke="none" fill="#ffffff"><g><path d="M 10 120L 262 120L 262 176L 262 216L 10 216L 34 168L 10 120Z"></path></g></g><g id="cp_1_g-1_1cw5ap31eu4fet-fill" stroke="none" fill="#ffffff"><g><path d="M 213.999023 108L 225.999023 120L 261.999023 120L 249.999023 108L 213.999023 108Z"></path></g></g></g><g id="g-root-tx_alcanand_zlb9ev1eu4du1-fill" data-item-order="0" transform="translate(224, 38)"><g id="tx_alcanand_zlb9ev1eu4du1-fill" stroke="none" fill="#0284c7"><g><text style="font: bold 25px &quot;Shantell Sans&quot;, cursive; white-space: pre;" font-weight="bold" font-size="25px" font-family="'Shantell Sans', cursive"><tspan x="11.79" y="45" dominant-baseline="ideographic">Alcançando uma Farmácia Organizada e Limpa</tspan></text></g></g></g><g id="g-root-ic_24_1q9h8br1eu4cua-fill" data-item-order="0" transform="translate(800.0009765625, 144)"></g><g id="g-root-tx_manuteno_zqb23r1eu4d8s-fill" data-item-order="0" transform="translate(854, 254)"><g id="tx_manuteno_zqb23r1eu4d8s-fill" stroke="none" fill="#0284c7"><g><text style="font: bold 20px &quot;Shantell Sans&quot;, cursive; white-space: pre;" font-weight="bold" font-size="20px" font-family="'Shantell Sans', cursive"><tspan x="12" y="35" dominant-baseline="ideographic">Manutenção </tspan><tspan x="12" y="59" dominant-baseline="ideographic">da Área de </tspan><tspan x="12" y="83" dominant-baseline="ideographic">Atendimento</tspan></text></g></g></g><g id="g-root-ic_recy_4o70br1eu4e11-fill" data-item-order="0" transform="translate(620.0009765625, 276)"></g><g id="g-root-tx_5_1lws3mv1eu4e0z-fill" data-item-order="0" transform="translate(806.0009765625, 272)"><g id="tx_5_1lws3mv1eu4e0z-fill" stroke="none" fill="#0284c7"><g><text style="font: bold 30px &quot;Shantell Sans&quot;, cursive; white-space: pre;" font-weight="bold" font-size="30px" font-family="'Shantell Sans', cursive"><tspan x="12.63" y="48" dominant-baseline="ideographic">5</tspan></text></g></g></g><g id="g-root-ic_bari_hu18x31eu5tl4-fill" data-item-order="0" transform="translate(440.0010070800781, 384)"></g><g id="g-root-tx_4_1lrsaxz1eu5s06-fill" data-item-order="0" transform="translate(620.0009765625, 392)"><g id="tx_4_1lrsaxz1eu5s06-fill" stroke="none" fill="#0284c7"><g><text style="font: bold 30px &quot;Shantell Sans&quot;, cursive; white-space: pre;" font-weight="bold" font-size="30px" font-family="'Shantell Sans', cursive"><tspan x="17.5" y="48" dominant-baseline="ideographic">4</tspan></text></g></g></g><g id="g-root-tx_descarte_zkosbr1eu5udr-fill" data-item-order="0" transform="translate(674, 386)"><g id="tx_descarte_zkosbr1eu5udr-fill" stroke="none" fill="#0284c7"><g><text style="font: bold 20px &quot;Shantell Sans&quot;, cursive; white-space: pre;" font-weight="bold" font-size="20px" font-family="'Shantell Sans', cursive"><tspan x="12" y="35" dominant-baseline="ideographic">Descarte </tspan><tspan x="12" y="59" dominant-baseline="ideographic">Adequado</tspan></text></g></g></g><g id="g-root-ic_shel_1lws3mv1eu5rez-fill" data-item-order="0" transform="translate(260.0010070800781, 492)"></g><g id="g-root-tx_3_qssmlj1eu5t6x-fill" data-item-order="0" transform="translate(440.0010070800781, 500)"><g id="tx_3_qssmlj1eu5t6x-fill" stroke="none" fill="#0284c7"><g><text style="font: bold 30px &quot;Shantell Sans&quot;, cursive; white-space: pre;" font-weight="bold" font-size="30px" font-family="'Shantell Sans', cursive"><tspan x="17.5" y="48" dominant-baseline="ideographic">3</tspan></text></g></g></g><g id="g-root-tx_verifica_92536v1eu5sea-fill" data-item-order="0" transform="translate(494, 494)"><g id="tx_verifica_92536v1eu5sea-fill" stroke="none" fill="#0284c7"><g><text style="font: bold 20px &quot;Shantell Sans&quot;, cursive; white-space: pre;" font-weight="bold" font-size="20px" font-family="'Shantell Sans', cursive"><tspan x="12" y="35" dominant-baseline="ideographic">Verificação e </tspan><tspan x="12" y="59" dominant-baseline="ideographic">Reposição</tspan></text></g></g></g><g id="g-root-ic_bell_1qa3pev1eu78xy-fill" data-item-order="0" transform="translate(80.00100708007812, 600)"></g><g id="g-root-tx_2_4ikqjr1eu78jw-fill" data-item-order="0" transform="translate(260.0010070800781, 608)"><g id="tx_2_4ikqjr1eu78jw-fill" stroke="none" fill="#0284c7"><g><text style="font: bold 30px &quot;Shantell Sans&quot;, cursive; white-space: pre;" font-weight="bold" font-size="30px" font-family="'Shantell Sans', cursive"><tspan x="17.5" y="48" dominant-baseline="ideographic">2</tspan></text></g></g></g><g id="g-root-tx_organiza_18i77tz1eu75z9-fill" data-item-order="0" transform="translate(314, 602)"><g id="tx_organiza_18i77tz1eu75z9-fill" stroke="none" fill="#0284c7"><g><text style="font: bold 20px &quot;Shantell Sans&quot;, cursive; white-space: pre;" font-weight="bold" font-size="20px" font-family="'Shantell Sans', cursive"><tspan x="12" y="35" dominant-baseline="ideographic">Organização </tspan><tspan x="12" y="59" dominant-baseline="ideographic">de Produtos</tspan></text></g></g></g><g id="g-root-tx_1_vbqi5j1eu76yv-fill" data-item-order="0" transform="translate(86.0009994506836, 716)"><g id="tx_1_vbqi5j1eu76yv-fill" stroke="none" fill="#0284c7"><g><text style="font: bold 30px &quot;Shantell Sans&quot;, cursive; white-space: pre;" font-weight="bold" font-size="30px" font-family="'Shantell Sans', cursive"><tspan x="15.17" y="48" dominant-baseline="ideographic">1</tspan></text></g></g></g><g id="g-root-tx_limpezad_dl2yqv1eu7668-fill" data-item-order="0" transform="translate(134, 710)"><g id="tx_limpezad_dl2yqv1eu7668-fill" stroke="none" fill="#0284c7"><g><text style="font: bold 20px &quot;Shantell Sans&quot;, cursive; white-space: pre;" font-weight="bold" font-size="20px" font-family="'Shantell Sans', cursive"><tspan x="12" y="35" dominant-baseline="ideographic">Limpeza </tspan><tspan x="12" y="59" dominant-baseline="ideographic">Diária</tspan></text></g></g></g><g id="g-root-cp_5_g-5_1lpwvon1eu4etq-stroke" data-item-order="-801780" transform="translate(776, 120)"><g id="cp_5_g-5_1lpwvon1eu4etq-stroke" fill="none" stroke-linecap="round" stroke-linejoin="round" stroke-miterlimit="4" stroke="#0284c7" stroke-width="4"><g><path d="M 60.6 93.1C 70.4 91.8 78.7 85.7 84.8 78.3C 90.6 71.1 96 61.7 94 52C 89.4 29.3 75.2 11.2 52 10C 28.8 8.8 10.3 28.8 10 52C 9.7 72.3 24.1 90.7 43.4 93.1C 46.3 98 48.8 103.3 52 108C 53.8 102.5 58.2 98.3 60.6 93.1M 80 52C 78.6 67.4 67.4 80.8 52 80C 36.6 79.2 24.4 67.5 24 52C 23.6 36.5 36.5 23.2 52 24C 67.4 24.7 81.6 36.6 80 52"></path><path d="M 60.5906 93.1207C 79.6664 89.1559 94 72.2519 94 52C 94 28.804 75.196 10 52 10C 28.804 10 10 28.804 10 52C 10 72.2519 24.3336 89.1559 43.4094 93.1207L 52 108L 60.5906 93.1207ZM 80 52C 80 67.464 67.464 80 52 80C 36.536 80 24 67.464 24 52C 24 36.536 36.536 24 52 24C 67.464 24 80 36.536 80 52Z"></path></g></g><g id="cp_5_g-5_1lpwvon1eu4etq-stroke" fill="none" stroke-linecap="round" stroke-linejoin="round" stroke-miterlimit="4" stroke="#0284c7" stroke-width="4"><g><path d="M 16 120C 28.9 120.7 41.8 119.9 54.7 120C 66.9 120.1 79.3 122 91.4 120C 104.4 117.9 117.8 118.8 130.9 120C 144.1 121.2 157.5 119.7 170.9 120C 181.8 120.2 192.9 121.6 203.8 120C 217.1 118.1 230.6 120.4 244 120C 252.5 139.8 259.8 160.1 268 180C 259.2 199.7 250.5 219.5 244 240C 224.7 240.4 205.4 241.4 186.2 240C 165.6 238.4 144.9 241 124.3 240C 107.7 239.2 91 241.6 74.4 240C 55 238.1 35.4 241.2 16 240C 15.8 220 17.2 200 16 180C 14.8 160 15.4 140 16 120"></path><path d="M 16.000977 120L 244.000977 120L 268.000977 180L 244.000977 240L 16.000977 240L 16.000977 180L 16.000977 120Z"></path></g></g></g><g id="g-root-cp_4_g-4_13z9c9z1eu4e15-stroke" data-item-order="-801762" transform="translate(596, 252)"><g id="cp_4_g-4_13z9c9z1eu4e15-stroke" fill="none" stroke-linecap="round" stroke-linejoin="round" stroke-miterlimit="4" stroke="#0284c7" stroke-width="4"><g><path d="M 60.6 93.1C 80 91 95.4 72.2 94 52C 93.2 40.7 89.8 30.1 82.2 22.8C 74.3 15.2 63.8 11.1 52 10C 28.9 7.9 9.3 28.8 10 52C 10.6 72.2 24.4 88.7 43.4 93.1C 45.3 98.5 49.7 102.8 52 108C 55.5 103.5 58.9 98.6 60.6 93.1M 80 52C 78.9 67.4 67.4 79 52 80C 36.6 81 23.1 67.4 24 52C 24.9 36.6 36.5 24.3 52 24C 67.5 23.7 81.2 36.6 80 52"></path><path d="M 60.5906 93.1207C 79.6664 89.1559 94 72.2519 94 52C 94 28.804 75.196 10 52 10C 28.804 10 10 28.804 10 52C 10 72.2519 24.3336 89.1559 43.4094 93.1207L 52 108L 60.5906 93.1207ZM 80 52C 80 67.464 67.464 80 52 80C 36.536 80 24 67.464 24 52C 24 36.536 36.536 24 52 24C 67.464 24 80 36.536 80 52Z"></path></g></g><g id="cp_4_g-4_13z9c9z1eu4e15-stroke" fill="none" stroke-linecap="round" stroke-linejoin="round" stroke-miterlimit="4" stroke="#0284c7" stroke-width="4"><g><path d="M 16 120C 30 121.9 44.3 121.4 58.4 120C 73.4 118.5 88.6 120.4 103.7 120C 120.8 119.6 137.9 118.4 154.8 120C 170.1 121.4 185.6 120.5 200.9 120C 215.3 119.6 229.6 119.7 244 120C 242.9 138.6 244.8 157.4 244 176C 243.4 189.3 242.3 202.8 244 216C 220.8 217 197.6 216.8 174.4 216C 149.4 215.1 124.3 217.1 99.2 216C 71.5 214.8 43.7 216.9 16 216C 17.2 200 16.3 184 16 168C 15.7 152 16.2 136 16 120"></path><path d="M 16.000977 120L 244.000977 120L 244.000977 176L 244.000977 216L 16.000977 216L 16.000977 168L 16.000977 120Z"></path></g></g><g id="cp_4_g-4_13z9c9z1eu4e15-stroke" fill="none" stroke-linecap="round" stroke-linejoin="round" stroke-miterlimit="4" stroke="#0284c7" stroke-width="4"><g><path d="M 196 108C 199.3 112.6 203.6 116.5 208 120C 219.9 121.1 232 120.4 244 120C 240.1 115.9 236.1 111.9 232 108C 220.1 106.9 208 108.8 196 108"></path><path d="M 196 108L 208 120L 244 120L 232 108L 196 108Z"></path></g></g></g><g id="g-root-cp_3_g-3_dcysmf1eu4e19-stroke" data-item-order="-801742" transform="translate(416, 360)"><g id="cp_3_g-3_dcysmf1eu4e19-stroke" fill="none" stroke-linecap="round" stroke-linejoin="round" stroke-miterlimit="4" stroke="#0284c7" stroke-width="4"><g><path d="M 60.6 93.1C 79.2 87.4 94.4 72.2 94 52C 93.5 28.8 75.2 8.9 52 10C 28.8 11.1 9.6 28.8 10 52C 10.2 62.9 15.2 71.9 20.9 80.2C 25.8 87.4 34.4 92.3 43.4 93.1C 47 97.6 49.1 103 52 108C 55.8 103.8 58.7 98.5 60.6 93.1M 80 52C 80.1 67.5 67.4 81.1 52 80C 36.6 78.9 22.5 67.4 24 52C 25.5 36.6 36.5 24.6 52 24C 67.5 23.4 81.2 36.6 80 52"></path><path d="M 60.5906 93.1207C 79.6664 89.1559 94 72.2519 94 52C 94 28.804 75.196 10 52 10C 28.804 10 10 28.804 10 52C 10 72.2519 24.3336 89.1559 43.4094 93.1207L 52 108L 60.5906 93.1207ZM 80 52C 80 67.464 67.464 80 52 80C 36.536 80 24 67.464 24 52C 24 36.536 36.536 24 52 24C 67.464 24 80 36.536 80 52Z"></path></g></g><g id="cp_3_g-3_dcysmf1eu4e19-stroke" fill="none" stroke-linecap="round" stroke-linejoin="round" stroke-miterlimit="4" stroke="#0284c7" stroke-width="4"><g><path d="M 16 120C 40.7 118.2 65.6 120.4 90.3 120C 116.3 119.5 142.3 121.1 168.2 120C 193.5 118.9 218.8 120.4 244 120C 245.1 138.6 245.4 157.4 244 176C 243 189.3 244 202.7 244 216C 229.1 217.5 214 214.3 199.1 216C 184.3 217.7 169.1 217.8 154.3 216C 137.9 214.1 121.3 217.1 104.8 216C 89.1 214.9 73.2 215.9 57.4 216C 43.6 216.1 29.7 217.5 16 216C 17.2 200 16.6 184 16 168C 15.5 152 17.3 135.9 16 120"></path><path d="M 16.000977 120L 244.000977 120L 244.000977 176L 244.000977 216L 16.000977 216L 16.000977 168L 16.000977 120Z"></path></g></g><g id="cp_3_g-3_dcysmf1eu4e19-stroke" fill="none" stroke-linecap="round" stroke-linejoin="round" stroke-miterlimit="4" stroke="#0284c7" stroke-width="4"><g><path d="M 196 108C 200.8 111 203.7 116.3 208 120C 220 119.6 232.1 121.1 244 120C 239.5 116.5 234.9 112.8 232 108C 220.1 109.7 208 108 196 108"></path><path d="M 196 108L 208 120L 244 120L 232 108L 196 108Z"></path></g></g></g><g id="g-root-cp_2_g-2_1unfb6v1eu4d1l-stroke" data-item-order="-801722" transform="translate(236, 468)"><g id="cp_2_g-2_1unfb6v1eu4d1l-stroke" fill="none" stroke-linecap="round" stroke-linejoin="round" stroke-miterlimit="4" stroke="#0284c7" stroke-width="4"><g><path d="M 60.6 93.1C 79.6 88.6 93.4 72.2 94 52C 94.7 28.8 75.1 11.4 52 10C 28.8 8.6 11.1 28.8 10 52C 9 72.2 24.8 87.4 43.4 93.1C 46.3 98.1 48.8 103.2 52 108C 54.6 102.9 57.3 97.8 60.6 93.1M 80 52C 80.9 67.4 67.5 80.3 52 80C 36.5 79.7 24.5 67.5 24 52C 23.5 36.5 36.6 25 52 24C 67.4 23 79.2 36.6 80 52"></path><path d="M 60.5906 93.1207C 79.6664 89.1559 94 72.2519 94 52C 94 28.804 75.196 10 52 10C 28.804 10 10 28.804 10 52C 10 72.2519 24.3336 89.1559 43.4094 93.1207L 52 108L 60.5906 93.1207ZM 80 52C 80 67.464 67.464 80 52 80C 36.536 80 24 67.464 24 52C 24 36.536 36.536 24 52 24C 67.464 24 80 36.536 80 52Z"></path></g></g><g id="cp_2_g-2_1unfb6v1eu4d1l-stroke" fill="none" stroke-linecap="round" stroke-linejoin="round" stroke-miterlimit="4" stroke="#0284c7" stroke-width="4"><g><path d="M 16 120C 35.5 119.5 55.1 119.4 74.7 120C 93.8 120.6 113.1 118.6 132.2 120C 150.3 121.3 168.5 118.9 186.6 120C 205.7 121.2 224.9 118.2 244 120C 244 138.7 243.6 157.3 244 176C 244.3 189.3 245.1 202.7 244 216C 217.2 215.7 190.4 215.6 163.7 216C 136.7 216.4 109.7 215.1 82.7 216C 60.5 216.7 38.2 215.5 16 216C 15.2 200 17 184 16 168C 15 152 16.9 136 16 120"></path><path d="M 16.000977 120L 244.000977 120L 244.000977 176L 244.000977 216L 16.000977 216L 16.000977 168L 16.000977 120Z"></path></g></g><g id="cp_2_g-2_1unfb6v1eu4d1l-stroke" fill="none" stroke-linecap="round" stroke-linejoin="round" stroke-miterlimit="4" stroke="#0284c7" stroke-width="4"><g><path d="M 196 108C 200.4 111.6 204.4 115.6 208 120C 219.9 121.1 232.1 118.6 244 120C 239.8 116.3 234.6 113 232 108C 220.1 106.9 208 108 196 108"></path><path d="M 196 108L 208 120L 244 120L 232 108L 196 108Z"></path></g></g></g><g id="g-root-cp_1_g-1_1cw5ap31eu4fet-stroke" data-item-order="-801702" transform="translate(38.0009765625, 576)"><g id="cp_1_g-1_1cw5ap31eu4fet-stroke" fill="none" stroke-linecap="round" stroke-linejoin="round" stroke-miterlimit="4" stroke="#0284c7" stroke-width="4"><g><path d="M 78.599023 93.1C 97.899023 90.9 112.499023 72.2 111.999023 52C 111.499023 28.8 93.099023 8.2 69.999023 10C 46.899023 11.8 26.799023 28.8 27.999023 52C 29.099023 72.2 42.599023 88 61.399023 93.1C 64.899023 97.6 66.999023 103.1 69.999023 108C 72.499023 102.9 76.599023 98.5 78.599023 93.1M 97.999023 52C 99.199023 67.4 85.499023 80.4 69.999023 80C 54.499023 79.6 41.199023 67.4 41.999023 52C 42.799023 36.6 54.499023 24 69.999023 24C 85.499023 24 97.799023 36.5 97.999023 52"></path><path d="M 78.589623 93.1207C 97.665423 89.1559 111.999023 72.2519 111.999023 52C 111.999023 28.804 93.195023 10 69.999023 10C 46.803023 10 27.999023 28.804 27.999023 52C 27.999023 72.2519 42.332623 89.1559 61.408423 93.1207L 69.999023 108L 78.589623 93.1207ZM 97.999023 52C 97.999023 67.464 85.463023 80 69.999023 80C 54.535023 80 41.999023 67.464 41.999023 52C 41.999023 36.536 54.535023 24 69.999023 24C 85.463023 24 97.999023 36.536 97.999023 52Z"></path></g></g><g id="cp_1_g-1_1cw5ap31eu4fet-stroke" fill="none" stroke-linecap="round" stroke-linejoin="round" stroke-miterlimit="4" stroke="#0284c7" stroke-width="4"><g><path d="M 9.999023 120C 23.499023 121.8 37.299023 120.4 50.999023 120C 66.199023 119.5 81.599023 121.8 96.699023 120C 111.599023 118.2 126.799023 121.2 141.699023 120C 154.499023 119 167.399023 119.1 180.199023 120C 192.599023 120.9 204.999023 120.2 217.399023 120C 232.299023 119.8 247.099023 120.8 261.999023 120C 262.399023 138.7 260.999023 157.4 261.999023 176C 262.699023 189.3 262.399023 202.7 261.999023 216C 247.199023 215.2 232.299023 214.8 217.499023 216C 202.799023 217.2 187.999023 216 173.199023 216C 159.699023 216 146.199023 215.8 132.799023 216C 119.299023 216.2 105.899023 217 92.499023 216C 79.299023 215.1 65.999023 214.6 52.899023 216C 38.699023 217.5 24.299023 216.3 9.999023 216C 17.799023 199.9 24.899023 183.4 33.999023 168C 24.699023 152.7 18.099023 135.9 9.999023 120"></path><path d="M 10 120L 262 120L 262 176L 262 216L 10 216L 34 168L 10 120Z"></path></g></g><g id="cp_1_g-1_1cw5ap31eu4fet-stroke" fill="none" stroke-linecap="round" stroke-linejoin="round" stroke-miterlimit="4" stroke="#0284c7" stroke-width="4"><g><path d="M 213.999023 108C 216.599023 113 221.899023 116.1 225.999023 120C 237.899023 118.8 250.099023 121.4 261.999023 120C 257.899023 116.1 253.699023 112.3 249.999023 108C 237.999023 109 225.999023 107.2 213.999023 108"></path><path d="M 213.999023 108L 225.999023 120L 261.999023 120L 249.999023 108L 213.999023 108Z"></path></g></g></g><g id="g-root-tx_alcanand_zlb9ev1eu4du1-stroke" data-item-order="0" transform="translate(224, 38)"></g><g id="g-root-ic_24_1q9h8br1eu4cua-stroke" data-item-order="0" transform="translate(800.0009765625, 144)"><g id="ic_24_1q9h8br1eu4cua-stroke" fill="none" stroke-linecap="round" stroke-linejoin="round" stroke-miterlimit="4" stroke="#0284c7" stroke-width="2"><g><path d="M 10.75 45.25C 11.5 40.75 11.5 36.25 10.75 31.75C 10.6 31 11.35 30.099998 12.25 30.25C 22.75 31.450001 33.400002 28.150002 43.75 30.25C 44.5 30.400002 45.25 30.849998 45.25 31.75C 45.550003 36.25 44.5 40.75 45.25 45.25M 18.25 37C 18.549999 35.800003 19.299999 34.599998 20.5 34.75C 21.700001 34.900002 22.75 35.800003 22.75 37C 22.75 37.75 22.599998 38.650002 22 38.949997C 20.200001 40 18.85 41.800003 18.25 43.75C 19.75 43.900002 21.25 43.599998 22.75 43.75M 29.5 40.75C 28 40.900002 26.5 40.900002 25 40.75C 25 39.25 25.150002 33.700001 29.5 34.75C 29.049999 37.75 28.900002 40.75 29.5 43.75M 34 34.75C 34.300003 37.75 34.300003 40.75 34 43.75M 34 38.5C 34.900002 38.349998 35.949997 38.349998 37 38.5C 37.900002 38.650002 38.349998 39.25 38.5 40C 38.800003 41.199997 38.650002 42.550003 38.5 43.75M 37.75 30.25C 37.75 29.049999 38.050003 27.700001 37.75 26.5M 34.75 22.75C 36.699997 22.150002 38.800003 23.349998 40.75 22.75C 40.75 22.75 41.199997 22.75 41.5 23.5C 41.800003 24.25 41.650002 25 41.5 25.75C 41.5 25.75 41.5 26.5 40.75 26.5C 38.800003 26.349998 36.699997 26.349998 34.75 26.5C 34.75 26.5 33.700001 26.5 34 25.75C 34.300003 25 33.849998 24.25 34 23.5C 34 23.5 34 22.900002 34.75 22.75M 15.25 15.25C 15.4 15.55 15.25 15.7 15.25 16C 14.8 18.1 16.9 19.450001 19 19.75C 21.1 20.049999 23.049999 18.1 22.75 16C 22.75 15.7 22.75 15.55 22.75 15.25M 22.75 15.25C 20.200001 15.55 17.65 15.7 15.25 15.25C 15.25 14.2 15.55 13 15.25 12.1C 15.1 11.65 15.4 11.5 15.7 11.35C 17.799999 10.3 20.049999 11.2 22.299999 11.35C 22.599998 11.35 22.75 11.65 22.75 12.1C 22.75 13.15 22.75 14.2 22.75 15.25M 13.15 27.25C 13.15 24.549999 16.450001 23.650002 19 22.75C 21.549999 22 24.700001 24.549999 24.849998 27.25"></path><path d="M 10.75 45.25L 10.75 31.75C 10.75 30.921572 11.421573 30.25 12.25 30.25L 43.75 30.25C 44.578426 30.25 45.25 30.921572 45.25 31.75L 45.25 45.25M 18.25 37C 18.25 35.757362 19.25736 34.75 20.5 34.75L 20.5 34.75C 21.742641 34.75 22.75 35.757362 22.75 37L 22.75 37C 22.73551 37.735729 22.471003 38.444611 22 39.010002L 18.25 43.75L 22.75 43.75M 29.5 40.75L 25 40.75C 25 39.25 25 34.75 29.5 34.75L 29.5 43.75M 34 34.75L 34 43.75M 34 38.5L 37 38.5C 37.828426 38.5 38.5 39.171574 38.5 40L 38.5 43.75M 37.75 30.25L 37.75 26.5M 34.75 22.75L 40.75 22.75C 40.75 22.75 41.5 22.75 41.5 23.5L 41.5 25.75C 41.5 25.75 41.5 26.5 40.75 26.5L 34.75 26.5C 34.75 26.5 34 26.5 34 25.75L 34 23.5C 34 23.5 34 22.75 34.75 22.75M 15.25 15.25L 15.25 16C 15.25 18.071068 16.928932 19.75 19 19.75C 21.071068 19.75 22.75 18.071068 22.75 16L 22.75 15.25M 22.75 15.25L 15.25 15.25L 15.25 12.025C 15.24557 11.707802 15.445148 11.423554 15.745 11.32C 17.847652 10.555427 20.152348 10.555427 22.255001 11.32C 22.554852 11.423554 22.754431 11.707802 22.75 12.025ZM 13.195 27.25C 13.885178 24.609341 16.270636 22.767227 19 22.767227C 21.729364 22.767227 24.114822 24.609341 24.805 27.25"></path></g></g></g><g id="g-root-tx_manuteno_zqb23r1eu4d8s-stroke" data-item-order="0" transform="translate(854, 254)"></g><g id="g-root-ic_recy_4o70br1eu4e11-stroke" data-item-order="0" transform="translate(620.0009765625, 276)"><g id="ic_recy_4o70br1eu4e11-stroke" fill="none" stroke-linecap="round" stroke-linejoin="round" stroke-miterlimit="4" stroke="#0284c7" stroke-width="2"><g><path d="M 41.5 21.549999C 42.400002 15.4 40.449997 10.9 39.400002 10.9M 39.400002 10.9C 37.900002 11.2 36.25 10.45 34.75 10.9C 34 11.05 33.549999 11.35 33.25 12.1C 32.650002 13.6 32.650002 17.65 32.200001 19.9C 31.900002 20.799999 31.150002 21.549999 30.25 21.549999C 26.799999 21.25 23.049999 20.65 19.6 21.549999C 19.15 21.549999 18.700001 21.25 18.25 20.950001C 17.950001 20.5 17.799999 20.049999 17.799999 19.450001C 17.5 17.35 18.700001 14.2 18.549999 12.7C 18.549999 12.25 18.549999 11.8 18.25 11.5C 17.950001 11.2 17.5 11.05 17.049999 10.9C 16.15 10.6 14.95 11.05 14.05 10.9C 13.3 10.9 12.85 11.5 12.55 12.1C 9.4 19.75 11.95 30.400002 11.8 41.5C 11.8 42.099998 12.25 42.550003 12.85 42.849998C 14.95 44.349998 17.950001 44.050003 20.65 44.199997M 18.700001 16.15C 22.900002 17.5 27.700001 15.4 32.049999 16.15M 29.5 33.400002C 28.450001 35.800003 27.099998 37.900002 25.75 40.150002C 25.450001 40.449997 25.299999 41.199997 25.75 41.5C 26.049999 41.949997 26.349998 42.099998 26.950001 42.25C 28.900002 42.550003 31.150002 42.699997 33.099998 42.25M 40 32.049999C 39.099998 29.799999 37.449997 28 36.400002 25.75C 36.25 25.299999 35.650002 25 35.199997 25.150002C 34.599998 25.150002 34 25.299999 34 25.75C 33.700001 27.700001 31.900002 29.200001 31 30.849998M 36.099998 42.25C 38.5 41.949997 41.050003 41.349998 43.300003 42.25C 43.900002 42.400002 44.199997 41.949997 44.650002 41.5C 44.949997 41.199997 44.949997 40.449997 44.650002 40.150002C 43.150002 38.800003 41.949997 36.849998 41.650002 34.900002M 41.050003 28C 40.449997 29.200001 40.599998 30.849998 40 32.049999C 38.800003 31.450001 37.300003 31.450001 35.949997 31M 25.450001 34.599998C 26.799999 34.449997 28.150002 33.849998 29.5 33.400002C 29.950001 34.75 29.950001 36.400002 30.700001 37.599998M 38.949997 45.099998C 37.75 44.5 36.699997 43.300003 35.949997 42.099998C 36.849998 41.050003 37.599998 39.699997 38.800003 38.949997M 38.949997 10.9C 37.75 14.2 38.349998 17.950001 37.599998 21.4"></path><path d="M 41.5 21.571001C 41.199997 15.3805 40.379501 10.936 39.413498 10.936M 39.407501 10.936L 34.697502 10.936C 34.019516 10.934725 33.42712 11.393693 33.258999 12.0505C 32.855499 13.7005 32.380001 17.611 32.127998 19.8505C 32.020359 20.791779 31.222912 21.502054 30.275501 21.5005L 19.6555 21.5005C 19.132742 21.500448 18.634058 21.280769 18.281179 20.895084C 17.928301 20.509401 17.7537 19.993202 17.799999 19.4725C 17.992001 17.384501 18.298 14.2225 18.536499 12.637C 18.600525 12.211951 18.476656 11.78006 18.197084 11.453556C 17.917511 11.127052 17.509838 10.938173 17.08 10.936L 13.987 10.936C 13.294982 10.930444 12.692803 11.408314 12.541 12.0835C 10.8085 20.171501 10.9735 30.460001 11.8 41.522499C 11.83819 42.118038 12.23403 42.630787 12.8005 42.818501C 15.343788 43.547699 17.959469 43.995384 20.6005 44.153503M 18.694 16.091499L 32.043999 16.091499M 29.539 33.400002L 25.687 40.074997C 25.432411 40.515961 25.432451 41.059258 25.687103 41.500179C 25.941755 41.941105 26.412323 42.21265 26.921501 42.212502L 33.059502 42.212502M 40.009003 32.110001L 36.409 25.822001C 36.155369 25.379156 35.684082 25.105967 35.173748 25.105967C 34.663418 25.105967 34.192131 25.379156 33.938499 25.821999L 31.048 30.8335M 36.071503 42.212502L 43.373501 42.212502C 43.882946 42.213184 44.354004 41.941853 44.609024 41.500832C 44.864044 41.059807 44.864227 40.516193 44.609501 40.075001L 41.650002 34.900002M 41.081501 27.959499L 40.024002 32.102501L 35.881001 31.045M 25.423 34.597L 29.539 33.442001L 30.695499 37.557999M 38.941002 45.063999L 35.881001 42.076L 38.8675 39.017498M 38.990501 10.936C 38.293495 14.405312 37.853794 17.921385 37.674999 21.4555"></path></g></g></g><g id="g-root-tx_5_1lws3mv1eu4e0z-stroke" data-item-order="0" transform="translate(806.0009765625, 272)"></g><g id="g-root-ic_bari_hu18x31eu5tl4-stroke" data-item-order="0" transform="translate(440.0010070800781, 384)"><g id="ic_bari_hu18x31eu5tl4-stroke" fill="none" stroke-linecap="round" stroke-linejoin="round" stroke-miterlimit="4" stroke="#0284c7" stroke-width="2"><g><path d="M 10.75 45.25C 10.15 43.300003 10.45 41.199997 10.75 39.25C 10.9 38.5 11.5 37.599998 12.25 37.75C 22.299999 40.599998 33.25 37.150002 43.75 37.75C 44.650002 37.75 44.949997 38.5 45.25 39.25C 45.849998 41.199997 45.25 43.300003 45.25 45.25M 12.25 37.75C 12.1 37.300003 12.1 36.699997 12.25 36.25C 12.55 35.5 13 35.050003 13.75 34.75C 17.65 33.549999 21.85 33.700001 25.75 34.75C 26.5 35.050003 26.950001 35.5 27.25 36.25C 27.400002 36.699997 27.25 37.300003 27.25 37.75M 13.75 34.75C 13.45 32.200001 14.05 29.650002 13.75 27.25C 13.6 26.5 14.5 25.450001 15.25 25.75C 17.5 26.650002 19.9 25.599998 22.299999 25.75C 23.049999 25.75 23.5 26.349998 23.799999 26.950001C 24.849998 29.349998 25.599998 32.049999 25.450001 34.75M 16.75 25.75C 16.9 24.700001 16.450001 23.650002 16.75 22.75M 14.5 19.75C 16 20.049999 17.5 20.049999 19 19.75C 19 19.75 20.049999 19.75 19.75 20.5C 19.6 20.950001 19.75 21.549999 19.75 22C 19.75 22 19.75 22.75 19 22.75C 17.5 22.75 16 23.200001 14.5 22.75C 14.5 22.75 14.05 22.75 13.75 22C 13.6 21.549999 13.75 20.950001 13.75 20.5C 13.75 20.5 13.75 19.9 14.5 19.75M 17.5 28.75C 18.549999 28.900002 19.450001 28.900002 20.5 28.75M 31.450001 15.7C 30.849998 18.25 33.700001 19.75 36.25 20.5C 38.800003 21.25 40.599998 18.25 41.199997 15.7C 41.650002 13 38.800003 11.5 36.25 10.75C 33.700001 10 32.049999 13 31.450001 15.7M 28 15.25C 32.349998 14.65 36.699997 14.5 41.050003 15.25M 31.75 23.950001C 32.950001 26.799999 31.599998 30.099998 31.75 33.25M 40.75 23.950001C 40.599998 27.099998 39.849998 30.25 40.75 33.25M 34.75 31.75C 35.800003 31.75 36.699997 31.599998 37.75 31.75M 45.25 33.25C 45.400002 32.799999 45.400002 32.200001 45.25 31.75C 44.349998 26.799999 41.199997 22.299999 36.25 22.75C 31.299999 23.200001 27.849998 26.799999 27.25 31.75M 39.849998 23.5C 39.099998 25.150002 38.050003 26.650002 36.25 26.5C 34.449997 26.349998 33.549999 25 32.650002 23.5"></path><path d="M 10.75 45.25L 10.75 39.25C 10.75 38.421574 11.421573 37.75 12.25 37.75L 43.75 37.75C 44.578426 37.75 45.25 38.421574 45.25 39.25L 45.25 45.25M 12.25 37.75L 12.25 36.25C 12.25 35.421574 12.921573 34.75 13.75 34.75L 25.75 34.75C 26.578428 34.75 27.25 35.421574 27.25 36.25L 27.25 37.75M 13.75 34.75L 13.75 27.25C 13.75 26.421572 14.421573 25.75 15.25 25.75L 22.285 25.75C 23.009142 25.735395 23.640289 26.240314 23.785 26.950001L 25.405001 34.75M 16.75 25.75L 16.75 22.75M 14.5 19.75L 19 19.75C 19 19.75 19.75 19.75 19.75 20.5L 19.75 22C 19.75 22 19.75 22.75 19 22.75L 14.5 22.75C 14.5 22.75 13.75 22.75 13.75 22L 13.75 20.5C 13.75 20.5 13.75 19.75 14.5 19.75M 17.5 28.75L 20.5 28.75M 31.375 15.625C 31.375002 18.317389 33.557613 20.5 36.25 20.5C 38.94239 20.5 41.125 18.317389 41.125 15.625C 41.125 12.932612 38.94239 10.75 36.25 10.75C 33.557613 10.75 31.375002 12.932612 31.375002 15.625M 28 15.25L 40.989998 15.25M 31.75 23.950001L 31.75 33.25M 40.75 23.950001L 40.75 33.25M 34.75 31.75L 37.75 31.75M 45.25 33.25L 45.25 31.75C 45.25 26.779438 41.220566 22.75 36.25 22.75C 31.279438 22.75 27.250002 26.779438 27.250002 31.75M 39.864998 23.5C 39.545647 25.245586 38.024559 26.513639 36.25 26.513639C 34.475441 26.513639 32.954353 25.245586 32.635002 23.500002"></path></g></g></g><g id="g-root-tx_4_1lrsaxz1eu5s06-stroke" data-item-order="0" transform="translate(620.0009765625, 392)"></g><g id="g-root-tx_descarte_zkosbr1eu5udr-stroke" data-item-order="0" transform="translate(674, 386)"></g><g id="g-root-ic_shel_1lws3mv1eu5rez-stroke" data-item-order="0" transform="translate(260.0010070800781, 492)"><g id="ic_shel_1lws3mv1eu5rez-stroke" fill="none" stroke-linecap="round" stroke-linejoin="round" stroke-miterlimit="4" stroke="#0284c7" stroke-width="2"><g><path d="M 45.25 16.75C 45.400002 17.5 44.5 18.25 43.75 18.25C 33.25 18.4 22.75 18.85 12.25 18.25C 11.35 18.25 11.05 17.5 10.75 16.75C 10.45 16 11.35 15.4 12.25 15.25C 22.599998 13.75 33.25 15.55 43.75 15.25C 44.650002 15.25 45.099998 16 45.25 16.75M 45.25 30.25C 45.099998 31.150002 44.5 31.900002 43.75 31.75C 33.549999 29.349998 22.75 32.5 12.25 31.75C 11.35 31.75 10.9 31.150002 10.75 30.25C 10.6 29.5 11.35 28.900002 12.25 28.75C 22.599998 27.25 33.25 28.299999 43.75 28.75C 44.650002 28.75 45.400002 29.349998 45.25 30.25M 24.25 34.75C 24.25 36.699997 24.700001 38.800003 24.25 40.75M 24.25 41.949997C 24.549999 43.75 22.75 45.25 20.950001 45.25C 19 45.25 16.9 43.599998 17.5 41.949997C 17.65 41.349998 18.1 40.900002 18.549999 40.75C 20.35 40.150002 22.450001 40.599998 24.25 40.75C 24.400002 41.050003 24.25 41.5 24.25 41.949997M 40.75 34.75C 40.75 36.25 41.050003 37.75 40.75 39.25M 38.5 42.25C 38.050003 43.900002 39.550003 45.400002 40.75 45.25C 41.949997 45.099998 43.449997 43.900002 43 42.25C 42.550003 40.599998 41.949997 39.25 40.75 39.25C 39.550003 39.25 38.5 40.599998 38.5 42.25M 31.75 34.75C 31.900002 36.25 31.900002 37.75 31.75 39.25M 29.5 42.25C 29.049999 43.75 30.549999 45.699997 31.75 45.25C 32.950001 44.949997 34 43.900002 34 42.25C 33.849998 40.599998 32.950001 38.949997 31.75 39.25C 30.549999 39.550003 29.650002 40.599998 29.5 42.25M 27.700001 10.75C 27.549999 13.3 25.599998 15.4 23.200001 15.25C 22.450001 15.25 21.700001 15.25 20.950001 15.25C 18.4 15.25 16.6 13.3 16.450001 10.75C 20.049999 9.7 24.099998 11.95 27.700001 10.75M 24.25 24.25C 24.25 26.799999 22.150002 27.849998 19.75 28.75C 19 29.049999 18.25 29.049999 17.5 28.75C 15.25 27.849998 12.7 26.650002 13 24.25C 16.450001 22.900002 20.65 25.299999 24.25 24.25M 30.25 21.25C 32.799999 21.25 35.199997 21.25 37.75 21.25C 37.449997 23.650002 38.199997 26.349998 37.75 28.75C 35.349998 29.349998 32.650002 29.200001 30.25 28.75C 30.849998 26.349998 30.25 23.799999 30.25 21.25M 37.75 22.75C 38.199997 22.900002 38.650002 22.900002 39.099998 22.75C 39.849998 22.450001 40.75 23.349998 40.75 24.25C 40.75 25.150002 40.150002 25.599998 39.400002 26.049999C 38.949997 26.349998 38.349998 26.5 37.75 26.5"></path><path d="M 45.25 16.75C 45.25 17.578426 44.578426 18.25 43.75 18.25L 12.25 18.25C 11.421573 18.25 10.75 17.578426 10.75 16.75C 10.75 15.921573 11.421573 15.25 12.25 15.25L 43.75 15.25C 44.578426 15.25 45.25 15.921573 45.25 16.75ZM 45.25 30.25C 45.25 31.078428 44.578426 31.75 43.75 31.75L 12.25 31.75C 11.421573 31.75 10.75 31.078428 10.75 30.25C 10.75 29.421572 11.421573 28.75 12.25 28.75L 43.75 28.75C 44.578426 28.75 45.25 29.421572 45.25 30.25ZM 24.25 34.75L 24.25 40.75M 24.25 41.875C 24.25 43.73896 22.73896 45.25 20.875 45.25C 19.01104 45.25 17.5 43.73896 17.5 41.875C 17.50808 41.257057 18.007057 40.758076 18.625 40.75L 24.25 40.75ZM 40.75 34.75L 40.75 39.25M 38.5 42.25C 38.5 43.906857 39.507362 45.25 40.75 45.25C 41.992641 45.25 43 43.906857 43 42.25C 43 40.593143 41.992641 39.25 40.75 39.25C 39.507362 39.25 38.5 40.593143 38.5 42.25M 31.75 34.75L 31.75 39.25M 29.5 42.25C 29.5 43.906857 30.50736 45.25 31.75 45.25C 32.992641 45.25 34 43.906857 34 42.25C 34 40.593143 32.992641 39.25 31.75 39.25C 30.50736 39.25 29.5 40.593143 29.5 42.25M 27.625 10.75C 27.625 13.235282 25.610283 15.25 23.125 15.25L 20.875 15.25C 18.389719 15.25 16.375 13.235282 16.375 10.75ZM 24.25 24.25C 24.25 26.735283 22.235283 28.75 19.75 28.75L 17.5 28.75C 15.014719 28.75 13 26.735283 13 24.25ZM 30.25 21.25L 37.75 21.25L 37.75 28.75L 30.25 28.75ZM 37.75 22.75L 39.07 22.75C 39.926331 22.740196 40.652981 23.376089 40.756836 24.226156C 40.860691 25.076221 40.308502 25.868355 39.474998 26.065001L 37.75 26.5"></path></g></g></g><g id="g-root-tx_3_qssmlj1eu5t6x-stroke" data-item-order="0" transform="translate(440.0010070800781, 500)"></g><g id="g-root-tx_verifica_92536v1eu5sea-stroke" data-item-order="0" transform="translate(494, 494)"></g><g id="g-root-ic_bell_1qa3pev1eu78xy-stroke" data-item-order="0" transform="translate(80.00100708007812, 600)"><g id="ic_bell_1qa3pev1eu78xy-stroke" fill="none" stroke-linecap="round" stroke-linejoin="round" stroke-miterlimit="4" stroke="#0284c7" stroke-width="2"><g><path d="M 27.25 31.75C 27.400002 31.450001 27.25 31.299999 27.25 31C 27.25 26.799999 23.799999 24.700001 19.75 23.5C 15.7 22.299999 11.65 26.950001 12.25 31C 12.25 31.299999 12.25 31.450001 12.25 31.75M 25 15.25C 25 15.55 25.150002 15.7 25 16C 25.450001 18.85 22.599998 21.85 19.75 21.25C 16.9 20.65 14.65 18.85 14.5 16C 14.5 15.85 14.5 15.4 14.5 15.25M 11.5 31.75C 22.299999 29.650002 33.549999 32.049999 44.5 31.75C 44.5 31.75 45.400002 31.75 45.25 32.5C 44.800003 36.400002 45.849998 40.599998 45.25 44.5C 45.25 44.5 45.25 45.099998 44.5 45.25C 33.700001 47.650002 22.299999 43.449997 11.5 45.25C 11.5 45.25 10.6 45.25 10.75 44.5C 11.35 40.599998 9.55 36.25 10.75 32.5C 10.75 32.5 10.75 31.599998 11.5 31.75M 33.25 31.75C 32.5 29.349998 35.349998 27.099998 37.75 27.25C 40.300003 27.400002 43.150002 29.5 42.25 31.75C 39.25 31.75 36.099998 32.650002 33.25 31.75M 25 15.25C 21.549999 14.65 17.950001 14.2 14.5 15.25C 14.8 14.35 14.35 13.3 14.5 12.25C 14.65 11.5 15.25 10.75 16 10.75C 18.549999 10.6 21.1 10.15 23.5 10.75C 24.25 10.9 24.849998 11.5 25 12.25C 25.299999 13.15 25 14.2 25 15.25M 20.200001 26.200001C 20.049999 26.349998 19.9 26.5 19.75 26.5C 19.6 26.5 19.299999 26.349998 19.450001 26.200001C 19.450001 25.900002 19.6 25.75 19.75 25.75C 19.9 25.75 20.049999 25.900002 20.200001 26.200001M 20.200001 29.5C 20.200001 29.650002 19.9 29.950001 19.75 29.950001C 19.6 29.799999 19.450001 29.650002 19.450001 29.5C 19.299999 29.349998 19.6 29.049999 19.75 29.200001C 19.9 29.200001 20.200001 29.349998 20.200001 29.5M 36.25 24.25C 37.150002 24.549999 38.349998 23.950001 39.25 24.25M 37.75 24.25C 37.75 25.299999 37.75 26.200001 37.75 27.25M 25.75 42.25C 25.299999 40.300003 25.150002 38.199997 25.75 36.25M 31.75 42.25C 32.049999 40.300003 32.049999 38.199997 31.75 36.25M 25.75 39.25C 27.700001 39.25 29.799999 39.25 31.75 39.25"></path><path d="M 27.25 31.75L 27.25 31C 27.25 26.857864 23.892136 23.5 19.75 23.5C 15.607864 23.5 12.25 26.857864 12.25 31L 12.25 31.75M 25 15.25C 25.017254 15.499702 25.017254 15.750298 25 16C 25 18.899494 22.649494 21.25 19.75 21.25C 16.850506 21.25 14.5 18.899494 14.5 16C 14.5 15.793 14.4775 15.4495 14.5 15.25M 11.5 31.75L 44.5 31.75C 44.5 31.75 45.25 31.75 45.25 32.5L 45.25 44.5C 45.25 44.5 45.25 45.25 44.5 45.25L 11.5 45.25C 11.5 45.25 10.75 45.25 10.75 44.5L 10.75 32.5C 10.75 32.5 10.75 31.75 11.5 31.75M 33.25 31.75C 33.25 29.264719 35.264717 27.25 37.75 27.25C 40.235283 27.25 42.25 29.264719 42.25 31.75ZM 25 15.25C 21.571501 14.2495 17.928501 14.2495 14.5 15.25L 14.5 12.25C 14.5 11.421573 15.171573 10.75 16 10.75L 23.5 10.75C 24.328428 10.75 25 11.421573 25 12.25ZM 20.125 26.125C 20.125 26.332108 19.957108 26.5 19.75 26.5C 19.542892 26.5 19.375 26.332108 19.375 26.125C 19.375 25.917892 19.542892 25.75 19.75 25.75C 19.957108 25.75 20.125 25.917892 20.125 26.125M 20.125 29.5C 20.125 29.707108 19.957108 29.875 19.75 29.875C 19.542892 29.875 19.375 29.707108 19.375 29.5C 19.375 29.292892 19.542892 29.125 19.75 29.125C 19.957108 29.125 20.125 29.292892 20.125 29.5M 36.25 24.25L 39.25 24.25M 37.75 24.25L 37.75 27.25M 25.75 42.25L 25.75 36.25M 31.75 42.25L 31.75 36.25M 25.75 39.25L 31.75 39.25"></path></g></g></g><g id="g-root-tx_2_4ikqjr1eu78jw-stroke" data-item-order="0" transform="translate(260.0010070800781, 608)"></g><g id="g-root-tx_organiza_18i77tz1eu75z9-stroke" data-item-order="0" transform="translate(314, 602)"></g><g id="g-root-tx_1_vbqi5j1eu76yv-stroke" data-item-order="0" transform="translate(86.0009994506836, 716)"></g><g id="g-root-tx_limpezad_dl2yqv1eu7668-stroke" data-item-order="0" transform="translate(134, 710)"></g></g></g></svg>