<?xml version="1.0" encoding="utf-8" standalone="yes"?>
<!DOCTYPE svg PUBLIC "-//W3C//DTD SVG 1.1//EN" "http://www.w3.org/Graphics/SVG/1.1/DTD/svg11.dtd">
<svg width="1044" height="714" viewBox="0 0 1044 714" style="fill:none;stroke:none;fill-rule:evenodd;clip-rule:evenodd;stroke-linecap:round;stroke-linejoin:round;stroke-miterlimit:1.5;" version="1.1" xmlns="http://www.w3.org/2000/svg" xmlns:xlink="http://www.w3.org/1999/xlink"><style class="text-font-style fontImports" data-font-family="Shantell Sans">@import url('https://fonts.googleapis.com/css2?family=Shantell+Sans:wght@300..800&amp;display=block');</style><g id="items" style="isolation: isolate"><g id="blend" style="mix-blend-mode: normal"><g id="g-root-cp_4_g-4_1q9gm6f1f440lq-fill" data-item-order="-615518" transform="translate(350.44140625, 191.498046875)"><g id="cp_4_g-4_1q9gm6f1f440lq-fill" stroke="none" fill="#ffffff"><g><path d="M 166.631392 45.9603C 170.022892 44.6624 171.807492 42.9823 171.985292 41.2823C 171.995092 41.1882 171.999992 41.0941 171.999992 41C 171.999992 39.2047 170.210492 37.4094 166.631392 36.0397L 103.960892 12.0546C 96.802792 9.3151 85.197192 9.3151 78.039092 12.0546L 15.368592 36.0397C 11.793992 37.4077 10.004392 39.2003 9.999992 40.9933C 9.999992 40.9978 9.999992 41.0022 9.999992 41.0067C 10.004392 42.7997 11.793992 44.5923 15.368592 45.9603L 78.039092 69.9454C 85.197192 72.6849 96.802792 72.6849 103.960892 69.9454L 115.999992 65.3378L 158.749392 48.9769L 166.631392 45.9603ZM 15.368592 45.9603L 78.039092 69.9454C 85.197192 72.6849 96.802792 72.6849 103.960892 69.9454L 115.999992 65.3378L 115.999992 85.8378L 103.960892 90.4454C 96.802792 93.1849 85.197192 93.1849 78.039092 90.4454L 15.368592 66.4603C 11.793992 65.0923 10.004392 63.2997 9.999992 61.5067L 9.999992 41.0067C 10.004392 42.7997 11.793992 44.5923 15.368592 45.9603ZM 171.986692 43.2651L 171.985292 41.2823C 171.807492 42.9823 170.022892 44.6624 166.631392 45.9603L 158.749392 48.9769L 171.995692 55.6165L 171.986692 43.2651ZM 9.999992 40.9933L 9.999992 41.0067L 9.999992 40.9933Z"></path></g></g></g><g id="g-root-cp_3_g-3_1heg30n1f43z0g-fill" data-item-order="-615514" transform="translate(456.44140625, 230.501953125)"><g id="cp_3_g-3_1heg30n1f43z0g-fill" stroke="none" fill="#ffffff"><g><path d="M 67.2522 77.4884L 67.2522 85.0116L 110.0841 68.7503L 110.0718 61.2269L 67.2522 77.4884ZM 95.7987 54.0837L 52.9791 70.3453L 67.2522 77.4884L 110.0718 61.2269L 95.7987 54.0837ZM 52.9791 62.8221L 52.9791 70.3453L 95.7987 54.0837L 95.7986 46.5607L 52.9791 62.8221ZM 81.5377 39.4174L 38.7059 55.6794L 52.9791 62.8221L 95.7986 46.5607L 81.5377 39.4174ZM 38.6936 48.1558L 38.7059 55.6794L 81.5377 39.4174L 81.5377 31.8946L 38.6936 48.1558ZM 24.4205 41.0132L 34.9136 46.2536L 38.6936 48.1558L 81.5377 31.8946L 67.2523 24.7519L 24.4205 41.0132ZM 24.4205 33.49L 24.4205 41.0132L 67.2523 24.7519L 67.2523 17.2286L 24.4205 33.49ZM 10 26.2859L 24.4205 33.49L 67.2523 17.2286L 52.795 10L 10 26.2859ZM 70.9272 106.4584C 67.5357 105.1604 65.7511 103.4804 65.5733 101.7803C 65.5635 101.6863 65.5586 101.5922 65.5586 101.498C 65.5586 99.7028 67.3481 97.9075 70.9272 96.5377L 81.8723 92.3489L 124.5732 76.0065L 133.5977 72.5527C 140.7558 69.8132 152.3614 69.8132 159.5195 72.5527L 222.19 96.5377C 225.7646 97.9058 227.5542 99.6983 227.5586 101.4914C 227.5586 101.4958 227.5586 101.5003 227.5586 101.5047C 227.5542 103.2978 225.7646 105.0903 222.19 106.4584L 159.5195 130.4434C 152.3614 133.1829 140.7558 133.1829 133.5977 130.4434L 121.5586 125.8358L 78.8092 109.475L 70.9272 106.4584ZM 24.4205 41.0132L 24.4205 33.49L 10 26.2859L 10 46.8091L 65.5719 103.7632L 65.5733 101.7803C 65.5635 101.6863 65.5586 101.5922 65.5586 101.498C 65.5586 99.7028 67.3481 97.9075 70.9272 96.5377L 81.8723 92.3489L 67.2522 85.0116L 67.2522 77.4884L 52.9791 70.3453L 52.9791 62.8221L 38.7059 55.6794L 38.6936 48.1558L 34.9136 46.2536L 24.4205 41.0132ZM 110.0841 68.7503L 67.2522 85.0116L 81.8723 92.3489L 124.5732 76.0065L 110.0841 68.7503ZM 222.19 106.4584L 159.5195 130.4434C 152.3614 133.1829 140.7558 133.1829 133.5977 130.4434L 121.5586 125.8358L 121.5586 146.3358L 133.5977 150.9434C 140.7558 153.6829 152.3614 153.6829 159.5195 150.9434L 222.19 126.9584C 225.7646 125.5903 227.5542 123.7978 227.5586 122.0047L 227.5586 101.5047C 227.5542 103.2978 225.7646 105.0903 222.19 106.4584ZM 65.5733 101.7803L 65.5719 103.7632L 65.5629 116.1146L 78.8092 109.475L 70.9272 106.4584C 67.5357 105.1604 65.7511 103.4804 65.5733 101.7803ZM 227.5586 101.4914L 227.5586 101.5047L 227.5586 101.4914Z"></path></g></g></g><g id="g-root-cp_2_g-2_142zknb1f440le-fill" data-item-order="-615510" transform="translate(350.44140625, 330)"><g id="cp_2_g-2_142zknb1f440le-fill" stroke="none" fill="#ffffff"><g><path d="M 170.3064 77.4884L 170.3064 85.0116L 127.4745 68.7503L 127.4868 61.2269L 170.3064 77.4884ZM 141.7599 54.0837L 184.5795 70.3453L 170.3064 77.4884L 127.4868 61.2269L 141.7599 54.0837ZM 184.5795 62.8221L 184.5795 70.3453L 141.7599 54.0837L 141.76 46.5607L 184.5795 62.8221ZM 156.0209 39.4174L 198.8527 55.6794L 184.5795 62.8221L 141.76 46.5607L 156.0209 39.4174ZM 198.865 48.1558L 198.8527 55.6794L 156.0209 39.4174L 156.0209 31.8946L 198.865 48.1558ZM 213.1382 41.0132L 202.645 46.2536L 198.865 48.1558L 156.0209 31.8946L 170.3064 24.7519L 213.1382 41.0132ZM 213.1382 33.49L 213.1382 41.0132L 170.3064 24.7519L 170.3063 17.2286L 213.1382 33.49ZM 227.5586 26.2859L 213.1382 33.49L 170.3063 17.2286L 184.7636 10L 227.5586 26.2859ZM 166.6314 106.4584C 170.0229 105.1604 171.8075 103.4804 171.9853 101.7803C 171.9951 101.6863 172 101.5922 172 101.498C 172 99.7028 170.2105 97.9075 166.6314 96.5377L 155.6863 92.3489L 112.9854 76.0065L 103.9609 72.5527C 96.8028 69.8132 85.1972 69.8132 78.0391 72.5527L 15.3686 96.5377C 11.794 97.9058 10.0044 99.6983 10 101.4914C 10 101.4958 10 101.5003 10 101.5047C 10.0044 103.2978 11.794 105.0903 15.3686 106.4584L 78.0391 130.4434C 85.1972 133.1829 96.8028 133.1829 103.9609 130.4434L 116 125.8358L 158.7494 109.475L 166.6314 106.4584ZM 213.1382 41.0132L 213.1382 33.49L 227.5586 26.2859L 227.5586 46.8091L 171.9867 103.7632L 171.9853 101.7803C 171.9951 101.6863 172 101.5922 172 101.498C 172 99.7028 170.2105 97.9075 166.6314 96.5377L 155.6863 92.3489L 170.3064 85.0116L 170.3064 77.4884L 184.5795 70.3453L 184.5795 62.8221L 198.8527 55.6794L 198.865 48.1558L 202.645 46.2536L 213.1382 41.0132ZM 127.4745 68.7503L 170.3064 85.0116L 155.6863 92.3489L 112.9854 76.0065L 127.4745 68.7503ZM 15.3686 106.4584L 78.0391 130.4434C 85.1972 133.1829 96.8028 133.1829 103.9609 130.4434L 116 125.8358L 116 146.3358L 103.9609 150.9434C 96.8028 153.6829 85.1972 153.6829 78.0391 150.9434L 15.3686 126.9584C 11.794 125.5903 10.0044 123.7978 10 122.0047L 10 101.5047C 10.0044 103.2978 11.794 105.0903 15.3686 106.4584ZM 171.9867 103.7632L 171.9853 101.7803C 171.8075 103.4804 170.0229 105.1604 166.6314 106.4584L 158.7494 109.475L 171.9957 116.1146L 171.9867 103.7632ZM 10 101.4914L 10 101.5047L 10 101.4914Z"></path></g></g></g><g id="g-root-cp_1_g-1_qs5jd31f43z0k-fill" data-item-order="-615506" transform="translate(456.220703125, 429.501953125)"><g id="cp_1_g-1_qs5jd31f43z0k-fill" stroke="none" fill="#ffffff"><g><path d="M 222.19 106.4584L 159.5195 130.4434C 152.3614 133.1829 140.7558 133.1829 133.5977 130.4434L 70.9272 106.4584C 67.5357 105.1604 65.7511 103.4804 65.5733 101.7803L 65.5719 103.7632L 65.5586 121.998C 65.5586 123.7933 67.3481 125.5886 70.9272 126.9584L 133.5977 150.9434C 140.7558 153.6829 152.3614 153.6829 159.5195 150.9434L 222.19 126.9584C 225.7646 125.5903 227.5542 123.7978 227.5586 122.0047L 227.5586 101.5047C 227.5542 103.2978 225.7646 105.0903 222.19 106.4584ZM 222.19 96.5377L 159.5195 72.5527C 152.3614 69.8132 140.7558 69.8132 133.5977 72.5527L 124.5732 76.0065L 81.8723 92.3489L 70.9272 96.5377C 67.3481 97.9075 65.5586 99.7028 65.5586 101.498C 65.5586 101.5922 65.5635 101.6863 65.5733 101.7803C 65.7511 103.4804 67.5357 105.1604 70.9272 106.4584L 133.5977 130.4434C 140.7558 133.1829 152.3614 133.1829 159.5195 130.4434L 222.19 106.4584C 225.7646 105.0903 227.5542 103.2978 227.5586 101.5047L 227.5586 101.4914C 227.5542 99.6983 225.7646 97.9058 222.19 96.5377ZM 24.4205 41.0132L 24.4205 33.49L 10 26.2859L 10 46.8091L 65.5719 103.7632L 65.5733 101.7803C 65.5635 101.6863 65.5586 101.5922 65.5586 101.498C 65.5586 99.7028 67.3481 97.9075 70.9272 96.5377L 81.8723 92.3489L 67.2522 85.0116L 67.2522 77.4884L 52.9791 70.3453L 52.9791 62.8221L 38.7059 55.6794L 38.6936 48.1558L 34.9136 46.2536L 24.4205 41.0132ZM 110.0841 68.7503L 67.2522 85.0116L 81.8723 92.3489L 124.5732 76.0065L 110.0841 68.7503ZM 67.2522 77.4884L 67.2522 85.0116L 110.0841 68.7503L 110.0718 61.2269L 67.2522 77.4884ZM 95.7987 54.0837L 52.9791 70.3453L 67.2522 77.4884L 110.0718 61.2269L 95.7987 54.0837ZM 52.9791 62.8221L 52.9791 70.3453L 95.7987 54.0837L 95.7986 46.5607L 52.9791 62.8221ZM 81.5377 39.4174L 38.7059 55.6794L 52.9791 62.8221L 95.7986 46.5607L 81.5377 39.4174ZM 38.6936 48.1558L 38.7059 55.6794L 81.5377 39.4174L 81.5377 31.8946L 38.6936 48.1558ZM 24.4205 41.0132L 34.9136 46.2536L 38.6936 48.1558L 81.5377 31.8946L 67.2523 24.7519L 24.4205 41.0132ZM 24.4205 33.49L 24.4205 41.0132L 67.2523 24.7519L 67.2523 17.2286L 24.4205 33.49ZM 10 26.2859L 24.4205 33.49L 67.2523 17.2286L 52.795 10L 10 26.2859ZM 227.5586 101.4914C 227.5586 101.4958 227.5586 101.5003 227.5586 101.5047L 227.5586 101.4914Z"></path></g></g></g><g id="g-root-cp_1_number_dgp0zr1f440li-fill" data-item-order="-615492" transform="translate(698, 500)"><g id="cp_1_number_dgp0zr1f440li-fill" stroke="none" fill="#ffffff"><g><path d="M 10 40C 10 23.4315 23.4315 10 40 10C 56.5685 10 70 23.4315 70 40C 70 56.5685 56.5685 70 40 70C 23.4315 70 10 56.5685 10 40Z"></path></g></g></g><g id="g-root-cp_2_number_1_5uzpj1f43z0o-fill" data-item-order="-615474" transform="translate(266, 404)"><g id="cp_2_number_1_5uzpj1f43z0o-fill" stroke="none" fill="#ffffff"><g><path d="M 10 40C 10 23.4315 23.4315 10 40 10C 56.5685 10 70 23.4315 70 40C 70 56.5685 56.5685 70 40 70C 23.4315 70 10 56.5685 10 40Z"></path></g></g></g><g id="g-root-cp_3_number_2_1lvijbb1f440ei-fill" data-item-order="-615456" transform="translate(698, 302)"><g id="cp_3_number_2_1lvijbb1f440ei-fill" stroke="none" fill="#ffffff"><g><path d="M 10 40C 10 23.4315 23.4315 10 40 10C 56.5685 10 70 23.4315 70 40C 70 56.5685 56.5685 70 40 70C 23.4315 70 10 56.5685 10 40Z"></path></g></g></g><g id="g-root-cp_4_number_3_18koi131f43yto-fill" data-item-order="-615438" transform="translate(266, 206)"><g id="cp_4_number_3_18koi131f43yto-fill" stroke="none" fill="#ffffff"><g><path d="M 10 40C 10 23.4315 23.4315 10 40 10C 56.5685 10 70 23.4315 70 40C 70 56.5685 56.5685 70 40 70C 23.4315 70 10 56.5685 10 40Z"></path></g></g></g><g id="g-root-tx_organiza_8x4ocn1f4ds74-fill" data-item-order="0" transform="translate(50, 266)"><g id="tx_organiza_8x4ocn1f4ds74-fill" stroke="none" fill="#0284c7"><g><text style="font: 15px &quot;Shantell Sans&quot;, cursive; white-space: pre;" font-size="15px" font-family="'Shantell Sans', cursive"><tspan x="27.83" y="32" dominant-baseline="ideographic">Organizar e armazenar </tspan><tspan x="63.28" y="50" dominant-baseline="ideographic">produtos em locais </tspan><tspan x="23.05" y="68" dominant-baseline="ideographic">designados, seguindo as </tspan><tspan x="48.34" y="86" dominant-baseline="ideographic">melhores práticas de </tspan><tspan x="78.14" y="104" dominant-baseline="ideographic">armazenamento.</tspan></text></g></g></g><g id="g-root-ic_mach_qqwl6v1f4cg0d-fill" data-item-order="0" transform="translate(566, 218)"></g><g id="g-root-tx_3_1uuwe2v1f4cg06-fill" data-item-order="0" transform="translate(710, 314)"><g id="tx_3_1uuwe2v1f4cg06-fill" stroke="none" fill="#0284c7"><g><text style="font: bold 30px &quot;Shantell Sans&quot;, cursive; white-space: pre;" font-weight="bold" font-size="30px" font-family="'Shantell Sans', cursive"><tspan x="17.5" y="48" dominant-baseline="ideographic">3</tspan></text></g></g></g><g id="g-root-tx_separarp_4j6lhj1f4cdtv-fill" data-item-order="0" transform="translate(782, 302)"><g id="tx_separarp_4j6lhj1f4cdtv-fill" stroke="none" fill="#0284c7"><g><text style="font: bold 20px &quot;Shantell Sans&quot;, cursive; white-space: pre;" font-weight="bold" font-size="20px" font-family="'Shantell Sans', cursive"><tspan x="12" y="35" dominant-baseline="ideographic">Separar </tspan><tspan x="12" y="59" dominant-baseline="ideographic">Produtos </tspan><tspan x="12" y="83" dominant-baseline="ideographic">Refrigerados</tspan></text></g></g></g><g id="g-root-tx_4_zisu2v1f3srnm-fill" data-item-order="0" transform="translate(278, 218)"><g id="tx_4_zisu2v1f3srnm-fill" stroke="none" fill="#0284c7"><g><text style="font: bold 30px &quot;Shantell Sans&quot;, cursive; white-space: pre;" font-weight="bold" font-size="30px" font-family="'Shantell Sans', cursive"><tspan x="17.5" y="48" dominant-baseline="ideographic">4</tspan></text></g></g></g><g id="g-root-ic_mana_mbpk5j1f4b08x-fill" data-item-order="0" transform="translate(386, 320)"></g><g id="g-root-tx_identifi_1cy03t31f4cdms-fill" data-item-order="0" transform="translate(782, 386)"><g id="tx_identifi_1cy03t31f4cdms-fill" stroke="none" fill="#0284c7"><g><text style="font: 15px &quot;Shantell Sans&quot;, cursive; white-space: pre;" font-size="15px" font-family="'Shantell Sans', cursive"><tspan x="12" y="29" dominant-baseline="ideographic">Identificar e separar </tspan><tspan x="12" y="47" dominant-baseline="ideographic">produtos que requerem </tspan><tspan x="12" y="65" dominant-baseline="ideographic">refrigeração para </tspan><tspan x="12" y="83" dominant-baseline="ideographic">manter a qualidade.</tspan></text></g></g></g><g id="g-root-tx_conferir_1uonn7r1f4b11j-fill" data-item-order="0" transform="translate(86, 404)"><g id="tx_conferir_1uonn7r1f4b11j-fill" stroke="none" fill="#0284c7"><g><text style="font: bold 20px &quot;Shantell Sans&quot;, cursive; white-space: pre;" font-weight="bold" font-size="20px" font-family="'Shantell Sans', cursive"><tspan x="21.2" y="35" dominant-baseline="ideographic">Conferir Nota </tspan><tspan x="104.88" y="59" dominant-baseline="ideographic">Fiscal</tspan></text></g></g></g><g id="g-root-tx_armazena_v3lpvr1f4ds7j-fill" data-item-order="0" transform="translate(110, 206)"><g id="tx_armazena_v3lpvr1f4ds7j-fill" stroke="none" fill="#0284c7"><g><text style="font: bold 20px &quot;Shantell Sans&quot;, cursive; white-space: pre;" font-weight="bold" font-size="20px" font-family="'Shantell Sans', cursive"><tspan x="21" y="35" dominant-baseline="ideographic">Armazenar </tspan><tspan x="45.58" y="59" dominant-baseline="ideographic">Produtos</tspan></text></g></g></g><g id="g-root-tx_2_m9u4w71f4cemi-fill" data-item-order="0" transform="translate(278, 416)"><g id="tx_2_m9u4w71f4cemi-fill" stroke="none" fill="#0284c7"><g><text style="font: bold 30px &quot;Shantell Sans&quot;, cursive; white-space: pre;" font-weight="bold" font-size="30px" font-family="'Shantell Sans', cursive"><tspan x="17.5" y="48" dominant-baseline="ideographic">2</tspan></text></g></g></g><g id="g-root-ic_3_1hbbpl31f4dv5t-fill" data-item-order="0" transform="translate(386, 122)"></g><g id="g-root-ic_box_18lxg7b1f440zt-fill" data-item-order="0" transform="translate(566, 416)"></g><g id="g-root-tx_verifica_1cy03t31f4b08w-fill" data-item-order="0" transform="translate(62, 464)"><g id="tx_verifica_1cy03t31f4b08w-fill" stroke="none" fill="#0284c7"><g><text style="font: 15px &quot;Shantell Sans&quot;, cursive; white-space: pre;" font-size="15px" font-family="'Shantell Sans', cursive"><tspan x="30.58" y="29" dominant-baseline="ideographic">Verificar a nota fiscal </tspan><tspan x="68.22" y="47" dominant-baseline="ideographic">com os produtos </tspan><tspan x="16.02" y="65" dominant-baseline="ideographic">recebidos para garantir </tspan><tspan x="18.36" y="83" dominant-baseline="ideographic">precisão e consistência.</tspan></text></g></g></g><g id="g-root-tx_garantin_144uzwn1f43zly-fill" data-item-order="0" transform="translate(200, 38)"><g id="tx_garantin_144uzwn1f43zly-fill" stroke="none" fill="#0284c7"><g><text style="font: bold 25px &quot;Shantell Sans&quot;, cursive; white-space: pre;" font-weight="bold" font-size="25px" font-family="'Shantell Sans', cursive"><tspan x="13.93" y="45" dominant-baseline="ideographic">Garantindo a Gestão Eficiente de Mercadorias</tspan></text></g></g></g><g id="g-root-tx_1_m9u4w71f4b18m-fill" data-item-order="0" transform="translate(716, 512)"><g id="tx_1_m9u4w71f4b18m-fill" stroke="none" fill="#0284c7"><g><text style="font: bold 30px &quot;Shantell Sans&quot;, cursive; white-space: pre;" font-weight="bold" font-size="30px" font-family="'Shantell Sans', cursive"><tspan x="15.17" y="48" dominant-baseline="ideographic">1</tspan></text></g></g></g><g id="g-root-tx_verifica_dikg931f43zlz-fill" data-item-order="0" transform="translate(782, 500)"><g id="tx_verifica_dikg931f43zlz-fill" stroke="none" fill="#0284c7"><g><text style="font: bold 20px &quot;Shantell Sans&quot;, cursive; white-space: pre;" font-weight="bold" font-size="20px" font-family="'Shantell Sans', cursive"><tspan x="12" y="35" dominant-baseline="ideographic">Verificar </tspan><tspan x="12" y="59" dominant-baseline="ideographic">Embalagens</tspan></text></g></g></g><g id="g-root-tx_examinar_1ut0ytj1f43ym8-fill" data-item-order="0" transform="translate(782, 560)"><g id="tx_examinar_1ut0ytj1f43ym8-fill" stroke="none" fill="#0284c7"><g><text style="font: 15px &quot;Shantell Sans&quot;, cursive; white-space: pre;" font-size="15px" font-family="'Shantell Sans', cursive"><tspan x="12" y="32" dominant-baseline="ideographic">Examinar as </tspan><tspan x="12" y="50" dominant-baseline="ideographic">embalagens dos </tspan><tspan x="12" y="68" dominant-baseline="ideographic">produtos para garantir </tspan><tspan x="12" y="86" dominant-baseline="ideographic">que estejam intactas e </tspan><tspan x="12" y="104" dominant-baseline="ideographic">sem danos.</tspan></text></g></g></g><g id="g-root-cp_4_g-4_1q9gm6f1f440lq-stroke" data-item-order="-615518" transform="translate(350.44140625, 191.498046875)"><g id="cp_4_g-4_1q9gm6f1f440lq-stroke" fill="none" stroke-linecap="round" stroke-linejoin="round" stroke-miterlimit="4" stroke="#0284c7" stroke-width="4"><g><path d="M 166.658594 46.001953C 170.258594 45.501953 171.458594 42.901953 171.958594 41.301953C 172.058594 41.201953 172.058594 41.101953 171.958594 41.001953C 171.658594 39.201953 170.458594 36.701953 166.658594 36.001953C 144.558594 32.201953 124.458594 20.901953 103.958594 12.101953C 96.958594 9.001953 84.358594 7.701953 78.058594 12.101953C 68.858594 18.401953 57.058594 19.801953 46.758594 24.001953C 36.358594 28.301953 25.158594 30.701953 15.358594 36.001953C 12.058594 37.901953 9.758594 39.201953 9.958594 41.001953C 10.258594 42.801953 11.558594 45.601953 15.358594 46.001953C 37.658594 48.101953 56.858594 62.701953 78.058594 69.901953C 85.258594 72.401953 97.058594 73.301953 103.958594 69.901953C 107.858594 68.101953 111.958594 66.801953 115.958594 65.301953C 130.258594 60.001953 144.858594 55.401953 158.758594 49.001953C 161.258594 47.801953 163.958594 46.801953 166.658594 46.001953M 15.358594 46.001953C 36.458594 53.501953 57.058594 62.101953 78.058594 69.901953C 85.258594 72.601953 96.958594 73.101953 103.958594 69.901953C 107.858594 68.201953 112.058594 66.901953 115.958594 65.301953C 116.058594 72.201953 116.158594 79.001953 115.958594 85.801953C 112.058594 87.401953 107.658594 88.301953 103.958594 90.401953C 97.358594 94.301953 85.158594 93.301953 78.058594 90.401953C 57.258594 82.101953 36.458594 73.901953 15.358594 66.501953C 11.758594 65.201953 9.558594 63.201953 9.958594 61.501953C 11.758594 54.901953 11.158594 47.701953 9.958594 41.001953C 9.358594 42.701953 11.858594 44.501953 15.358594 46.001953M 171.958594 43.301953C 171.858594 42.601953 171.958594 41.901953 171.958594 41.301953C 172.158594 43.001953 170.158594 45.001953 166.658594 46.001953C 163.958594 46.701953 160.858594 47.101953 158.758594 49.001953C 163.058594 51.301953 168.358594 52.301953 171.958594 55.601953C 172.658594 51.501953 171.658594 47.401953 171.958594 43.301953M 9.958594 41.001953"></path><path d="M 166.631392 45.9603C 170.022892 44.6624 171.807492 42.9823 171.985292 41.2823C 171.995092 41.1882 171.999992 41.0941 171.999992 41C 171.999992 39.2047 170.210492 37.4094 166.631392 36.0397L 103.960892 12.0546C 96.802792 9.3151 85.197192 9.3151 78.039092 12.0546L 15.368592 36.0397C 11.793992 37.4077 10.004392 39.2003 9.999992 40.9933C 9.999992 40.9978 9.999992 41.0022 9.999992 41.0067C 10.004392 42.7997 11.793992 44.5923 15.368592 45.9603L 78.039092 69.9454C 85.197192 72.6849 96.802792 72.6849 103.960892 69.9454L 115.999992 65.3378L 158.749392 48.9769L 166.631392 45.9603ZM 15.368592 45.9603L 78.039092 69.9454C 85.197192 72.6849 96.802792 72.6849 103.960892 69.9454L 115.999992 65.3378L 115.999992 85.8378L 103.960892 90.4454C 96.802792 93.1849 85.197192 93.1849 78.039092 90.4454L 15.368592 66.4603C 11.793992 65.0923 10.004392 63.2997 9.999992 61.5067L 9.999992 41.0067C 10.004392 42.7997 11.793992 44.5923 15.368592 45.9603ZM 171.986692 43.2651L 171.985292 41.2823C 171.807492 42.9823 170.022892 44.6624 166.631392 45.9603L 158.749392 48.9769L 171.995692 55.6165L 171.986692 43.2651ZM 9.999992 40.9933L 9.999992 41.0067L 9.999992 40.9933Z"></path></g></g></g><g id="g-root-cp_3_g-3_1heg30n1f43z0g-stroke" data-item-order="-615514" transform="translate(456.44140625, 230.501953125)"><g id="cp_3_g-3_1heg30n1f43z0g-stroke" fill="none" stroke-linecap="round" stroke-linejoin="round" stroke-miterlimit="4" stroke="#0284c7" stroke-width="4"><g><path d="M 67.258594 77.498047C 66.558594 79.898047 67.358594 82.498047 67.258594 84.998047C 81.558594 79.598047 95.358594 72.898047 110.058594 68.798047C 109.358594 66.298047 110.758594 63.598047 110.058594 61.198047C 95.858594 66.798047 81.758594 72.598047 67.258594 77.498047M 95.758594 54.098047C 82.058594 60.698047 66.558594 63.498047 52.958594 70.298047C 57.858594 72.498047 62.858594 74.598047 67.258594 77.498047C 81.758594 72.698047 95.658594 66.098047 110.058594 61.198047C 104.858594 59.898047 100.658594 56.298047 95.758594 54.098047M 52.958594 62.798047C 53.058594 65.298047 52.758594 67.798047 52.958594 70.298047C 67.758594 66.498047 82.358594 61.298047 95.758594 54.098047C 95.758594 51.598047 96.158594 48.998047 95.758594 46.598047C 81.258594 51.098047 66.658594 55.998047 52.958594 62.798047M 81.558594 39.398047C 66.758594 43.098047 53.358594 51.298047 38.658594 55.698047C 43.458594 58.098047 47.858594 61.298047 52.958594 62.798047C 67.858594 59.298047 81.658594 52.198047 95.758594 46.598047C 90.658594 45.398047 86.658594 40.998047 81.558594 39.398047M 38.658594 48.198047C 37.958594 50.498047 39.058594 53.198047 38.658594 55.698047C 52.658594 49.398047 66.658594 42.998047 81.558594 39.398047C 81.858594 36.898047 81.358594 34.398047 81.558594 31.898047C 67.458594 37.898047 52.758594 42.198047 38.658594 48.198047M 24.458594 40.998047C 28.158594 42.098047 31.158594 45.298047 34.958594 46.298047C 36.258594 46.598047 37.458594 47.498047 38.658594 48.198047C 52.258594 41.198047 67.658594 38.198047 81.558594 31.898047C 77.958594 27.998047 72.458594 25.998047 67.258594 24.798047C 52.858594 29.798047 38.758594 35.798047 24.458594 40.998047M 24.458594 33.498047C 25.358594 35.798047 25.258594 38.598047 24.458594 40.998047C 38.758594 35.798047 53.358594 31.198047 67.258594 24.798047C 66.358594 22.398047 67.458594 19.698047 67.258594 17.198047C 53.758594 24.398047 38.158594 26.798047 24.458594 33.498047M 9.958594 26.298047C 15.058594 28.198047 19.858594 30.698047 24.458594 33.498047C 38.658594 27.998047 53.458594 23.698047 67.258594 17.198047C 62.658594 14.498047 56.858594 13.498047 52.758594 9.998047C 38.658594 15.798047 23.758594 19.698047 9.958594 26.298047M 70.958594 106.498047C 67.258594 106.298047 65.758594 103.498047 65.558594 101.798047C 65.558594 101.698047 65.558594 101.598047 65.558594 101.498047C 65.158594 99.698047 67.358594 97.798047 70.958594 96.498047C 74.558594 95.198047 78.458594 94.298047 81.858594 92.398047C 95.158594 84.898047 109.758594 79.798047 124.558594 75.998047C 127.658594 75.198047 130.558594 73.698047 133.558594 72.598047C 140.758594 69.798047 152.358594 69.798047 159.558594 72.598047C 180.458594 80.498047 201.458594 87.998047 222.158594 96.498047C 225.758594 97.998047 227.958594 99.698047 227.558594 101.498047C 227.158594 103.298047 225.958594 105.898047 222.158594 106.498047C 200.058594 109.998047 180.658594 122.998047 159.558594 130.398047C 152.258594 132.998047 140.758594 133.198047 133.558594 130.398047C 129.558594 128.898047 125.758594 126.498047 121.558594 125.798047C 106.458594 123.298047 92.758594 115.598047 78.858594 109.498047C 76.258594 108.298047 73.458594 107.798047 70.958594 106.498047M 24.458594 40.998047C 24.658594 38.498047 24.758594 35.998047 24.458594 33.498047C 19.558594 31.098047 14.258594 29.598047 9.958594 26.298047C 11.758594 32.898047 9.158594 39.998047 9.958594 46.798047C 19.058594 56.898047 28.658594 66.398047 38.358594 75.898047C 47.658594 84.998047 55.858594 95.198047 65.558594 103.798047C 65.358594 103.098047 65.658594 102.398047 65.558594 101.798047C 65.558594 101.698047 65.558594 101.598047 65.558594 101.498047C 64.958594 99.798047 67.258594 97.598047 70.958594 96.498047C 74.658594 95.498047 78.258594 93.798047 81.858594 92.398047C 76.658594 90.898047 72.558594 86.398047 67.258594 84.998047C 66.758594 82.598047 66.658594 79.898047 67.258594 77.498047C 62.658594 74.898047 57.758594 72.698047 52.958594 70.298047C 52.758594 67.798047 52.758594 65.298047 52.958594 62.798047C 47.758594 61.598047 42.758594 59.198047 38.658594 55.698047C 38.258594 53.198047 38.558594 50.698047 38.658594 48.198047C 37.358594 47.598047 36.258594 46.798047 34.958594 46.298047C 31.258594 44.898047 28.258594 41.898047 24.458594 40.998047M 110.058594 68.798047C 95.258594 72.598047 81.158594 78.698047 67.258594 84.998047C 72.158594 87.298047 77.058594 89.798047 81.858594 92.398047C 95.858594 86.298047 110.658594 82.298047 124.558594 75.998047C 119.458594 74.298047 115.358594 70.098047 110.058594 68.798047M 222.158594 106.498047C 201.558594 115.098047 180.658594 123.298047 159.558594 130.398047C 152.258594 132.898047 140.858594 132.898047 133.558594 130.398047C 129.558594 129.098047 125.658594 126.998047 121.558594 125.798047C 122.358594 132.598047 121.358594 139.498047 121.558594 146.298047C 125.658594 147.598047 129.358594 150.398047 133.558594 150.898047C 141.158594 151.898047 152.358594 153.598047 159.558594 150.898047C 180.458594 143.098047 201.758594 135.998047 222.158594 126.998047C 225.658594 125.398047 227.258594 123.798047 227.558594 121.998047C 228.758594 115.298047 227.658594 108.298047 227.558594 101.498047C 227.058594 103.198047 225.758594 105.098047 222.158594 106.498047M 65.558594 101.798047C 65.658594 102.398047 65.358594 103.098047 65.558594 103.798047C 66.758594 107.698047 64.758594 112.098047 65.558594 116.098047C 69.758594 113.398047 74.258594 111.398047 78.858594 109.498047C 75.958594 109.398047 73.658594 106.998047 70.958594 106.498047C 67.358594 105.798047 65.758594 103.498047 65.558594 101.798047M 227.558594 101.498047"></path><path d="M 67.2522 77.4884L 67.2522 85.0116L 110.0841 68.7503L 110.0718 61.2269L 67.2522 77.4884ZM 95.7987 54.0837L 52.9791 70.3453L 67.2522 77.4884L 110.0718 61.2269L 95.7987 54.0837ZM 52.9791 62.8221L 52.9791 70.3453L 95.7987 54.0837L 95.7986 46.5607L 52.9791 62.8221ZM 81.5377 39.4174L 38.7059 55.6794L 52.9791 62.8221L 95.7986 46.5607L 81.5377 39.4174ZM 38.6936 48.1558L 38.7059 55.6794L 81.5377 39.4174L 81.5377 31.8946L 38.6936 48.1558ZM 24.4205 41.0132L 34.9136 46.2536L 38.6936 48.1558L 81.5377 31.8946L 67.2523 24.7519L 24.4205 41.0132ZM 24.4205 33.49L 24.4205 41.0132L 67.2523 24.7519L 67.2523 17.2286L 24.4205 33.49ZM 10 26.2859L 24.4205 33.49L 67.2523 17.2286L 52.795 10L 10 26.2859ZM 70.9272 106.4584C 67.5357 105.1604 65.7511 103.4804 65.5733 101.7803C 65.5635 101.6863 65.5586 101.5922 65.5586 101.498C 65.5586 99.7028 67.3481 97.9075 70.9272 96.5377L 81.8723 92.3489L 124.5732 76.0065L 133.5977 72.5527C 140.7558 69.8132 152.3614 69.8132 159.5195 72.5527L 222.19 96.5377C 225.7646 97.9058 227.5542 99.6983 227.5586 101.4914C 227.5586 101.4958 227.5586 101.5003 227.5586 101.5047C 227.5542 103.2978 225.7646 105.0903 222.19 106.4584L 159.5195 130.4434C 152.3614 133.1829 140.7558 133.1829 133.5977 130.4434L 121.5586 125.8358L 78.8092 109.475L 70.9272 106.4584ZM 24.4205 41.0132L 24.4205 33.49L 10 26.2859L 10 46.8091L 65.5719 103.7632L 65.5733 101.7803C 65.5635 101.6863 65.5586 101.5922 65.5586 101.498C 65.5586 99.7028 67.3481 97.9075 70.9272 96.5377L 81.8723 92.3489L 67.2522 85.0116L 67.2522 77.4884L 52.9791 70.3453L 52.9791 62.8221L 38.7059 55.6794L 38.6936 48.1558L 34.9136 46.2536L 24.4205 41.0132ZM 110.0841 68.7503L 67.2522 85.0116L 81.8723 92.3489L 124.5732 76.0065L 110.0841 68.7503ZM 222.19 106.4584L 159.5195 130.4434C 152.3614 133.1829 140.7558 133.1829 133.5977 130.4434L 121.5586 125.8358L 121.5586 146.3358L 133.5977 150.9434C 140.7558 153.6829 152.3614 153.6829 159.5195 150.9434L 222.19 126.9584C 225.7646 125.5903 227.5542 123.7978 227.5586 122.0047L 227.5586 101.5047C 227.5542 103.2978 225.7646 105.0903 222.19 106.4584ZM 65.5733 101.7803L 65.5719 103.7632L 65.5629 116.1146L 78.8092 109.475L 70.9272 106.4584C 67.5357 105.1604 65.7511 103.4804 65.5733 101.7803ZM 227.5586 101.4914L 227.5586 101.5047L 227.5586 101.4914Z"></path></g></g></g><g id="g-root-cp_2_g-2_142zknb1f440le-stroke" data-item-order="-615510" transform="translate(350.44140625, 330)"><g id="cp_2_g-2_142zknb1f440le-stroke" fill="none" stroke-linecap="round" stroke-linejoin="round" stroke-miterlimit="4" stroke="#0284c7" stroke-width="4"><g><path d="M 170.258594 77.5C 171.158594 79.8 170.658594 82.5 170.258594 85C 155.958594 79.8 141.558594 74.6 127.458594 68.8C 126.658594 66.4 127.658594 63.7 127.458594 61.2C 141.258594 67.8 156.158594 71.8 170.258594 77.5M 141.758594 54.1C 156.458594 58.1 170.758594 63.8 184.558594 70.3C 179.358594 71.3 175.258594 75.5 170.258594 77.5C 156.358594 71.3 141.658594 66.9 127.458594 61.2C 132.358594 59.1 136.758594 55.9 141.758594 54.1M 184.558594 62.8C 184.458594 65.3 183.858594 67.9 184.558594 70.3C 170.158594 65.4 155.658594 60.5 141.758594 54.1C 142.558594 51.7 142.658594 48.9 141.758594 46.6C 156.058594 51.8 170.058594 58.2 184.558594 62.8M 156.058594 39.4C 169.758594 46.1 184.558594 50.3 198.858594 55.7C 194.058594 58 189.158594 60.1 184.558594 62.8C 170.258594 57.5 155.558594 53.1 141.758594 46.6C 146.458594 44.1 151.158594 41.5 156.058594 39.4M 198.858594 48.2C 199.858594 50.5 199.158594 53.2 198.858594 55.7C 184.158594 51.7 169.958594 45.7 156.058594 39.4C 156.758594 37 156.158594 34.4 156.058594 31.9C 169.558594 39 184.658594 42.6 198.858594 48.2M 213.158594 41C 209.658594 42.8 206.358594 45.2 202.658594 46.3C 201.258594 46.7 199.958594 47.3 198.858594 48.2C 185.358594 41.1 169.758594 38.5 156.058594 31.9C 160.958594 30 166.158594 28 170.258594 24.8C 184.158594 31.3 199.058594 35.1 213.158594 41M 213.158594 33.5C 212.858594 36 212.858594 38.5 213.158594 41C 199.458594 34.2 184.758594 29.8 170.258594 24.8C 170.458594 22.3 169.758594 19.7 170.258594 17.2C 184.058594 23.8 199.258594 27.1 213.158594 33.5M 227.558594 26.3C 222.258594 26.9 217.258594 30 213.158594 33.5C 198.958594 27.8 184.858594 22 170.258594 17.2C 175.358594 15.4 179.658594 11.6 184.758594 10C 198.758594 16 213.058594 21.6 227.558594 26.3M 166.658594 106.5C 170.158594 105.7 172.258594 103.5 171.958594 101.8C 171.958594 101.7 171.958594 101.6 171.958594 101.5C 172.258594 99.7 170.458594 97 166.658594 96.5C 162.758594 96.1 159.358594 93.6 155.658594 92.3C 141.258594 87.4 127.258594 81.4 112.958594 76C 109.958594 74.9 107.058594 73.5 103.958594 72.6C 96.658594 70.3 85.358594 70.3 78.058594 72.6C 56.658594 79.2 36.658594 89.8 15.358594 96.5C 11.758594 97.7 9.758594 99.7 9.958594 101.5C 10.258594 103.3 12.258594 104.2 15.358594 106.5C 33.258594 119.8 57.258594 122.3 78.058594 130.4C 85.158594 133.2 97.058594 133.8 103.958594 130.4C 107.858594 128.5 111.858594 127 115.958594 125.8C 130.658594 121.6 144.458594 114.8 158.758594 109.5C 161.358594 108.5 164.058594 107.6 166.658594 106.5M 213.158594 41C 212.658594 38.5 212.758594 36 213.158594 33.5C 217.858594 30.8 222.658594 28.4 227.558594 26.3C 228.458594 33.1 227.758594 40 227.558594 46.8C 209.958594 66.6 189.858594 84.1 171.958594 103.8C 171.758594 103.1 171.958594 102.4 171.958594 101.8C 171.958594 101.7 171.958594 101.6 171.958594 101.5C 172.358594 99.7 170.358594 97.3 166.658594 96.5C 162.758594 95.8 159.158594 94.1 155.658594 92.3C 161.058594 91.3 165.658594 87.9 170.258594 85C 170.758594 82.6 170.958594 79.9 170.258594 77.5C 174.358594 74.1 179.558594 72.1 184.558594 70.3C 184.358594 67.8 184.358594 65.3 184.558594 62.8C 189.358594 60.6 193.758594 57.3 198.858594 55.7C 198.658594 53.2 198.458594 50.6 198.858594 48.2C 200.158594 47.6 201.258594 46.5 202.658594 46.3C 206.458594 45.5 209.958594 43.4 213.158594 41M 127.458594 68.8C 141.258594 75.2 155.858594 80.2 170.258594 85C 165.358594 87.3 160.558594 89.9 155.658594 92.3C 141.458594 86.9 126.958594 82.1 112.958594 76C 118.158594 74.5 122.658594 71.1 127.458594 68.8M 15.358594 106.5C 36.258594 114.6 57.158594 122.4 78.058594 130.4C 85.158594 133.2 97.558594 134.6 103.958594 130.4C 107.558594 128.1 111.758594 126.8 115.958594 125.8C 115.958594 132.7 114.558594 139.7 115.958594 146.3C 112.158594 148.3 107.858594 149.2 103.958594 150.9C 96.958594 154.1 84.958594 154.2 78.058594 150.9C 57.858594 141.4 36.358594 134.8 15.358594 127C 11.758594 125.6 9.458594 123.7 9.958594 122C 12.058594 115.5 9.358594 108.3 9.958594 101.5C 9.458594 103.2 11.858594 104.8 15.358594 106.5M 171.958594 103.8C 172.158594 103.1 171.858594 102.4 171.958594 101.8C 171.458594 103.4 170.058594 105.2 166.658594 106.5C 163.958594 107.4 161.558594 109.3 158.758594 109.5C 162.358594 112.8 167.658594 113.8 171.958594 116.1C 171.458594 112 170.458594 107.6 171.958594 103.8M 9.958594 101.5"></path><path d="M 170.3064 77.4884L 170.3064 85.0116L 127.4745 68.7503L 127.4868 61.2269L 170.3064 77.4884ZM 141.7599 54.0837L 184.5795 70.3453L 170.3064 77.4884L 127.4868 61.2269L 141.7599 54.0837ZM 184.5795 62.8221L 184.5795 70.3453L 141.7599 54.0837L 141.76 46.5607L 184.5795 62.8221ZM 156.0209 39.4174L 198.8527 55.6794L 184.5795 62.8221L 141.76 46.5607L 156.0209 39.4174ZM 198.865 48.1558L 198.8527 55.6794L 156.0209 39.4174L 156.0209 31.8946L 198.865 48.1558ZM 213.1382 41.0132L 202.645 46.2536L 198.865 48.1558L 156.0209 31.8946L 170.3064 24.7519L 213.1382 41.0132ZM 213.1382 33.49L 213.1382 41.0132L 170.3064 24.7519L 170.3063 17.2286L 213.1382 33.49ZM 227.5586 26.2859L 213.1382 33.49L 170.3063 17.2286L 184.7636 10L 227.5586 26.2859ZM 166.6314 106.4584C 170.0229 105.1604 171.8075 103.4804 171.9853 101.7803C 171.9951 101.6863 172 101.5922 172 101.498C 172 99.7028 170.2105 97.9075 166.6314 96.5377L 155.6863 92.3489L 112.9854 76.0065L 103.9609 72.5527C 96.8028 69.8132 85.1972 69.8132 78.0391 72.5527L 15.3686 96.5377C 11.794 97.9058 10.0044 99.6983 10 101.4914C 10 101.4958 10 101.5003 10 101.5047C 10.0044 103.2978 11.794 105.0903 15.3686 106.4584L 78.0391 130.4434C 85.1972 133.1829 96.8028 133.1829 103.9609 130.4434L 116 125.8358L 158.7494 109.475L 166.6314 106.4584ZM 213.1382 41.0132L 213.1382 33.49L 227.5586 26.2859L 227.5586 46.8091L 171.9867 103.7632L 171.9853 101.7803C 171.9951 101.6863 172 101.5922 172 101.498C 172 99.7028 170.2105 97.9075 166.6314 96.5377L 155.6863 92.3489L 170.3064 85.0116L 170.3064 77.4884L 184.5795 70.3453L 184.5795 62.8221L 198.8527 55.6794L 198.865 48.1558L 202.645 46.2536L 213.1382 41.0132ZM 127.4745 68.7503L 170.3064 85.0116L 155.6863 92.3489L 112.9854 76.0065L 127.4745 68.7503ZM 15.3686 106.4584L 78.0391 130.4434C 85.1972 133.1829 96.8028 133.1829 103.9609 130.4434L 116 125.8358L 116 146.3358L 103.9609 150.9434C 96.8028 153.6829 85.1972 153.6829 78.0391 150.9434L 15.3686 126.9584C 11.794 125.5903 10.0044 123.7978 10 122.0047L 10 101.5047C 10.0044 103.2978 11.794 105.0903 15.3686 106.4584ZM 171.9867 103.7632L 171.9853 101.7803C 171.8075 103.4804 170.0229 105.1604 166.6314 106.4584L 158.7494 109.475L 171.9957 116.1146L 171.9867 103.7632ZM 10 101.4914L 10 101.5047L 10 101.4914Z"></path></g></g></g><g id="g-root-cp_1_g-1_qs5jd31f43z0k-stroke" data-item-order="-615506" transform="translate(456.220703125, 429.501953125)"><g id="cp_1_g-1_qs5jd31f43z0k-stroke" fill="none" stroke-linecap="round" stroke-linejoin="round" stroke-miterlimit="4" stroke="#0284c7" stroke-width="4"><g><path d="M 222.179297 106.498047C 200.779297 112.898047 180.879297 123.898047 159.479297 130.398047C 152.179297 132.698047 141.179297 131.598047 133.579297 130.398047C 111.479297 127.098047 92.079297 113.598047 70.879297 106.498047C 67.479297 105.298047 65.679297 103.498047 65.579297 101.798047C 65.679297 102.398047 65.779297 103.198047 65.579297 103.798047C 63.279297 109.398047 66.079297 115.898047 65.579297 121.998047C 65.379297 123.798047 67.879297 124.698047 70.879297 126.998047C 79.179297 133.098047 90.379297 133.698047 99.779297 137.998047C 110.779297 142.998047 122.279297 146.798047 133.579297 150.898047C 140.779297 153.598047 152.579297 154.298047 159.479297 150.898047C 179.679297 141.198047 201.179297 134.598047 222.179297 126.998047C 225.779297 125.698047 227.279297 123.798047 227.579297 121.998047C 228.479297 115.198047 225.779297 108.098047 227.579297 101.498047C 227.179297 103.298047 225.579297 104.698047 222.179297 106.498047M 222.179297 96.498047C 201.179297 88.998047 179.879297 81.798047 159.479297 72.598047C 152.579297 69.398047 139.879297 68.098047 133.579297 72.598047C 130.979297 74.398047 127.479297 74.598047 124.579297 75.998047C 110.979297 82.798047 95.879297 86.398047 81.879297 92.398047C 78.279297 93.898047 74.879297 96.498047 70.879297 96.498047C 67.079297 96.598047 65.379297 99.698047 65.579297 101.498047C 65.579297 101.598047 65.579297 101.698047 65.579297 101.798047C 66.179297 103.398047 67.679297 104.798047 70.879297 106.498047C 80.079297 110.998047 89.879297 113.798047 99.379297 117.398047C 110.879297 121.698047 121.679297 127.798047 133.579297 130.398047C 141.079297 132.098047 152.779297 134.198047 159.479297 130.398047C 179.079297 119.598047 201.179297 114.198047 222.179297 106.498047C 225.779297 105.098047 227.479297 103.298047 227.579297 101.498047C 227.679297 99.698047 225.579297 98.298047 222.179297 96.498047M 24.379297 40.998047C 23.979297 38.498047 25.179297 35.898047 24.379297 33.498047C 19.679297 30.998047 14.079297 29.798047 9.979297 26.298047C 11.979297 32.798047 9.679297 39.998047 9.979297 46.798047C 29.679297 64.598047 47.979297 83.898047 65.579297 103.798047C 65.779297 103.198047 65.579297 102.398047 65.579297 101.798047C 65.579297 101.698047 65.579297 101.598047 65.579297 101.498047C 65.979297 99.698047 67.279297 97.898047 70.879297 96.498047C 74.579297 95.198047 78.379297 94.098047 81.879297 92.398047C 78.079297 88.398047 72.279297 86.998047 67.279297 84.998047C 67.079297 82.498047 66.479297 79.898047 67.279297 77.498047C 62.179297 75.998047 57.579297 73.098047 52.979297 70.298047C 53.479297 67.898047 52.679297 65.298047 52.979297 62.798047C 48.279297 60.398047 43.579297 57.798047 38.679297 55.698047C 38.279297 53.198047 38.579297 50.698047 38.679297 48.198047C 37.479297 47.398047 35.879297 47.198047 34.879297 46.298047C 32.079297 43.498047 28.179297 42.098047 24.379297 40.998047M 110.079297 68.798047C 96.179297 75.198047 81.579297 79.698047 67.279297 84.998047C 71.779297 88.098047 76.779297 90.398047 81.879297 92.398047C 96.279297 87.298047 110.579297 81.898047 124.579297 75.998047C 120.779297 72.198047 114.979297 71.098047 110.079297 68.798047M 67.279297 77.498047C 66.779297 79.898047 66.979297 82.498047 67.279297 84.998047C 81.479297 79.398047 95.879297 74.298047 110.079297 68.798047C 110.179297 66.298047 110.479297 63.698047 110.079297 61.198047C 95.579297 65.998047 81.879297 73.198047 67.279297 77.498047M 95.779297 54.098047C 81.179297 58.498047 66.679297 63.598047 52.979297 70.298047C 57.879297 72.398047 62.579297 74.998047 67.279297 77.498047C 80.979297 70.898047 95.979297 67.098047 110.079297 61.198047C 105.079297 59.398047 100.579297 56.398047 95.779297 54.098047M 52.979297 62.798047C 52.979297 65.298047 53.179297 67.798047 52.979297 70.298047C 67.579297 65.898047 81.679297 59.898047 95.779297 54.098047C 95.079297 51.698047 95.179297 48.998047 95.779297 46.598047C 80.979297 50.298047 67.679297 58.698047 52.979297 62.798047M 81.579297 39.398047C 66.979297 44.098047 52.479297 48.998047 38.679297 55.698047C 42.579297 59.298047 47.879297 61.198047 52.979297 62.798047C 66.779297 56.298047 81.479297 51.898047 95.779297 46.598047C 90.579297 45.498047 86.079297 42.198047 81.579297 39.398047M 38.679297 48.198047C 38.479297 50.698047 39.479297 53.298047 38.679297 55.698047C 53.279297 50.998047 67.779297 45.998047 81.579297 39.398047C 81.779297 36.898047 81.479297 34.398047 81.579297 31.898047C 67.279297 37.298047 53.179297 43.198047 38.679297 48.198047M 24.379297 40.998047C 27.879297 42.698047 31.479297 44.398047 34.879297 46.298047C 36.179297 46.898047 37.679297 47.198047 38.679297 48.198047C 52.779297 42.298047 67.079297 36.798047 81.579297 31.898047C 77.979297 27.998047 71.579297 27.798047 67.279297 24.798047C 52.979297 30.098047 38.479297 35.098047 24.379297 40.998047M 24.379297 33.498047C 24.279297 35.998047 24.279297 38.498047 24.379297 40.998047C 37.879297 33.798047 52.679297 29.398047 67.279297 24.798047C 66.779297 22.298047 67.879297 19.698047 67.279297 17.198047C 52.579297 21.498047 38.779297 28.298047 24.379297 33.498047M 9.979297 26.298047C 15.179297 27.698047 19.679297 31.098047 24.379297 33.498047C 38.679297 27.998047 52.679297 21.698047 67.279297 17.198047C 62.279297 15.098047 56.779297 13.698047 52.779297 9.998047C 38.479297 15.298047 24.779297 22.398047 9.979297 26.298047M 227.579297 101.498047"></path><path d="M 222.19 106.4584L 159.5195 130.4434C 152.3614 133.1829 140.7558 133.1829 133.5977 130.4434L 70.9272 106.4584C 67.5357 105.1604 65.7511 103.4804 65.5733 101.7803L 65.5719 103.7632L 65.5586 121.998C 65.5586 123.7933 67.3481 125.5886 70.9272 126.9584L 133.5977 150.9434C 140.7558 153.6829 152.3614 153.6829 159.5195 150.9434L 222.19 126.9584C 225.7646 125.5903 227.5542 123.7978 227.5586 122.0047L 227.5586 101.5047C 227.5542 103.2978 225.7646 105.0903 222.19 106.4584ZM 222.19 96.5377L 159.5195 72.5527C 152.3614 69.8132 140.7558 69.8132 133.5977 72.5527L 124.5732 76.0065L 81.8723 92.3489L 70.9272 96.5377C 67.3481 97.9075 65.5586 99.7028 65.5586 101.498C 65.5586 101.5922 65.5635 101.6863 65.5733 101.7803C 65.7511 103.4804 67.5357 105.1604 70.9272 106.4584L 133.5977 130.4434C 140.7558 133.1829 152.3614 133.1829 159.5195 130.4434L 222.19 106.4584C 225.7646 105.0903 227.5542 103.2978 227.5586 101.5047L 227.5586 101.4914C 227.5542 99.6983 225.7646 97.9058 222.19 96.5377ZM 24.4205 41.0132L 24.4205 33.49L 10 26.2859L 10 46.8091L 65.5719 103.7632L 65.5733 101.7803C 65.5635 101.6863 65.5586 101.5922 65.5586 101.498C 65.5586 99.7028 67.3481 97.9075 70.9272 96.5377L 81.8723 92.3489L 67.2522 85.0116L 67.2522 77.4884L 52.9791 70.3453L 52.9791 62.8221L 38.7059 55.6794L 38.6936 48.1558L 34.9136 46.2536L 24.4205 41.0132ZM 110.0841 68.7503L 67.2522 85.0116L 81.8723 92.3489L 124.5732 76.0065L 110.0841 68.7503ZM 67.2522 77.4884L 67.2522 85.0116L 110.0841 68.7503L 110.0718 61.2269L 67.2522 77.4884ZM 95.7987 54.0837L 52.9791 70.3453L 67.2522 77.4884L 110.0718 61.2269L 95.7987 54.0837ZM 52.9791 62.8221L 52.9791 70.3453L 95.7987 54.0837L 95.7986 46.5607L 52.9791 62.8221ZM 81.5377 39.4174L 38.7059 55.6794L 52.9791 62.8221L 95.7986 46.5607L 81.5377 39.4174ZM 38.6936 48.1558L 38.7059 55.6794L 81.5377 39.4174L 81.5377 31.8946L 38.6936 48.1558ZM 24.4205 41.0132L 34.9136 46.2536L 38.6936 48.1558L 81.5377 31.8946L 67.2523 24.7519L 24.4205 41.0132ZM 24.4205 33.49L 24.4205 41.0132L 67.2523 24.7519L 67.2523 17.2286L 24.4205 33.49ZM 10 26.2859L 24.4205 33.49L 67.2523 17.2286L 52.795 10L 10 26.2859ZM 227.5586 101.4914C 227.5586 101.4958 227.5586 101.5003 227.5586 101.5047L 227.5586 101.4914Z"></path></g></g></g><g id="g-root-cp_1_number_dgp0zr1f440li-stroke" data-item-order="-615492" transform="translate(698, 500)"><g id="cp_1_number_dgp0zr1f440li-stroke" fill="none" stroke-linecap="round" stroke-linejoin="round" stroke-miterlimit="4" stroke="#0284c7" stroke-width="4"><g><path d="M 10 40C 10.3 23.4 23.5 11.2 40 10C 56.5 8.8 69.1 23.4 70 40C 70.9 56.5 56.6 70.1 40 70C 23.4 69.9 8.2 56.5 10 40"></path><path d="M 10 40C 10 23.4315 23.4315 10 40 10C 56.5685 10 70 23.4315 70 40C 70 56.5685 56.5685 70 40 70C 23.4315 70 10 56.5685 10 40Z"></path></g></g></g><g id="g-root-cp_2_number_1_5uzpj1f43z0o-stroke" data-item-order="-615474" transform="translate(266, 404)"><g id="cp_2_number_1_5uzpj1f43z0o-stroke" fill="none" stroke-linecap="round" stroke-linejoin="round" stroke-miterlimit="4" stroke="#0284c7" stroke-width="4"><g><path d="M 10 40C 9 23.5 23.5 11.1 40 10C 56.5 8.9 69.7 23.4 70 40C 70.3 56.6 56.5 71 40 70C 23.5 69 10.8 56.5 10 40"></path><path d="M 10 40C 10 23.4315 23.4315 10 40 10C 56.5685 10 70 23.4315 70 40C 70 56.5685 56.5685 70 40 70C 23.4315 70 10 56.5685 10 40Z"></path></g></g></g><g id="g-root-cp_3_number_2_1lvijbb1f440ei-stroke" data-item-order="-615456" transform="translate(698, 302)"><g id="cp_3_number_2_1lvijbb1f440ei-stroke" fill="none" stroke-linecap="round" stroke-linejoin="round" stroke-miterlimit="4" stroke="#0284c7" stroke-width="4"><g><path d="M 10 40C 11.9 23.5 23.5 11.9 40 10C 56.5 8.2 70.5 23.4 70 40C 69.5 56.6 56.5 68.8 40 70C 23.5 71.2 8.2 56.5 10 40"></path><path d="M 10 40C 10 23.4315 23.4315 10 40 10C 56.5685 10 70 23.4315 70 40C 70 56.5685 56.5685 70 40 70C 23.4315 70 10 56.5685 10 40Z"></path></g></g></g><g id="g-root-cp_4_number_3_18koi131f43yto-stroke" data-item-order="-615438" transform="translate(266, 206)"><g id="cp_4_number_3_18koi131f43yto-stroke" fill="none" stroke-linecap="round" stroke-linejoin="round" stroke-miterlimit="4" stroke="#0284c7" stroke-width="4"><g><path d="M 10 40C 10.3 23.4 23.4 10.8 40 10C 56.5 9.2 70.8 23.4 70 40C 69.2 56.6 56.6 70.6 40 70C 23.4 69.4 10 56.6 10 40"></path><path d="M 10 40C 10 23.4315 23.4315 10 40 10C 56.5685 10 70 23.4315 70 40C 70 56.5685 56.5685 70 40 70C 23.4315 70 10 56.5685 10 40Z"></path></g></g></g><g id="g-root-tx_organiza_8x4ocn1f4ds74-stroke" data-item-order="0" transform="translate(50, 266)"></g><g id="g-root-ic_mach_qqwl6v1f4cg0d-stroke" data-item-order="0" transform="translate(566, 218)"><g id="ic_mach_qqwl6v1f4cg0d-stroke" fill="none" stroke-linecap="round" stroke-linejoin="round" stroke-miterlimit="4" stroke="#0284c7" stroke-width="2"><g><path d="M 23.75 21.25C 24.5 24 26 26.75 28.75 26.25C 31.5 25.75 34.25 24 33.75 21.25C 33.25 18.5 31.5 16.25 28.75 16.25C 26 16.25 24.5 18.5 23.75 21.25M 18.75 50C 20.5 55 18.25 61 18.75 66.25C 19 67.5 20 69 21.25 68.75C 23 68.5 24.5 68.75 26.25 68.75C 27.75 68.75 29 67.5 28.75 66.25C 27.5 60.5 30 54.5 28.75 48.75C 28 44.75 31.5 40.25 30.75 36.25C 31 36.5 31.5 36.5 31.75 36.5C 32.5 37 33.25 37.5 33.5 38.25C 34.25 42.5 35.75 46.75 37.5 50.75C 38.25 52 39.5 52.5 40.75 52.25C 42.25 52 43.25 50.25 42.25 49C 39.75 45.5 39.75 40.75 38.25 36.5C 37.25 34.25 35.75 32 33.25 31.75C 30 31.75 27 29.75 24 29C 20.25 28 15.5 29.75 14.75 33.75C 14 37 13.25 40.25 11.5 43C 11 43.75 11.5 44.75 11.75 45.5C 12.25 46.25 13.25 46.5 14.25 46.25C 15 46 15.75 45.5 16 44.75C 17 41.5 18 38.5 19.5 35.5M 38.75 57.5C 39.25 60.25 38.75 63.25 38.75 66.25C 38.75 67.75 40 69 41.25 68.75C 49.25 66.5 58.25 66.5 66.25 68.75C 67.5 69 69 67.5 68.75 66.25C 66.5 49 73.5 30.5 68.75 13.75C 68.25 12.5 67.5 11.25 66.25 11.25C 58 11 49.5 12 41.25 11.25C 40 11 39.25 12.5 38.75 13.75C 37.25 18.5 38.25 23.75 38.75 28.75M 47.5 51.25C 52 51.5 56.75 51.25 61.25 51.25C 62.75 51.25 63.5 52.5 63.75 53.75C 64 56.25 64.25 58.75 63.75 61.25C 63.5 62.5 62.5 63.75 61.25 63.75C 56.25 63.5 51.25 62.75 46.25 63.75C 45 64 43.5 62.5 43.75 61.25C 44.25 59.75 44.25 57.75 43.75 56.25M 45 16.25C 46.5 15.75 48.5 16.75 50 16.25C 50 16.25 51 16.25 51.25 17.5C 51.5 18.25 51.5 19.25 51.25 20C 51.25 20 51.25 21.5 50 21.25C 48.25 21 46.5 21.75 45 21.25C 45 21.25 43.5 21.25 43.75 20C 44 19.25 43.75 18.25 43.75 17.5C 43.75 17.5 43.75 16.75 45 16.25M 45 26.25C 46.5 25.75 48.25 26.25 50 26.25C 50 26.25 51 26.25 51.25 27.5C 51.5 28.25 51.25 29.25 51.25 30C 51.25 30 51.25 31.5 50 31.25C 48.5 30.75 46.75 31.5 45 31.25C 45 31.25 43.25 31.25 43.75 30C 44 29.25 44 28.25 43.75 27.5C 43.75 27.5 43.75 26 45 26.25M 57.5 16.25C 59 16 61 16.75 62.5 16.25C 62.5 16.25 63.25 16.25 63.75 17.5C 64 18.25 64 19.25 63.75 20C 63.75 20 63.75 21.5 62.5 21.25C 60.75 21 59 20.75 57.5 21.25C 57.5 21.25 56.5 21.25 56.25 20C 56 19.25 56 18.25 56.25 17.5C 56.25 17.5 56.25 16.25 57.5 16.25M 57.5 26.25C 59.25 26.5 61 26.75 62.5 26.25C 62.5 26.25 64.25 26.25 63.75 27.5C 63.5 28.25 63.75 29.25 63.75 30C 63.75 30 63.75 31.5 62.5 31.25C 60.75 31 59 31 57.5 31.25C 57.5 31.25 56.25 31.25 56.25 30C 56.25 29.25 56.5 28.25 56.25 27.5C 56.25 27.5 56.25 25.75 57.5 26.25M 57.5 36.25C 59 35.75 60.75 36 62.5 36.25C 62.5 36.25 63.25 36.25 63.75 37.5C 64 38.25 63.75 39.25 63.75 40C 63.75 40 63.75 41.25 62.5 41.25C 60.75 41.25 59.25 41.25 57.5 41.25C 57.5 41.25 56.75 41.25 56.25 40C 56 39.25 56 38.25 56.25 37.5C 56.25 37.5 56.25 36.25 57.5 36.25M 49 58.75C 49 58.75 50 57 52.5 57.75C 53.25 58 54 58.75 54.75 59C 54.75 59 57.5 60.75 55.5 62.5C 55.5 62.5 54.5 64.5 52.25 63.5C 51.5 63 50.75 62.5 50 62.25C 50 62.25 47.75 61 49 58.75M 23.75 21.25C 23.75 24.011423 25.988577 26.25 28.75 26.25C 31.511423 26.25 33.75 24.011423 33.75 21.25C 33.75 18.488577 31.511423 16.25 28.75 16.25C 25.988577 16.25 23.75 18.488577 23.75 21.25M 18.75 50L 18.75 66.25C 18.75 67.630707 19.869287 68.75 21.25 68.75L 26.25 68.75C 27.630713 68.75 28.75 67.630707 28.75 66.25L 28.75 48.75L 30.675001 36.25L 31.800001 36.600002C 32.577091 36.833916 33.192291 37.430473 33.450001 38.200001L 37.625 50.700001C 38.067005 52.011433 39.488346 52.716351 40.799858 52.274574C 42.111366 51.832806 42.81654 50.411591 42.375 49.099998L 38.175003 36.600002C 37.391941 34.279648 35.525368 32.48774 33.175003 31.800001L 24.025 29.075001C 20.201767 27.904524 16.132559 29.939127 14.775001 33.700001L 11.4 42.974998C 11.066385 43.821674 11.219195 44.782753 11.798959 45.4842C 12.378722 46.185646 13.293851 46.516651 14.18819 46.348389C 15.082529 46.18013 15.814795 45.539185 16.1 44.674999L 19.475 35.400002M 38.75 57.5L 38.75 66.25C 38.75 67.630707 39.869286 68.75 41.25 68.75L 66.25 68.75C 67.630707 68.75 68.75 67.630707 68.75 66.25L 68.75 13.75C 68.75 12.369288 67.630707 11.25 66.25 11.25L 41.25 11.25C 39.869286 11.25 38.75 12.369288 38.75 13.75L 38.75 28.75M 47.5 51.25L 61.25 51.25C 62.630711 51.25 63.75 52.369289 63.75 53.75L 63.75 61.25C 63.75 62.630711 62.630711 63.75 61.25 63.75L 46.25 63.75C 44.869286 63.75 43.75 62.630711 43.75 61.25L 43.75 56.25M 45 16.25L 50 16.25C 50 16.25 51.25 16.25 51.25 17.5L 51.25 20C 51.25 20 51.25 21.25 50 21.25L 45 21.25C 45 21.25 43.75 21.25 43.75 20L 43.75 17.5C 43.75 17.5 43.75 16.25 45 16.25M 45 26.25L 50 26.25C 50 26.25 51.25 26.25 51.25 27.5L 51.25 30C 51.25 30 51.25 31.25 50 31.25L 45 31.25C 45 31.25 43.75 31.25 43.75 30L 43.75 27.5C 43.75 27.5 43.75 26.25 45 26.25M 57.5 16.25L 62.5 16.25C 62.5 16.25 63.75 16.25 63.75 17.5L 63.75 20C 63.75 20 63.75 21.25 62.5 21.25L 57.5 21.25C 57.5 21.25 56.25 21.25 56.25 20L 56.25 17.5C 56.25 17.5 56.25 16.25 57.5 16.25M 57.5 26.25L 62.5 26.25C 62.5 26.25 63.75 26.25 63.75 27.5L 63.75 30C 63.75 30 63.75 31.25 62.5 31.25L 57.5 31.25C 57.5 31.25 56.25 31.25 56.25 30L 56.25 27.5C 56.25 27.5 56.25 26.25 57.5 26.25M 57.5 36.25L 62.5 36.25C 62.5 36.25 63.75 36.25 63.75 37.5L 63.75 40C 63.75 40 63.75 41.25 62.5 41.25L 57.5 41.25C 57.5 41.25 56.25 41.25 56.25 40L 56.25 37.5C 56.25 37.5 56.25 36.25 57.5 36.25M 49.082443 58.757977L 49.082443 58.757977C 49.082443 58.757977 50.332443 56.592911 52.497505 57.842911L 54.662567 59.092911C 54.662567 59.092911 56.827629 60.342911 55.577629 62.507977L 55.577629 62.507977C 55.577629 62.507977 54.327629 64.673042 52.162567 63.423042L 49.997505 62.173042C 49.997505 62.173042 47.832443 60.923042 49.082443 58.757977"></path></g></g></g><g id="g-root-tx_3_1uuwe2v1f4cg06-stroke" data-item-order="0" transform="translate(710, 314)"></g><g id="g-root-tx_separarp_4j6lhj1f4cdtv-stroke" data-item-order="0" transform="translate(782, 302)"></g><g id="g-root-tx_4_zisu2v1f3srnm-stroke" data-item-order="0" transform="translate(278, 218)"></g><g id="g-root-ic_mana_mbpk5j1f4b08x-stroke" data-item-order="0" transform="translate(386, 320)"><g id="ic_mana_mbpk5j1f4b08x-stroke" fill="none" stroke-linecap="round" stroke-linejoin="round" stroke-miterlimit="4" stroke="#0284c7" stroke-width="2"><g><path d="M 10 10M 62 66.5C 59.25 66 57.25 63 54.5 62C 53 61.25 52.75 59.5 52.75 57.75C 52.25 56.25 53 54.75 52.75 53.25C 52.25 52 51 51.25 50 50.25C 48.5 49 49 47.25 50 45.5C 50 45.25 50.25 45.25 50.5 45.25C 51.75 44.5 53.5 44.5 54.75 45.5C 56 46.75 57 48.5 58.75 49.5M 54.5 32.5C 56.75 36 60 39.25 64 40.75C 65 42.75 65.5 45 66 47.25C 66.5 49 66.25 51 66 52.75C 65.75 54.5 66.75 55.75 67.75 57C 68 57.25 68.25 57.5 68.5 57.75M 21.25 49.5C 22.25 48 23.75 46.5 25.25 45.5C 26.75 44.75 28.25 44.25 29.5 45.25C 29.75 45.25 30 45.25 30 45.5C 31 47.25 31.75 49.25 30 50.25C 29 51 28.25 52.25 27.25 53.25C 27 54.75 27 56.25 27.25 57.75C 27.75 59.25 27 61 25.5 62C 22.75 62.5 20.75 65.75 18 66.5M 11.5 57.75C 11.5 57.5 12 57.25 12.25 57C 13 55.75 13.75 54.5 14 52.75C 14 51 14.5 49 14 47.25C 13.25 45 14.5 42.25 16 40.5C 18.25 37 21.5 33.75 25.5 32.5M 54.75 45.5C 54.5 37.25 55.5 28.75 54.75 20.5C 54.5 19.5 53.75 18.25 52.75 18.5C 50.25 19.5 47.5 19.5 45.25 18.5C 45.5 15.75 42.75 14.25 40 13.5C 37.25 12.75 36 16 35 18.5C 32.5 18 29.75 18.25 27.25 18.5C 26.25 18.75 25.5 19.5 25.5 20.5C 25 28.75 26.75 37.25 25.5 45.5M 27.25 57.5C 35.75 56 44.25 57.5 52.75 57.5M 30.5 26.5C 33.25 26.25 36 27.25 38.5 26.5M 47.5 26.5C 48.25 26.5 49 26.75 49.75 26.5M 30.5 32.5C 33 33.25 36 33 38.5 32.5M 47.5 32.5C 48.25 32.5 49 32.25 49.75 32.5M 30.5 39.5C 33 40.5 36 39 38.5 39.5M 47.5 39.5C 48.25 39.5 49 39.5 49.75 39.5M 10 10M 62 66.5L 54.4725 62.045002C 53.124844 61.079224 52.445621 59.429699 52.722504 57.794998L 52.722504 53.150002L 49.900002 50.335003C 48.584248 49.018177 48.584248 46.884323 49.900002 45.567501C 50.056782 45.410439 50.22842 45.268944 50.412498 45.145L 50.412502 45.145C 51.74971 44.258568 53.525978 44.43515 54.662498 45.567501L 58.627502 49.535M 54.6175 32.379997L 63.927498 40.630001C 65.314682 42.569912 66.060326 44.895142 66.059998 47.279999L 66.059998 52.824997C 66.057739 54.417465 66.687073 55.945847 67.809998 57.075001L 68.537506 57.800003M 21.372499 49.535L 25.337502 45.567501C 26.474022 44.43515 28.250288 44.258568 29.5875 45.145L 29.5875 45.145C 29.77158 45.268944 29.943214 45.410439 30.1 45.567497C 31.415752 46.884323 31.415752 49.018177 30.1 50.335003L 27.2875 53.150002L 27.2875 57.785C 27.564375 59.419701 26.885159 61.069225 25.5375 62.034996L 18 66.5M 11.455 57.785L 12.1825 57.059998C 13.305428 55.930843 13.934758 54.402466 13.9325 52.809998L 13.9325 47.267498C 13.932169 44.882645 14.677816 42.557415 16.065001 40.6175L 25.3825 32.379997M 54.675003 45.567501L 54.675003 20.5C 54.673618 19.447088 53.820412 18.593878 52.767494 18.592499L 45.139999 18.592501C 45.139999 15.784132 42.863365 13.5075 40.055 13.5075C 37.246632 13.5075 34.970001 15.784132 34.970001 18.592499L 27.345001 18.592501C 26.291517 18.592501 25.4375 19.446518 25.4375 20.5L 25.4375 45.567501M 27.345001 57.592503L 52.767502 57.592503M 30.442501 26.557501L 38.5425 26.557501M 47.467503 26.557501L 49.802498 26.557501M 30.442501 32.392498L 38.5425 32.392498M 47.467503 32.392498L 49.802498 32.392498M 30.442501 39.602501L 38.5425 39.602501M 47.467503 39.602501L 49.802498 39.602501"></path></g></g></g><g id="g-root-tx_identifi_1cy03t31f4cdms-stroke" data-item-order="0" transform="translate(782, 386)"></g><g id="g-root-tx_conferir_1uonn7r1f4b11j-stroke" data-item-order="0" transform="translate(86, 404)"></g><g id="g-root-tx_armazena_v3lpvr1f4ds7j-stroke" data-item-order="0" transform="translate(110, 206)"></g><g id="g-root-tx_2_m9u4w71f4cemi-stroke" data-item-order="0" transform="translate(278, 416)"></g><g id="g-root-ic_3_1hbbpl31f4dv5t-stroke" data-item-order="0" transform="translate(386, 122)"><g id="ic_3_1hbbpl31f4dv5t-stroke" fill="none" stroke-linecap="round" stroke-linejoin="round" stroke-miterlimit="4" stroke="#0284c7" stroke-width="2"><g><path d="M 15 25C 18.25 35.75 14.75 47.5 15 58.75M 65 25C 64.75 36.25 65 47.5 65 58.75M 23.75 51.25C 29 49.75 34.75 52 40 51.25C 38.25 56.75 40.5 63 40 68.75C 34.5 69.25 29 70.5 23.75 68.75C 23 68.5 22.25 68.25 22.5 67.5C 23.75 62.75 21.5 57.5 22.5 52.5C 22.75 51.75 23 51.25 23.75 51.25M 40 51.25C 45.25 50.5 50.75 50.75 56.25 51.25C 57 51.25 57.5 51.75 57.5 52.5C 57.25 57.5 58.75 62.75 57.5 67.5C 57.25 68.25 57 68.75 56.25 68.75C 50.75 68.75 45.5 68.5 40 68.75C 39.5 63 40.5 57 40 51.25M 32.5 33.75C 37.5 33 42.5 33.25 47.5 33.75C 48.25 33.75 48.5 34.25 48.75 35C 50.75 40 49.75 46 48.75 51.25C 43 50.25 36.75 53.25 31.25 51.25C 33 46 31.25 40.5 31.25 35C 31.25 34.25 31.75 33.5 32.5 33.75M 36.25 33.75C 38.75 33.25 41.25 34.25 43.75 33.75C 43.25 35.75 43 38 43.75 40C 44 40.75 43.25 41.25 42.5 41.25C 40.75 41.25 39 41.5 37.5 41.25C 36.75 41 36.5 40.75 36.25 40C 35.75 38 37 35.75 36.25 33.75M 27.5 51.25C 30 51 32.75 50.5 35 51.25C 35.75 53.25 35 55.5 35 57.5C 35 58.25 34.5 58.75 33.75 58.75C 32 58.5 30.5 58.75 28.75 58.75C 28 58.75 27.75 58.25 27.5 57.5C 27 55.5 27.25 53.25 27.5 51.25M 45 51.25C 47.5 51 50 50.75 52.5 51.25C 53.25 53.25 52.75 55.5 52.5 57.5C 52.5 58.25 52 58.5 51.25 58.75C 49.75 59.25 47.75 59.25 46.25 58.75C 45.5 58.5 44.75 58.25 45 57.5C 45.75 55.5 45.5 53.25 45 51.25M 66.25 25C 67 25.25 67.75 24.5 67.5 23.75C 67.25 22.75 67.25 21.75 67.5 21C 67.75 20.5 67.25 20 66.75 19.75C 58.5 15.75 49.25 14.5 40.75 11.5C 40.25 11.25 39.75 11.25 39.25 11.25C 30.25 13.25 21.25 15.5 13.5 19.75C 13 20 12.5 20.5 12.5 21C 12.5 21.75 12.75 23 12.5 23.75C 12.25 24.5 13 24.75 13.75 25C 30.5 30.25 48.75 25 66.25 25M 15 25L 15 58.75M 65 25L 65 58.75M 23.75 51.25L 40 51.25L 40 51.25L 40 68.75L 40 68.75L 23.75 68.75C 23.059643 68.75 22.5 68.190353 22.5 67.5L 22.5 52.5C 22.5 51.809647 23.059643 51.25 23.75 51.25ZM 40 51.25L 56.25 51.25C 56.940353 51.25 57.5 51.809647 57.5 52.5L 57.5 67.5C 57.5 68.190353 56.940353 68.75 56.25 68.75L 40 68.75L 40 68.75L 40 51.25L 40 51.25ZM 32.5 33.75L 47.5 33.75C 48.190353 33.75 48.75 34.309647 48.75 35L 48.75 51.25L 48.75 51.25L 31.25 51.25L 31.25 51.25L 31.25 35C 31.25 34.309647 31.809645 33.75 32.5 33.75ZM 36.25 33.75L 43.75 33.75L 43.75 33.75L 43.75 40C 43.75 40.690353 43.190353 41.25 42.5 41.25L 37.5 41.25C 36.809647 41.25 36.25 40.690353 36.25 40L 36.25 33.75L 36.25 33.75ZM 27.5 51.25L 35 51.25L 35 51.25L 35 57.5C 35 58.190353 34.440353 58.75 33.75 58.75L 28.75 58.75C 28.059643 58.75 27.5 58.190353 27.5 57.5L 27.5 51.25L 27.5 51.25ZM 45 51.25L 52.5 51.25L 52.5 51.25L 52.5 57.5C 52.5 58.190353 51.940353 58.75 51.25 58.75L 46.25 58.75C 45.559647 58.75 45 58.190353 45 57.5L 45 51.25L 45 51.25ZM 66.25 25C 66.940353 25 67.5 24.440357 67.5 23.75L 67.5 20.9C 67.49604 20.367207 67.1548 19.895483 66.650002 19.725L 40.75 11.375C 40.265438 11.199283 39.734562 11.199283 39.25 11.375L 13.375 19.725C 12.85157 19.889601 12.496677 20.376308 12.5 20.924999L 12.5 23.75C 12.5 24.440357 13.059644 25 13.75 25Z"></path></g></g></g><g id="g-root-ic_box_18lxg7b1f440zt-stroke" data-item-order="0" transform="translate(566, 416)"><g id="ic_box_18lxg7b1f440zt-stroke" fill="none" stroke-linecap="round" stroke-linejoin="round" stroke-miterlimit="4" stroke="#0284c7" stroke-width="2"><g><path d="M 36.25 27C 40.5 26.5 42.5 23.25 43.75 19.5C 45.25 15.5 40.25 12.75 36.25 12C 32.25 11 29.25 15.25 28.75 19.5C 28.5 23.5 32.25 26.75 36.25 27M 10 10M 49.25 56.5C 48.25 57 47.5 57.75 46.25 58C 44.75 60 44 63 43 65.5C 42.25 67.75 39.75 68.5 37.25 67.75C 35.5 66.75 34 64.75 34.75 62.75C 34.75 62.5 35.25 62.25 35 62C 35.25 59.5 36.5 57 38 55M 10 10M 46 39.25C 45.5 41.75 42.5 43.5 41.5 46C 39.75 47.25 37.75 47.75 35.5 47.25C 33.25 46.75 32.75 43.25 34.25 41.25C 37 36.75 39.5 32.25 42.5 28.25C 43 27.5 44 27.25 44.75 26.5C 47.75 25.75 50 27.75 50.25 28.75C 51.25 34 56 37.75 57.25 43C 57.5 43.5 57.75 44.25 57.75 45C 58 48.25 59 51.5 57.75 54.5C 59.25 56.75 61 59 62.75 61C 64.5 62.75 63.25 65.25 61.75 67.25C 60 68.25 57.5 68.75 56.25 67C 56.25 66.75 56 66.5 55.75 66.5C 54.25 63.75 51.75 61.5 50 58.75C 49.75 58.25 49.5 57.5 49.25 56.75C 48.75 55.5 49.75 53.75 49.25 52.5M 36.75 47.75C 31 46.75 25 48.5 19.25 47.75C 20.25 42.75 17.75 37.5 19.25 32.75C 26 33.5 33 31.75 39.5 32.75M 36.314003 26.875C 40.456249 26.875 43.814003 23.517124 43.814003 19.375C 43.814003 15.232875 40.456249 11.875 36.314003 11.875C 32.171951 11.875 28.814075 15.232875 28.814075 19.375C 28.814075 23.517124 32.171951 26.875 36.314003 26.875ZM 10 10M 49.296997 56.601501L 46.313751 57.99625L 43.063751 65.496246C 42.063747 67.746246 39.563747 68.746254 37.313751 67.746246C 35.313751 66.996246 34.313702 64.746254 34.813698 62.746246C 34.813698 62.496254 35.063751 62.24625 35.063751 61.99625L 38.063751 54.996254M 10 10M 46.064251 39.225498L 41.564251 45.975498C 40.314251 47.725502 37.564247 48.475498 35.564251 47.225498C 33.564224 45.975498 32.814224 43.225502 34.314224 41.225502L 42.564247 28.225525C 43.064251 27.475525 43.814247 26.9755 44.814251 26.4755C 47.814251 25.4755 49.814251 27.725475 50.314251 28.725475L 57.314247 42.975498C 57.564247 43.475498 57.814251 44.225498 57.814251 44.975502L 57.814251 54.475498L 62.814251 60.975498C 64.314255 62.975502 63.814247 65.725494 61.814251 67.225502C 60.064247 68.475502 57.814251 68.475502 56.314247 66.975494L 55.814251 66.475502L 50.064247 58.725502C 49.564251 58.225498 49.314251 57.475502 49.314251 56.725502L 49.314251 52.475502M 36.813999 47.795502L 19.313974 47.795502L 19.313974 32.795403L 39.609497 32.795403"></path></g></g></g><g id="g-root-tx_verifica_1cy03t31f4b08w-stroke" data-item-order="0" transform="translate(62, 464)"></g><g id="g-root-tx_garantin_144uzwn1f43zly-stroke" data-item-order="0" transform="translate(200, 38)"></g><g id="g-root-tx_1_m9u4w71f4b18m-stroke" data-item-order="0" transform="translate(716, 512)"></g><g id="g-root-tx_verifica_dikg931f43zlz-stroke" data-item-order="0" transform="translate(782, 500)"></g><g id="g-root-tx_examinar_1ut0ytj1f43ym8-stroke" data-item-order="0" transform="translate(782, 560)"></g></g></g></svg>